;TYPE=PLATED
;Layer: PTH_Through
;EasyEDA Pro v3.2.175, 2026-09-02 15:24:44
;Gerber Generator version 0.3
M48
METRIC,LZ,0000.00000
;Hole size 1 = 0.30500 METRIC
T01C0.30500
;Hole size 2 = 0.60000 METRIC
T02C0.60000
;Hole size 3 = 0.80000 METRIC
T03C0.80000
;Hole size 4 = 0.90002 METRIC
T04C0.90002
;Hole size 5 = 1.04999 METRIC
T05C1.04999
;Hole size 6 = 2.00000 METRIC
T06C2.00000
%
G05
G90
T01
X41.02102Y-64.26197
X16.93887Y-62.01488
X28.36884Y-73.44485
X14.90407Y-77.21595
X17.01797Y-78.48604
X24.71705Y-61.92798
T02
X38.73505Y-27.85902G85X38.73505Y-27.25903
X38.73505Y-30.39902G85X38.73505Y-29.79903
X38.73505Y-25.31902G85X38.73505Y-24.71903
X38.73505Y-40.68602G85X38.73505Y-40.08603
X38.73505Y-43.22602G85X38.73505Y-42.62603
X38.73505Y-38.14602G85X38.73505Y-37.54603
X38.73505Y-53.25902G85X38.73505Y-52.65903
X38.73505Y-55.79902G85X38.73505Y-55.19903
X38.73505Y-50.71902G85X38.73505Y-50.11903
T03
X28.956Y-34.233
X28.956Y-23.933
X23.749Y-34.233
X23.749Y-23.933
X28.956Y-36.76
X28.956Y-47.06
X23.749Y-36.76
X23.749Y-47.06
X28.956Y-59.379
X28.956Y-49.079
X23.749Y-49.079
X23.749Y-59.379
T04
X13.63604Y-13.83914G85X13.63604Y-11.63899
X19.63666Y-11.63899G85X19.63666Y-13.83914
X15.28704Y-8.08985G85X16.98681Y-8.08985
T05
X7.6201Y-77.2161
X7.6201Y-74.6761
X7.6201Y-72.1361
X7.6201Y-69.5961
X7.6201Y-67.0561
X7.6201Y-64.5161
X7.6201Y-61.9761
X7.6201Y-59.4361
X7.6201Y-56.8961
X7.6201Y-54.3561
X7.6201Y-51.8161
X7.6201Y-49.2761
X7.6201Y-46.7361
X7.6201Y-44.1961
X7.6201Y-41.6561
X7.6201Y-39.1161
X7.6201Y-36.5761
X7.6201Y-34.0361
X7.6201Y-31.4961
X7.6201Y-28.9561
X7.6201Y-26.4161
X7.6201Y-23.8761
X32.8931Y-77.3431
X32.8931Y-74.8031
X32.8931Y-72.2631
X32.8931Y-69.7231
X32.8931Y-67.1831
X32.8931Y-64.6431
X32.8931Y-62.1031
X32.8931Y-59.5631
X32.8931Y-57.0231
X32.8931Y-54.4831
X32.8931Y-51.9431
X32.8931Y-49.4031
X32.8931Y-46.8631
X32.8931Y-44.3231
X32.8931Y-41.7831
X32.8931Y-39.2431
X32.8931Y-36.7031
X32.8931Y-34.1631
X32.8931Y-31.6231
X32.8931Y-29.0831
X32.8931Y-26.5431
X32.8931Y-24.0031
T06
X40.26507Y-65.80645
X40.26507Y-69.35563
X40.26507Y-72.90482
X40.26507Y-76.454
M30