G04 Layer: BottomLayer*
G04 EasyEDA Pro v3.2.175, 2026-09-02 15:24:44*
G04 Gerber Generator version 0.3*
G04 Scale: 100 percent, Rotated: No, Reflected: No*
G04 Dimensions in millimeters*
G04 Leading zeros omitted, absolute positions, 4 integers and 5 decimals*
G04 Generated by one-click*
G04 Object Configs: Pad,Via,Track,Text,Image,Dimension,BoardOutline,BoardCutout,CopperFilled,SolidRegion,FPCStiffener,Line,PlaneZone,ComponentProperty,ComponentSilkscreen,TearDrop*
G04 Layer Configs: 1,2,3,4,5,6,7,8,9,10,11,13,14,56*
G04 Copper Areas: 29*
%FSLAX45Y45*%
%MOMM*%
%ADD10C,0.2032*%
%ADD11C,0.254*%
%ADD12O,1.5X3.79999*%
%ADD13O,3.39999X1.5*%
%ADD14O,1.0X1.8*%
%ADD15R,1.0088X1.8*%
%ADD16R,1.0X1.8*%
%ADD17C,1.3*%
%ADD18C,1.6*%
%ADD19R,1.6X1.6*%
%ADD20C,2.2*%
%ADD21C,0.61*%
G75*


G04 Copper Start*
G36*
G01X4964186Y-9964186D02*
G01X86360Y-9964186D01*
G01X86360Y-7714315D01*
G01X646415Y-7714315D01*
G01X646987Y-7735198D01*
G01X651301Y-7755638D01*
G01X659217Y-7774971D01*
G01X670476Y-7792567D01*
G01X684714Y-7807854D01*
G01X701466Y-7820335D01*
G01X720188Y-7829603D01*
G01X740270Y-7835357D01*
G01X761060Y-7837410D01*
G01X781879Y-7835695D01*
G01X802052Y-7830268D01*
G01X854694Y-7882909D01*
G01X864741Y-7890619D01*
G01X876442Y-7895465D01*
G01X888998Y-7897118D01*
G01X1656587Y-7897118D01*
G01X1668958Y-7906217D01*
G01X1683090Y-7912225D01*
G01X1698226Y-7914822D01*
G01X1713553Y-7913868D01*
G01X1728249Y-7909414D01*
G01X1741527Y-7901699D01*
G01X1752675Y-7891136D01*
G01X1761093Y-7878293D01*
G01X1766332Y-7863858D01*
G01X1768111Y-7848604D01*
G01X1768111Y-7848604D01*
G01X1766332Y-7833351D01*
G01X1761093Y-7818916D01*
G01X1752675Y-7806072D01*
G01X1741527Y-7795510D01*
G01X1728249Y-7787795D01*
G01X1713553Y-7783341D01*
G01X1698226Y-7782387D01*
G01X1683090Y-7784983D01*
G01X1668958Y-7790992D01*
G01X1656587Y-7800090D01*
G01X909093Y-7800090D01*
G01X870664Y-7761661D01*
G01X876093Y-7741489D01*
G01X877810Y-7720669D01*
G01X875759Y-7699880D01*
G01X870006Y-7679797D01*
G01X860740Y-7661074D01*
G01X848260Y-7644321D01*
G01X832974Y-7630082D01*
G01X815379Y-7618821D01*
G01X796047Y-7610904D01*
G01X775607Y-7606588D01*
G01X754725Y-7606015D01*
G01X734079Y-7609202D01*
G01X714342Y-7616047D01*
G01X696155Y-7626325D01*
G01X680111Y-7639704D01*
G01X666731Y-7655747D01*
G01X656450Y-7673933D01*
G01X649605Y-7693670D01*
G01X646415Y-7714315D01*
G01X86360Y-7714315D01*
G01X86360Y-7467605D01*
G01X646186Y-7467605D01*
G01X648071Y-7488411D01*
G01X653663Y-7508539D01*
G01X662780Y-7527335D01*
G01X675125Y-7544187D01*
G01X690297Y-7558548D01*
G01X707801Y-7569949D01*
G01X727069Y-7578021D01*
G01X747474Y-7582499D01*
G01X768351Y-7583240D01*
G01X789022Y-7580217D01*
G01X808813Y-7573531D01*
G01X827082Y-7563398D01*
G01X843232Y-7550148D01*
G01X856740Y-7534212D01*
G01X867165Y-7516109D01*
G01X1216312Y-7516109D01*
G01X1424134Y-7723931D01*
G01X1426449Y-7739112D01*
G01X1432193Y-7753354D01*
G01X1441059Y-7765893D01*
G01X1452572Y-7776056D01*
G01X1466113Y-7783298D01*
G01X1480957Y-7787232D01*
G01X1496309Y-7787645D01*
G01X1511343Y-7784517D01*
G01X1525255Y-7778014D01*
G01X1537298Y-7768486D01*
G01X1546826Y-7756443D01*
G01X1553329Y-7742531D01*
G01X1556458Y-7727496D01*
G01X1556353Y-7723614D01*
G01X3173980Y-7723614D01*
G01X3173980Y-7744986D01*
G01X3177907Y-7765994D01*
G01X3185628Y-7785923D01*
G01X3196879Y-7804093D01*
G01X3211277Y-7819887D01*
G01X3228332Y-7832767D01*
G01X3247463Y-7842293D01*
G01X3268019Y-7848142D01*
G01X3289300Y-7850114D01*
G01X3310581Y-7848142D01*
G01X3331137Y-7842293D01*
G01X3350268Y-7832767D01*
G01X3367323Y-7819887D01*
G01X3381721Y-7804093D01*
G01X3392972Y-7785923D01*
G01X3400693Y-7765994D01*
G01X3404620Y-7744986D01*
G01X3404620Y-7723614D01*
G01X3400693Y-7702606D01*
G01X3392972Y-7682677D01*
G01X3381721Y-7664507D01*
G01X3367323Y-7648713D01*
G01X3362937Y-7645400D01*
G01X3880693Y-7645400D01*
G01X3882682Y-7669400D01*
G01X3888594Y-7692746D01*
G01X3898267Y-7714800D01*
G01X3911439Y-7734961D01*
G01X3927750Y-7752679D01*
G01X3946754Y-7767471D01*
G01X3967934Y-7778933D01*
G01X3990712Y-7786752D01*
G01X4014466Y-7790716D01*
G01X4038548Y-7790716D01*
G01X4062302Y-7786752D01*
G01X4085080Y-7778933D01*
G01X4106260Y-7767471D01*
G01X4125264Y-7752679D01*
G01X4141575Y-7734961D01*
G01X4154747Y-7714800D01*
G01X4164420Y-7692746D01*
G01X4170332Y-7669400D01*
G01X4172321Y-7645400D01*
G01X4170332Y-7621400D01*
G01X4164420Y-7598054D01*
G01X4154747Y-7576000D01*
G01X4141575Y-7555839D01*
G01X4125264Y-7538121D01*
G01X4106260Y-7523329D01*
G01X4085080Y-7511867D01*
G01X4062302Y-7504048D01*
G01X4038548Y-7500084D01*
G01X4014466Y-7500084D01*
G01X3990712Y-7504048D01*
G01X3967934Y-7511867D01*
G01X3946754Y-7523329D01*
G01X3927750Y-7538121D01*
G01X3911439Y-7555839D01*
G01X3898267Y-7576000D01*
G01X3888594Y-7598054D01*
G01X3882682Y-7621400D01*
G01X3880693Y-7645400D01*
G01X3880693Y-7645400D01*
G01X3362937Y-7645400D01*
G01X3350268Y-7635833D01*
G01X3331137Y-7626307D01*
G01X3310581Y-7620458D01*
G01X3289300Y-7618486D01*
G01X3289300Y-7618486D01*
G01X3268019Y-7620458D01*
G01X3247463Y-7626307D01*
G01X3228332Y-7635833D01*
G01X3211277Y-7648713D01*
G01X3196879Y-7664507D01*
G01X3185628Y-7682677D01*
G01X3177907Y-7702606D01*
G01X3173980Y-7723614D01*
G01X1556353Y-7723614D01*
G01X1556044Y-7712145D01*
G01X1552111Y-7697301D01*
G01X1544868Y-7683759D01*
G01X1534705Y-7672247D01*
G01X1522166Y-7663380D01*
G01X1507925Y-7657636D01*
G01X1492743Y-7655322D01*
G01X1307036Y-7469614D01*
G01X3173980Y-7469614D01*
G01X3173980Y-7490986D01*
G01X3177907Y-7511994D01*
G01X3185628Y-7531923D01*
G01X3196879Y-7550093D01*
G01X3211277Y-7565887D01*
G01X3228332Y-7578767D01*
G01X3247463Y-7588293D01*
G01X3268019Y-7594142D01*
G01X3289300Y-7596114D01*
G01X3310581Y-7594142D01*
G01X3331137Y-7588293D01*
G01X3350268Y-7578767D01*
G01X3367323Y-7565887D01*
G01X3381721Y-7550093D01*
G01X3392972Y-7531923D01*
G01X3400693Y-7511994D01*
G01X3404620Y-7490986D01*
G01X3404620Y-7469614D01*
G01X3400693Y-7448606D01*
G01X3392972Y-7428677D01*
G01X3381721Y-7410507D01*
G01X3367323Y-7394713D01*
G01X3350268Y-7381833D01*
G01X3331137Y-7372307D01*
G01X3310581Y-7366458D01*
G01X3289300Y-7364486D01*
G01X3289300Y-7364486D01*
G01X3268019Y-7366458D01*
G01X3247463Y-7372307D01*
G01X3228332Y-7381833D01*
G01X3211277Y-7394713D01*
G01X3196879Y-7410507D01*
G01X3185628Y-7428677D01*
G01X3177907Y-7448606D01*
G01X3173980Y-7469614D01*
G01X1307036Y-7469614D01*
G01X1270712Y-7433291D01*
G01X1260665Y-7425581D01*
G01X1248964Y-7420734D01*
G01X1236408Y-7419081D01*
G01X867161Y-7419081D01*
G01X867161Y-7419081D01*
G01X856734Y-7400979D01*
G01X843225Y-7385044D01*
G01X827073Y-7371796D01*
G01X808803Y-7361665D01*
G01X789011Y-7354980D01*
G01X768340Y-7351960D01*
G01X747463Y-7352702D01*
G01X727059Y-7357183D01*
G01X707792Y-7365256D01*
G01X690288Y-7376659D01*
G01X675118Y-7391021D01*
G01X662774Y-7407875D01*
G01X653659Y-7426672D01*
G01X648069Y-7446800D01*
G01X646186Y-7467605D01*
G01X86360Y-7467605D01*
G01X86360Y-7202914D01*
G01X646680Y-7202914D01*
G01X646680Y-7224286D01*
G01X650607Y-7245294D01*
G01X658328Y-7265223D01*
G01X669579Y-7283393D01*
G01X683977Y-7299187D01*
G01X701032Y-7312067D01*
G01X720163Y-7321593D01*
G01X740719Y-7327442D01*
G01X762000Y-7329414D01*
G01X783281Y-7327442D01*
G01X803837Y-7321593D01*
G01X822968Y-7312067D01*
G01X840023Y-7299187D01*
G01X854421Y-7283393D01*
G01X865672Y-7265223D01*
G01X873393Y-7245294D01*
G01X877320Y-7224286D01*
G01X877320Y-7202914D01*
G01X873393Y-7181906D01*
G01X865672Y-7161977D01*
G01X854421Y-7143807D01*
G01X840023Y-7128013D01*
G01X822968Y-7115133D01*
G01X803837Y-7105607D01*
G01X783281Y-7099758D01*
G01X762000Y-7097786D01*
G01X762000Y-7097786D01*
G01X740719Y-7099758D01*
G01X720163Y-7105607D01*
G01X701032Y-7115133D01*
G01X683977Y-7128013D01*
G01X669579Y-7143807D01*
G01X658328Y-7161977D01*
G01X650607Y-7181906D01*
G01X646680Y-7202914D01*
G01X86360Y-7202914D01*
G01X86360Y-6948914D01*
G01X646680Y-6948914D01*
G01X646680Y-6970286D01*
G01X650607Y-6991294D01*
G01X658328Y-7011223D01*
G01X669579Y-7029393D01*
G01X683977Y-7045187D01*
G01X701032Y-7058067D01*
G01X720163Y-7067593D01*
G01X740719Y-7073442D01*
G01X762000Y-7075414D01*
G01X783281Y-7073442D01*
G01X803837Y-7067593D01*
G01X822968Y-7058067D01*
G01X840023Y-7045187D01*
G01X854421Y-7029393D01*
G01X865672Y-7011223D01*
G01X873393Y-6991294D01*
G01X877320Y-6970286D01*
G01X877320Y-6948914D01*
G01X873393Y-6927906D01*
G01X865672Y-6907977D01*
G01X854421Y-6889807D01*
G01X840023Y-6874013D01*
G01X822968Y-6861133D01*
G01X803837Y-6851607D01*
G01X783281Y-6845758D01*
G01X762000Y-6843786D01*
G01X762000Y-6843786D01*
G01X740719Y-6845758D01*
G01X720163Y-6851607D01*
G01X701032Y-6861133D01*
G01X683977Y-6874013D01*
G01X669579Y-6889807D01*
G01X658328Y-6907977D01*
G01X650607Y-6927906D01*
G01X646680Y-6948914D01*
G01X86360Y-6948914D01*
G01X86360Y-6694914D01*
G01X646680Y-6694914D01*
G01X646680Y-6716286D01*
G01X650607Y-6737294D01*
G01X658328Y-6757223D01*
G01X669579Y-6775393D01*
G01X683977Y-6791187D01*
G01X701032Y-6804067D01*
G01X720163Y-6813593D01*
G01X740719Y-6819442D01*
G01X762000Y-6821414D01*
G01X783281Y-6819442D01*
G01X803837Y-6813593D01*
G01X822968Y-6804067D01*
G01X840023Y-6791187D01*
G01X854421Y-6775393D01*
G01X865672Y-6757223D01*
G01X873393Y-6737294D01*
G01X877320Y-6716286D01*
G01X877320Y-6694914D01*
G01X873393Y-6673906D01*
G01X865672Y-6653977D01*
G01X854421Y-6635807D01*
G01X840023Y-6620013D01*
G01X822968Y-6607133D01*
G01X803837Y-6597607D01*
G01X783281Y-6591758D01*
G01X762000Y-6589786D01*
G01X762000Y-6589786D01*
G01X740719Y-6591758D01*
G01X720163Y-6597607D01*
G01X701032Y-6607133D01*
G01X683977Y-6620013D01*
G01X669579Y-6635807D01*
G01X658328Y-6653977D01*
G01X650607Y-6673906D01*
G01X646680Y-6694914D01*
G01X86360Y-6694914D01*
G01X86360Y-6440914D01*
G01X646680Y-6440914D01*
G01X646680Y-6462286D01*
G01X650607Y-6483294D01*
G01X658328Y-6503223D01*
G01X669579Y-6521393D01*
G01X683977Y-6537187D01*
G01X701032Y-6550067D01*
G01X720163Y-6559593D01*
G01X740719Y-6565442D01*
G01X762000Y-6567414D01*
G01X783281Y-6565442D01*
G01X803837Y-6559593D01*
G01X822968Y-6550067D01*
G01X840023Y-6537187D01*
G01X854421Y-6521393D01*
G01X865672Y-6503223D01*
G01X873393Y-6483294D01*
G01X877320Y-6462286D01*
G01X877320Y-6440914D01*
G01X873393Y-6419906D01*
G01X865672Y-6399977D01*
G01X854421Y-6381807D01*
G01X840023Y-6366013D01*
G01X822968Y-6353133D01*
G01X803837Y-6343607D01*
G01X783281Y-6337758D01*
G01X762000Y-6335786D01*
G01X762000Y-6335786D01*
G01X740719Y-6337758D01*
G01X720163Y-6343607D01*
G01X701032Y-6353133D01*
G01X683977Y-6366013D01*
G01X669579Y-6381807D01*
G01X658328Y-6399977D01*
G01X650607Y-6419906D01*
G01X646680Y-6440914D01*
G01X86360Y-6440914D01*
G01X86360Y-6186914D01*
G01X646680Y-6186914D01*
G01X646680Y-6208286D01*
G01X650607Y-6229294D01*
G01X658328Y-6249223D01*
G01X669579Y-6267393D01*
G01X683977Y-6283187D01*
G01X701032Y-6296067D01*
G01X720163Y-6305593D01*
G01X740719Y-6311442D01*
G01X762000Y-6313414D01*
G01X783281Y-6311442D01*
G01X803837Y-6305593D01*
G01X822968Y-6296067D01*
G01X840023Y-6283187D01*
G01X854421Y-6267393D01*
G01X865672Y-6249223D01*
G01X873393Y-6229294D01*
G01X877320Y-6208286D01*
G01X877320Y-6186914D01*
G01X873393Y-6165906D01*
G01X865672Y-6145977D01*
G01X854421Y-6127807D01*
G01X840023Y-6112013D01*
G01X822968Y-6099133D01*
G01X803837Y-6089607D01*
G01X783281Y-6083758D01*
G01X762000Y-6081786D01*
G01X762000Y-6081786D01*
G01X740719Y-6083758D01*
G01X720163Y-6089607D01*
G01X701032Y-6099133D01*
G01X683977Y-6112013D01*
G01X669579Y-6127807D01*
G01X658328Y-6145977D01*
G01X650607Y-6165906D01*
G01X646680Y-6186914D01*
G01X86360Y-6186914D01*
G01X86360Y-5932914D01*
G01X646680Y-5932914D01*
G01X646680Y-5954286D01*
G01X650607Y-5975294D01*
G01X658328Y-5995223D01*
G01X669579Y-6013393D01*
G01X683977Y-6029187D01*
G01X701032Y-6042067D01*
G01X720163Y-6051593D01*
G01X740719Y-6057442D01*
G01X762000Y-6059414D01*
G01X783281Y-6057442D01*
G01X803837Y-6051593D01*
G01X822968Y-6042067D01*
G01X840023Y-6029187D01*
G01X854421Y-6013393D01*
G01X865672Y-5995223D01*
G01X873393Y-5975294D01*
G01X877320Y-5954286D01*
G01X877320Y-5932914D01*
G01X873393Y-5911906D01*
G01X865672Y-5891977D01*
G01X854421Y-5873807D01*
G01X840023Y-5858013D01*
G01X822968Y-5845133D01*
G01X803837Y-5835607D01*
G01X783281Y-5829758D01*
G01X762000Y-5827786D01*
G01X762000Y-5827786D01*
G01X740719Y-5829758D01*
G01X720163Y-5835607D01*
G01X701032Y-5845133D01*
G01X683977Y-5858013D01*
G01X669579Y-5873807D01*
G01X658328Y-5891977D01*
G01X650607Y-5911906D01*
G01X646680Y-5932914D01*
G01X86360Y-5932914D01*
G01X86360Y-5678914D01*
G01X646680Y-5678914D01*
G01X646680Y-5700286D01*
G01X650607Y-5721294D01*
G01X658328Y-5741223D01*
G01X669579Y-5759393D01*
G01X683977Y-5775187D01*
G01X701032Y-5788067D01*
G01X720163Y-5797593D01*
G01X740719Y-5803442D01*
G01X762000Y-5805414D01*
G01X783281Y-5803442D01*
G01X803837Y-5797593D01*
G01X822968Y-5788067D01*
G01X840023Y-5775187D01*
G01X854421Y-5759393D01*
G01X865672Y-5741223D01*
G01X873393Y-5721294D01*
G01X877320Y-5700286D01*
G01X877320Y-5678914D01*
G01X873393Y-5657906D01*
G01X865672Y-5637977D01*
G01X854421Y-5619807D01*
G01X840023Y-5604013D01*
G01X822968Y-5591133D01*
G01X803837Y-5581607D01*
G01X783281Y-5575758D01*
G01X762000Y-5573786D01*
G01X762000Y-5573786D01*
G01X740719Y-5575758D01*
G01X720163Y-5581607D01*
G01X701032Y-5591133D01*
G01X683977Y-5604013D01*
G01X669579Y-5619807D01*
G01X658328Y-5637977D01*
G01X650607Y-5657906D01*
G01X646680Y-5678914D01*
G01X86360Y-5678914D01*
G01X86360Y-5424914D01*
G01X646680Y-5424914D01*
G01X646680Y-5446286D01*
G01X650607Y-5467294D01*
G01X658328Y-5487223D01*
G01X669579Y-5505393D01*
G01X683977Y-5521187D01*
G01X701032Y-5534067D01*
G01X720163Y-5543593D01*
G01X740719Y-5549442D01*
G01X762000Y-5551414D01*
G01X783281Y-5549442D01*
G01X803837Y-5543593D01*
G01X822968Y-5534067D01*
G01X840023Y-5521187D01*
G01X854421Y-5505393D01*
G01X865672Y-5487223D01*
G01X873393Y-5467294D01*
G01X877320Y-5446286D01*
G01X877320Y-5424914D01*
G01X873393Y-5403906D01*
G01X865672Y-5383977D01*
G01X854421Y-5365807D01*
G01X840023Y-5350013D01*
G01X822968Y-5337133D01*
G01X803837Y-5327607D01*
G01X783281Y-5321758D01*
G01X762000Y-5319786D01*
G01X762000Y-5319786D01*
G01X740719Y-5321758D01*
G01X720163Y-5327607D01*
G01X701032Y-5337133D01*
G01X683977Y-5350013D01*
G01X669579Y-5365807D01*
G01X658328Y-5383977D01*
G01X650607Y-5403906D01*
G01X646680Y-5424914D01*
G01X86360Y-5424914D01*
G01X86360Y-5170914D01*
G01X646680Y-5170914D01*
G01X646680Y-5192286D01*
G01X650607Y-5213294D01*
G01X658328Y-5233223D01*
G01X669579Y-5251393D01*
G01X683977Y-5267187D01*
G01X701032Y-5280067D01*
G01X720163Y-5289593D01*
G01X740719Y-5295442D01*
G01X762000Y-5297414D01*
G01X783281Y-5295442D01*
G01X803837Y-5289593D01*
G01X822968Y-5280067D01*
G01X840023Y-5267187D01*
G01X854421Y-5251393D01*
G01X865672Y-5233223D01*
G01X873393Y-5213294D01*
G01X877320Y-5192286D01*
G01X877320Y-5170914D01*
G01X873393Y-5149906D01*
G01X865672Y-5129977D01*
G01X854421Y-5111807D01*
G01X840023Y-5096013D01*
G01X822968Y-5083133D01*
G01X803837Y-5073607D01*
G01X783281Y-5067758D01*
G01X762000Y-5065786D01*
G01X762000Y-5065786D01*
G01X740719Y-5067758D01*
G01X720163Y-5073607D01*
G01X701032Y-5083133D01*
G01X683977Y-5096013D01*
G01X669579Y-5111807D01*
G01X658328Y-5129977D01*
G01X650607Y-5149906D01*
G01X646680Y-5170914D01*
G01X86360Y-5170914D01*
G01X86360Y-4916914D01*
G01X646680Y-4916914D01*
G01X646680Y-4938286D01*
G01X650607Y-4959294D01*
G01X658328Y-4979223D01*
G01X669579Y-4997393D01*
G01X683977Y-5013187D01*
G01X701032Y-5026067D01*
G01X720163Y-5035593D01*
G01X740719Y-5041442D01*
G01X762000Y-5043414D01*
G01X783281Y-5041442D01*
G01X803837Y-5035593D01*
G01X822968Y-5026067D01*
G01X840023Y-5013187D01*
G01X854421Y-4997393D01*
G01X865672Y-4979223D01*
G01X873393Y-4959294D01*
G01X877320Y-4938286D01*
G01X877320Y-4916914D01*
G01X873393Y-4895906D01*
G01X865672Y-4875977D01*
G01X854421Y-4857807D01*
G01X840023Y-4842013D01*
G01X822968Y-4829133D01*
G01X803837Y-4819607D01*
G01X783281Y-4813758D01*
G01X762000Y-4811786D01*
G01X762000Y-4811786D01*
G01X740719Y-4813758D01*
G01X720163Y-4819607D01*
G01X701032Y-4829133D01*
G01X683977Y-4842013D01*
G01X669579Y-4857807D01*
G01X658328Y-4875977D01*
G01X650607Y-4895906D01*
G01X646680Y-4916914D01*
G01X86360Y-4916914D01*
G01X86360Y-4662914D01*
G01X646680Y-4662914D01*
G01X646680Y-4684286D01*
G01X650607Y-4705294D01*
G01X658328Y-4725223D01*
G01X669579Y-4743393D01*
G01X683977Y-4759187D01*
G01X701032Y-4772067D01*
G01X720163Y-4781593D01*
G01X740719Y-4787442D01*
G01X762000Y-4789414D01*
G01X783281Y-4787442D01*
G01X803837Y-4781593D01*
G01X822968Y-4772067D01*
G01X840023Y-4759187D01*
G01X854421Y-4743393D01*
G01X865672Y-4725223D01*
G01X873393Y-4705294D01*
G01X877320Y-4684286D01*
G01X877320Y-4662914D01*
G01X873393Y-4641906D01*
G01X865672Y-4621977D01*
G01X854421Y-4603807D01*
G01X840023Y-4588013D01*
G01X822968Y-4575133D01*
G01X803837Y-4565607D01*
G01X783281Y-4559758D01*
G01X762000Y-4557786D01*
G01X762000Y-4557786D01*
G01X740719Y-4559758D01*
G01X720163Y-4565607D01*
G01X701032Y-4575133D01*
G01X683977Y-4588013D01*
G01X669579Y-4603807D01*
G01X658328Y-4621977D01*
G01X650607Y-4641906D01*
G01X646680Y-4662914D01*
G01X86360Y-4662914D01*
G01X86360Y-4408914D01*
G01X646680Y-4408914D01*
G01X646680Y-4430286D01*
G01X650607Y-4451294D01*
G01X658328Y-4471223D01*
G01X669579Y-4489393D01*
G01X683977Y-4505187D01*
G01X701032Y-4518067D01*
G01X720163Y-4527593D01*
G01X740719Y-4533442D01*
G01X762000Y-4535414D01*
G01X783281Y-4533442D01*
G01X803837Y-4527593D01*
G01X822968Y-4518067D01*
G01X840023Y-4505187D01*
G01X854421Y-4489393D01*
G01X865672Y-4471223D01*
G01X873393Y-4451294D01*
G01X877320Y-4430286D01*
G01X877320Y-4408914D01*
G01X873393Y-4387906D01*
G01X865672Y-4367977D01*
G01X854421Y-4349807D01*
G01X840023Y-4334013D01*
G01X822968Y-4321133D01*
G01X803837Y-4311607D01*
G01X783281Y-4305758D01*
G01X762000Y-4303786D01*
G01X762000Y-4303786D01*
G01X740719Y-4305758D01*
G01X720163Y-4311607D01*
G01X701032Y-4321133D01*
G01X683977Y-4334013D01*
G01X669579Y-4349807D01*
G01X658328Y-4367977D01*
G01X650607Y-4387906D01*
G01X646680Y-4408914D01*
G01X86360Y-4408914D01*
G01X86360Y-4154914D01*
G01X646680Y-4154914D01*
G01X646680Y-4176286D01*
G01X650607Y-4197294D01*
G01X658328Y-4217223D01*
G01X669579Y-4235393D01*
G01X683977Y-4251187D01*
G01X701032Y-4264067D01*
G01X720163Y-4273593D01*
G01X740719Y-4279442D01*
G01X762000Y-4281414D01*
G01X783281Y-4279442D01*
G01X803837Y-4273593D01*
G01X822968Y-4264067D01*
G01X840023Y-4251187D01*
G01X854421Y-4235393D01*
G01X865672Y-4217223D01*
G01X873393Y-4197294D01*
G01X877320Y-4176286D01*
G01X877320Y-4154914D01*
G01X873393Y-4133906D01*
G01X865672Y-4113977D01*
G01X854421Y-4095807D01*
G01X840023Y-4080013D01*
G01X822968Y-4067133D01*
G01X803837Y-4057607D01*
G01X783281Y-4051758D01*
G01X762000Y-4049786D01*
G01X762000Y-4049786D01*
G01X740719Y-4051758D01*
G01X720163Y-4057607D01*
G01X701032Y-4067133D01*
G01X683977Y-4080013D01*
G01X669579Y-4095807D01*
G01X658328Y-4113977D01*
G01X650607Y-4133906D01*
G01X646680Y-4154914D01*
G01X86360Y-4154914D01*
G01X86360Y-3900914D01*
G01X646680Y-3900914D01*
G01X646680Y-3922286D01*
G01X650607Y-3943294D01*
G01X658328Y-3963223D01*
G01X669579Y-3981393D01*
G01X683977Y-3997187D01*
G01X701032Y-4010067D01*
G01X720163Y-4019593D01*
G01X740719Y-4025442D01*
G01X762000Y-4027414D01*
G01X783281Y-4025442D01*
G01X803837Y-4019593D01*
G01X822968Y-4010067D01*
G01X840023Y-3997187D01*
G01X854421Y-3981393D01*
G01X865672Y-3963223D01*
G01X873393Y-3943294D01*
G01X877320Y-3922286D01*
G01X877320Y-3900914D01*
G01X873393Y-3879906D01*
G01X865672Y-3859977D01*
G01X854421Y-3841807D01*
G01X840023Y-3826013D01*
G01X822968Y-3813133D01*
G01X803837Y-3803607D01*
G01X783281Y-3797758D01*
G01X762000Y-3795786D01*
G01X762000Y-3795786D01*
G01X740719Y-3797758D01*
G01X720163Y-3803607D01*
G01X701032Y-3813133D01*
G01X683977Y-3826013D01*
G01X669579Y-3841807D01*
G01X658328Y-3859977D01*
G01X650607Y-3879906D01*
G01X646680Y-3900914D01*
G01X86360Y-3900914D01*
G01X86360Y-3646914D01*
G01X646680Y-3646914D01*
G01X646680Y-3668286D01*
G01X650607Y-3689294D01*
G01X658328Y-3709223D01*
G01X669579Y-3727393D01*
G01X683977Y-3743187D01*
G01X701032Y-3756067D01*
G01X720163Y-3765593D01*
G01X740719Y-3771442D01*
G01X762000Y-3773414D01*
G01X783281Y-3771442D01*
G01X803837Y-3765593D01*
G01X822968Y-3756067D01*
G01X840023Y-3743187D01*
G01X854421Y-3727393D01*
G01X865672Y-3709223D01*
G01X873393Y-3689294D01*
G01X877320Y-3668286D01*
G01X877320Y-3646914D01*
G01X873393Y-3625906D01*
G01X865672Y-3605977D01*
G01X854421Y-3587807D01*
G01X840023Y-3572013D01*
G01X822968Y-3559133D01*
G01X803837Y-3549607D01*
G01X783281Y-3543758D01*
G01X762000Y-3541786D01*
G01X762000Y-3541786D01*
G01X740719Y-3543758D01*
G01X720163Y-3549607D01*
G01X701032Y-3559133D01*
G01X683977Y-3572013D01*
G01X669579Y-3587807D01*
G01X658328Y-3605977D01*
G01X650607Y-3625906D01*
G01X646680Y-3646914D01*
G01X86360Y-3646914D01*
G01X86360Y-3392914D01*
G01X646680Y-3392914D01*
G01X646680Y-3414286D01*
G01X650607Y-3435294D01*
G01X658328Y-3455223D01*
G01X669579Y-3473393D01*
G01X683977Y-3489187D01*
G01X701032Y-3502067D01*
G01X720163Y-3511593D01*
G01X740719Y-3517442D01*
G01X762000Y-3519414D01*
G01X783281Y-3517442D01*
G01X803837Y-3511593D01*
G01X822968Y-3502067D01*
G01X840023Y-3489187D01*
G01X854421Y-3473393D01*
G01X865672Y-3455223D01*
G01X873393Y-3435294D01*
G01X877320Y-3414286D01*
G01X877320Y-3392914D01*
G01X873393Y-3371906D01*
G01X865672Y-3351977D01*
G01X854421Y-3333807D01*
G01X840023Y-3318013D01*
G01X822968Y-3305133D01*
G01X803837Y-3295607D01*
G01X783281Y-3289758D01*
G01X762000Y-3287786D01*
G01X762000Y-3287786D01*
G01X740719Y-3289758D01*
G01X720163Y-3295607D01*
G01X701032Y-3305133D01*
G01X683977Y-3318013D01*
G01X669579Y-3333807D01*
G01X658328Y-3351977D01*
G01X650607Y-3371906D01*
G01X646680Y-3392914D01*
G01X86360Y-3392914D01*
G01X86360Y-3138914D01*
G01X646680Y-3138914D01*
G01X646680Y-3160286D01*
G01X650607Y-3181294D01*
G01X658328Y-3201223D01*
G01X669579Y-3219393D01*
G01X683977Y-3235187D01*
G01X701032Y-3248067D01*
G01X720163Y-3257593D01*
G01X740719Y-3263442D01*
G01X762000Y-3265414D01*
G01X783281Y-3263442D01*
G01X803837Y-3257593D01*
G01X822968Y-3248067D01*
G01X840023Y-3235187D01*
G01X854421Y-3219393D01*
G01X865672Y-3201223D01*
G01X873393Y-3181294D01*
G01X877320Y-3160286D01*
G01X877320Y-3138914D01*
G01X873393Y-3117906D01*
G01X865672Y-3097977D01*
G01X854421Y-3079807D01*
G01X840023Y-3064013D01*
G01X822968Y-3051133D01*
G01X803837Y-3041607D01*
G01X783281Y-3035758D01*
G01X762000Y-3033786D01*
G01X762000Y-3033786D01*
G01X740719Y-3035758D01*
G01X720163Y-3041607D01*
G01X701032Y-3051133D01*
G01X683977Y-3064013D01*
G01X669579Y-3079807D01*
G01X658328Y-3097977D01*
G01X650607Y-3117906D01*
G01X646680Y-3138914D01*
G01X86360Y-3138914D01*
G01X86360Y-2884914D01*
G01X646680Y-2884914D01*
G01X646680Y-2906286D01*
G01X650607Y-2927294D01*
G01X658328Y-2947223D01*
G01X669579Y-2965393D01*
G01X683977Y-2981187D01*
G01X701032Y-2994067D01*
G01X720163Y-3003593D01*
G01X740719Y-3009442D01*
G01X762000Y-3011414D01*
G01X783281Y-3009442D01*
G01X803837Y-3003593D01*
G01X822968Y-2994067D01*
G01X840023Y-2981187D01*
G01X854421Y-2965393D01*
G01X865672Y-2947223D01*
G01X873393Y-2927294D01*
G01X877320Y-2906286D01*
G01X877320Y-2884914D01*
G01X873393Y-2863906D01*
G01X865672Y-2843977D01*
G01X854421Y-2825807D01*
G01X840023Y-2810013D01*
G01X822968Y-2797133D01*
G01X803837Y-2787607D01*
G01X783281Y-2781758D01*
G01X762000Y-2779786D01*
G01X762000Y-2779786D01*
G01X740719Y-2781758D01*
G01X720163Y-2787607D01*
G01X701032Y-2797133D01*
G01X683977Y-2810013D01*
G01X669579Y-2825807D01*
G01X658328Y-2843977D01*
G01X650607Y-2863906D01*
G01X646680Y-2884914D01*
G01X86360Y-2884914D01*
G01X86360Y-2630914D01*
G01X646680Y-2630914D01*
G01X646680Y-2652286D01*
G01X650607Y-2673294D01*
G01X658328Y-2693223D01*
G01X669579Y-2711393D01*
G01X683977Y-2727187D01*
G01X701032Y-2740067D01*
G01X720163Y-2749593D01*
G01X740719Y-2755442D01*
G01X762000Y-2757414D01*
G01X783281Y-2755442D01*
G01X803837Y-2749593D01*
G01X822968Y-2740067D01*
G01X840023Y-2727187D01*
G01X854421Y-2711393D01*
G01X865672Y-2693223D01*
G01X873393Y-2673294D01*
G01X877320Y-2652286D01*
G01X877320Y-2630914D01*
G01X873393Y-2609906D01*
G01X865672Y-2589977D01*
G01X854421Y-2571807D01*
G01X840023Y-2556013D01*
G01X822968Y-2543133D01*
G01X803837Y-2533607D01*
G01X783281Y-2527758D01*
G01X762000Y-2525786D01*
G01X762000Y-2525786D01*
G01X740719Y-2527758D01*
G01X720163Y-2533607D01*
G01X701032Y-2543133D01*
G01X683977Y-2556013D01*
G01X669579Y-2571807D01*
G01X658328Y-2589977D01*
G01X650607Y-2609906D01*
G01X646680Y-2630914D01*
G01X86360Y-2630914D01*
G01X86360Y-2307600D01*
G01X646186Y-2307600D01*
G01X646186Y-2467600D01*
G01X646186Y-2467600D01*
G01X647939Y-2478667D01*
G01X653026Y-2488651D01*
G01X660949Y-2496574D01*
G01X670933Y-2501661D01*
G01X682000Y-2503414D01*
G01X842000Y-2503414D01*
G01X853067Y-2501661D01*
G01X863051Y-2496574D01*
G01X870974Y-2488651D01*
G01X876061Y-2478667D01*
G01X877814Y-2467600D01*
G01X877814Y-2307600D01*
G01X876061Y-2296533D01*
G01X870974Y-2286549D01*
G01X863051Y-2278626D01*
G01X853067Y-2273539D01*
G01X842000Y-2271786D01*
G01X682000Y-2271786D01*
G01X670933Y-2273539D01*
G01X660949Y-2278626D01*
G01X653026Y-2286549D01*
G01X647939Y-2296533D01*
G01X646186Y-2307600D01*
G01X86360Y-2307600D01*
G01X86360Y-1158899D01*
G01X1252874Y-1158899D01*
G01X1252874Y-1388899D01*
G01X1254791Y-1409421D01*
G01X1260476Y-1429234D01*
G01X1269731Y-1447651D01*
G01X1282237Y-1464035D01*
G01X1297561Y-1477820D01*
G01X1315173Y-1488528D01*
G01X1315173Y-5871288D01*
G01X1316826Y-5883845D01*
G01X1321673Y-5895545D01*
G01X1329383Y-5905593D01*
G01X1627614Y-6203824D01*
G01X1627614Y-6203824D01*
G01X1629627Y-6217866D01*
G01X1634581Y-6231159D01*
G01X1642249Y-6243094D01*
G01X1652280Y-6253125D01*
G01X1664215Y-6260793D01*
G01X1677508Y-6265747D01*
G01X1691550Y-6267760D01*
G01X2770612Y-7346822D01*
G01X2772926Y-7362003D01*
G01X2778670Y-7376245D01*
G01X2787536Y-7388783D01*
G01X2799049Y-7398946D01*
G01X2812590Y-7406189D01*
G01X2827435Y-7410123D01*
G01X2842786Y-7410536D01*
G01X2857820Y-7407408D01*
G01X2871732Y-7400905D01*
G01X2883775Y-7391376D01*
G01X2893304Y-7379333D01*
G01X2899807Y-7365421D01*
G01X2902935Y-7350387D01*
G01X2902522Y-7335036D01*
G01X2898588Y-7320191D01*
G01X2891346Y-7306650D01*
G01X2881182Y-7295137D01*
G01X2868644Y-7286271D01*
G01X2854402Y-7280527D01*
G01X2839221Y-7278213D01*
G01X2776622Y-7215614D01*
G01X3173980Y-7215614D01*
G01X3173980Y-7236986D01*
G01X3177907Y-7257994D01*
G01X3185628Y-7277923D01*
G01X3196879Y-7296093D01*
G01X3211277Y-7311887D01*
G01X3228332Y-7324767D01*
G01X3247463Y-7334293D01*
G01X3268019Y-7340142D01*
G01X3289300Y-7342114D01*
G01X3310581Y-7340142D01*
G01X3331137Y-7334293D01*
G01X3350268Y-7324767D01*
G01X3367323Y-7311887D01*
G01X3381721Y-7296093D01*
G01X3385196Y-7290482D01*
G01X3880693Y-7290482D01*
G01X3882682Y-7314482D01*
G01X3888594Y-7337827D01*
G01X3898267Y-7359881D01*
G01X3911439Y-7380042D01*
G01X3927750Y-7397761D01*
G01X3946754Y-7412552D01*
G01X3967934Y-7424014D01*
G01X3990712Y-7431834D01*
G01X4014466Y-7435798D01*
G01X4038548Y-7435798D01*
G01X4062302Y-7431834D01*
G01X4085080Y-7424014D01*
G01X4106260Y-7412552D01*
G01X4125264Y-7397761D01*
G01X4141575Y-7380042D01*
G01X4154747Y-7359881D01*
G01X4164420Y-7337827D01*
G01X4170332Y-7314482D01*
G01X4172321Y-7290482D01*
G01X4170332Y-7266481D01*
G01X4164420Y-7243136D01*
G01X4154747Y-7221082D01*
G01X4141575Y-7200921D01*
G01X4125264Y-7183203D01*
G01X4106260Y-7168411D01*
G01X4085080Y-7156949D01*
G01X4062302Y-7149129D01*
G01X4038548Y-7145166D01*
G01X4014466Y-7145166D01*
G01X3990712Y-7149129D01*
G01X3967934Y-7156949D01*
G01X3946754Y-7168411D01*
G01X3927750Y-7183203D01*
G01X3911439Y-7200921D01*
G01X3898267Y-7221082D01*
G01X3888594Y-7243136D01*
G01X3882682Y-7266481D01*
G01X3880693Y-7290482D01*
G01X3880693Y-7290482D01*
G01X3385196Y-7290482D01*
G01X3392972Y-7277923D01*
G01X3400693Y-7257994D01*
G01X3404620Y-7236986D01*
G01X3404620Y-7215614D01*
G01X3400693Y-7194606D01*
G01X3392972Y-7174677D01*
G01X3381721Y-7156507D01*
G01X3367323Y-7140713D01*
G01X3350268Y-7127833D01*
G01X3331137Y-7118307D01*
G01X3310581Y-7112458D01*
G01X3289300Y-7110486D01*
G01X3289300Y-7110486D01*
G01X3268019Y-7112458D01*
G01X3247463Y-7118307D01*
G01X3228332Y-7127833D01*
G01X3211277Y-7140713D01*
G01X3196879Y-7156507D01*
G01X3185628Y-7174677D01*
G01X3177907Y-7194606D01*
G01X3173980Y-7215614D01*
G01X2776622Y-7215614D01*
G01X2522622Y-6961614D01*
G01X3173980Y-6961614D01*
G01X3173980Y-6982986D01*
G01X3177907Y-7003994D01*
G01X3185628Y-7023923D01*
G01X3196879Y-7042093D01*
G01X3211277Y-7057887D01*
G01X3228332Y-7070767D01*
G01X3247463Y-7080293D01*
G01X3268019Y-7086142D01*
G01X3289300Y-7088114D01*
G01X3310581Y-7086142D01*
G01X3331137Y-7080293D01*
G01X3350268Y-7070767D01*
G01X3367323Y-7057887D01*
G01X3381721Y-7042093D01*
G01X3392972Y-7023923D01*
G01X3400693Y-7003994D01*
G01X3404620Y-6982986D01*
G01X3404620Y-6961614D01*
G01X3400693Y-6940606D01*
G01X3398739Y-6935563D01*
G01X3880693Y-6935563D01*
G01X3882682Y-6959564D01*
G01X3888594Y-6982909D01*
G01X3898267Y-7004963D01*
G01X3911439Y-7025124D01*
G01X3927750Y-7042842D01*
G01X3946754Y-7057634D01*
G01X3967934Y-7069096D01*
G01X3990712Y-7076915D01*
G01X4014466Y-7080879D01*
G01X4038548Y-7080879D01*
G01X4062302Y-7076915D01*
G01X4085080Y-7069096D01*
G01X4106260Y-7057634D01*
G01X4125264Y-7042842D01*
G01X4141575Y-7025124D01*
G01X4154747Y-7004963D01*
G01X4164420Y-6982909D01*
G01X4170332Y-6959564D01*
G01X4172321Y-6935563D01*
G01X4170332Y-6911563D01*
G01X4164420Y-6888218D01*
G01X4154747Y-6866164D01*
G01X4141575Y-6846002D01*
G01X4125264Y-6828284D01*
G01X4106260Y-6813493D01*
G01X4085080Y-6802031D01*
G01X4062302Y-6794211D01*
G01X4038548Y-6790247D01*
G01X4014466Y-6790247D01*
G01X3990712Y-6794211D01*
G01X3967934Y-6802031D01*
G01X3946754Y-6813493D01*
G01X3927750Y-6828284D01*
G01X3911439Y-6846002D01*
G01X3898267Y-6866164D01*
G01X3888594Y-6888218D01*
G01X3882682Y-6911563D01*
G01X3880693Y-6935563D01*
G01X3880693Y-6935563D01*
G01X3398739Y-6935563D01*
G01X3392972Y-6920677D01*
G01X3381721Y-6902507D01*
G01X3367323Y-6886713D01*
G01X3350268Y-6873833D01*
G01X3331137Y-6864307D01*
G01X3310581Y-6858458D01*
G01X3289300Y-6856486D01*
G01X3289300Y-6856486D01*
G01X3268019Y-6858458D01*
G01X3247463Y-6864307D01*
G01X3228332Y-6873833D01*
G01X3211277Y-6886713D01*
G01X3196879Y-6902507D01*
G01X3185628Y-6920677D01*
G01X3177907Y-6940606D01*
G01X3173980Y-6961614D01*
G01X2522622Y-6961614D01*
G01X2268622Y-6707614D01*
G01X3173980Y-6707614D01*
G01X3173980Y-6728986D01*
G01X3177907Y-6749994D01*
G01X3185628Y-6769923D01*
G01X3196879Y-6788093D01*
G01X3211277Y-6803887D01*
G01X3228332Y-6816767D01*
G01X3247463Y-6826293D01*
G01X3268019Y-6832142D01*
G01X3289300Y-6834114D01*
G01X3310581Y-6832142D01*
G01X3331137Y-6826293D01*
G01X3350268Y-6816767D01*
G01X3367323Y-6803887D01*
G01X3381721Y-6788093D01*
G01X3392972Y-6769923D01*
G01X3400693Y-6749994D01*
G01X3404620Y-6728986D01*
G01X3404620Y-6707614D01*
G01X3400693Y-6686606D01*
G01X3392972Y-6666677D01*
G01X3381721Y-6648507D01*
G01X3367323Y-6632713D01*
G01X3350268Y-6619833D01*
G01X3331137Y-6610307D01*
G01X3310581Y-6604458D01*
G01X3289300Y-6602486D01*
G01X3289300Y-6602486D01*
G01X3268019Y-6604458D01*
G01X3247463Y-6610307D01*
G01X3228332Y-6619833D01*
G01X3211277Y-6632713D01*
G01X3196879Y-6648507D01*
G01X3185628Y-6666677D01*
G01X3177907Y-6686606D01*
G01X3173980Y-6707614D01*
G01X2268622Y-6707614D01*
G01X2014622Y-6453614D01*
G01X3173980Y-6453614D01*
G01X3173980Y-6474986D01*
G01X3177907Y-6495994D01*
G01X3185628Y-6515923D01*
G01X3196879Y-6534093D01*
G01X3211277Y-6549887D01*
G01X3228332Y-6562767D01*
G01X3247463Y-6572293D01*
G01X3268019Y-6578142D01*
G01X3289300Y-6580114D01*
G01X3310581Y-6578142D01*
G01X3331137Y-6572293D01*
G01X3350268Y-6562767D01*
G01X3367323Y-6549887D01*
G01X3381721Y-6534093D01*
G01X3392972Y-6515923D01*
G01X3400693Y-6495994D01*
G01X3404620Y-6474986D01*
G01X3404620Y-6453614D01*
G01X3400693Y-6432606D01*
G01X3392972Y-6412677D01*
G01X3381721Y-6394507D01*
G01X3367323Y-6378713D01*
G01X3350268Y-6365833D01*
G01X3331137Y-6356307D01*
G01X3310581Y-6350458D01*
G01X3289300Y-6348486D01*
G01X3289300Y-6348486D01*
G01X3268019Y-6350458D01*
G01X3247463Y-6356307D01*
G01X3228332Y-6365833D01*
G01X3211277Y-6378713D01*
G01X3196879Y-6394507D01*
G01X3185628Y-6412677D01*
G01X3177907Y-6432606D01*
G01X3173980Y-6453614D01*
G01X2014622Y-6453614D01*
G01X1760159Y-6199151D01*
G01X1758146Y-6185109D01*
G01X1753192Y-6171816D01*
G01X1745524Y-6159881D01*
G01X1735493Y-6149850D01*
G01X1723558Y-6142182D01*
G01X1710265Y-6137228D01*
G01X1696223Y-6135215D01*
G01X1412201Y-5851193D01*
G01X1412201Y-1488529D01*
G01X1429814Y-1477821D01*
G01X1445138Y-1464036D01*
G01X1457644Y-1447651D01*
G01X1466900Y-1429234D01*
G01X1472585Y-1409421D01*
G01X1474502Y-1388899D01*
G01X1474502Y-1158899D01*
G01X1852898Y-1158899D01*
G01X1852898Y-1388899D01*
G01X1854815Y-1409420D01*
G01X1860499Y-1429232D01*
G01X1869754Y-1447648D01*
G01X1882259Y-1464032D01*
G01X1897581Y-1477817D01*
G01X1915192Y-1488526D01*
G01X1915192Y-5684799D01*
G01X1916845Y-5697355D01*
G01X1921692Y-5709056D01*
G01X1929402Y-5719103D01*
G01X2405432Y-6195134D01*
G01X2405432Y-6195134D01*
G01X2407747Y-6210315D01*
G01X2413491Y-6224557D01*
G01X2422357Y-6237096D01*
G01X2433870Y-6247259D01*
G01X2447411Y-6254501D01*
G01X2462255Y-6258435D01*
G01X2477607Y-6258848D01*
G01X2492641Y-6255720D01*
G01X2506553Y-6249217D01*
G01X2518596Y-6239689D01*
G01X2528125Y-6227646D01*
G01X2534627Y-6213734D01*
G01X2537565Y-6199614D01*
G01X3173980Y-6199614D01*
G01X3173980Y-6220986D01*
G01X3177907Y-6241994D01*
G01X3185628Y-6261923D01*
G01X3196879Y-6280093D01*
G01X3211277Y-6295887D01*
G01X3228332Y-6308767D01*
G01X3247463Y-6318293D01*
G01X3268019Y-6324142D01*
G01X3289300Y-6326114D01*
G01X3310581Y-6324142D01*
G01X3331137Y-6318293D01*
G01X3350268Y-6308767D01*
G01X3367323Y-6295887D01*
G01X3381721Y-6280093D01*
G01X3392972Y-6261923D01*
G01X3400693Y-6241994D01*
G01X3404620Y-6220986D01*
G01X3404620Y-6199614D01*
G01X3400693Y-6178606D01*
G01X3392972Y-6158677D01*
G01X3381721Y-6140507D01*
G01X3367323Y-6124713D01*
G01X3350268Y-6111833D01*
G01X3331137Y-6102307D01*
G01X3310581Y-6096458D01*
G01X3289300Y-6094486D01*
G01X3289300Y-6094486D01*
G01X3268019Y-6096458D01*
G01X3247463Y-6102307D01*
G01X3228332Y-6111833D01*
G01X3211277Y-6124713D01*
G01X3196879Y-6140507D01*
G01X3185628Y-6158677D01*
G01X3177907Y-6178606D01*
G01X3173980Y-6199614D01*
G01X2537565Y-6199614D01*
G01X2537756Y-6198699D01*
G01X2537342Y-6183348D01*
G01X2533409Y-6168504D01*
G01X2526166Y-6154962D01*
G01X2516003Y-6143450D01*
G01X2503464Y-6134584D01*
G01X2489223Y-6128839D01*
G01X2474041Y-6126525D01*
G01X2385664Y-6038148D01*
G01X2404154Y-6034386D01*
G01X2421619Y-6027246D01*
G01X2437447Y-6016975D01*
G01X2451085Y-6003936D01*
G01X2462053Y-5988583D01*
G01X2469969Y-5971455D01*
G01X2474555Y-5953153D01*
G01X2475650Y-5934316D01*
G01X2473215Y-5915605D01*
G01X2467337Y-5897676D01*
G01X2458221Y-5881156D01*
G01X2446186Y-5866624D01*
G01X2431654Y-5854589D01*
G01X2415134Y-5845473D01*
G01X2397205Y-5839595D01*
G01X2378494Y-5837161D01*
G01X2359658Y-5838255D01*
G01X2341355Y-5842841D01*
G01X2324227Y-5850757D01*
G01X2308875Y-5861726D01*
G01X2295835Y-5875363D01*
G01X2285565Y-5891191D01*
G01X2278424Y-5908656D01*
G01X2274662Y-5927146D01*
G01X2012220Y-5664703D01*
G01X2012220Y-4904736D01*
G01X2274135Y-4904736D01*
G01X2275330Y-4923678D01*
G01X2280054Y-4942060D01*
G01X2288139Y-4959231D01*
G01X2299299Y-4974582D01*
G01X2313138Y-4987570D01*
G01X2329166Y-4997733D01*
G01X2346816Y-5004713D01*
G01X2365460Y-5008261D01*
G01X2384440Y-5008251D01*
G01X2403081Y-5004685D01*
G01X2847090Y-5448694D01*
G01X2847090Y-5849535D01*
G01X2831386Y-5860193D01*
G01X2817958Y-5873605D01*
G01X2807282Y-5889297D01*
G01X2799735Y-5906711D01*
G01X2795587Y-5925231D01*
G01X2794983Y-5944201D01*
G01X2797945Y-5962948D01*
G01X2804368Y-5980807D01*
G01X2814024Y-5997146D01*
G01X2826572Y-6011385D01*
G01X2841566Y-6023021D01*
G01X2858475Y-6031640D01*
G01X2876700Y-6036937D01*
G01X2895595Y-6038724D01*
G01X2914490Y-6036939D01*
G01X2932716Y-6031643D01*
G01X2949626Y-6023026D01*
G01X2964621Y-6011392D01*
G01X2977170Y-5997154D01*
G01X2986828Y-5980816D01*
G01X2993253Y-5962957D01*
G01X2995995Y-5945614D01*
G01X3173980Y-5945614D01*
G01X3173980Y-5966986D01*
G01X3177907Y-5987994D01*
G01X3185628Y-6007923D01*
G01X3196879Y-6026093D01*
G01X3211277Y-6041887D01*
G01X3228332Y-6054767D01*
G01X3247463Y-6064293D01*
G01X3268019Y-6070142D01*
G01X3289300Y-6072114D01*
G01X3310581Y-6070142D01*
G01X3331137Y-6064293D01*
G01X3350268Y-6054767D01*
G01X3367323Y-6041887D01*
G01X3381721Y-6026093D01*
G01X3392972Y-6007923D01*
G01X3400693Y-5987994D01*
G01X3404620Y-5966986D01*
G01X3404620Y-5945614D01*
G01X3400693Y-5924606D01*
G01X3392972Y-5904677D01*
G01X3381721Y-5886507D01*
G01X3367323Y-5870713D01*
G01X3350268Y-5857833D01*
G01X3331137Y-5848307D01*
G01X3310581Y-5842458D01*
G01X3289300Y-5840486D01*
G01X3289300Y-5840486D01*
G01X3268019Y-5842458D01*
G01X3247463Y-5848307D01*
G01X3228332Y-5857833D01*
G01X3211277Y-5870713D01*
G01X3196879Y-5886507D01*
G01X3185628Y-5904677D01*
G01X3177907Y-5924606D01*
G01X3173980Y-5945614D01*
G01X2995995Y-5945614D01*
G01X2996217Y-5944211D01*
G01X2995615Y-5925241D01*
G01X2991468Y-5906720D01*
G01X2983923Y-5889305D01*
G01X2973248Y-5873613D01*
G01X2959821Y-5860199D01*
G01X2944118Y-5849539D01*
G01X2944118Y-5691614D01*
G01X3173980Y-5691614D01*
G01X3173980Y-5712986D01*
G01X3177907Y-5733994D01*
G01X3185628Y-5753923D01*
G01X3196879Y-5772093D01*
G01X3211277Y-5787887D01*
G01X3228332Y-5800767D01*
G01X3247463Y-5810293D01*
G01X3268019Y-5816142D01*
G01X3289300Y-5818114D01*
G01X3310581Y-5816142D01*
G01X3331137Y-5810293D01*
G01X3350268Y-5800767D01*
G01X3367323Y-5787887D01*
G01X3381721Y-5772093D01*
G01X3392972Y-5753923D01*
G01X3400693Y-5733994D01*
G01X3404620Y-5712986D01*
G01X3404620Y-5691614D01*
G01X3400693Y-5670606D01*
G01X3392972Y-5650677D01*
G01X3381721Y-5632507D01*
G01X3367323Y-5616713D01*
G01X3350268Y-5603833D01*
G01X3331137Y-5594307D01*
G01X3310581Y-5588458D01*
G01X3289300Y-5586486D01*
G01X3289300Y-5586486D01*
G01X3268019Y-5588458D01*
G01X3247463Y-5594307D01*
G01X3228332Y-5603833D01*
G01X3211277Y-5616713D01*
G01X3196879Y-5632507D01*
G01X3185628Y-5650677D01*
G01X3177907Y-5670606D01*
G01X3173980Y-5691614D01*
G01X2944118Y-5691614D01*
G01X2944118Y-5437614D01*
G01X3173980Y-5437614D01*
G01X3173980Y-5458986D01*
G01X3177907Y-5479994D01*
G01X3185628Y-5499923D01*
G01X3196879Y-5518093D01*
G01X3211277Y-5533887D01*
G01X3228332Y-5546767D01*
G01X3247463Y-5556293D01*
G01X3268019Y-5562142D01*
G01X3289300Y-5564114D01*
G01X3310581Y-5562142D01*
G01X3331137Y-5556293D01*
G01X3350268Y-5546767D01*
G01X3367323Y-5533887D01*
G01X3381721Y-5518093D01*
G01X3386795Y-5509900D01*
G01X3787686Y-5509900D01*
G01X3787686Y-5589900D01*
G01X3789561Y-5607742D01*
G01X3795105Y-5624804D01*
G01X3804075Y-5640340D01*
G01X3816079Y-5653672D01*
G01X3830593Y-5664217D01*
G01X3846982Y-5671514D01*
G01X3864530Y-5675244D01*
G01X3882470Y-5675244D01*
G01X3900018Y-5671514D01*
G01X3916407Y-5664217D01*
G01X3930921Y-5653672D01*
G01X3942925Y-5640340D01*
G01X3951895Y-5624804D01*
G01X3957439Y-5607742D01*
G01X3959314Y-5589900D01*
G01X3959314Y-5589900D01*
G01X3959314Y-5509900D01*
G01X3957439Y-5492058D01*
G01X3951895Y-5474996D01*
G01X3942925Y-5459460D01*
G01X3930921Y-5446128D01*
G01X3916407Y-5435583D01*
G01X3900018Y-5428286D01*
G01X3882470Y-5424556D01*
G01X3864530Y-5424556D01*
G01X3846982Y-5428286D01*
G01X3830593Y-5435583D01*
G01X3816079Y-5446128D01*
G01X3804075Y-5459460D01*
G01X3795105Y-5474996D01*
G01X3789561Y-5492058D01*
G01X3787686Y-5509900D01*
G01X3386795Y-5509900D01*
G01X3392972Y-5499923D01*
G01X3400693Y-5479994D01*
G01X3404620Y-5458986D01*
G01X3404620Y-5437614D01*
G01X3400693Y-5416606D01*
G01X3392972Y-5396677D01*
G01X3381721Y-5378507D01*
G01X3367323Y-5362713D01*
G01X3350268Y-5349833D01*
G01X3331137Y-5340307D01*
G01X3310581Y-5334458D01*
G01X3289300Y-5332486D01*
G01X3289300Y-5332486D01*
G01X3268019Y-5334458D01*
G01X3247463Y-5340307D01*
G01X3228332Y-5349833D01*
G01X3211277Y-5362713D01*
G01X3196879Y-5378507D01*
G01X3185628Y-5396677D01*
G01X3177907Y-5416606D01*
G01X3173980Y-5437614D01*
G01X2944118Y-5437614D01*
G01X2944118Y-5428599D01*
G01X2942465Y-5416043D01*
G01X2937619Y-5404342D01*
G01X2929909Y-5394295D01*
G01X2719228Y-5183614D01*
G01X3173980Y-5183614D01*
G01X3173980Y-5204986D01*
G01X3177907Y-5225994D01*
G01X3185628Y-5245923D01*
G01X3196879Y-5264093D01*
G01X3211277Y-5279887D01*
G01X3228332Y-5292767D01*
G01X3247463Y-5302293D01*
G01X3268019Y-5308142D01*
G01X3289300Y-5310114D01*
G01X3310581Y-5308142D01*
G01X3331137Y-5302293D01*
G01X3350268Y-5292767D01*
G01X3367323Y-5279887D01*
G01X3381721Y-5264093D01*
G01X3386795Y-5255900D01*
G01X3787686Y-5255900D01*
G01X3787686Y-5335900D01*
G01X3789561Y-5353742D01*
G01X3795105Y-5370804D01*
G01X3804075Y-5386340D01*
G01X3816079Y-5399672D01*
G01X3830593Y-5410217D01*
G01X3846982Y-5417514D01*
G01X3864530Y-5421244D01*
G01X3882470Y-5421244D01*
G01X3900018Y-5417514D01*
G01X3916407Y-5410217D01*
G01X3930921Y-5399672D01*
G01X3942925Y-5386340D01*
G01X3951895Y-5370804D01*
G01X3957439Y-5353742D01*
G01X3959314Y-5335900D01*
G01X3959314Y-5335900D01*
G01X3959314Y-5255900D01*
G01X3957439Y-5238058D01*
G01X3951895Y-5220996D01*
G01X3942925Y-5205460D01*
G01X3930921Y-5192128D01*
G01X3916407Y-5181583D01*
G01X3900018Y-5174286D01*
G01X3882470Y-5170556D01*
G01X3864530Y-5170556D01*
G01X3846982Y-5174286D01*
G01X3830593Y-5181583D01*
G01X3816079Y-5192128D01*
G01X3804075Y-5205460D01*
G01X3795105Y-5220996D01*
G01X3789561Y-5238058D01*
G01X3787686Y-5255900D01*
G01X3386795Y-5255900D01*
G01X3392972Y-5245923D01*
G01X3400693Y-5225994D01*
G01X3404620Y-5204986D01*
G01X3404620Y-5183614D01*
G01X3400693Y-5162606D01*
G01X3392972Y-5142677D01*
G01X3381721Y-5124507D01*
G01X3367323Y-5108713D01*
G01X3350268Y-5095833D01*
G01X3331137Y-5086307D01*
G01X3310581Y-5080458D01*
G01X3289300Y-5078486D01*
G01X3289300Y-5078486D01*
G01X3268019Y-5080458D01*
G01X3247463Y-5086307D01*
G01X3228332Y-5095833D01*
G01X3211277Y-5108713D01*
G01X3196879Y-5124507D01*
G01X3185628Y-5142677D01*
G01X3177907Y-5162606D01*
G01X3173980Y-5183614D01*
G01X2719228Y-5183614D01*
G01X2471693Y-4936078D01*
G01X2475261Y-4917438D01*
G01X2475266Y-4907890D01*
G01X2794786Y-4907890D01*
G01X2796723Y-4927557D01*
G01X2802460Y-4946469D01*
G01X2811776Y-4963899D01*
G01X2824314Y-4979176D01*
G01X2839591Y-4991713D01*
G01X2857020Y-5001029D01*
G01X2875932Y-5006766D01*
G01X2895600Y-5008703D01*
G01X2895600Y-5008703D01*
G01X2915268Y-5006766D01*
G01X2934180Y-5001029D01*
G01X2951609Y-4991713D01*
G01X2966886Y-4979176D01*
G01X2979424Y-4963899D01*
G01X2988740Y-4946469D01*
G01X2993853Y-4929614D01*
G01X3173980Y-4929614D01*
G01X3173980Y-4950986D01*
G01X3177907Y-4971994D01*
G01X3185628Y-4991923D01*
G01X3196879Y-5010093D01*
G01X3211277Y-5025887D01*
G01X3228332Y-5038767D01*
G01X3247463Y-5048293D01*
G01X3268019Y-5054142D01*
G01X3289300Y-5056114D01*
G01X3310581Y-5054142D01*
G01X3331137Y-5048293D01*
G01X3350268Y-5038767D01*
G01X3367323Y-5025887D01*
G01X3381721Y-5010093D01*
G01X3392972Y-4991923D01*
G01X3400693Y-4971994D01*
G01X3404449Y-4951900D01*
G01X3787686Y-4951900D01*
G01X3787686Y-5131900D01*
G01X3787686Y-5131900D01*
G01X3789439Y-5142967D01*
G01X3794526Y-5152951D01*
G01X3802449Y-5160874D01*
G01X3812433Y-5165961D01*
G01X3823500Y-5167714D01*
G01X3923500Y-5167714D01*
G01X3934567Y-5165961D01*
G01X3944551Y-5160874D01*
G01X3952474Y-5152951D01*
G01X3957561Y-5142967D01*
G01X3959314Y-5131900D01*
G01X3959314Y-4951900D01*
G01X3957561Y-4940833D01*
G01X3952474Y-4930849D01*
G01X3944551Y-4922926D01*
G01X3934567Y-4917839D01*
G01X3923500Y-4916086D01*
G01X3823500Y-4916086D01*
G01X3812433Y-4917839D01*
G01X3802449Y-4922926D01*
G01X3794526Y-4930849D01*
G01X3789439Y-4940833D01*
G01X3787686Y-4951900D01*
G01X3404449Y-4951900D01*
G01X3404620Y-4950986D01*
G01X3404620Y-4929614D01*
G01X3400693Y-4908606D01*
G01X3392972Y-4888677D01*
G01X3381721Y-4870507D01*
G01X3367323Y-4854713D01*
G01X3350268Y-4841833D01*
G01X3331137Y-4832307D01*
G01X3310581Y-4826458D01*
G01X3289300Y-4824486D01*
G01X3289300Y-4824486D01*
G01X3268019Y-4826458D01*
G01X3247463Y-4832307D01*
G01X3228332Y-4841833D01*
G01X3211277Y-4854713D01*
G01X3196879Y-4870507D01*
G01X3185628Y-4888677D01*
G01X3177907Y-4908606D01*
G01X3173980Y-4929614D01*
G01X2993853Y-4929614D01*
G01X2994477Y-4927557D01*
G01X2996414Y-4907890D01*
G01X2994477Y-4888222D01*
G01X2988740Y-4869310D01*
G01X2979424Y-4851880D01*
G01X2966886Y-4836603D01*
G01X2951609Y-4824066D01*
G01X2934180Y-4814750D01*
G01X2915268Y-4809013D01*
G01X2895600Y-4807076D01*
G01X2875932Y-4809013D01*
G01X2857020Y-4814750D01*
G01X2839591Y-4824066D01*
G01X2824314Y-4836603D01*
G01X2811776Y-4851880D01*
G01X2802460Y-4869310D01*
G01X2796723Y-4888222D01*
G01X2794786Y-4907890D01*
G01X2475266Y-4907890D01*
G01X2475272Y-4898459D01*
G01X2471725Y-4879814D01*
G01X2464748Y-4862164D01*
G01X2454585Y-4846134D01*
G01X2441599Y-4832294D01*
G01X2426248Y-4821133D01*
G01X2409078Y-4813046D01*
G01X2390697Y-4808321D01*
G01X2371755Y-4807125D01*
G01X2352925Y-4809500D01*
G01X2334874Y-4815362D01*
G01X2318241Y-4824504D01*
G01X2303617Y-4836600D01*
G01X2303617Y-4836600D01*
G01X2291519Y-4851224D01*
G01X2282376Y-4867856D01*
G01X2276512Y-4885906D01*
G01X2274135Y-4904736D01*
G01X2012220Y-4904736D01*
G01X2012220Y-4706010D01*
G01X2274086Y-4706010D01*
G01X2276023Y-4725678D01*
G01X2281760Y-4744590D01*
G01X2291076Y-4762020D01*
G01X2303614Y-4777297D01*
G01X2318891Y-4789834D01*
G01X2336320Y-4799150D01*
G01X2355232Y-4804887D01*
G01X2374900Y-4806824D01*
G01X2394568Y-4804887D01*
G01X2413480Y-4799150D01*
G01X2430909Y-4789834D01*
G01X2446186Y-4777297D01*
G01X2458724Y-4762020D01*
G01X2468040Y-4744590D01*
G01X2473777Y-4725678D01*
G01X2475714Y-4706010D01*
G01X2475714Y-4706010D01*
G01X2794786Y-4706010D01*
G01X2796723Y-4725678D01*
G01X2802460Y-4744590D01*
G01X2811776Y-4762020D01*
G01X2824314Y-4777297D01*
G01X2839591Y-4789834D01*
G01X2857020Y-4799150D01*
G01X2875932Y-4804887D01*
G01X2895600Y-4806824D01*
G01X2915268Y-4804887D01*
G01X2934180Y-4799150D01*
G01X2951609Y-4789834D01*
G01X2966886Y-4777297D01*
G01X2979424Y-4762020D01*
G01X2988740Y-4744590D01*
G01X2994477Y-4725678D01*
G01X2996414Y-4706010D01*
G01X2994477Y-4686343D01*
G01X2991222Y-4675614D01*
G01X3173980Y-4675614D01*
G01X3173980Y-4696986D01*
G01X3177907Y-4717994D01*
G01X3185628Y-4737923D01*
G01X3196879Y-4756093D01*
G01X3211277Y-4771887D01*
G01X3228332Y-4784767D01*
G01X3247463Y-4794293D01*
G01X3268019Y-4800142D01*
G01X3289300Y-4802114D01*
G01X3310581Y-4800142D01*
G01X3331137Y-4794293D01*
G01X3350268Y-4784767D01*
G01X3367323Y-4771887D01*
G01X3381721Y-4756093D01*
G01X3392972Y-4737923D01*
G01X3400693Y-4717994D01*
G01X3404620Y-4696986D01*
G01X3404620Y-4675614D01*
G01X3400693Y-4654606D01*
G01X3392972Y-4634677D01*
G01X3381721Y-4616507D01*
G01X3367323Y-4600713D01*
G01X3350268Y-4587833D01*
G01X3331137Y-4578307D01*
G01X3310581Y-4572458D01*
G01X3289300Y-4570486D01*
G01X3289300Y-4570486D01*
G01X3268019Y-4572458D01*
G01X3247463Y-4578307D01*
G01X3228332Y-4587833D01*
G01X3211277Y-4600713D01*
G01X3196879Y-4616507D01*
G01X3185628Y-4634677D01*
G01X3177907Y-4654606D01*
G01X3173980Y-4675614D01*
G01X2991222Y-4675614D01*
G01X2988740Y-4667431D01*
G01X2979424Y-4650001D01*
G01X2966886Y-4634724D01*
G01X2951609Y-4622187D01*
G01X2934180Y-4612871D01*
G01X2915268Y-4607134D01*
G01X2895600Y-4605197D01*
G01X2895600Y-4605197D01*
G01X2875932Y-4607134D01*
G01X2857020Y-4612871D01*
G01X2839591Y-4622187D01*
G01X2824314Y-4634724D01*
G01X2811776Y-4650001D01*
G01X2802460Y-4667431D01*
G01X2796723Y-4686343D01*
G01X2794786Y-4706010D01*
G01X2475714Y-4706010D01*
G01X2473777Y-4686343D01*
G01X2468040Y-4667431D01*
G01X2458724Y-4650001D01*
G01X2446186Y-4634724D01*
G01X2430909Y-4622187D01*
G01X2413480Y-4612871D01*
G01X2394568Y-4607134D01*
G01X2374900Y-4605197D01*
G01X2374900Y-4605197D01*
G01X2355232Y-4607134D01*
G01X2336320Y-4612871D01*
G01X2318891Y-4622187D01*
G01X2303614Y-4634724D01*
G01X2291076Y-4650001D01*
G01X2281760Y-4667431D01*
G01X2276023Y-4686343D01*
G01X2274086Y-4706010D01*
G01X2012220Y-4706010D01*
G01X2012220Y-4421614D01*
G01X3173980Y-4421614D01*
G01X3173980Y-4442986D01*
G01X3177907Y-4463994D01*
G01X3185628Y-4483923D01*
G01X3196879Y-4502093D01*
G01X3211277Y-4517887D01*
G01X3228332Y-4530767D01*
G01X3247463Y-4540293D01*
G01X3268019Y-4546142D01*
G01X3289300Y-4548114D01*
G01X3310581Y-4546142D01*
G01X3331137Y-4540293D01*
G01X3350268Y-4530767D01*
G01X3367323Y-4517887D01*
G01X3381721Y-4502093D01*
G01X3392972Y-4483923D01*
G01X3400693Y-4463994D01*
G01X3404620Y-4442986D01*
G01X3404620Y-4421614D01*
G01X3400693Y-4400606D01*
G01X3392972Y-4380677D01*
G01X3381721Y-4362507D01*
G01X3367323Y-4346713D01*
G01X3350268Y-4333833D01*
G01X3331137Y-4324307D01*
G01X3310581Y-4318458D01*
G01X3289300Y-4316486D01*
G01X3289300Y-4316486D01*
G01X3268019Y-4318458D01*
G01X3247463Y-4324307D01*
G01X3228332Y-4333833D01*
G01X3211277Y-4346713D01*
G01X3196879Y-4362507D01*
G01X3185628Y-4380677D01*
G01X3177907Y-4400606D01*
G01X3173980Y-4421614D01*
G01X2012220Y-4421614D01*
G01X2012220Y-4167614D01*
G01X3173980Y-4167614D01*
G01X3173980Y-4188986D01*
G01X3177907Y-4209994D01*
G01X3185628Y-4229923D01*
G01X3196879Y-4248093D01*
G01X3211277Y-4263887D01*
G01X3228332Y-4276767D01*
G01X3247463Y-4286293D01*
G01X3268019Y-4292142D01*
G01X3289300Y-4294114D01*
G01X3310581Y-4292142D01*
G01X3331137Y-4286293D01*
G01X3350268Y-4276767D01*
G01X3367323Y-4263887D01*
G01X3377613Y-4252600D01*
G01X3787686Y-4252600D01*
G01X3787686Y-4332600D01*
G01X3789561Y-4350442D01*
G01X3795105Y-4367504D01*
G01X3804075Y-4383040D01*
G01X3816079Y-4396372D01*
G01X3830593Y-4406917D01*
G01X3846982Y-4414214D01*
G01X3864530Y-4417944D01*
G01X3882470Y-4417944D01*
G01X3900018Y-4414214D01*
G01X3916407Y-4406917D01*
G01X3930921Y-4396372D01*
G01X3942925Y-4383040D01*
G01X3951895Y-4367504D01*
G01X3957439Y-4350442D01*
G01X3959314Y-4332600D01*
G01X3959314Y-4332600D01*
G01X3959314Y-4252600D01*
G01X3957439Y-4234758D01*
G01X3951895Y-4217696D01*
G01X3942925Y-4202160D01*
G01X3930921Y-4188828D01*
G01X3916407Y-4178283D01*
G01X3900018Y-4170986D01*
G01X3882470Y-4167256D01*
G01X3864530Y-4167256D01*
G01X3846982Y-4170986D01*
G01X3830593Y-4178283D01*
G01X3816079Y-4188828D01*
G01X3804075Y-4202160D01*
G01X3795105Y-4217696D01*
G01X3789561Y-4234758D01*
G01X3787686Y-4252600D01*
G01X3377613Y-4252600D01*
G01X3381721Y-4248093D01*
G01X3392972Y-4229923D01*
G01X3400693Y-4209994D01*
G01X3404620Y-4188986D01*
G01X3404620Y-4167614D01*
G01X3400693Y-4146606D01*
G01X3392972Y-4126677D01*
G01X3381721Y-4108507D01*
G01X3367323Y-4092713D01*
G01X3350268Y-4079833D01*
G01X3331137Y-4070307D01*
G01X3310581Y-4064458D01*
G01X3289300Y-4062486D01*
G01X3289300Y-4062486D01*
G01X3268019Y-4064458D01*
G01X3247463Y-4070307D01*
G01X3228332Y-4079833D01*
G01X3211277Y-4092713D01*
G01X3196879Y-4108507D01*
G01X3185628Y-4126677D01*
G01X3177907Y-4146606D01*
G01X3173980Y-4167614D01*
G01X2012220Y-4167614D01*
G01X2012220Y-3913614D01*
G01X3173980Y-3913614D01*
G01X3173980Y-3934986D01*
G01X3177907Y-3955994D01*
G01X3185628Y-3975923D01*
G01X3196879Y-3994093D01*
G01X3211277Y-4009887D01*
G01X3228332Y-4022767D01*
G01X3247463Y-4032293D01*
G01X3268019Y-4038142D01*
G01X3289300Y-4040114D01*
G01X3310581Y-4038142D01*
G01X3331137Y-4032293D01*
G01X3350268Y-4022767D01*
G01X3367323Y-4009887D01*
G01X3377613Y-3998600D01*
G01X3787686Y-3998600D01*
G01X3787686Y-4078600D01*
G01X3789604Y-4096642D01*
G01X3795272Y-4113877D01*
G01X3804437Y-4129535D01*
G01X3816690Y-4142916D01*
G01X3831481Y-4153423D01*
G01X3848151Y-4160584D01*
G01X3865954Y-4164081D01*
G01X3884095Y-4163757D01*
G01X3901762Y-4159627D01*
G01X3918165Y-4151874D01*
G01X4053588Y-4287297D01*
G01X4053588Y-6380987D01*
G01X4053588Y-6380987D01*
G01X4044842Y-6392748D01*
G01X4038893Y-6406142D01*
G01X4036032Y-6420516D01*
G01X4036397Y-6435167D01*
G01X4012801Y-6435477D01*
G01X3989563Y-6439589D01*
G01X3967293Y-6447395D01*
G01X3946574Y-6458692D01*
G01X3927949Y-6473183D01*
G01X3911905Y-6490489D01*
G01X3898863Y-6510156D01*
G01X3889164Y-6531670D01*
G01X3883062Y-6554466D01*
G01X3880718Y-6577948D01*
G01X3882192Y-6601500D01*
G01X3887446Y-6624506D01*
G01X3896343Y-6646364D01*
G01X3908648Y-6666500D01*
G01X3924041Y-6684387D01*
G01X3942118Y-6699557D01*
G01X3962405Y-6711613D01*
G01X3984370Y-6720238D01*
G01X4007440Y-6725207D01*
G01X4031009Y-6726390D01*
G01X4054460Y-6723755D01*
G01X4077179Y-6717371D01*
G01X4098571Y-6707407D01*
G01X4118075Y-6694122D01*
G01X4135181Y-6677865D01*
G01X4149440Y-6659062D01*
G01X4160479Y-6638205D01*
G01X4168010Y-6615840D01*
G01X4171834Y-6592553D01*
G01X4171852Y-6568955D01*
G01X4168062Y-6545662D01*
G01X4160566Y-6523286D01*
G01X4149557Y-6502412D01*
G01X4135326Y-6483588D01*
G01X4147270Y-6474750D01*
G01X4156946Y-6463475D01*
G01X4163869Y-6450329D01*
G01X4167691Y-6435971D01*
G01X4168221Y-6421123D01*
G01X4165432Y-6406529D01*
G01X4159464Y-6392923D01*
G01X4150616Y-6380987D01*
G01X4150616Y-4267201D01*
G01X4148963Y-4254645D01*
G01X4144116Y-4242944D01*
G01X4136406Y-4232897D01*
G01X3959314Y-4055804D01*
G01X3959314Y-3998600D01*
G01X3957439Y-3980758D01*
G01X3951895Y-3963696D01*
G01X3942925Y-3948160D01*
G01X3930921Y-3934828D01*
G01X3916407Y-3924283D01*
G01X3900018Y-3916986D01*
G01X3882470Y-3913256D01*
G01X3864530Y-3913256D01*
G01X3846982Y-3916986D01*
G01X3830593Y-3924283D01*
G01X3816079Y-3934828D01*
G01X3804075Y-3948160D01*
G01X3795105Y-3963696D01*
G01X3789561Y-3980758D01*
G01X3787686Y-3998600D01*
G01X3377613Y-3998600D01*
G01X3381721Y-3994093D01*
G01X3392972Y-3975923D01*
G01X3400693Y-3955994D01*
G01X3404620Y-3934986D01*
G01X3404620Y-3913614D01*
G01X3400693Y-3892606D01*
G01X3392972Y-3872677D01*
G01X3381721Y-3854507D01*
G01X3367323Y-3838713D01*
G01X3350268Y-3825833D01*
G01X3331137Y-3816307D01*
G01X3310581Y-3810458D01*
G01X3289300Y-3808486D01*
G01X3289300Y-3808486D01*
G01X3268019Y-3810458D01*
G01X3247463Y-3816307D01*
G01X3228332Y-3825833D01*
G01X3211277Y-3838713D01*
G01X3196879Y-3854507D01*
G01X3185628Y-3872677D01*
G01X3177907Y-3892606D01*
G01X3173980Y-3913614D01*
G01X2012220Y-3913614D01*
G01X2012220Y-3675986D01*
G01X2274086Y-3675986D01*
G01X2275872Y-3694881D01*
G01X2281168Y-3713107D01*
G01X2289785Y-3730016D01*
G01X2301419Y-3745012D01*
G01X2315658Y-3757560D01*
G01X2331996Y-3767218D01*
G01X2349855Y-3773643D01*
G01X2368601Y-3776607D01*
G01X2387571Y-3776004D01*
G01X2406091Y-3771857D01*
G01X2423506Y-3764312D01*
G01X2439199Y-3753637D01*
G01X2452612Y-3740210D01*
G01X2463272Y-3724507D01*
G01X2807228Y-3724507D01*
G01X2807228Y-3724507D01*
G01X2818260Y-3740657D01*
G01X2832202Y-3754374D01*
G01X2848530Y-3765140D01*
G01X2866630Y-3772551D01*
G01X2885821Y-3776328D01*
G01X2905379Y-3776328D01*
G01X2924570Y-3772551D01*
G01X2942670Y-3765140D01*
G01X2958998Y-3754374D01*
G01X2972940Y-3740657D01*
G01X2983972Y-3724507D01*
G01X3029614Y-3724507D01*
G01X3042170Y-3722854D01*
G01X3053871Y-3718007D01*
G01X3063919Y-3710297D01*
G01X3114602Y-3659614D01*
G01X3173980Y-3659614D01*
G01X3173980Y-3680986D01*
G01X3177907Y-3701994D01*
G01X3185628Y-3721923D01*
G01X3196879Y-3740093D01*
G01X3211277Y-3755887D01*
G01X3228332Y-3768767D01*
G01X3247463Y-3778293D01*
G01X3268019Y-3784142D01*
G01X3289300Y-3786114D01*
G01X3310581Y-3784142D01*
G01X3331137Y-3778293D01*
G01X3350268Y-3768767D01*
G01X3367323Y-3755887D01*
G01X3381721Y-3740093D01*
G01X3392972Y-3721923D01*
G01X3400693Y-3701994D01*
G01X3402075Y-3694600D01*
G01X3787686Y-3694600D01*
G01X3787686Y-3874600D01*
G01X3787686Y-3874600D01*
G01X3789439Y-3885667D01*
G01X3794526Y-3895651D01*
G01X3802449Y-3903574D01*
G01X3812433Y-3908661D01*
G01X3823500Y-3910414D01*
G01X3923500Y-3910414D01*
G01X3934567Y-3908661D01*
G01X3944551Y-3903574D01*
G01X3952474Y-3895651D01*
G01X3957561Y-3885667D01*
G01X3959314Y-3874600D01*
G01X3959314Y-3694600D01*
G01X3957561Y-3683533D01*
G01X3952474Y-3673549D01*
G01X3944551Y-3665626D01*
G01X3934567Y-3660539D01*
G01X3923500Y-3658786D01*
G01X3823500Y-3658786D01*
G01X3812433Y-3660539D01*
G01X3802449Y-3665626D01*
G01X3794526Y-3673549D01*
G01X3789439Y-3683533D01*
G01X3787686Y-3694600D01*
G01X3402075Y-3694600D01*
G01X3404620Y-3680986D01*
G01X3404620Y-3659614D01*
G01X3400693Y-3638606D01*
G01X3392972Y-3618677D01*
G01X3381721Y-3600507D01*
G01X3367323Y-3584713D01*
G01X3350268Y-3571833D01*
G01X3331137Y-3562307D01*
G01X3310581Y-3556458D01*
G01X3289300Y-3554486D01*
G01X3289300Y-3554486D01*
G01X3268019Y-3556458D01*
G01X3247463Y-3562307D01*
G01X3228332Y-3571833D01*
G01X3211277Y-3584713D01*
G01X3196879Y-3600507D01*
G01X3185628Y-3618677D01*
G01X3177907Y-3638606D01*
G01X3173980Y-3659614D01*
G01X3114602Y-3659614D01*
G01X3249248Y-3524968D01*
G01X3269421Y-3530395D01*
G01X3290241Y-3532110D01*
G01X3311030Y-3530057D01*
G01X3331112Y-3524303D01*
G01X3349834Y-3515034D01*
G01X3366586Y-3502554D01*
G01X3380824Y-3487266D01*
G01X3392084Y-3469670D01*
G01X3399999Y-3450338D01*
G01X3404313Y-3429897D01*
G01X3404884Y-3409015D01*
G01X3401695Y-3388369D01*
G01X3394849Y-3368633D01*
G01X3384569Y-3350447D01*
G01X3371189Y-3334404D01*
G01X3355145Y-3321025D01*
G01X3336958Y-3310746D01*
G01X3317221Y-3303902D01*
G01X3296575Y-3300715D01*
G01X3275692Y-3301288D01*
G01X3255253Y-3305604D01*
G01X3235921Y-3313521D01*
G01X3218326Y-3324782D01*
G01X3203040Y-3339021D01*
G01X3190560Y-3355775D01*
G01X3181294Y-3374497D01*
G01X3175541Y-3394580D01*
G01X3173490Y-3415369D01*
G01X3175207Y-3436189D01*
G01X3180636Y-3456362D01*
G01X3009519Y-3627479D01*
G01X2983975Y-3627479D01*
G01X2972944Y-3611326D01*
G01X2959002Y-3597608D01*
G01X2942672Y-3586840D01*
G01X2924571Y-3579428D01*
G01X2905380Y-3575651D01*
G01X2885820Y-3575651D01*
G01X2866629Y-3579428D01*
G01X2848528Y-3586840D01*
G01X2832198Y-3597608D01*
G01X2818256Y-3611326D01*
G01X2807225Y-3627479D01*
G01X2463275Y-3627479D01*
G01X2452617Y-3611775D01*
G01X2439204Y-3598347D01*
G01X2423513Y-3587671D01*
G01X2406098Y-3580124D01*
G01X2387578Y-3575976D01*
G01X2368608Y-3575372D01*
G01X2349862Y-3578335D01*
G01X2332002Y-3584758D01*
G01X2315664Y-3594415D01*
G01X2301424Y-3606963D01*
G01X2289789Y-3621957D01*
G01X2281170Y-3638866D01*
G01X2275873Y-3657091D01*
G01X2274086Y-3675986D01*
G01X2012220Y-3675986D01*
G01X2012220Y-3423307D01*
G01X2274086Y-3423307D01*
G01X2275872Y-3442202D01*
G01X2281168Y-3460428D01*
G01X2289785Y-3477338D01*
G01X2301420Y-3492333D01*
G01X2315658Y-3504881D01*
G01X2331996Y-3514539D01*
G01X2349855Y-3520964D01*
G01X2368602Y-3523927D01*
G01X2387571Y-3523325D01*
G01X2406092Y-3519178D01*
G01X2423507Y-3511633D01*
G01X2439199Y-3500957D01*
G01X2452613Y-3487530D01*
G01X2463272Y-3471827D01*
G01X2807228Y-3471827D01*
G01X2807228Y-3471827D01*
G01X2818260Y-3487978D01*
G01X2832202Y-3501695D01*
G01X2848530Y-3512461D01*
G01X2866630Y-3519872D01*
G01X2885821Y-3523649D01*
G01X2905379Y-3523649D01*
G01X2924570Y-3519872D01*
G01X2942670Y-3512461D01*
G01X2958998Y-3501695D01*
G01X2972940Y-3487978D01*
G01X2983972Y-3471827D01*
G01X3028294Y-3471827D01*
G01X3040850Y-3470174D01*
G01X3052551Y-3465327D01*
G01X3062599Y-3457618D01*
G01X3249248Y-3270968D01*
G01X3269421Y-3276395D01*
G01X3290241Y-3278110D01*
G01X3311030Y-3276057D01*
G01X3331113Y-3270303D01*
G01X3349834Y-3261034D01*
G01X3366587Y-3248553D01*
G01X3380824Y-3233266D01*
G01X3392084Y-3215670D01*
G01X3399999Y-3196337D01*
G01X3404313Y-3175897D01*
G01X3404884Y-3155014D01*
G01X3401695Y-3134369D01*
G01X3394849Y-3114632D01*
G01X3384569Y-3096446D01*
G01X3371189Y-3080403D01*
G01X3355144Y-3067025D01*
G01X3336958Y-3056746D01*
G01X3317220Y-3049902D01*
G01X3296575Y-3046715D01*
G01X3275692Y-3047288D01*
G01X3255252Y-3051604D01*
G01X3235920Y-3059521D01*
G01X3218325Y-3070783D01*
G01X3203039Y-3085022D01*
G01X3190560Y-3101775D01*
G01X3181293Y-3120498D01*
G01X3175541Y-3140580D01*
G01X3173490Y-3161370D01*
G01X3175207Y-3182189D01*
G01X3180636Y-3202362D01*
G01X3008199Y-3374799D01*
G01X2983975Y-3374799D01*
G01X2972944Y-3358647D01*
G01X2959001Y-3344929D01*
G01X2942672Y-3334161D01*
G01X2924571Y-3326749D01*
G01X2905380Y-3322972D01*
G01X2885820Y-3322972D01*
G01X2866629Y-3326749D01*
G01X2848528Y-3334161D01*
G01X2832199Y-3344929D01*
G01X2818256Y-3358647D01*
G01X2807225Y-3374799D01*
G01X2463275Y-3374799D01*
G01X2452617Y-3359095D01*
G01X2439204Y-3345667D01*
G01X2423512Y-3334991D01*
G01X2406098Y-3327445D01*
G01X2387577Y-3323297D01*
G01X2368608Y-3322693D01*
G01X2349861Y-3325655D01*
G01X2332002Y-3332079D01*
G01X2315663Y-3341736D01*
G01X2301424Y-3354284D01*
G01X2289789Y-3369278D01*
G01X2281170Y-3386187D01*
G01X2275873Y-3404412D01*
G01X2274086Y-3423307D01*
G01X2012220Y-3423307D01*
G01X2012220Y-2897614D01*
G01X3173980Y-2897614D01*
G01X3173980Y-2918986D01*
G01X3177907Y-2939994D01*
G01X3185628Y-2959923D01*
G01X3196879Y-2978093D01*
G01X3211277Y-2993887D01*
G01X3228332Y-3006767D01*
G01X3247463Y-3016293D01*
G01X3268019Y-3022142D01*
G01X3289300Y-3024114D01*
G01X3310581Y-3022142D01*
G01X3331137Y-3016293D01*
G01X3350268Y-3006767D01*
G01X3367323Y-2993887D01*
G01X3381721Y-2978093D01*
G01X3386795Y-2969900D01*
G01X3787686Y-2969900D01*
G01X3787686Y-3049900D01*
G01X3789561Y-3067742D01*
G01X3795105Y-3084804D01*
G01X3804075Y-3100340D01*
G01X3816079Y-3113672D01*
G01X3830593Y-3124217D01*
G01X3846982Y-3131514D01*
G01X3864530Y-3135244D01*
G01X3882470Y-3135244D01*
G01X3900018Y-3131514D01*
G01X3916407Y-3124217D01*
G01X3930921Y-3113672D01*
G01X3942925Y-3100340D01*
G01X3951895Y-3084804D01*
G01X3957439Y-3067742D01*
G01X3959314Y-3049900D01*
G01X3959314Y-3049900D01*
G01X3959314Y-2969900D01*
G01X3957439Y-2952058D01*
G01X3951895Y-2934996D01*
G01X3942925Y-2919460D01*
G01X3930921Y-2906128D01*
G01X3916407Y-2895583D01*
G01X3900018Y-2888286D01*
G01X3882470Y-2884556D01*
G01X3864530Y-2884556D01*
G01X3846982Y-2888286D01*
G01X3830593Y-2895583D01*
G01X3816079Y-2906128D01*
G01X3804075Y-2919460D01*
G01X3795105Y-2934996D01*
G01X3789561Y-2952058D01*
G01X3787686Y-2969900D01*
G01X3386795Y-2969900D01*
G01X3392972Y-2959923D01*
G01X3400693Y-2939994D01*
G01X3404620Y-2918986D01*
G01X3404620Y-2897614D01*
G01X3400693Y-2876606D01*
G01X3392972Y-2856677D01*
G01X3381721Y-2838507D01*
G01X3367323Y-2822713D01*
G01X3350268Y-2809833D01*
G01X3331137Y-2800307D01*
G01X3310581Y-2794458D01*
G01X3289300Y-2792486D01*
G01X3289300Y-2792486D01*
G01X3268019Y-2794458D01*
G01X3247463Y-2800307D01*
G01X3228332Y-2809833D01*
G01X3211277Y-2822713D01*
G01X3196879Y-2838507D01*
G01X3185628Y-2856677D01*
G01X3177907Y-2876606D01*
G01X3173980Y-2897614D01*
G01X2012220Y-2897614D01*
G01X2012220Y-2643614D01*
G01X3173980Y-2643614D01*
G01X3173980Y-2664986D01*
G01X3177907Y-2685994D01*
G01X3185628Y-2705923D01*
G01X3196879Y-2724093D01*
G01X3211277Y-2739887D01*
G01X3228332Y-2752767D01*
G01X3247463Y-2762293D01*
G01X3268019Y-2768142D01*
G01X3289300Y-2770114D01*
G01X3310581Y-2768142D01*
G01X3331137Y-2762293D01*
G01X3350268Y-2752767D01*
G01X3367323Y-2739887D01*
G01X3381721Y-2724093D01*
G01X3386795Y-2715900D01*
G01X3787686Y-2715900D01*
G01X3787686Y-2795900D01*
G01X3789561Y-2813742D01*
G01X3795105Y-2830804D01*
G01X3804075Y-2846340D01*
G01X3816079Y-2859672D01*
G01X3830593Y-2870217D01*
G01X3846982Y-2877514D01*
G01X3864530Y-2881244D01*
G01X3882470Y-2881244D01*
G01X3900018Y-2877514D01*
G01X3916407Y-2870217D01*
G01X3930921Y-2859672D01*
G01X3942925Y-2846340D01*
G01X3951895Y-2830804D01*
G01X3957439Y-2813742D01*
G01X3959314Y-2795900D01*
G01X3959314Y-2795900D01*
G01X3959314Y-2715900D01*
G01X3957439Y-2698058D01*
G01X3951895Y-2680996D01*
G01X3942925Y-2665460D01*
G01X3930921Y-2652128D01*
G01X3916407Y-2641583D01*
G01X3900018Y-2634286D01*
G01X3882470Y-2630556D01*
G01X3864530Y-2630556D01*
G01X3846982Y-2634286D01*
G01X3830593Y-2641583D01*
G01X3816079Y-2652128D01*
G01X3804075Y-2665460D01*
G01X3795105Y-2680996D01*
G01X3789561Y-2698058D01*
G01X3787686Y-2715900D01*
G01X3386795Y-2715900D01*
G01X3392972Y-2705923D01*
G01X3400693Y-2685994D01*
G01X3404620Y-2664986D01*
G01X3404620Y-2643614D01*
G01X3400693Y-2622606D01*
G01X3392972Y-2602677D01*
G01X3386299Y-2591900D01*
G01X3787686Y-2591900D01*
G01X3789439Y-2602967D01*
G01X3794526Y-2612951D01*
G01X3802449Y-2620874D01*
G01X3812433Y-2625961D01*
G01X3823500Y-2627714D01*
G01X3923500Y-2627714D01*
G01X3934567Y-2625961D01*
G01X3944551Y-2620874D01*
G01X3952474Y-2612951D01*
G01X3957561Y-2602967D01*
G01X3959314Y-2591900D01*
G01X3959314Y-2411900D01*
G01X3957561Y-2400833D01*
G01X3952474Y-2390849D01*
G01X3944551Y-2382926D01*
G01X3934567Y-2377839D01*
G01X3923500Y-2376086D01*
G01X3823500Y-2376086D01*
G01X3812433Y-2377839D01*
G01X3802449Y-2382926D01*
G01X3794526Y-2390849D01*
G01X3789439Y-2400833D01*
G01X3787686Y-2411900D01*
G01X3787686Y-2591900D01*
G01X3787686Y-2591900D01*
G01X3386299Y-2591900D01*
G01X3381721Y-2584507D01*
G01X3367323Y-2568713D01*
G01X3350268Y-2555833D01*
G01X3331137Y-2546307D01*
G01X3310581Y-2540458D01*
G01X3289300Y-2538486D01*
G01X3289300Y-2538486D01*
G01X3268019Y-2540458D01*
G01X3247463Y-2546307D01*
G01X3228332Y-2555833D01*
G01X3211277Y-2568713D01*
G01X3196879Y-2584507D01*
G01X3185628Y-2602677D01*
G01X3177907Y-2622606D01*
G01X3173980Y-2643614D01*
G01X2012220Y-2643614D01*
G01X2012220Y-2393290D01*
G01X2274086Y-2393290D01*
G01X2276023Y-2412957D01*
G01X2281760Y-2431869D01*
G01X2291076Y-2449299D01*
G01X2303614Y-2464576D01*
G01X2318891Y-2477113D01*
G01X2336320Y-2486429D01*
G01X2355232Y-2492166D01*
G01X2374900Y-2494103D01*
G01X2374900Y-2494103D01*
G01X2394568Y-2492166D01*
G01X2413480Y-2486429D01*
G01X2430909Y-2477113D01*
G01X2446186Y-2464576D01*
G01X2458724Y-2449299D01*
G01X2468040Y-2431869D01*
G01X2473777Y-2412957D01*
G01X2475714Y-2393290D01*
G01X2794786Y-2393290D01*
G01X2796723Y-2412957D01*
G01X2802460Y-2431869D01*
G01X2811776Y-2449299D01*
G01X2824314Y-2464576D01*
G01X2839591Y-2477113D01*
G01X2857020Y-2486429D01*
G01X2875932Y-2492166D01*
G01X2895600Y-2494103D01*
G01X2895600Y-2494103D01*
G01X2915268Y-2492166D01*
G01X2934180Y-2486429D01*
G01X2945648Y-2480300D01*
G01X3173486Y-2480300D01*
G01X3175239Y-2491367D01*
G01X3180326Y-2501351D01*
G01X3188249Y-2509274D01*
G01X3198233Y-2514361D01*
G01X3209300Y-2516114D01*
G01X3369300Y-2516114D01*
G01X3380367Y-2514361D01*
G01X3390351Y-2509274D01*
G01X3398274Y-2501351D01*
G01X3403361Y-2491367D01*
G01X3405114Y-2480300D01*
G01X3405114Y-2320300D01*
G01X3403361Y-2309233D01*
G01X3398274Y-2299249D01*
G01X3390351Y-2291326D01*
G01X3380367Y-2286239D01*
G01X3369300Y-2284486D01*
G01X3209300Y-2284486D01*
G01X3198233Y-2286239D01*
G01X3188249Y-2291326D01*
G01X3180326Y-2299249D01*
G01X3175239Y-2309233D01*
G01X3173486Y-2320300D01*
G01X3173486Y-2480300D01*
G01X3173486Y-2480300D01*
G01X2945648Y-2480300D01*
G01X2951609Y-2477113D01*
G01X2966886Y-2464576D01*
G01X2979424Y-2449299D01*
G01X2988740Y-2431869D01*
G01X2994477Y-2412957D01*
G01X2996414Y-2393290D01*
G01X2994477Y-2373622D01*
G01X2988740Y-2354710D01*
G01X2979424Y-2337280D01*
G01X2966886Y-2322003D01*
G01X2951609Y-2309466D01*
G01X2934180Y-2300150D01*
G01X2915268Y-2294413D01*
G01X2895600Y-2292476D01*
G01X2875932Y-2294413D01*
G01X2857020Y-2300150D01*
G01X2839591Y-2309466D01*
G01X2824314Y-2322003D01*
G01X2811776Y-2337280D01*
G01X2802460Y-2354710D01*
G01X2796723Y-2373622D01*
G01X2794786Y-2393290D01*
G01X2475714Y-2393290D01*
G01X2473777Y-2373622D01*
G01X2468040Y-2354710D01*
G01X2458724Y-2337280D01*
G01X2446186Y-2322003D01*
G01X2430909Y-2309466D01*
G01X2413480Y-2300150D01*
G01X2394568Y-2294413D01*
G01X2374900Y-2292476D01*
G01X2355232Y-2294413D01*
G01X2336320Y-2300150D01*
G01X2318891Y-2309466D01*
G01X2303614Y-2322003D01*
G01X2291076Y-2337280D01*
G01X2281760Y-2354710D01*
G01X2276023Y-2373622D01*
G01X2274086Y-2393290D01*
G01X2012220Y-2393290D01*
G01X2012220Y-1488531D01*
G01X2029834Y-1477824D01*
G01X2045160Y-1464039D01*
G01X2057667Y-1447654D01*
G01X2066924Y-1429236D01*
G01X2072609Y-1409422D01*
G01X2074526Y-1388899D01*
G01X2074526Y-1158899D01*
G01X2072639Y-1138537D01*
G01X2067043Y-1118869D01*
G01X2057928Y-1100563D01*
G01X2045605Y-1084244D01*
G01X2030492Y-1070468D01*
G01X2013106Y-1059703D01*
G01X1994038Y-1052316D01*
G01X1973937Y-1048558D01*
G01X1953487Y-1048558D01*
G01X1933386Y-1052316D01*
G01X1914318Y-1059703D01*
G01X1896932Y-1070468D01*
G01X1881820Y-1084244D01*
G01X1869496Y-1100563D01*
G01X1860381Y-1118869D01*
G01X1854785Y-1138537D01*
G01X1852898Y-1158899D01*
G01X1474502Y-1158899D01*
G01X1472615Y-1138537D01*
G01X1467019Y-1118869D01*
G01X1457904Y-1100563D01*
G01X1445580Y-1084244D01*
G01X1430468Y-1070468D01*
G01X1413082Y-1059703D01*
G01X1394014Y-1052316D01*
G01X1373913Y-1048558D01*
G01X1353463Y-1048558D01*
G01X1333362Y-1052316D01*
G01X1314294Y-1059703D01*
G01X1296908Y-1070468D01*
G01X1281795Y-1084244D01*
G01X1269472Y-1100563D01*
G01X1260357Y-1118869D01*
G01X1254761Y-1138537D01*
G01X1252874Y-1158899D01*
G01X86360Y-1158899D01*
G01X86360Y-798676D01*
G01X1408359Y-798676D01*
G01X1408359Y-819126D01*
G01X1412117Y-839227D01*
G01X1419504Y-858295D01*
G01X1430269Y-875681D01*
G01X1444045Y-890794D01*
G01X1460364Y-903117D01*
G01X1478670Y-912232D01*
G01X1498338Y-917828D01*
G01X1518700Y-919715D01*
G01X1518700Y-919715D01*
G01X1708700Y-919715D01*
G01X1729062Y-917828D01*
G01X1748730Y-912232D01*
G01X1767036Y-903117D01*
G01X1783355Y-890794D01*
G01X1797131Y-875681D01*
G01X1807896Y-858295D01*
G01X1815284Y-839227D01*
G01X1819041Y-819126D01*
G01X1819041Y-798676D01*
G01X1815284Y-778575D01*
G01X1807896Y-759507D01*
G01X1797131Y-742121D01*
G01X1783355Y-727009D01*
G01X1767036Y-714685D01*
G01X1748730Y-705570D01*
G01X1729062Y-699974D01*
G01X1708700Y-698087D01*
G01X1518700Y-698087D01*
G01X1498338Y-699974D01*
G01X1478670Y-705570D01*
G01X1460364Y-714685D01*
G01X1444045Y-727009D01*
G01X1430269Y-742121D01*
G01X1419504Y-759507D01*
G01X1412117Y-778575D01*
G01X1408359Y-798676D01*
G01X86360Y-798676D01*
G01X86360Y-60960D01*
G01X4964186Y-60960D01*
G01X4964186Y-9964186D01*
G37*
G54D10*
G01X4964186Y-9964186D02*
G01X86360Y-9964186D01*
G01X86360Y-60960D01*
G01X4964186Y-60960D01*
G01X4964186Y-9964186D01*
G01X762000Y-6589786D02*
G03X762000Y-6821414I0J-115814D01*
G03X762000Y-6589786I0J115814D01*
G01X762000Y-6843786D02*
G03X762000Y-7075414I0J-115814D01*
G03X762000Y-6843786I0J115814D01*
G01X762000Y-7097786D02*
G03X762000Y-7329414I0J-115814D01*
G03X762000Y-7097786I0J115814D01*
G01X867161Y-7419081D02*
G03X646186Y-7467605I-105161J-48519D01*
G03X867165Y-7516109I115814J5D01*
G01X1216312Y-7516109D01*
G01X1424134Y-7723931D01*
G03X1537298Y-7768486I66273J2336D01*
G03X1492743Y-7655322I-46891J46891D01*
G01X1270712Y-7433291D01*
G03X1236408Y-7419081I-34305J-34305D01*
G01X867161Y-7419081D01*
G01X1768111Y-7848604D02*
G03X1656587Y-7800090I-66314J0D01*
G01X909093Y-7800090D01*
G01X870664Y-7761661D01*
G03X680111Y-7639704I-108664J40061D01*
G03X802052Y-7830268I81889J-81896D01*
G01X854694Y-7882909D01*
G03X888998Y-7897118I34305J34305D01*
G01X1656587Y-7897118D01*
G03X1768111Y-7848604I45210J48514D01*
G01X762000Y-3795786D02*
G03X762000Y-4027414I0J-115814D01*
G03X762000Y-3795786I0J115814D01*
G01X762000Y-6081786D02*
G03X762000Y-6313414I0J-115814D01*
G03X762000Y-6081786I0J115814D01*
G01X762000Y-6335786D02*
G03X762000Y-6567414I0J-115814D01*
G03X762000Y-6335786I0J115814D01*
G01X762000Y-4049786D02*
G03X762000Y-4281414I0J-115814D01*
G03X762000Y-4049786I0J115814D01*
G01X762000Y-4557786D02*
G03X762000Y-4789414I0J-115814D01*
G03X762000Y-4557786I0J115814D01*
G01X762000Y-4303786D02*
G03X762000Y-4535414I0J-115814D01*
G03X762000Y-4303786I0J115814D01*
G01X762000Y-5065786D02*
G03X762000Y-5297414I0J-115814D01*
G03X762000Y-5065786I0J115814D01*
G01X762000Y-4811786D02*
G03X762000Y-5043414I0J-115814D01*
G03X762000Y-4811786I0J115814D01*
G01X762000Y-5319786D02*
G03X762000Y-5551414I0J-115814D01*
G03X762000Y-5319786I0J115814D01*
G01X762000Y-5827786D02*
G03X762000Y-6059414I0J-115814D01*
G03X762000Y-5827786I0J115814D01*
G01X762000Y-5573786D02*
G03X762000Y-5805414I0J-115814D01*
G03X762000Y-5573786I0J115814D01*
G01X762000Y-3287786D02*
G03X762000Y-3519414I0J-115814D01*
G03X762000Y-3287786I0J115814D01*
G01X762000Y-3541786D02*
G03X762000Y-3773414I0J-115814D01*
G03X762000Y-3541786I0J115814D01*
G01X762000Y-3033786D02*
G03X762000Y-3265414I0J-115814D01*
G03X762000Y-3033786I0J115814D01*
G01X762000Y-2779786D02*
G03X762000Y-3011414I0J-115814D01*
G03X762000Y-2779786I0J115814D01*
G01X646186Y-2467600D02*
G03X682000Y-2503414I35814J0D01*
G01X842000Y-2503414D01*
G03X877814Y-2467600I0J35814D01*
G01X877814Y-2307600D01*
G03X842000Y-2271786I-35814J0D01*
G01X682000Y-2271786D01*
G03X646186Y-2307600I0J-35814D01*
G01X646186Y-2467600D01*
G01X762000Y-2525786D02*
G03X762000Y-2757414I0J-115814D01*
G03X762000Y-2525786I0J115814D01*
G01X1627614Y-6203824D02*
G03X1691550Y-6267760I66273J2336D01*
G01X2770612Y-7346822D01*
G03X2883775Y-7391376I66273J2336D01*
G03X2839221Y-7278213I-46891J46891D01*
G01X1760159Y-6199151D01*
G03X1696223Y-6135215I-66273J-2336D01*
G01X1412201Y-5851193D01*
G01X1412201Y-1488529D01*
G03X1474502Y-1388899I-48513J99630D01*
G01X1474502Y-1158899D01*
G03X1252874Y-1158899I-110814J0D01*
G01X1252874Y-1388899D01*
G03X1315173Y-1488528I110814J0D01*
G01X1315173Y-5871288D01*
G03X1329383Y-5905593I48514J0D01*
G01X1627614Y-6203824D01*
G01X1518700Y-919715D02*
G01X1708700Y-919715D01*
G03X1708700Y-698087I0J110814D01*
G01X1518700Y-698087D01*
G03X1518700Y-919715I0J-110814D01*
G01X2405432Y-6195134D02*
G03X2518596Y-6239689I66273J2336D01*
G03X2474041Y-6126525I-46891J46891D01*
G01X2385664Y-6038148D01*
G03X2446186Y-5866624I-10764J100238D01*
G03X2274662Y-5927146I-71286J-71286D01*
G01X2012220Y-5664703D01*
G01X2012220Y-1488531D01*
G03X2074526Y-1388899I-48508J99633D01*
G01X2074526Y-1158899D01*
G03X1852898Y-1158899I-110814J0D01*
G01X1852898Y-1388899D01*
G03X1915192Y-1488526I110814J0D01*
G01X1915192Y-5684799D01*
G03X1929402Y-5719103I48514J0D01*
G01X2405432Y-6195134D01*
G01X2807228Y-3471827D02*
G03X2983972Y-3471827I88372J48517D01*
G01X3028294Y-3471827D01*
G03X3062599Y-3457618I0J48514D01*
G01X3249248Y-3270968D01*
G03X3371189Y-3080403I40052J108668D01*
G03X3180636Y-3202362I-81889J-81897D01*
G01X3008199Y-3374799D01*
G01X2983975Y-3374799D01*
G03X2807225Y-3374799I-88375J-48511D01*
G01X2463275Y-3374799D01*
G03X2274086Y-3423307I-88375J-48511D01*
G03X2463272Y-3471827I100814J-3D01*
G01X2807228Y-3471827D01*
G01X2807228Y-3724507D02*
G03X2983972Y-3724507I88372J48517D01*
G01X3029614Y-3724507D01*
G03X3063919Y-3710297I0J48514D01*
G01X3249248Y-3524968D01*
G03X3371189Y-3334404I40052J108668D01*
G03X3180636Y-3456362I-81889J-81896D01*
G01X3009519Y-3627479D01*
G01X2983975Y-3627479D01*
G03X2807225Y-3627479I-88375J-48511D01*
G01X2463275Y-3627479D01*
G03X2274086Y-3675986I-88375J-48511D01*
G03X2463272Y-3724507I100814J-3D01*
G01X2807228Y-3724507D01*
G01X2374900Y-2494103D02*
G03X2374900Y-2292476I0J100814D01*
G03X2374900Y-2494103I0J-100814D01*
G01X2303617Y-4836600D02*
G03X2403081Y-5004685I71283J-71289D01*
G01X2847090Y-5448694D01*
G01X2847090Y-5849535D01*
G03X2895595Y-6038724I48510J-88376D01*
G03X2944118Y-5849539I5J100814D01*
G01X2944118Y-5428599D01*
G03X2929909Y-5394295I-48514J0D01*
G01X2471693Y-4936078D01*
G03X2303617Y-4836600I-96793J28189D01*
G01X2374900Y-4605197D02*
G03X2374900Y-4806824I0J-100814D01*
G03X2374900Y-4605197I0J100814D01*
G01X2895600Y-4605197D02*
G03X2895600Y-4806824I0J-100814D01*
G03X2895600Y-4605197I0J100814D01*
G01X2895600Y-5008703D02*
G03X2895600Y-4807076I0J100814D01*
G03X2895600Y-5008703I0J-100814D01*
G01X2895600Y-2494103D02*
G03X2895600Y-2292476I0J100814D01*
G03X2895600Y-2494103I0J-100814D01*
G01X3289300Y-6856486D02*
G03X3289300Y-7088114I0J-115814D01*
G03X3289300Y-6856486I0J115814D01*
G01X3289300Y-6602486D02*
G03X3289300Y-6834114I0J-115814D01*
G03X3289300Y-6602486I0J115814D01*
G01X3289300Y-7618486D02*
G03X3289300Y-7850114I0J-115814D01*
G03X3289300Y-7618486I0J115814D01*
G01X3289300Y-7110486D02*
G03X3289300Y-7342114I0J-115814D01*
G03X3289300Y-7110486I0J115814D01*
G01X3289300Y-7364486D02*
G03X3289300Y-7596114I0J-115814D01*
G03X3289300Y-7364486I0J115814D01*
G01X3289300Y-6348486D02*
G03X3289300Y-6580114I0J-115814D01*
G03X3289300Y-6348486I0J115814D01*
G01X3289300Y-6094486D02*
G03X3289300Y-6326114I0J-115814D01*
G03X3289300Y-6094486I0J115814D01*
G01X3289300Y-5840486D02*
G03X3289300Y-6072114I0J-115814D01*
G03X3289300Y-5840486I0J115814D01*
G01X3289300Y-5586486D02*
G03X3289300Y-5818114I0J-115814D01*
G03X3289300Y-5586486I0J115814D01*
G01X3289300Y-4570486D02*
G03X3289300Y-4802114I0J-115814D01*
G03X3289300Y-4570486I0J115814D01*
G01X3289300Y-5078486D02*
G03X3289300Y-5310114I0J-115814D01*
G03X3289300Y-5078486I0J115814D01*
G01X3289300Y-4824486D02*
G03X3289300Y-5056114I0J-115814D01*
G03X3289300Y-4824486I0J115814D01*
G01X3289300Y-5332486D02*
G03X3289300Y-5564114I0J-115814D01*
G03X3289300Y-5332486I0J115814D01*
G01X3289300Y-2792486D02*
G03X3289300Y-3024114I0J-115814D01*
G03X3289300Y-2792486I0J115814D01*
G01X3289300Y-3554486D02*
G03X3289300Y-3786114I0J-115814D01*
G03X3289300Y-3554486I0J115814D01*
G01X3289300Y-3808486D02*
G03X3289300Y-4040114I0J-115814D01*
G03X3289300Y-3808486I0J115814D01*
G01X3289300Y-2538486D02*
G03X3289300Y-2770114I0J-115814D01*
G03X3289300Y-2538486I0J115814D01*
G01X3289300Y-4062486D02*
G03X3289300Y-4294114I0J-115814D01*
G03X3289300Y-4062486I0J115814D01*
G01X3289300Y-4316486D02*
G03X3289300Y-4548114I0J-115814D01*
G03X3289300Y-4316486I0J115814D01*
G01X3173486Y-2480300D02*
G03X3209300Y-2516114I35814J0D01*
G01X3369300Y-2516114D01*
G03X3405114Y-2480300I0J35814D01*
G01X3405114Y-2320300D01*
G03X3369300Y-2284486I-35814J0D01*
G01X3209300Y-2284486D01*
G03X3173486Y-2320300I0J-35814D01*
G01X3173486Y-2480300D01*
G01X3959314Y-2795900D02*
G01X3959314Y-2715900D01*
G03X3787686Y-2715900I-85814J0D01*
G01X3787686Y-2795900D01*
G03X3959314Y-2795900I85814J0D01*
G01X3959314Y-3049900D02*
G01X3959314Y-2969900D01*
G03X3787686Y-2969900I-85814J0D01*
G01X3787686Y-3049900D01*
G03X3959314Y-3049900I85814J0D01*
G01X3787686Y-3874600D02*
G03X3823500Y-3910414I35814J0D01*
G01X3923500Y-3910414D01*
G03X3959314Y-3874600I0J35814D01*
G01X3959314Y-3694600D01*
G03X3923500Y-3658786I-35814J0D01*
G01X3823500Y-3658786D01*
G03X3787686Y-3694600I0J-35814D01*
G01X3787686Y-3874600D01*
G01X3787686Y-2591900D02*
G03X3823500Y-2627714I35814J0D01*
G01X3923500Y-2627714D01*
G03X3959314Y-2591900I0J35814D01*
G01X3959314Y-2411900D01*
G03X3923500Y-2376086I-35814J0D01*
G01X3823500Y-2376086D01*
G03X3787686Y-2411900I0J-35814D01*
G01X3787686Y-2591900D01*
G01X4053588Y-6380987D02*
G03X4036397Y-6435167I48514J-45210D01*
G03X3962405Y-6711613I-9890J-145478D01*
G03X4135326Y-6483588I64102J130968D01*
G03X4150616Y-6380987I-33224J57391D01*
G01X4150616Y-4267201D01*
G03X4136406Y-4232897I-48514J0D01*
G01X3959314Y-4055804D01*
G01X3959314Y-3998600D01*
G03X3787686Y-3998600I-85814J0D01*
G01X3787686Y-4078600D01*
G03X3918165Y-4151874I85814J0D01*
G01X4053588Y-4287297D01*
G01X4053588Y-6380987D01*
G01X3959314Y-4332600D02*
G01X3959314Y-4252600D01*
G03X3787686Y-4252600I-85814J0D01*
G01X3787686Y-4332600D01*
G03X3959314Y-4332600I85814J0D01*
G01X3787686Y-5131900D02*
G03X3823500Y-5167714I35814J0D01*
G01X3923500Y-5167714D01*
G03X3959314Y-5131900I0J35814D01*
G01X3959314Y-4951900D01*
G03X3923500Y-4916086I-35814J0D01*
G01X3823500Y-4916086D01*
G03X3787686Y-4951900I0J-35814D01*
G01X3787686Y-5131900D01*
G01X3959314Y-5589900D02*
G01X3959314Y-5509900D01*
G03X3787686Y-5509900I-85814J0D01*
G01X3787686Y-5589900D01*
G03X3959314Y-5589900I85814J0D01*
G01X3959314Y-5335900D02*
G01X3959314Y-5255900D01*
G03X3787686Y-5255900I-85814J0D01*
G01X3787686Y-5335900D01*
G03X3959314Y-5335900I85814J0D01*
G01X3880693Y-6935563D02*
G03X4172321Y-6935563I145814J0D01*
G03X3880693Y-6935563I-145814J0D01*
G01X3880693Y-7290482D02*
G03X4172321Y-7290482I145814J0D01*
G03X3880693Y-7290482I-145814J0D01*
G01X3880693Y-7645400D02*
G03X4172321Y-7645400I145814J0D01*
G03X3880693Y-7645400I-145814J0D01*
G54D11*
G01X2374900Y-2393290D02*
G01X2374900Y-2483943D01*
G01X2374900Y-2393290D02*
G01X2374900Y-2302636D01*
G01X2374900Y-2393290D02*
G01X2284246Y-2393290D01*
G01X2374900Y-2393290D02*
G01X2465554Y-2393290D01*
G01X2374900Y-4706010D02*
G01X2374900Y-4615357D01*
G01X2374900Y-4706010D02*
G01X2374900Y-4796664D01*
G01X2374900Y-4706010D02*
G01X2465554Y-4706010D01*
G01X2374900Y-4706010D02*
G01X2284246Y-4706010D01*
G01X2895600Y-4907890D02*
G01X2895600Y-4998543D01*
G01X2895600Y-4907890D02*
G01X2895600Y-4817236D01*
G01X2895600Y-4907890D02*
G01X2804946Y-4907890D01*
G01X2895600Y-4907890D02*
G01X2986254Y-4907890D01*
G01X3289300Y-2400300D02*
G01X3289300Y-2294646D01*
G01X3289300Y-2400300D02*
G01X3289300Y-2505954D01*
G01X3289300Y-2400300D02*
G01X3394954Y-2400300D01*
G01X3289300Y-2400300D02*
G01X3183646Y-2400300D01*
G01X3873500Y-5549900D02*
G01X3873500Y-5434246D01*
G01X3873500Y-5549900D02*
G01X3873500Y-5665554D01*
G01X3873500Y-5549900D02*
G01X3949154Y-5549900D01*
G01X3873500Y-5549900D02*
G01X3797846Y-5549900D01*
G01X3873500Y-3009900D02*
G01X3873500Y-2894246D01*
G01X3873500Y-3009900D02*
G01X3873500Y-3125554D01*
G01X3873500Y-3009900D02*
G01X3949154Y-3009900D01*
G01X3873500Y-3009900D02*
G01X3797846Y-3009900D01*
G01X3873500Y-4292600D02*
G01X3873500Y-4176946D01*
G01X3873500Y-4292600D02*
G01X3873500Y-4408254D01*
G01X3873500Y-4292600D02*
G01X3949154Y-4292600D01*
G01X3873500Y-4292600D02*
G01X3797846Y-4292600D01*
G04 Copper End*

G04 Pad Start*
G54D12*
G01X1363688Y-1273899D03*
G01X1963712Y-1273899D03*
G54D13*
G01X1613700Y-808901D03*
G54D14*
G01X3873500Y-2755900D03*
G01X3873500Y-3009900D03*
G54D16*
G01X3873500Y-2501900D03*
G54D14*
G01X3873500Y-4038600D03*
G01X3873500Y-4292600D03*
G54D16*
G01X3873500Y-3784600D03*
G54D14*
G01X3873500Y-5295900D03*
G01X3873500Y-5549900D03*
G54D16*
G01X3873500Y-5041900D03*
G54D17*
G01X2895600Y-3423310D03*
G01X2895600Y-2393290D03*
G01X2374900Y-3423310D03*
G01X2374900Y-2393290D03*
G01X2895600Y-3675990D03*
G01X2895600Y-4706010D03*
G01X2374900Y-3675990D03*
G01X2374900Y-4706010D03*
G01X2895600Y-5937910D03*
G01X2895600Y-4907890D03*
G01X2374900Y-4907890D03*
G01X2374900Y-5937910D03*
G54D18*
G01X762000Y-7721600D03*
G01X762000Y-7467600D03*
G01X762000Y-7213600D03*
G01X762000Y-6959600D03*
G01X762000Y-6705600D03*
G01X762000Y-6451600D03*
G01X762000Y-6197600D03*
G01X762000Y-5943600D03*
G01X762000Y-5689600D03*
G01X762000Y-5435600D03*
G01X762000Y-5181600D03*
G01X762000Y-4927600D03*
G01X762000Y-4673600D03*
G01X762000Y-4419600D03*
G01X762000Y-4165600D03*
G01X762000Y-3911600D03*
G01X762000Y-3657600D03*
G01X762000Y-3403600D03*
G01X762000Y-3149600D03*
G01X762000Y-2895600D03*
G01X762000Y-2641600D03*
G54D19*
G01X762000Y-2387600D03*
G54D18*
G01X3289300Y-7734300D03*
G01X3289300Y-7480300D03*
G01X3289300Y-7226300D03*
G01X3289300Y-6972300D03*
G01X3289300Y-6718300D03*
G01X3289300Y-6464300D03*
G01X3289300Y-6210300D03*
G01X3289300Y-5956300D03*
G01X3289300Y-5702300D03*
G01X3289300Y-5448300D03*
G01X3289300Y-5194300D03*
G01X3289300Y-4940300D03*
G01X3289300Y-4686300D03*
G01X3289300Y-4432300D03*
G01X3289300Y-4178300D03*
G01X3289300Y-3924300D03*
G01X3289300Y-3670300D03*
G01X3289300Y-3416300D03*
G01X3289300Y-3162300D03*
G01X3289300Y-2908300D03*
G01X3289300Y-2654300D03*
G54D19*
G01X3289300Y-2400300D03*
G04 Pad End*

G04 Via Start*
G54D20*
G01X4026507Y-6580645D03*
G01X4026507Y-6935563D03*
G01X4026507Y-7290482D03*
G01X4026507Y-7645400D03*
G54D21*
G01X4102102Y-6426197D03*
G01X1693887Y-6201488D03*
G01X2836884Y-7344485D03*
G01X1490407Y-7721595D03*
G01X1701797Y-7848604D03*
G01X2471705Y-6192798D03*
G04 Via End*

G04 Track Start*
G54D11*
G01X2895604Y-3675993D02*
G01X3029614Y-3675993D01*
G01X3289303Y-3416303D01*
G01X2895604Y-3675993D02*
G01X2374895Y-3675993D01*
G01X2895604Y-3423313D02*
G01X3028294Y-3423313D01*
G01X3289303Y-3162304D01*
G01X2895604Y-3423313D02*
G01X2374895Y-3423313D01*
G01X3873502Y-4038602D02*
G01X4102102Y-4267201D01*
G01X4102102Y-6426197D01*
G01X1363687Y-1273897D02*
G01X1363687Y-5871288D01*
G01X1693887Y-6201488D01*
G01X1693887Y-6201488D02*
G01X2836884Y-7344485D01*
G01X761998Y-7467595D02*
G01X1236408Y-7467595D01*
G01X1490407Y-7721595D01*
G01X761998Y-7721605D02*
G01X888998Y-7848604D01*
G01X1701797Y-7848604D01*
G01X3289303Y-2400295D02*
G01X3187704Y-2298695D01*
G01X2469495Y-2298695D01*
G01X2374895Y-2393295D01*
G01X2895604Y-4907890D02*
G01X2576775Y-4907890D01*
G01X2374895Y-4706011D01*
G01X2895604Y-4907890D02*
G01X3048004Y-5060290D01*
G01X3383893Y-5060290D01*
G01X3873502Y-5549899D01*
G01X2895604Y-5937908D02*
G01X2895604Y-5428599D01*
G01X2374895Y-4907890D01*
G01X1963706Y-1273897D02*
G01X1963706Y-5684799D01*
G01X2471705Y-6192798D01*
G04 Track End*

M02*

