G04 Layer: TopLayer*
G04 EasyEDA Pro v3.2.175, 2026-09-02 15:24:44*
G04 Gerber Generator version 0.3*
G04 Scale: 100 percent, Rotated: No, Reflected: No*
G04 Dimensions in millimeters*
G04 Leading zeros omitted, absolute positions, 4 integers and 5 decimals*
G04 Generated by one-click*
G04 Object Configs: Pad,Via,Track,Text,Image,Dimension,BoardOutline,BoardCutout,CopperFilled,SolidRegion,FPCStiffener,Line,PlaneZone,ComponentProperty,ComponentSilkscreen,TearDrop*
G04 Layer Configs: 1,2,3,4,5,6,7,8,9,10,11,13,14,56*
G04 Copper Areas: 28*
%FSLAX45Y45*%
%MOMM*%
%ADD10C,0.2032*%
%ADD11C,0.254*%
%ADD12C,0.203*%
%ADD13O,1.5X3.79999*%
%ADD14O,3.39999X1.5*%
%ADD15O,1.0X1.8*%
%ADD16R,1.0X1.8*%
%ADD17C,1.3*%
%ADD18C,1.6*%
%ADD19R,1.6041X1.6*%
%ADD20R,1.6X1.6*%
%ADD21R,1.5X2.0*%
%ADD22O,3.0X2.0*%
%ADD23C,2.2*%
%ADD24C,0.61*%
G75*


G04 Copper Start*
G36*
G01X4964186Y-9964186D02*
G01X48260Y-9964186D01*
G01X48260Y-7944100D01*
G01X1367386Y-7944100D01*
G01X1369039Y-7956656D01*
G01X1373886Y-7968357D01*
G01X1381595Y-7978405D01*
G01X1391643Y-7986114D01*
G01X1403344Y-7990961D01*
G01X1415900Y-7992614D01*
G01X2755900Y-7992614D01*
G01X2768456Y-7990961D01*
G01X2780157Y-7986114D01*
G01X2790205Y-7978405D01*
G01X2797914Y-7968357D01*
G01X2802761Y-7956656D01*
G01X2804414Y-7944100D01*
G01X2804414Y-7723614D01*
G01X3173980Y-7723614D01*
G01X3173980Y-7744986D01*
G01X3177907Y-7765994D01*
G01X3185628Y-7785923D01*
G01X3196879Y-7804093D01*
G01X3211277Y-7819887D01*
G01X3228332Y-7832767D01*
G01X3247463Y-7842293D01*
G01X3268019Y-7848142D01*
G01X3289300Y-7850114D01*
G01X3310581Y-7848142D01*
G01X3331137Y-7842293D01*
G01X3350268Y-7832767D01*
G01X3367323Y-7819887D01*
G01X3381721Y-7804093D01*
G01X3392972Y-7785923D01*
G01X3400693Y-7765994D01*
G01X3404620Y-7744986D01*
G01X3404620Y-7723614D01*
G01X3400693Y-7702606D01*
G01X3392972Y-7682677D01*
G01X3381721Y-7664507D01*
G01X3367323Y-7648713D01*
G01X3350268Y-7635833D01*
G01X3331137Y-7626307D01*
G01X3310581Y-7620458D01*
G01X3289300Y-7618486D01*
G01X3289300Y-7618486D01*
G01X3268019Y-7620458D01*
G01X3247463Y-7626307D01*
G01X3228332Y-7635833D01*
G01X3211277Y-7648713D01*
G01X3196879Y-7664507D01*
G01X3185628Y-7682677D01*
G01X3177907Y-7702606D01*
G01X3173980Y-7723614D01*
G01X2804414Y-7723614D01*
G01X2804414Y-7402306D01*
G01X2817200Y-7407810D01*
G01X2830854Y-7410524D01*
G01X2844773Y-7410328D01*
G01X2858344Y-7407231D01*
G01X2870970Y-7401368D01*
G01X2882094Y-7392999D01*
G01X3213199Y-7392999D01*
G01X3198330Y-7408625D01*
G01X3186617Y-7426736D01*
G01X3178466Y-7446706D01*
G01X3174158Y-7467841D01*
G01X3173845Y-7489407D01*
G01X3177536Y-7510658D01*
G01X3185103Y-7530856D01*
G01X3196285Y-7549301D01*
G01X3210693Y-7565352D01*
G01X3227828Y-7578453D01*
G01X3247094Y-7588149D01*
G01X3267825Y-7594105D01*
G01X3289300Y-7596114D01*
G01X3310775Y-7594105D01*
G01X3331506Y-7588149D01*
G01X3350772Y-7578453D01*
G01X3367907Y-7565352D01*
G01X3382315Y-7549301D01*
G01X3393497Y-7530856D01*
G01X3401064Y-7510658D01*
G01X3404755Y-7489407D01*
G01X3404442Y-7467841D01*
G01X3400134Y-7446706D01*
G01X3391983Y-7426736D01*
G01X3380270Y-7408625D01*
G01X3365401Y-7392999D01*
G01X3553388Y-7392999D01*
G01X3691578Y-7531190D01*
G01X3701367Y-7538749D01*
G01X3712750Y-7543588D01*
G01X3724986Y-7545391D01*
G01X3724986Y-7716624D01*
G01X3726739Y-7727691D01*
G01X3731826Y-7737675D01*
G01X3739749Y-7745598D01*
G01X3749733Y-7750685D01*
G01X3760800Y-7752438D01*
G01X3860800Y-7752438D01*
G01X3868913Y-7751507D01*
G01X3876605Y-7748762D01*
G01X3883474Y-7744346D01*
G01X3898888Y-7756848D01*
G01X3915960Y-7766971D01*
G01X3934324Y-7774497D01*
G01X3953590Y-7779267D01*
G01X3973344Y-7781177D01*
G01X3994129Y-7787574D01*
G01X4015634Y-7790808D01*
G01X4037380Y-7790808D01*
G01X4058885Y-7787574D01*
G01X4079670Y-7781177D01*
G01X4102855Y-7778634D01*
G01X4125262Y-7772161D01*
G01X4146232Y-7761950D01*
G01X4165145Y-7748301D01*
G01X4181445Y-7731618D01*
G01X4194649Y-7712392D01*
G01X4204369Y-7691190D01*
G01X4210318Y-7668638D01*
G01X4212321Y-7645400D01*
G01X4210318Y-7622162D01*
G01X4204369Y-7599610D01*
G01X4194649Y-7578408D01*
G01X4181445Y-7559182D01*
G01X4165145Y-7542499D01*
G01X4146232Y-7528850D01*
G01X4125262Y-7518639D01*
G01X4102855Y-7512166D01*
G01X4079670Y-7509623D01*
G01X4058885Y-7503226D01*
G01X4037380Y-7499992D01*
G01X4015634Y-7499992D01*
G01X3994129Y-7503226D01*
G01X3973344Y-7509623D01*
G01X3960276Y-7510559D01*
G01X3912297Y-7462580D01*
G01X3902249Y-7454871D01*
G01X3890548Y-7450024D01*
G01X3877992Y-7448371D01*
G01X3745978Y-7448371D01*
G01X3607787Y-7310181D01*
G01X3597740Y-7302471D01*
G01X3586039Y-7297624D01*
G01X3573483Y-7295971D01*
G01X3381814Y-7295971D01*
G01X3393035Y-7277797D01*
G01X3400728Y-7257871D01*
G01X3404630Y-7236872D01*
G01X3404610Y-7215513D01*
G01X3400668Y-7194520D01*
G01X3392938Y-7174609D01*
G01X3381683Y-7156456D01*
G01X3367286Y-7140678D01*
G01X3350236Y-7127813D01*
G01X3331113Y-7118298D01*
G01X3310568Y-7112456D01*
G01X3289300Y-7110486D01*
G01X3268032Y-7112456D01*
G01X3247487Y-7118298D01*
G01X3228364Y-7127813D01*
G01X3211314Y-7140678D01*
G01X3196917Y-7156456D01*
G01X3185662Y-7174609D01*
G01X3177932Y-7194520D01*
G01X3173990Y-7215513D01*
G01X3173970Y-7236872D01*
G01X3177872Y-7257871D01*
G01X3185565Y-7277797D01*
G01X3196786Y-7295971D01*
G01X2882094Y-7295971D01*
G01X2870970Y-7287602D01*
G01X2858344Y-7281740D01*
G01X2844773Y-7278642D01*
G01X2830854Y-7278446D01*
G01X2817200Y-7281160D01*
G01X2804414Y-7286665D01*
G01X2804414Y-6961614D01*
G01X3173980Y-6961614D01*
G01X3173980Y-6982986D01*
G01X3177907Y-7003994D01*
G01X3185628Y-7023923D01*
G01X3196879Y-7042093D01*
G01X3211277Y-7057887D01*
G01X3228332Y-7070767D01*
G01X3247463Y-7080293D01*
G01X3268019Y-7086142D01*
G01X3289300Y-7088114D01*
G01X3310581Y-7086142D01*
G01X3331137Y-7080293D01*
G01X3350268Y-7070767D01*
G01X3367323Y-7057887D01*
G01X3381721Y-7042093D01*
G01X3392972Y-7023923D01*
G01X3400693Y-7003994D01*
G01X3404620Y-6982986D01*
G01X3404620Y-6961614D01*
G01X3400693Y-6940606D01*
G01X3392972Y-6920677D01*
G01X3381721Y-6902507D01*
G01X3367323Y-6886713D01*
G01X3350268Y-6873833D01*
G01X3331137Y-6864307D01*
G01X3310581Y-6858458D01*
G01X3289300Y-6856486D01*
G01X3289300Y-6856486D01*
G01X3268019Y-6858458D01*
G01X3247463Y-6864307D01*
G01X3228332Y-6873833D01*
G01X3211277Y-6886713D01*
G01X3196879Y-6902507D01*
G01X3185628Y-6920677D01*
G01X3177907Y-6940606D01*
G01X3173980Y-6961614D01*
G01X2804414Y-6961614D01*
G01X2804414Y-6707614D01*
G01X3173980Y-6707614D01*
G01X3173980Y-6728986D01*
G01X3177907Y-6749994D01*
G01X3185628Y-6769923D01*
G01X3196879Y-6788093D01*
G01X3211277Y-6803887D01*
G01X3228332Y-6816767D01*
G01X3247463Y-6826293D01*
G01X3268019Y-6832142D01*
G01X3289300Y-6834114D01*
G01X3310581Y-6832142D01*
G01X3331137Y-6826293D01*
G01X3350268Y-6816767D01*
G01X3367323Y-6803887D01*
G01X3381721Y-6788093D01*
G01X3392972Y-6769923D01*
G01X3400693Y-6749994D01*
G01X3404620Y-6728986D01*
G01X3404620Y-6707614D01*
G01X3400693Y-6686606D01*
G01X3392972Y-6666677D01*
G01X3381721Y-6648507D01*
G01X3367323Y-6632713D01*
G01X3350268Y-6619833D01*
G01X3331137Y-6610307D01*
G01X3310581Y-6604458D01*
G01X3289300Y-6602486D01*
G01X3289300Y-6602486D01*
G01X3268019Y-6604458D01*
G01X3247463Y-6610307D01*
G01X3228332Y-6619833D01*
G01X3211277Y-6632713D01*
G01X3196879Y-6648507D01*
G01X3185628Y-6666677D01*
G01X3177907Y-6686606D01*
G01X3173980Y-6707614D01*
G01X2804414Y-6707614D01*
G01X2804414Y-6453614D01*
G01X3173980Y-6453614D01*
G01X3173980Y-6474986D01*
G01X3177907Y-6495994D01*
G01X3185628Y-6515923D01*
G01X3196879Y-6534093D01*
G01X3211277Y-6549887D01*
G01X3228332Y-6562767D01*
G01X3247463Y-6572293D01*
G01X3268019Y-6578142D01*
G01X3289300Y-6580114D01*
G01X3310581Y-6578142D01*
G01X3331137Y-6572293D01*
G01X3350268Y-6562767D01*
G01X3367323Y-6549887D01*
G01X3381721Y-6534093D01*
G01X3392972Y-6515923D01*
G01X3400693Y-6495994D01*
G01X3404620Y-6474986D01*
G01X3404620Y-6453614D01*
G01X3400693Y-6432606D01*
G01X3392972Y-6412677D01*
G01X3381721Y-6394507D01*
G01X3367323Y-6378713D01*
G01X3350268Y-6365833D01*
G01X3331137Y-6356307D01*
G01X3310581Y-6350458D01*
G01X3289300Y-6348486D01*
G01X3289300Y-6348486D01*
G01X3268019Y-6350458D01*
G01X3247463Y-6356307D01*
G01X3228332Y-6365833D01*
G01X3211277Y-6378713D01*
G01X3196879Y-6394507D01*
G01X3185628Y-6412677D01*
G01X3177907Y-6432606D01*
G01X3173980Y-6453614D01*
G01X2804414Y-6453614D01*
G01X2804414Y-6199614D01*
G01X3173980Y-6199614D01*
G01X3173980Y-6220986D01*
G01X3177907Y-6241994D01*
G01X3185628Y-6261923D01*
G01X3196879Y-6280093D01*
G01X3211277Y-6295887D01*
G01X3228332Y-6308767D01*
G01X3247463Y-6318293D01*
G01X3268019Y-6324142D01*
G01X3289300Y-6326114D01*
G01X3310581Y-6324142D01*
G01X3331137Y-6318293D01*
G01X3350268Y-6308767D01*
G01X3367323Y-6295887D01*
G01X3381721Y-6280093D01*
G01X3392972Y-6261923D01*
G01X3400693Y-6241994D01*
G01X3404620Y-6220986D01*
G01X3404620Y-6199614D01*
G01X3400693Y-6178606D01*
G01X3392972Y-6158677D01*
G01X3381721Y-6140507D01*
G01X3367323Y-6124713D01*
G01X3350268Y-6111833D01*
G01X3331137Y-6102307D01*
G01X3310581Y-6096458D01*
G01X3289300Y-6094486D01*
G01X3289300Y-6094486D01*
G01X3268019Y-6096458D01*
G01X3247463Y-6102307D01*
G01X3228332Y-6111833D01*
G01X3211277Y-6124713D01*
G01X3196879Y-6140507D01*
G01X3185628Y-6158677D01*
G01X3177907Y-6178606D01*
G01X3173980Y-6199614D01*
G01X2804414Y-6199614D01*
G01X2804414Y-6134100D01*
G01X2802761Y-6121544D01*
G01X2797914Y-6109843D01*
G01X2790205Y-6099795D01*
G01X2780157Y-6092086D01*
G01X2768456Y-6087239D01*
G01X2755900Y-6085586D01*
G01X1415900Y-6085586D01*
G01X1403344Y-6087239D01*
G01X1391643Y-6092086D01*
G01X1381595Y-6099795D01*
G01X1373886Y-6109843D01*
G01X1369039Y-6121544D01*
G01X1367386Y-6134100D01*
G01X1367386Y-7944100D01*
G01X1367386Y-7944100D01*
G01X48260Y-7944100D01*
G01X48260Y-7710914D01*
G01X646680Y-7710914D01*
G01X646680Y-7732286D01*
G01X650607Y-7753294D01*
G01X658328Y-7773223D01*
G01X669579Y-7791393D01*
G01X683977Y-7807187D01*
G01X701032Y-7820067D01*
G01X720163Y-7829593D01*
G01X740719Y-7835442D01*
G01X762000Y-7837414D01*
G01X783281Y-7835442D01*
G01X803837Y-7829593D01*
G01X822968Y-7820067D01*
G01X840023Y-7807187D01*
G01X854421Y-7791393D01*
G01X865672Y-7773223D01*
G01X873393Y-7753294D01*
G01X877320Y-7732286D01*
G01X877320Y-7710914D01*
G01X873393Y-7689906D01*
G01X865672Y-7669977D01*
G01X854421Y-7651807D01*
G01X840023Y-7636013D01*
G01X822968Y-7623133D01*
G01X803837Y-7613607D01*
G01X783281Y-7607758D01*
G01X762000Y-7605786D01*
G01X762000Y-7605786D01*
G01X740719Y-7607758D01*
G01X720163Y-7613607D01*
G01X701032Y-7623133D01*
G01X683977Y-7636013D01*
G01X669579Y-7651807D01*
G01X658328Y-7669977D01*
G01X650607Y-7689906D01*
G01X646680Y-7710914D01*
G01X48260Y-7710914D01*
G01X48260Y-7456914D01*
G01X646680Y-7456914D01*
G01X646680Y-7478286D01*
G01X650607Y-7499294D01*
G01X658328Y-7519223D01*
G01X669579Y-7537393D01*
G01X683977Y-7553187D01*
G01X701032Y-7566067D01*
G01X720163Y-7575593D01*
G01X740719Y-7581442D01*
G01X762000Y-7583414D01*
G01X783281Y-7581442D01*
G01X803837Y-7575593D01*
G01X822968Y-7566067D01*
G01X840023Y-7553187D01*
G01X854421Y-7537393D01*
G01X865672Y-7519223D01*
G01X873393Y-7499294D01*
G01X877320Y-7478286D01*
G01X877320Y-7456914D01*
G01X873393Y-7435906D01*
G01X865672Y-7415977D01*
G01X854421Y-7397807D01*
G01X840023Y-7382013D01*
G01X822968Y-7369133D01*
G01X803837Y-7359607D01*
G01X783281Y-7353758D01*
G01X762000Y-7351786D01*
G01X762000Y-7351786D01*
G01X740719Y-7353758D01*
G01X720163Y-7359607D01*
G01X701032Y-7369133D01*
G01X683977Y-7382013D01*
G01X669579Y-7397807D01*
G01X658328Y-7415977D01*
G01X650607Y-7435906D01*
G01X646680Y-7456914D01*
G01X48260Y-7456914D01*
G01X48260Y-7202914D01*
G01X646680Y-7202914D01*
G01X646680Y-7224286D01*
G01X650607Y-7245294D01*
G01X658328Y-7265223D01*
G01X669579Y-7283393D01*
G01X683977Y-7299187D01*
G01X701032Y-7312067D01*
G01X720163Y-7321593D01*
G01X740719Y-7327442D01*
G01X762000Y-7329414D01*
G01X783281Y-7327442D01*
G01X803837Y-7321593D01*
G01X822968Y-7312067D01*
G01X840023Y-7299187D01*
G01X854421Y-7283393D01*
G01X865672Y-7265223D01*
G01X873393Y-7245294D01*
G01X877320Y-7224286D01*
G01X877320Y-7202914D01*
G01X873393Y-7181906D01*
G01X865672Y-7161977D01*
G01X854421Y-7143807D01*
G01X840023Y-7128013D01*
G01X822968Y-7115133D01*
G01X803837Y-7105607D01*
G01X783281Y-7099758D01*
G01X762000Y-7097786D01*
G01X762000Y-7097786D01*
G01X740719Y-7099758D01*
G01X720163Y-7105607D01*
G01X701032Y-7115133D01*
G01X683977Y-7128013D01*
G01X669579Y-7143807D01*
G01X658328Y-7161977D01*
G01X650607Y-7181906D01*
G01X646680Y-7202914D01*
G01X48260Y-7202914D01*
G01X48260Y-6948914D01*
G01X646680Y-6948914D01*
G01X646680Y-6970286D01*
G01X650607Y-6991294D01*
G01X658328Y-7011223D01*
G01X669579Y-7029393D01*
G01X683977Y-7045187D01*
G01X701032Y-7058067D01*
G01X720163Y-7067593D01*
G01X740719Y-7073442D01*
G01X762000Y-7075414D01*
G01X783281Y-7073442D01*
G01X803837Y-7067593D01*
G01X822968Y-7058067D01*
G01X840023Y-7045187D01*
G01X854421Y-7029393D01*
G01X865672Y-7011223D01*
G01X873393Y-6991294D01*
G01X877320Y-6970286D01*
G01X877320Y-6948914D01*
G01X873393Y-6927906D01*
G01X865672Y-6907977D01*
G01X854421Y-6889807D01*
G01X840023Y-6874013D01*
G01X822968Y-6861133D01*
G01X803837Y-6851607D01*
G01X783281Y-6845758D01*
G01X762000Y-6843786D01*
G01X762000Y-6843786D01*
G01X740719Y-6845758D01*
G01X720163Y-6851607D01*
G01X701032Y-6861133D01*
G01X683977Y-6874013D01*
G01X669579Y-6889807D01*
G01X658328Y-6907977D01*
G01X650607Y-6927906D01*
G01X646680Y-6948914D01*
G01X48260Y-6948914D01*
G01X48260Y-6694914D01*
G01X646680Y-6694914D01*
G01X646680Y-6716286D01*
G01X650607Y-6737294D01*
G01X658328Y-6757223D01*
G01X669579Y-6775393D01*
G01X683977Y-6791187D01*
G01X701032Y-6804067D01*
G01X720163Y-6813593D01*
G01X740719Y-6819442D01*
G01X762000Y-6821414D01*
G01X783281Y-6819442D01*
G01X803837Y-6813593D01*
G01X822968Y-6804067D01*
G01X840023Y-6791187D01*
G01X854421Y-6775393D01*
G01X865672Y-6757223D01*
G01X873393Y-6737294D01*
G01X877320Y-6716286D01*
G01X877320Y-6694914D01*
G01X873393Y-6673906D01*
G01X865672Y-6653977D01*
G01X854421Y-6635807D01*
G01X840023Y-6620013D01*
G01X822968Y-6607133D01*
G01X803837Y-6597607D01*
G01X783281Y-6591758D01*
G01X762000Y-6589786D01*
G01X762000Y-6589786D01*
G01X740719Y-6591758D01*
G01X720163Y-6597607D01*
G01X701032Y-6607133D01*
G01X683977Y-6620013D01*
G01X669579Y-6635807D01*
G01X658328Y-6653977D01*
G01X650607Y-6673906D01*
G01X646680Y-6694914D01*
G01X48260Y-6694914D01*
G01X48260Y-6440914D01*
G01X646680Y-6440914D01*
G01X646680Y-6462286D01*
G01X650607Y-6483294D01*
G01X658328Y-6503223D01*
G01X669579Y-6521393D01*
G01X683977Y-6537187D01*
G01X701032Y-6550067D01*
G01X720163Y-6559593D01*
G01X740719Y-6565442D01*
G01X762000Y-6567414D01*
G01X783281Y-6565442D01*
G01X803837Y-6559593D01*
G01X822968Y-6550067D01*
G01X840023Y-6537187D01*
G01X854421Y-6521393D01*
G01X865672Y-6503223D01*
G01X873393Y-6483294D01*
G01X877320Y-6462286D01*
G01X877320Y-6440914D01*
G01X873393Y-6419906D01*
G01X865672Y-6399977D01*
G01X854421Y-6381807D01*
G01X840023Y-6366013D01*
G01X822968Y-6353133D01*
G01X803837Y-6343607D01*
G01X783281Y-6337758D01*
G01X762000Y-6335786D01*
G01X762000Y-6335786D01*
G01X740719Y-6337758D01*
G01X720163Y-6343607D01*
G01X701032Y-6353133D01*
G01X683977Y-6366013D01*
G01X669579Y-6381807D01*
G01X658328Y-6399977D01*
G01X650607Y-6419906D01*
G01X646680Y-6440914D01*
G01X48260Y-6440914D01*
G01X48260Y-6186914D01*
G01X646680Y-6186914D01*
G01X646680Y-6208286D01*
G01X650607Y-6229294D01*
G01X658328Y-6249223D01*
G01X669579Y-6267393D01*
G01X683977Y-6283187D01*
G01X701032Y-6296067D01*
G01X720163Y-6305593D01*
G01X740719Y-6311442D01*
G01X762000Y-6313414D01*
G01X783281Y-6311442D01*
G01X803837Y-6305593D01*
G01X822968Y-6296067D01*
G01X840023Y-6283187D01*
G01X854421Y-6267393D01*
G01X865672Y-6249223D01*
G01X873393Y-6229294D01*
G01X877320Y-6208286D01*
G01X877320Y-6186914D01*
G01X873393Y-6165906D01*
G01X865672Y-6145977D01*
G01X854421Y-6127807D01*
G01X840023Y-6112013D01*
G01X822968Y-6099133D01*
G01X803837Y-6089607D01*
G01X783281Y-6083758D01*
G01X762000Y-6081786D01*
G01X762000Y-6081786D01*
G01X740719Y-6083758D01*
G01X720163Y-6089607D01*
G01X701032Y-6099133D01*
G01X683977Y-6112013D01*
G01X669579Y-6127807D01*
G01X658328Y-6145977D01*
G01X650607Y-6165906D01*
G01X646680Y-6186914D01*
G01X48260Y-6186914D01*
G01X48260Y-5932914D01*
G01X646680Y-5932914D01*
G01X646680Y-5954286D01*
G01X650607Y-5975294D01*
G01X658328Y-5995223D01*
G01X669579Y-6013393D01*
G01X683977Y-6029187D01*
G01X701032Y-6042067D01*
G01X720163Y-6051593D01*
G01X740719Y-6057442D01*
G01X762000Y-6059414D01*
G01X783281Y-6057442D01*
G01X803837Y-6051593D01*
G01X822968Y-6042067D01*
G01X840023Y-6029187D01*
G01X854421Y-6013393D01*
G01X865672Y-5995223D01*
G01X873393Y-5975294D01*
G01X877320Y-5954286D01*
G01X877320Y-5941065D01*
G01X2274136Y-5941065D01*
G01X2276512Y-5959895D01*
G01X2282376Y-5977946D01*
G01X2291520Y-5994577D01*
G01X2303618Y-6009201D01*
G01X2303618Y-6009201D01*
G01X2318242Y-6021297D01*
G01X2334875Y-6030439D01*
G01X2352926Y-6036300D01*
G01X2371756Y-6038675D01*
G01X2390698Y-6037479D01*
G01X2409079Y-6032753D01*
G01X2426250Y-6024667D01*
G01X2441600Y-6013505D01*
G01X2454586Y-5999664D01*
G01X2464748Y-5983635D01*
G01X2471726Y-5965985D01*
G01X2475272Y-5947340D01*
G01X2475266Y-5937910D01*
G01X2794786Y-5937910D01*
G01X2796723Y-5957578D01*
G01X2802460Y-5976490D01*
G01X2811776Y-5993920D01*
G01X2824314Y-6009197D01*
G01X2839591Y-6021734D01*
G01X2857020Y-6031050D01*
G01X2875932Y-6036787D01*
G01X2895600Y-6038724D01*
G01X2895600Y-6038724D01*
G01X2915268Y-6036787D01*
G01X2934180Y-6031050D01*
G01X2951609Y-6021734D01*
G01X2966886Y-6009197D01*
G01X2979424Y-5993920D01*
G01X2988740Y-5976490D01*
G01X2994477Y-5957578D01*
G01X2995655Y-5945614D01*
G01X3173980Y-5945614D01*
G01X3173980Y-5966986D01*
G01X3177907Y-5987994D01*
G01X3185628Y-6007923D01*
G01X3196879Y-6026093D01*
G01X3211277Y-6041887D01*
G01X3228332Y-6054767D01*
G01X3247463Y-6064293D01*
G01X3268019Y-6070142D01*
G01X3289300Y-6072114D01*
G01X3310581Y-6070142D01*
G01X3331137Y-6064293D01*
G01X3350268Y-6054767D01*
G01X3367323Y-6041887D01*
G01X3381721Y-6026093D01*
G01X3392972Y-6007923D01*
G01X3400693Y-5987994D01*
G01X3404620Y-5966986D01*
G01X3404620Y-5945614D01*
G01X3400693Y-5924606D01*
G01X3392972Y-5904677D01*
G01X3381721Y-5886507D01*
G01X3367323Y-5870713D01*
G01X3350268Y-5857833D01*
G01X3331137Y-5848307D01*
G01X3310581Y-5842458D01*
G01X3289300Y-5840486D01*
G01X3289300Y-5840486D01*
G01X3268019Y-5842458D01*
G01X3247463Y-5848307D01*
G01X3228332Y-5857833D01*
G01X3211277Y-5870713D01*
G01X3196879Y-5886507D01*
G01X3185628Y-5904677D01*
G01X3177907Y-5924606D01*
G01X3173980Y-5945614D01*
G01X2995655Y-5945614D01*
G01X2996414Y-5937910D01*
G01X2994477Y-5918243D01*
G01X2988740Y-5899331D01*
G01X2979424Y-5881901D01*
G01X2966886Y-5866624D01*
G01X2951609Y-5854087D01*
G01X2934180Y-5844771D01*
G01X2915268Y-5839034D01*
G01X2895600Y-5837097D01*
G01X2875932Y-5839034D01*
G01X2857020Y-5844771D01*
G01X2839591Y-5854087D01*
G01X2824314Y-5866624D01*
G01X2811776Y-5881901D01*
G01X2802460Y-5899331D01*
G01X2796723Y-5918243D01*
G01X2794786Y-5937910D01*
G01X2475266Y-5937910D01*
G01X2475261Y-5928361D01*
G01X2471692Y-5909720D01*
G01X2756500Y-5624913D01*
G01X3203137Y-5624913D01*
G01X3190601Y-5641709D01*
G01X3181297Y-5660489D01*
G01X3175530Y-5680639D01*
G01X3173489Y-5701498D01*
G01X3175241Y-5722384D01*
G01X3180728Y-5742611D01*
G01X3189771Y-5761519D01*
G01X3202074Y-5778487D01*
G01X3217233Y-5792960D01*
G01X3234753Y-5804464D01*
G01X3254059Y-5812622D01*
G01X3274519Y-5817167D01*
G01X3295463Y-5817950D01*
G01X3316205Y-5814945D01*
G01X3336066Y-5808252D01*
G01X3354396Y-5798088D01*
G01X3370593Y-5784788D01*
G01X3384129Y-5768786D01*
G01X3394558Y-5750606D01*
G01X3401541Y-5730845D01*
G01X3404848Y-5710149D01*
G01X3404370Y-5689195D01*
G01X3400124Y-5668671D01*
G01X3392248Y-5649248D01*
G01X3381001Y-5631563D01*
G01X3366751Y-5616194D01*
G01X3373308Y-5610703D01*
G01X3510312Y-5473699D01*
G01X3647189Y-5473699D01*
G01X3647189Y-6998796D01*
G01X3648842Y-7011352D01*
G01X3653688Y-7023053D01*
G01X3661398Y-7033101D01*
G01X3856048Y-7227751D01*
G01X3851676Y-7236978D01*
G01X3760800Y-7236978D01*
G01X3749733Y-7238731D01*
G01X3739749Y-7243818D01*
G01X3731826Y-7251741D01*
G01X3726739Y-7261725D01*
G01X3724986Y-7272792D01*
G01X3724986Y-7327900D01*
G01X3726739Y-7338967D01*
G01X3731826Y-7348951D01*
G01X3739749Y-7356874D01*
G01X3749733Y-7361961D01*
G01X3760800Y-7363714D01*
G01X3860800Y-7363714D01*
G01X3862113Y-7363690D01*
G01X3875513Y-7381287D01*
G01X3891591Y-7396476D01*
G01X3909922Y-7408853D01*
G01X3930018Y-7418091D01*
G01X3951348Y-7423945D01*
G01X3973344Y-7426259D01*
G01X3994129Y-7432655D01*
G01X4015634Y-7435890D01*
G01X4037380Y-7435890D01*
G01X4058885Y-7432655D01*
G01X4079670Y-7426259D01*
G01X4102855Y-7423716D01*
G01X4125262Y-7417243D01*
G01X4146232Y-7407032D01*
G01X4165145Y-7393383D01*
G01X4181445Y-7376700D01*
G01X4194649Y-7357474D01*
G01X4204369Y-7336272D01*
G01X4210318Y-7313719D01*
G01X4212321Y-7290482D01*
G01X4210318Y-7267244D01*
G01X4204369Y-7244692D01*
G01X4194649Y-7223490D01*
G01X4181445Y-7204264D01*
G01X4165145Y-7187580D01*
G01X4146232Y-7173932D01*
G01X4125262Y-7163721D01*
G01X4102855Y-7157248D01*
G01X4079670Y-7154704D01*
G01X4058885Y-7148308D01*
G01X4037380Y-7145074D01*
G01X4015634Y-7145074D01*
G01X3994129Y-7148308D01*
G01X3973344Y-7154704D01*
G01X3950724Y-7157137D01*
G01X3928828Y-7163312D01*
G01X3786330Y-7020814D01*
G01X3848100Y-7020814D01*
G01X3857791Y-7019478D01*
G01X3866760Y-7015569D01*
G01X3880228Y-7031354D01*
G01X3895944Y-7044902D01*
G01X3913540Y-7055899D01*
G01X3932607Y-7064086D01*
G01X3952698Y-7069274D01*
G01X3973344Y-7071341D01*
G01X3994129Y-7077737D01*
G01X4015634Y-7080971D01*
G01X4037380Y-7080971D01*
G01X4058885Y-7077737D01*
G01X4079670Y-7071341D01*
G01X4102860Y-7068796D01*
G01X4125273Y-7062320D01*
G01X4146248Y-7052104D01*
G01X4165164Y-7038449D01*
G01X4181464Y-7021758D01*
G01X4194667Y-7002524D01*
G01X4204383Y-6981314D01*
G01X4210327Y-6958753D01*
G01X4212321Y-6935509D01*
G01X4210308Y-6912266D01*
G01X4204347Y-6889711D01*
G01X4194613Y-6868508D01*
G01X4181395Y-6849285D01*
G01X4263406Y-6767273D01*
G01X4271116Y-6757226D01*
G01X4275962Y-6745525D01*
G01X4277616Y-6732969D01*
G01X4277616Y-6527797D01*
G01X4275962Y-6515241D01*
G01X4271116Y-6503540D01*
G01X4263406Y-6493492D01*
G01X4161806Y-6391893D01*
G01X4155037Y-6386254D01*
G01X4144833Y-6375486D01*
G01X4132490Y-6367256D01*
G01X4118627Y-6361975D01*
G01X4103937Y-6359909D01*
G01X4089155Y-6361159D01*
G01X4075021Y-6365665D01*
G01X4075021Y-2908909D01*
G01X4073368Y-2896353D01*
G01X4068521Y-2884652D01*
G01X4060812Y-2874605D01*
G01X3959314Y-2773107D01*
G01X3959314Y-2715900D01*
G01X3957439Y-2698058D01*
G01X3951895Y-2680996D01*
G01X3942925Y-2665460D01*
G01X3930921Y-2652128D01*
G01X3916407Y-2641583D01*
G01X3900018Y-2634286D01*
G01X3882470Y-2630556D01*
G01X3864530Y-2630556D01*
G01X3846982Y-2634286D01*
G01X3830593Y-2641583D01*
G01X3816079Y-2652128D01*
G01X3804075Y-2665460D01*
G01X3795105Y-2680996D01*
G01X3789561Y-2698058D01*
G01X3787686Y-2715900D01*
G01X3787686Y-2795900D01*
G01X3789604Y-2813941D01*
G01X3795272Y-2831176D01*
G01X3804437Y-2846834D01*
G01X3816689Y-2860216D01*
G01X3831480Y-2870722D01*
G01X3848150Y-2877884D01*
G01X3865953Y-2881381D01*
G01X3884093Y-2881057D01*
G01X3901760Y-2876927D01*
G01X3918163Y-2869175D01*
G01X3977993Y-2929004D01*
G01X3977993Y-6443138D01*
G01X3977993Y-6443138D01*
G01X3973344Y-6444868D01*
G01X3953311Y-6446826D01*
G01X3933788Y-6451724D01*
G01X3915202Y-6459454D01*
G01X3897964Y-6469846D01*
G01X3882450Y-6482672D01*
G01X3869003Y-6497649D01*
G01X3857917Y-6514450D01*
G01X3848100Y-6513078D01*
G01X3748100Y-6513078D01*
G01X3744217Y-6513289D01*
G01X3744217Y-5509900D01*
G01X3787686Y-5509900D01*
G01X3787686Y-5589900D01*
G01X3789561Y-5607742D01*
G01X3795105Y-5624804D01*
G01X3804075Y-5640340D01*
G01X3816079Y-5653672D01*
G01X3830593Y-5664217D01*
G01X3846982Y-5671514D01*
G01X3864530Y-5675244D01*
G01X3882470Y-5675244D01*
G01X3900018Y-5671514D01*
G01X3916407Y-5664217D01*
G01X3930921Y-5653672D01*
G01X3942925Y-5640340D01*
G01X3951895Y-5624804D01*
G01X3957439Y-5607742D01*
G01X3959314Y-5589900D01*
G01X3959314Y-5589900D01*
G01X3959314Y-5509900D01*
G01X3957439Y-5492058D01*
G01X3951895Y-5474996D01*
G01X3942925Y-5459460D01*
G01X3930921Y-5446128D01*
G01X3916407Y-5435583D01*
G01X3900018Y-5428286D01*
G01X3882470Y-5424556D01*
G01X3864530Y-5424556D01*
G01X3846982Y-5428286D01*
G01X3830593Y-5435583D01*
G01X3816079Y-5446128D01*
G01X3804075Y-5459460D01*
G01X3795105Y-5474996D01*
G01X3789561Y-5492058D01*
G01X3787686Y-5509900D01*
G01X3744217Y-5509900D01*
G01X3744217Y-5493794D01*
G01X3828836Y-5409175D01*
G01X3845240Y-5416927D01*
G01X3862906Y-5421057D01*
G01X3881047Y-5421381D01*
G01X3898850Y-5417884D01*
G01X3915519Y-5410722D01*
G01X3930311Y-5400216D01*
G01X3942563Y-5386835D01*
G01X3951728Y-5371176D01*
G01X3957396Y-5353941D01*
G01X3959314Y-5335900D01*
G01X3959314Y-5255900D01*
G01X3957439Y-5238058D01*
G01X3951895Y-5220996D01*
G01X3942925Y-5205460D01*
G01X3930921Y-5192128D01*
G01X3916407Y-5181583D01*
G01X3900018Y-5174286D01*
G01X3882470Y-5170556D01*
G01X3864530Y-5170556D01*
G01X3846982Y-5174286D01*
G01X3830593Y-5181583D01*
G01X3816079Y-5192128D01*
G01X3804075Y-5205460D01*
G01X3795105Y-5220996D01*
G01X3789561Y-5238058D01*
G01X3787686Y-5255900D01*
G01X3787686Y-5313106D01*
G01X3661398Y-5439394D01*
G01X3653688Y-5449442D01*
G01X3648842Y-5461143D01*
G01X3647189Y-5473699D01*
G01X3510312Y-5473699D01*
G01X3816909Y-5167102D01*
G01X3823500Y-5167714D01*
G01X3923500Y-5167714D01*
G01X3934567Y-5165961D01*
G01X3944551Y-5160874D01*
G01X3952474Y-5152951D01*
G01X3957561Y-5142967D01*
G01X3959314Y-5131900D01*
G01X3959314Y-4951900D01*
G01X3957561Y-4940833D01*
G01X3952474Y-4930849D01*
G01X3944551Y-4922926D01*
G01X3934567Y-4917839D01*
G01X3923500Y-4916086D01*
G01X3823500Y-4916086D01*
G01X3812433Y-4917839D01*
G01X3802449Y-4922926D01*
G01X3794526Y-4930849D01*
G01X3789439Y-4940833D01*
G01X3787686Y-4951900D01*
G01X3787686Y-5059107D01*
G01X3404935Y-5441858D01*
G01X3402055Y-5421857D01*
G01X3395742Y-5402661D01*
G01X3386189Y-5384854D01*
G01X3373686Y-5368978D01*
G01X3358613Y-5355518D01*
G01X3341431Y-5344882D01*
G01X3322662Y-5337395D01*
G01X3302876Y-5333285D01*
G01X3282678Y-5332676D01*
G01X3262681Y-5335587D01*
G01X3243494Y-5341929D01*
G01X3225702Y-5351511D01*
G01X3209847Y-5364038D01*
G01X3196410Y-5379132D01*
G01X3185801Y-5396331D01*
G01X3178343Y-5415112D01*
G01X3174264Y-5434903D01*
G01X3173686Y-5455103D01*
G01X3176629Y-5475095D01*
G01X3183001Y-5494272D01*
G01X3192610Y-5512049D01*
G01X3205163Y-5527885D01*
G01X2736405Y-5527885D01*
G01X2723848Y-5529538D01*
G01X2712148Y-5534385D01*
G01X2702100Y-5542094D01*
G01X2403079Y-5841115D01*
G01X2384438Y-5837549D01*
G01X2365459Y-5837540D01*
G01X2346814Y-5841088D01*
G01X2329165Y-5848067D01*
G01X2313137Y-5858231D01*
G01X2299298Y-5871219D01*
G01X2288138Y-5886571D01*
G01X2280053Y-5903742D01*
G01X2275330Y-5922124D01*
G01X2274136Y-5941065D01*
G01X877320Y-5941065D01*
G01X877320Y-5932914D01*
G01X873393Y-5911906D01*
G01X865672Y-5891977D01*
G01X854421Y-5873807D01*
G01X840023Y-5858013D01*
G01X822968Y-5845133D01*
G01X803837Y-5835607D01*
G01X783281Y-5829758D01*
G01X762000Y-5827786D01*
G01X762000Y-5827786D01*
G01X740719Y-5829758D01*
G01X720163Y-5835607D01*
G01X701032Y-5845133D01*
G01X683977Y-5858013D01*
G01X669579Y-5873807D01*
G01X658328Y-5891977D01*
G01X650607Y-5911906D01*
G01X646680Y-5932914D01*
G01X48260Y-5932914D01*
G01X48260Y-5678914D01*
G01X646680Y-5678914D01*
G01X646680Y-5700286D01*
G01X650607Y-5721294D01*
G01X658328Y-5741223D01*
G01X669579Y-5759393D01*
G01X683977Y-5775187D01*
G01X701032Y-5788067D01*
G01X720163Y-5797593D01*
G01X740719Y-5803442D01*
G01X762000Y-5805414D01*
G01X783281Y-5803442D01*
G01X803837Y-5797593D01*
G01X822968Y-5788067D01*
G01X840023Y-5775187D01*
G01X854421Y-5759393D01*
G01X865672Y-5741223D01*
G01X873393Y-5721294D01*
G01X877320Y-5700286D01*
G01X877320Y-5678914D01*
G01X873393Y-5657906D01*
G01X865672Y-5637977D01*
G01X854421Y-5619807D01*
G01X840023Y-5604013D01*
G01X822968Y-5591133D01*
G01X803837Y-5581607D01*
G01X783281Y-5575758D01*
G01X762000Y-5573786D01*
G01X762000Y-5573786D01*
G01X740719Y-5575758D01*
G01X720163Y-5581607D01*
G01X701032Y-5591133D01*
G01X683977Y-5604013D01*
G01X669579Y-5619807D01*
G01X658328Y-5637977D01*
G01X650607Y-5657906D01*
G01X646680Y-5678914D01*
G01X48260Y-5678914D01*
G01X48260Y-5424914D01*
G01X646680Y-5424914D01*
G01X646680Y-5446286D01*
G01X650607Y-5467294D01*
G01X658328Y-5487223D01*
G01X669579Y-5505393D01*
G01X683977Y-5521187D01*
G01X701032Y-5534067D01*
G01X720163Y-5543593D01*
G01X740719Y-5549442D01*
G01X762000Y-5551414D01*
G01X783281Y-5549442D01*
G01X803837Y-5543593D01*
G01X822968Y-5534067D01*
G01X840023Y-5521187D01*
G01X854421Y-5505393D01*
G01X865672Y-5487223D01*
G01X873393Y-5467294D01*
G01X877320Y-5446286D01*
G01X877320Y-5424914D01*
G01X873393Y-5403906D01*
G01X865672Y-5383977D01*
G01X854421Y-5365807D01*
G01X840023Y-5350013D01*
G01X822968Y-5337133D01*
G01X803837Y-5327607D01*
G01X783281Y-5321758D01*
G01X762000Y-5319786D01*
G01X762000Y-5319786D01*
G01X740719Y-5321758D01*
G01X720163Y-5327607D01*
G01X701032Y-5337133D01*
G01X683977Y-5350013D01*
G01X669579Y-5365807D01*
G01X658328Y-5383977D01*
G01X650607Y-5403906D01*
G01X646680Y-5424914D01*
G01X48260Y-5424914D01*
G01X48260Y-5170914D01*
G01X646680Y-5170914D01*
G01X646680Y-5192286D01*
G01X650607Y-5213294D01*
G01X658328Y-5233223D01*
G01X669579Y-5251393D01*
G01X683977Y-5267187D01*
G01X701032Y-5280067D01*
G01X720163Y-5289593D01*
G01X740719Y-5295442D01*
G01X762000Y-5297414D01*
G01X783281Y-5295442D01*
G01X803837Y-5289593D01*
G01X822968Y-5280067D01*
G01X840023Y-5267187D01*
G01X854421Y-5251393D01*
G01X865672Y-5233223D01*
G01X873393Y-5213294D01*
G01X877320Y-5192286D01*
G01X877320Y-5183614D01*
G01X3173980Y-5183614D01*
G01X3173980Y-5204986D01*
G01X3177907Y-5225994D01*
G01X3185628Y-5245923D01*
G01X3196879Y-5264093D01*
G01X3211277Y-5279887D01*
G01X3228332Y-5292767D01*
G01X3247463Y-5302293D01*
G01X3268019Y-5308142D01*
G01X3289300Y-5310114D01*
G01X3310581Y-5308142D01*
G01X3331137Y-5302293D01*
G01X3350268Y-5292767D01*
G01X3367323Y-5279887D01*
G01X3381721Y-5264093D01*
G01X3392972Y-5245923D01*
G01X3400693Y-5225994D01*
G01X3404620Y-5204986D01*
G01X3404620Y-5183614D01*
G01X3400693Y-5162606D01*
G01X3392972Y-5142677D01*
G01X3381721Y-5124507D01*
G01X3367323Y-5108713D01*
G01X3350268Y-5095833D01*
G01X3331137Y-5086307D01*
G01X3310581Y-5080458D01*
G01X3289300Y-5078486D01*
G01X3289300Y-5078486D01*
G01X3268019Y-5080458D01*
G01X3247463Y-5086307D01*
G01X3228332Y-5095833D01*
G01X3211277Y-5108713D01*
G01X3196879Y-5124507D01*
G01X3185628Y-5142677D01*
G01X3177907Y-5162606D01*
G01X3173980Y-5183614D01*
G01X877320Y-5183614D01*
G01X877320Y-5170914D01*
G01X873393Y-5149906D01*
G01X865672Y-5129977D01*
G01X854421Y-5111807D01*
G01X840023Y-5096013D01*
G01X822968Y-5083133D01*
G01X803837Y-5073607D01*
G01X783281Y-5067758D01*
G01X762000Y-5065786D01*
G01X762000Y-5065786D01*
G01X740719Y-5067758D01*
G01X720163Y-5073607D01*
G01X701032Y-5083133D01*
G01X683977Y-5096013D01*
G01X669579Y-5111807D01*
G01X658328Y-5129977D01*
G01X650607Y-5149906D01*
G01X646680Y-5170914D01*
G01X48260Y-5170914D01*
G01X48260Y-4916914D01*
G01X646680Y-4916914D01*
G01X646680Y-4938286D01*
G01X650607Y-4959294D01*
G01X658328Y-4979223D01*
G01X669579Y-4997393D01*
G01X683977Y-5013187D01*
G01X701032Y-5026067D01*
G01X720163Y-5035593D01*
G01X740719Y-5041442D01*
G01X762000Y-5043414D01*
G01X783281Y-5041442D01*
G01X803837Y-5035593D01*
G01X822968Y-5026067D01*
G01X840023Y-5013187D01*
G01X854421Y-4997393D01*
G01X865672Y-4979223D01*
G01X873393Y-4959294D01*
G01X877320Y-4938286D01*
G01X877320Y-4916914D01*
G01X873393Y-4895906D01*
G01X865672Y-4875977D01*
G01X854421Y-4857807D01*
G01X840023Y-4842013D01*
G01X822968Y-4829133D01*
G01X803837Y-4819607D01*
G01X783281Y-4813758D01*
G01X762000Y-4811786D01*
G01X762000Y-4811786D01*
G01X740719Y-4813758D01*
G01X720163Y-4819607D01*
G01X701032Y-4829133D01*
G01X683977Y-4842013D01*
G01X669579Y-4857807D01*
G01X658328Y-4875977D01*
G01X650607Y-4895906D01*
G01X646680Y-4916914D01*
G01X48260Y-4916914D01*
G01X48260Y-4662914D01*
G01X646680Y-4662914D01*
G01X646680Y-4684286D01*
G01X650607Y-4705294D01*
G01X658328Y-4725223D01*
G01X669579Y-4743393D01*
G01X683977Y-4759187D01*
G01X701032Y-4772067D01*
G01X720163Y-4781593D01*
G01X740719Y-4787442D01*
G01X762000Y-4789414D01*
G01X783281Y-4787442D01*
G01X803837Y-4781593D01*
G01X822968Y-4772067D01*
G01X840023Y-4759187D01*
G01X854421Y-4743393D01*
G01X865672Y-4725223D01*
G01X872787Y-4706857D01*
G01X2274090Y-4706857D01*
G01X2276235Y-4726715D01*
G01X2282253Y-4745760D01*
G01X2291908Y-4763245D01*
G01X2304821Y-4778484D01*
G01X2320484Y-4790877D01*
G01X2338284Y-4799940D01*
G01X2357520Y-4805315D01*
G01X2377439Y-4806792D01*
G01X2397258Y-4804314D01*
G01X2416200Y-4797976D01*
G01X2403082Y-4811095D01*
G01X2384440Y-4807528D01*
G01X2365461Y-4807519D01*
G01X2346817Y-4811066D01*
G01X2329167Y-4818046D01*
G01X2313139Y-4828209D01*
G01X2299299Y-4841197D01*
G01X2288139Y-4856548D01*
G01X2280054Y-4873719D01*
G01X2275330Y-4892101D01*
G01X2274135Y-4911042D01*
G01X2276512Y-4929872D01*
G01X2282375Y-4947923D01*
G01X2291518Y-4964555D01*
G01X2303616Y-4979178D01*
G01X2318241Y-4991275D01*
G01X2334873Y-5000417D01*
G01X2352924Y-5006279D01*
G01X2371754Y-5008654D01*
G01X2390696Y-5007458D01*
G01X2409077Y-5002733D01*
G01X2426248Y-4994647D01*
G01X2441598Y-4983486D01*
G01X2454585Y-4969645D01*
G01X2464747Y-4953616D01*
G01X2471725Y-4935967D01*
G01X2475272Y-4917322D01*
G01X2475266Y-4907890D01*
G01X2794786Y-4907890D01*
G01X2796723Y-4927557D01*
G01X2802460Y-4946469D01*
G01X2811776Y-4963899D01*
G01X2824314Y-4979176D01*
G01X2839591Y-4991713D01*
G01X2857020Y-5001029D01*
G01X2875932Y-5006766D01*
G01X2895600Y-5008703D01*
G01X2895600Y-5008703D01*
G01X2915268Y-5006766D01*
G01X2934180Y-5001029D01*
G01X2951609Y-4991713D01*
G01X2966886Y-4979176D01*
G01X2979424Y-4963899D01*
G01X2988740Y-4946469D01*
G01X2993853Y-4929614D01*
G01X3173980Y-4929614D01*
G01X3173980Y-4950986D01*
G01X3177907Y-4971994D01*
G01X3185628Y-4991923D01*
G01X3196879Y-5010093D01*
G01X3211277Y-5025887D01*
G01X3228332Y-5038767D01*
G01X3247463Y-5048293D01*
G01X3268019Y-5054142D01*
G01X3289300Y-5056114D01*
G01X3310581Y-5054142D01*
G01X3331137Y-5048293D01*
G01X3350268Y-5038767D01*
G01X3367323Y-5025887D01*
G01X3381721Y-5010093D01*
G01X3392972Y-4991923D01*
G01X3400693Y-4971994D01*
G01X3404620Y-4950986D01*
G01X3404620Y-4929614D01*
G01X3400693Y-4908606D01*
G01X3392972Y-4888677D01*
G01X3381721Y-4870507D01*
G01X3367323Y-4854713D01*
G01X3350268Y-4841833D01*
G01X3331137Y-4832307D01*
G01X3310581Y-4826458D01*
G01X3289300Y-4824486D01*
G01X3289300Y-4824486D01*
G01X3268019Y-4826458D01*
G01X3247463Y-4832307D01*
G01X3228332Y-4841833D01*
G01X3211277Y-4854713D01*
G01X3196879Y-4870507D01*
G01X3185628Y-4888677D01*
G01X3177907Y-4908606D01*
G01X3173980Y-4929614D01*
G01X2993853Y-4929614D01*
G01X2994477Y-4927557D01*
G01X2996414Y-4907890D01*
G01X2994477Y-4888222D01*
G01X2988740Y-4869310D01*
G01X2979424Y-4851880D01*
G01X2966886Y-4836603D01*
G01X2951609Y-4824066D01*
G01X2934180Y-4814750D01*
G01X2915268Y-4809013D01*
G01X2895600Y-4807076D01*
G01X2875932Y-4809013D01*
G01X2857020Y-4814750D01*
G01X2839591Y-4824066D01*
G01X2824314Y-4836603D01*
G01X2811776Y-4851880D01*
G01X2802460Y-4869310D01*
G01X2796723Y-4888222D01*
G01X2794786Y-4907890D01*
G01X2475266Y-4907890D01*
G01X2475261Y-4898342D01*
G01X2471693Y-4879702D01*
G01X3173487Y-4177908D01*
G01X3174914Y-4196428D01*
G01X3179283Y-4214482D01*
G01X3186483Y-4231606D01*
G01X3196328Y-4247358D01*
G01X3208564Y-4261333D01*
G01X3222877Y-4273173D01*
G01X3212871Y-4277912D01*
G01X3204199Y-4284797D01*
G01X2883010Y-4605986D01*
G01X2863392Y-4610480D01*
G01X2845058Y-4618781D01*
G01X2828738Y-4630559D01*
G01X2815083Y-4645343D01*
G01X2804637Y-4662546D01*
G01X2797816Y-4681481D01*
G01X2794892Y-4701393D01*
G01X2795982Y-4721489D01*
G01X2801041Y-4740969D01*
G01X2809870Y-4759055D01*
G01X2822115Y-4775027D01*
G01X2837288Y-4788249D01*
G01X2854786Y-4798193D01*
G01X2873910Y-4804463D01*
G01X2893898Y-4806810D01*
G01X2913955Y-4805139D01*
G01X2933280Y-4799518D01*
G01X2951103Y-4790170D01*
G01X2966714Y-4777468D01*
G01X2979491Y-4761918D01*
G01X2988925Y-4744140D01*
G01X2994639Y-4724843D01*
G01X2996407Y-4704795D01*
G01X2994156Y-4684795D01*
G01X2991195Y-4675614D01*
G01X3173980Y-4675614D01*
G01X3173980Y-4696986D01*
G01X3177907Y-4717994D01*
G01X3185628Y-4737923D01*
G01X3196879Y-4756093D01*
G01X3211277Y-4771887D01*
G01X3228332Y-4784767D01*
G01X3247463Y-4794293D01*
G01X3268019Y-4800142D01*
G01X3289300Y-4802114D01*
G01X3310581Y-4800142D01*
G01X3331137Y-4794293D01*
G01X3350268Y-4784767D01*
G01X3367323Y-4771887D01*
G01X3381721Y-4756093D01*
G01X3392972Y-4737923D01*
G01X3400693Y-4717994D01*
G01X3404620Y-4696986D01*
G01X3404620Y-4675614D01*
G01X3400693Y-4654606D01*
G01X3392972Y-4634677D01*
G01X3381721Y-4616507D01*
G01X3367323Y-4600713D01*
G01X3350268Y-4587833D01*
G01X3331137Y-4578307D01*
G01X3310581Y-4572458D01*
G01X3289300Y-4570486D01*
G01X3289300Y-4570486D01*
G01X3268019Y-4572458D01*
G01X3247463Y-4578307D01*
G01X3228332Y-4587833D01*
G01X3211277Y-4600713D01*
G01X3196879Y-4616507D01*
G01X3185628Y-4634677D01*
G01X3177907Y-4654606D01*
G01X3173980Y-4675614D01*
G01X2991195Y-4675614D01*
G01X2987978Y-4665641D01*
G01X2978118Y-4648096D01*
G01X3175035Y-4451179D01*
G01X3180521Y-4472049D01*
G01X3189784Y-4491540D01*
G01X3202502Y-4508974D01*
G01X3218233Y-4523746D01*
G01X3236432Y-4535343D01*
G01X3256466Y-4543362D01*
G01X3277640Y-4547525D01*
G01X3299219Y-4547688D01*
G01X3320454Y-4543845D01*
G01X3340607Y-4536129D01*
G01X3358979Y-4524808D01*
G01X3374931Y-4510275D01*
G01X3387911Y-4493035D01*
G01X3397466Y-4473687D01*
G01X3403267Y-4452901D01*
G01X3405110Y-4431401D01*
G01X3402933Y-4409931D01*
G01X3396811Y-4389238D01*
G01X3386955Y-4370040D01*
G01X3373710Y-4353004D01*
G01X3474114Y-4252600D01*
G01X3787686Y-4252600D01*
G01X3787686Y-4332600D01*
G01X3789561Y-4350442D01*
G01X3795105Y-4367504D01*
G01X3804075Y-4383040D01*
G01X3816079Y-4396372D01*
G01X3830593Y-4406917D01*
G01X3846982Y-4414214D01*
G01X3864530Y-4417944D01*
G01X3882470Y-4417944D01*
G01X3900018Y-4414214D01*
G01X3916407Y-4406917D01*
G01X3930921Y-4396372D01*
G01X3942925Y-4383040D01*
G01X3951895Y-4367504D01*
G01X3957439Y-4350442D01*
G01X3959314Y-4332600D01*
G01X3959314Y-4332600D01*
G01X3959314Y-4252600D01*
G01X3957439Y-4234758D01*
G01X3951895Y-4217696D01*
G01X3942925Y-4202160D01*
G01X3930921Y-4188828D01*
G01X3916407Y-4178283D01*
G01X3900018Y-4170986D01*
G01X3882470Y-4167256D01*
G01X3864530Y-4167256D01*
G01X3846982Y-4170986D01*
G01X3830593Y-4178283D01*
G01X3816079Y-4188828D01*
G01X3804075Y-4202160D01*
G01X3795105Y-4217696D01*
G01X3789561Y-4234758D01*
G01X3787686Y-4252600D01*
G01X3474114Y-4252600D01*
G01X3728114Y-3998600D01*
G01X3787686Y-3998600D01*
G01X3787686Y-4078600D01*
G01X3789561Y-4096442D01*
G01X3795105Y-4113504D01*
G01X3804075Y-4129040D01*
G01X3816079Y-4142372D01*
G01X3830593Y-4152917D01*
G01X3846982Y-4160214D01*
G01X3864530Y-4163944D01*
G01X3882470Y-4163944D01*
G01X3900018Y-4160214D01*
G01X3916407Y-4152917D01*
G01X3930921Y-4142372D01*
G01X3942925Y-4129040D01*
G01X3951895Y-4113504D01*
G01X3957439Y-4096442D01*
G01X3959314Y-4078600D01*
G01X3959314Y-4078600D01*
G01X3959314Y-3998600D01*
G01X3957439Y-3980758D01*
G01X3951895Y-3963696D01*
G01X3942925Y-3948160D01*
G01X3930921Y-3934828D01*
G01X3916407Y-3924283D01*
G01X3900018Y-3916986D01*
G01X3882470Y-3913256D01*
G01X3864530Y-3913256D01*
G01X3846982Y-3916986D01*
G01X3830593Y-3924283D01*
G01X3816079Y-3934828D01*
G01X3804075Y-3948160D01*
G01X3795105Y-3963696D01*
G01X3789561Y-3980758D01*
G01X3787686Y-3998600D01*
G01X3728114Y-3998600D01*
G01X3816911Y-3909803D01*
G01X3823500Y-3910414D01*
G01X3923500Y-3910414D01*
G01X3934567Y-3908661D01*
G01X3944551Y-3903574D01*
G01X3952474Y-3895651D01*
G01X3957561Y-3885667D01*
G01X3959314Y-3874600D01*
G01X3959314Y-3694600D01*
G01X3957561Y-3683533D01*
G01X3952474Y-3673549D01*
G01X3944551Y-3665626D01*
G01X3934567Y-3660539D01*
G01X3923500Y-3658786D01*
G01X3823500Y-3658786D01*
G01X3812433Y-3660539D01*
G01X3802449Y-3665626D01*
G01X3794526Y-3673549D01*
G01X3789439Y-3683533D01*
G01X3787686Y-3694600D01*
G01X3787686Y-3801809D01*
G01X3404945Y-4184551D01*
G01X3404346Y-4164982D01*
G01X3400458Y-4145794D01*
G01X3393395Y-4127534D01*
G01X3383356Y-4110726D01*
G01X3370630Y-4095848D01*
G01X3355579Y-4083327D01*
G01X3338635Y-4073520D01*
G01X3320281Y-4066707D01*
G01X3301041Y-4063083D01*
G01X3281466Y-4062751D01*
G01X3262114Y-4065722D01*
G01X3243540Y-4071910D01*
G01X3226273Y-4081138D01*
G01X3210808Y-4093143D01*
G01X3210808Y-4009457D01*
G01X3227137Y-4022017D01*
G01X3245434Y-4031485D01*
G01X3265118Y-4037561D01*
G01X3285567Y-4040054D01*
G01X3306135Y-4038884D01*
G01X3326170Y-4034088D01*
G01X3345038Y-4025819D01*
G01X3362143Y-4014337D01*
G01X3376943Y-4000007D01*
G01X3388970Y-3983281D01*
G01X3397843Y-3964689D01*
G01X3403282Y-3944819D01*
G01X3405114Y-3924300D01*
G01X3403282Y-3903781D01*
G01X3397843Y-3883911D01*
G01X3388970Y-3865319D01*
G01X3376943Y-3848593D01*
G01X3362143Y-3834263D01*
G01X3345038Y-3822781D01*
G01X3326170Y-3814512D01*
G01X3306135Y-3809716D01*
G01X3285567Y-3808546D01*
G01X3265118Y-3811039D01*
G01X3245434Y-3817115D01*
G01X3227137Y-3826583D01*
G01X3210808Y-3839143D01*
G01X3210808Y-3817408D01*
G01X3249248Y-3778968D01*
G01X3269421Y-3784395D01*
G01X3290240Y-3786110D01*
G01X3311030Y-3784057D01*
G01X3331112Y-3778303D01*
G01X3349834Y-3769035D01*
G01X3366586Y-3756554D01*
G01X3380824Y-3741267D01*
G01X3392083Y-3723671D01*
G01X3399999Y-3704338D01*
G01X3404313Y-3683898D01*
G01X3404885Y-3663015D01*
G01X3401695Y-3642370D01*
G01X3394850Y-3622633D01*
G01X3384569Y-3604447D01*
G01X3371189Y-3588404D01*
G01X3355145Y-3575025D01*
G01X3336958Y-3564747D01*
G01X3317221Y-3557902D01*
G01X3296575Y-3554715D01*
G01X3275693Y-3555288D01*
G01X3255253Y-3559604D01*
G01X3235921Y-3567521D01*
G01X3218326Y-3578782D01*
G01X3203040Y-3593021D01*
G01X3190560Y-3609774D01*
G01X3181294Y-3628497D01*
G01X3175541Y-3648580D01*
G01X3173490Y-3669369D01*
G01X3175207Y-3690189D01*
G01X3180636Y-3710361D01*
G01X3127989Y-3763008D01*
G01X3120279Y-3773055D01*
G01X3115433Y-3784756D01*
G01X3113780Y-3797312D01*
G01X3113780Y-4100397D01*
G01X2466866Y-4747310D01*
G01X2466866Y-4747310D01*
G01X2473203Y-4728369D01*
G01X2475682Y-4708550D01*
G01X2474204Y-4688631D01*
G01X2468829Y-4669394D01*
G01X2459767Y-4651595D01*
G01X2447373Y-4635931D01*
G01X2432135Y-4623019D01*
G01X2414650Y-4613364D01*
G01X2395604Y-4607346D01*
G01X2375746Y-4605200D01*
G01X2355855Y-4607012D01*
G01X2336712Y-4612709D01*
G01X2319067Y-4622069D01*
G01X2303614Y-4634724D01*
G01X2290959Y-4650177D01*
G01X2281599Y-4667822D01*
G01X2275901Y-4686966D01*
G01X2274090Y-4706857D01*
G01X872787Y-4706857D01*
G01X873393Y-4705294D01*
G01X877320Y-4684286D01*
G01X877320Y-4662914D01*
G01X873393Y-4641906D01*
G01X865672Y-4621977D01*
G01X854421Y-4603807D01*
G01X840023Y-4588013D01*
G01X822968Y-4575133D01*
G01X803837Y-4565607D01*
G01X783281Y-4559758D01*
G01X762000Y-4557786D01*
G01X762000Y-4557786D01*
G01X740719Y-4559758D01*
G01X720163Y-4565607D01*
G01X701032Y-4575133D01*
G01X683977Y-4588013D01*
G01X669579Y-4603807D01*
G01X658328Y-4621977D01*
G01X650607Y-4641906D01*
G01X646680Y-4662914D01*
G01X48260Y-4662914D01*
G01X48260Y-4408914D01*
G01X646680Y-4408914D01*
G01X646680Y-4430286D01*
G01X650607Y-4451294D01*
G01X658328Y-4471223D01*
G01X669579Y-4489393D01*
G01X683977Y-4505187D01*
G01X701032Y-4518067D01*
G01X720163Y-4527593D01*
G01X740719Y-4533442D01*
G01X762000Y-4535414D01*
G01X783281Y-4533442D01*
G01X803837Y-4527593D01*
G01X822968Y-4518067D01*
G01X840023Y-4505187D01*
G01X854421Y-4489393D01*
G01X865672Y-4471223D01*
G01X873393Y-4451294D01*
G01X877320Y-4430286D01*
G01X877320Y-4408914D01*
G01X873393Y-4387906D01*
G01X865672Y-4367977D01*
G01X854421Y-4349807D01*
G01X840023Y-4334013D01*
G01X822968Y-4321133D01*
G01X803837Y-4311607D01*
G01X783281Y-4305758D01*
G01X762000Y-4303786D01*
G01X762000Y-4303786D01*
G01X740719Y-4305758D01*
G01X720163Y-4311607D01*
G01X701032Y-4321133D01*
G01X683977Y-4334013D01*
G01X669579Y-4349807D01*
G01X658328Y-4367977D01*
G01X650607Y-4387906D01*
G01X646680Y-4408914D01*
G01X48260Y-4408914D01*
G01X48260Y-4154914D01*
G01X646680Y-4154914D01*
G01X646680Y-4176286D01*
G01X650607Y-4197294D01*
G01X658328Y-4217223D01*
G01X669579Y-4235393D01*
G01X683977Y-4251187D01*
G01X701032Y-4264067D01*
G01X720163Y-4273593D01*
G01X740719Y-4279442D01*
G01X762000Y-4281414D01*
G01X783281Y-4279442D01*
G01X803837Y-4273593D01*
G01X822968Y-4264067D01*
G01X840023Y-4251187D01*
G01X854421Y-4235393D01*
G01X865672Y-4217223D01*
G01X873393Y-4197294D01*
G01X877320Y-4176286D01*
G01X877320Y-4154914D01*
G01X873393Y-4133906D01*
G01X865672Y-4113977D01*
G01X854421Y-4095807D01*
G01X840023Y-4080013D01*
G01X822968Y-4067133D01*
G01X803837Y-4057607D01*
G01X783281Y-4051758D01*
G01X762000Y-4049786D01*
G01X762000Y-4049786D01*
G01X740719Y-4051758D01*
G01X720163Y-4057607D01*
G01X701032Y-4067133D01*
G01X683977Y-4080013D01*
G01X669579Y-4095807D01*
G01X658328Y-4113977D01*
G01X650607Y-4133906D01*
G01X646680Y-4154914D01*
G01X48260Y-4154914D01*
G01X48260Y-3900914D01*
G01X646680Y-3900914D01*
G01X646680Y-3922286D01*
G01X650607Y-3943294D01*
G01X658328Y-3963223D01*
G01X669579Y-3981393D01*
G01X683977Y-3997187D01*
G01X701032Y-4010067D01*
G01X720163Y-4019593D01*
G01X740719Y-4025442D01*
G01X762000Y-4027414D01*
G01X783281Y-4025442D01*
G01X803837Y-4019593D01*
G01X822968Y-4010067D01*
G01X840023Y-3997187D01*
G01X854421Y-3981393D01*
G01X865672Y-3963223D01*
G01X873393Y-3943294D01*
G01X877320Y-3922286D01*
G01X877320Y-3900914D01*
G01X873393Y-3879906D01*
G01X865672Y-3859977D01*
G01X854421Y-3841807D01*
G01X840023Y-3826013D01*
G01X822968Y-3813133D01*
G01X803837Y-3803607D01*
G01X783281Y-3797758D01*
G01X762000Y-3795786D01*
G01X762000Y-3795786D01*
G01X740719Y-3797758D01*
G01X720163Y-3803607D01*
G01X701032Y-3813133D01*
G01X683977Y-3826013D01*
G01X669579Y-3841807D01*
G01X658328Y-3859977D01*
G01X650607Y-3879906D01*
G01X646680Y-3900914D01*
G01X48260Y-3900914D01*
G01X48260Y-3646914D01*
G01X646680Y-3646914D01*
G01X646680Y-3668286D01*
G01X650607Y-3689294D01*
G01X658328Y-3709223D01*
G01X669579Y-3727393D01*
G01X683977Y-3743187D01*
G01X701032Y-3756067D01*
G01X720163Y-3765593D01*
G01X740719Y-3771442D01*
G01X762000Y-3773414D01*
G01X783281Y-3771442D01*
G01X803837Y-3765593D01*
G01X822968Y-3756067D01*
G01X840023Y-3743187D01*
G01X854421Y-3727393D01*
G01X865672Y-3709223D01*
G01X873393Y-3689294D01*
G01X875880Y-3675990D01*
G01X2274086Y-3675990D01*
G01X2276023Y-3695657D01*
G01X2281760Y-3714569D01*
G01X2291076Y-3731999D01*
G01X2303614Y-3747276D01*
G01X2318891Y-3759813D01*
G01X2336320Y-3769129D01*
G01X2355232Y-3774866D01*
G01X2374900Y-3776803D01*
G01X2394568Y-3774866D01*
G01X2413480Y-3769129D01*
G01X2430909Y-3759813D01*
G01X2446186Y-3747276D01*
G01X2458724Y-3731999D01*
G01X2468040Y-3714569D01*
G01X2473777Y-3695657D01*
G01X2475714Y-3675990D01*
G01X2475714Y-3675990D01*
G01X2794786Y-3675990D01*
G01X2796723Y-3695657D01*
G01X2802460Y-3714569D01*
G01X2811776Y-3731999D01*
G01X2824314Y-3747276D01*
G01X2839591Y-3759813D01*
G01X2857020Y-3769129D01*
G01X2875932Y-3774866D01*
G01X2895600Y-3776803D01*
G01X2915268Y-3774866D01*
G01X2934180Y-3769129D01*
G01X2951609Y-3759813D01*
G01X2966886Y-3747276D01*
G01X2979424Y-3731999D01*
G01X2988740Y-3714569D01*
G01X2994477Y-3695657D01*
G01X2996414Y-3675990D01*
G01X2994477Y-3656322D01*
G01X2988740Y-3637410D01*
G01X2979424Y-3619980D01*
G01X2966886Y-3604703D01*
G01X2951609Y-3592166D01*
G01X2934180Y-3582850D01*
G01X2915268Y-3577113D01*
G01X2895600Y-3575176D01*
G01X2895600Y-3575176D01*
G01X2875932Y-3577113D01*
G01X2857020Y-3582850D01*
G01X2839591Y-3592166D01*
G01X2824314Y-3604703D01*
G01X2811776Y-3619980D01*
G01X2802460Y-3637410D01*
G01X2796723Y-3656322D01*
G01X2794786Y-3675990D01*
G01X2475714Y-3675990D01*
G01X2473777Y-3656322D01*
G01X2468040Y-3637410D01*
G01X2458724Y-3619980D01*
G01X2446186Y-3604703D01*
G01X2430909Y-3592166D01*
G01X2413480Y-3582850D01*
G01X2394568Y-3577113D01*
G01X2374900Y-3575176D01*
G01X2374900Y-3575176D01*
G01X2355232Y-3577113D01*
G01X2336320Y-3582850D01*
G01X2318891Y-3592166D01*
G01X2303614Y-3604703D01*
G01X2291076Y-3619980D01*
G01X2281760Y-3637410D01*
G01X2276023Y-3656322D01*
G01X2274086Y-3675990D01*
G01X875880Y-3675990D01*
G01X877320Y-3668286D01*
G01X877320Y-3646914D01*
G01X873393Y-3625906D01*
G01X865672Y-3605977D01*
G01X854421Y-3587807D01*
G01X840023Y-3572013D01*
G01X822968Y-3559133D01*
G01X803837Y-3549607D01*
G01X783281Y-3543758D01*
G01X762000Y-3541786D01*
G01X762000Y-3541786D01*
G01X740719Y-3543758D01*
G01X720163Y-3549607D01*
G01X701032Y-3559133D01*
G01X683977Y-3572013D01*
G01X669579Y-3587807D01*
G01X658328Y-3605977D01*
G01X650607Y-3625906D01*
G01X646680Y-3646914D01*
G01X48260Y-3646914D01*
G01X48260Y-3392914D01*
G01X646680Y-3392914D01*
G01X646680Y-3414286D01*
G01X650607Y-3435294D01*
G01X658328Y-3455223D01*
G01X669579Y-3473393D01*
G01X683977Y-3489187D01*
G01X701032Y-3502067D01*
G01X720163Y-3511593D01*
G01X740719Y-3517442D01*
G01X762000Y-3519414D01*
G01X783281Y-3517442D01*
G01X803837Y-3511593D01*
G01X822968Y-3502067D01*
G01X840023Y-3489187D01*
G01X854421Y-3473393D01*
G01X865672Y-3455223D01*
G01X873393Y-3435294D01*
G01X875633Y-3423310D01*
G01X2274086Y-3423310D01*
G01X2276023Y-3442978D01*
G01X2281760Y-3461890D01*
G01X2291076Y-3479320D01*
G01X2303614Y-3494597D01*
G01X2318891Y-3507134D01*
G01X2336320Y-3516450D01*
G01X2355232Y-3522187D01*
G01X2374900Y-3524124D01*
G01X2374900Y-3524124D01*
G01X2394568Y-3522187D01*
G01X2413480Y-3516450D01*
G01X2430909Y-3507134D01*
G01X2446186Y-3494597D01*
G01X2458724Y-3479320D01*
G01X2468040Y-3461890D01*
G01X2473777Y-3442978D01*
G01X2475714Y-3423310D01*
G01X2794786Y-3423310D01*
G01X2796723Y-3442978D01*
G01X2802460Y-3461890D01*
G01X2811776Y-3479320D01*
G01X2824314Y-3494597D01*
G01X2839591Y-3507134D01*
G01X2857020Y-3516450D01*
G01X2875932Y-3522187D01*
G01X2895600Y-3524124D01*
G01X2895600Y-3524124D01*
G01X2915268Y-3522187D01*
G01X2934180Y-3516450D01*
G01X2951609Y-3507134D01*
G01X2966886Y-3494597D01*
G01X2979424Y-3479320D01*
G01X2988740Y-3461890D01*
G01X2994477Y-3442978D01*
G01X2996414Y-3423310D01*
G01X2994671Y-3405614D01*
G01X3173980Y-3405614D01*
G01X3173980Y-3426986D01*
G01X3177907Y-3447994D01*
G01X3185628Y-3467923D01*
G01X3196879Y-3486093D01*
G01X3211277Y-3501887D01*
G01X3228332Y-3514767D01*
G01X3247463Y-3524293D01*
G01X3268019Y-3530142D01*
G01X3289300Y-3532114D01*
G01X3310581Y-3530142D01*
G01X3331137Y-3524293D01*
G01X3350268Y-3514767D01*
G01X3367323Y-3501887D01*
G01X3381721Y-3486093D01*
G01X3392972Y-3467923D01*
G01X3400693Y-3447994D01*
G01X3404620Y-3426986D01*
G01X3404620Y-3405614D01*
G01X3400693Y-3384606D01*
G01X3392972Y-3364677D01*
G01X3381721Y-3346507D01*
G01X3367323Y-3330713D01*
G01X3350268Y-3317833D01*
G01X3331137Y-3308307D01*
G01X3310581Y-3302458D01*
G01X3289300Y-3300486D01*
G01X3289300Y-3300486D01*
G01X3268019Y-3302458D01*
G01X3247463Y-3308307D01*
G01X3228332Y-3317833D01*
G01X3211277Y-3330713D01*
G01X3196879Y-3346507D01*
G01X3185628Y-3364677D01*
G01X3177907Y-3384606D01*
G01X3173980Y-3405614D01*
G01X2994671Y-3405614D01*
G01X2994477Y-3403643D01*
G01X2988740Y-3384731D01*
G01X2979424Y-3367301D01*
G01X2966886Y-3352024D01*
G01X2951609Y-3339487D01*
G01X2934180Y-3330171D01*
G01X2915268Y-3324434D01*
G01X2895600Y-3322497D01*
G01X2875932Y-3324434D01*
G01X2857020Y-3330171D01*
G01X2839591Y-3339487D01*
G01X2824314Y-3352024D01*
G01X2811776Y-3367301D01*
G01X2802460Y-3384731D01*
G01X2796723Y-3403643D01*
G01X2794786Y-3423310D01*
G01X2475714Y-3423310D01*
G01X2473777Y-3403643D01*
G01X2468040Y-3384731D01*
G01X2458724Y-3367301D01*
G01X2446186Y-3352024D01*
G01X2430909Y-3339487D01*
G01X2413480Y-3330171D01*
G01X2394568Y-3324434D01*
G01X2374900Y-3322497D01*
G01X2355232Y-3324434D01*
G01X2336320Y-3330171D01*
G01X2318891Y-3339487D01*
G01X2303614Y-3352024D01*
G01X2291076Y-3367301D01*
G01X2281760Y-3384731D01*
G01X2276023Y-3403643D01*
G01X2274086Y-3423310D01*
G01X875633Y-3423310D01*
G01X877320Y-3414286D01*
G01X877320Y-3392914D01*
G01X873393Y-3371906D01*
G01X865672Y-3351977D01*
G01X854421Y-3333807D01*
G01X840023Y-3318013D01*
G01X822968Y-3305133D01*
G01X803837Y-3295607D01*
G01X783281Y-3289758D01*
G01X762000Y-3287786D01*
G01X762000Y-3287786D01*
G01X740719Y-3289758D01*
G01X720163Y-3295607D01*
G01X701032Y-3305133D01*
G01X683977Y-3318013D01*
G01X669579Y-3333807D01*
G01X658328Y-3351977D01*
G01X650607Y-3371906D01*
G01X646680Y-3392914D01*
G01X48260Y-3392914D01*
G01X48260Y-3138914D01*
G01X646680Y-3138914D01*
G01X646680Y-3160286D01*
G01X650607Y-3181294D01*
G01X658328Y-3201223D01*
G01X669579Y-3219393D01*
G01X683977Y-3235187D01*
G01X701032Y-3248067D01*
G01X720163Y-3257593D01*
G01X740719Y-3263442D01*
G01X762000Y-3265414D01*
G01X783281Y-3263442D01*
G01X803837Y-3257593D01*
G01X822968Y-3248067D01*
G01X840023Y-3235187D01*
G01X854421Y-3219393D01*
G01X865672Y-3201223D01*
G01X873393Y-3181294D01*
G01X877320Y-3160286D01*
G01X877320Y-3151614D01*
G01X3173980Y-3151614D01*
G01X3173980Y-3172986D01*
G01X3177907Y-3193994D01*
G01X3185628Y-3213923D01*
G01X3196879Y-3232093D01*
G01X3211277Y-3247887D01*
G01X3228332Y-3260767D01*
G01X3247463Y-3270293D01*
G01X3268019Y-3276142D01*
G01X3289300Y-3278114D01*
G01X3310581Y-3276142D01*
G01X3331137Y-3270293D01*
G01X3350268Y-3260767D01*
G01X3367323Y-3247887D01*
G01X3381721Y-3232093D01*
G01X3392972Y-3213923D01*
G01X3400693Y-3193994D01*
G01X3404620Y-3172986D01*
G01X3404620Y-3151614D01*
G01X3400693Y-3130606D01*
G01X3392972Y-3110677D01*
G01X3381721Y-3092507D01*
G01X3367323Y-3076713D01*
G01X3350268Y-3063833D01*
G01X3331137Y-3054307D01*
G01X3310581Y-3048458D01*
G01X3289300Y-3046486D01*
G01X3289300Y-3046486D01*
G01X3268019Y-3048458D01*
G01X3247463Y-3054307D01*
G01X3228332Y-3063833D01*
G01X3211277Y-3076713D01*
G01X3196879Y-3092507D01*
G01X3185628Y-3110677D01*
G01X3177907Y-3130606D01*
G01X3173980Y-3151614D01*
G01X877320Y-3151614D01*
G01X877320Y-3138914D01*
G01X873393Y-3117906D01*
G01X865672Y-3097977D01*
G01X854421Y-3079807D01*
G01X840023Y-3064013D01*
G01X822968Y-3051133D01*
G01X803837Y-3041607D01*
G01X783281Y-3035758D01*
G01X762000Y-3033786D01*
G01X762000Y-3033786D01*
G01X740719Y-3035758D01*
G01X720163Y-3041607D01*
G01X701032Y-3051133D01*
G01X683977Y-3064013D01*
G01X669579Y-3079807D01*
G01X658328Y-3097977D01*
G01X650607Y-3117906D01*
G01X646680Y-3138914D01*
G01X48260Y-3138914D01*
G01X48260Y-2884914D01*
G01X646680Y-2884914D01*
G01X646680Y-2906286D01*
G01X650607Y-2927294D01*
G01X658328Y-2947223D01*
G01X669579Y-2965393D01*
G01X683977Y-2981187D01*
G01X701032Y-2994067D01*
G01X720163Y-3003593D01*
G01X740719Y-3009442D01*
G01X762000Y-3011414D01*
G01X783281Y-3009442D01*
G01X803837Y-3003593D01*
G01X822968Y-2994067D01*
G01X840023Y-2981187D01*
G01X854421Y-2965393D01*
G01X865672Y-2947223D01*
G01X873393Y-2927294D01*
G01X877320Y-2906286D01*
G01X877320Y-2897614D01*
G01X3173980Y-2897614D01*
G01X3173980Y-2918986D01*
G01X3177907Y-2939994D01*
G01X3185628Y-2959923D01*
G01X3196879Y-2978093D01*
G01X3211277Y-2993887D01*
G01X3228332Y-3006767D01*
G01X3247463Y-3016293D01*
G01X3268019Y-3022142D01*
G01X3289300Y-3024114D01*
G01X3310581Y-3022142D01*
G01X3331137Y-3016293D01*
G01X3350268Y-3006767D01*
G01X3367323Y-2993887D01*
G01X3381721Y-2978093D01*
G01X3386795Y-2969900D01*
G01X3787686Y-2969900D01*
G01X3787686Y-3049900D01*
G01X3789561Y-3067742D01*
G01X3795105Y-3084804D01*
G01X3804075Y-3100340D01*
G01X3816079Y-3113672D01*
G01X3830593Y-3124217D01*
G01X3846982Y-3131514D01*
G01X3864530Y-3135244D01*
G01X3882470Y-3135244D01*
G01X3900018Y-3131514D01*
G01X3916407Y-3124217D01*
G01X3930921Y-3113672D01*
G01X3942925Y-3100340D01*
G01X3951895Y-3084804D01*
G01X3957439Y-3067742D01*
G01X3959314Y-3049900D01*
G01X3959314Y-3049900D01*
G01X3959314Y-2969900D01*
G01X3957439Y-2952058D01*
G01X3951895Y-2934996D01*
G01X3942925Y-2919460D01*
G01X3930921Y-2906128D01*
G01X3916407Y-2895583D01*
G01X3900018Y-2888286D01*
G01X3882470Y-2884556D01*
G01X3864530Y-2884556D01*
G01X3846982Y-2888286D01*
G01X3830593Y-2895583D01*
G01X3816079Y-2906128D01*
G01X3804075Y-2919460D01*
G01X3795105Y-2934996D01*
G01X3789561Y-2952058D01*
G01X3787686Y-2969900D01*
G01X3386795Y-2969900D01*
G01X3392972Y-2959923D01*
G01X3400693Y-2939994D01*
G01X3404620Y-2918986D01*
G01X3404620Y-2897614D01*
G01X3400693Y-2876606D01*
G01X3392972Y-2856677D01*
G01X3381721Y-2838507D01*
G01X3367323Y-2822713D01*
G01X3350268Y-2809833D01*
G01X3331137Y-2800307D01*
G01X3310581Y-2794458D01*
G01X3289300Y-2792486D01*
G01X3289300Y-2792486D01*
G01X3268019Y-2794458D01*
G01X3247463Y-2800307D01*
G01X3228332Y-2809833D01*
G01X3211277Y-2822713D01*
G01X3196879Y-2838507D01*
G01X3185628Y-2856677D01*
G01X3177907Y-2876606D01*
G01X3173980Y-2897614D01*
G01X877320Y-2897614D01*
G01X877320Y-2884914D01*
G01X873393Y-2863906D01*
G01X865672Y-2843977D01*
G01X854421Y-2825807D01*
G01X840023Y-2810013D01*
G01X822968Y-2797133D01*
G01X803837Y-2787607D01*
G01X783281Y-2781758D01*
G01X762000Y-2779786D01*
G01X762000Y-2779786D01*
G01X740719Y-2781758D01*
G01X720163Y-2787607D01*
G01X701032Y-2797133D01*
G01X683977Y-2810013D01*
G01X669579Y-2825807D01*
G01X658328Y-2843977D01*
G01X650607Y-2863906D01*
G01X646680Y-2884914D01*
G01X48260Y-2884914D01*
G01X48260Y-2630914D01*
G01X646680Y-2630914D01*
G01X646680Y-2652286D01*
G01X650607Y-2673294D01*
G01X658328Y-2693223D01*
G01X669579Y-2711393D01*
G01X683977Y-2727187D01*
G01X701032Y-2740067D01*
G01X720163Y-2749593D01*
G01X740719Y-2755442D01*
G01X762000Y-2757414D01*
G01X783281Y-2755442D01*
G01X803837Y-2749593D01*
G01X822968Y-2740067D01*
G01X840023Y-2727187D01*
G01X854421Y-2711393D01*
G01X865672Y-2693223D01*
G01X873393Y-2673294D01*
G01X877320Y-2652286D01*
G01X877320Y-2643614D01*
G01X3173980Y-2643614D01*
G01X3173980Y-2664986D01*
G01X3177907Y-2685994D01*
G01X3185628Y-2705923D01*
G01X3196879Y-2724093D01*
G01X3211277Y-2739887D01*
G01X3228332Y-2752767D01*
G01X3247463Y-2762293D01*
G01X3268019Y-2768142D01*
G01X3289300Y-2770114D01*
G01X3310581Y-2768142D01*
G01X3331137Y-2762293D01*
G01X3350268Y-2752767D01*
G01X3367323Y-2739887D01*
G01X3381721Y-2724093D01*
G01X3392972Y-2705923D01*
G01X3400693Y-2685994D01*
G01X3404620Y-2664986D01*
G01X3404620Y-2643614D01*
G01X3400693Y-2622606D01*
G01X3392972Y-2602677D01*
G01X3381721Y-2584507D01*
G01X3367323Y-2568713D01*
G01X3350268Y-2555833D01*
G01X3331137Y-2546307D01*
G01X3310581Y-2540458D01*
G01X3289300Y-2538486D01*
G01X3289300Y-2538486D01*
G01X3268019Y-2540458D01*
G01X3247463Y-2546307D01*
G01X3228332Y-2555833D01*
G01X3211277Y-2568713D01*
G01X3196879Y-2584507D01*
G01X3185628Y-2602677D01*
G01X3177907Y-2622606D01*
G01X3173980Y-2643614D01*
G01X877320Y-2643614D01*
G01X877320Y-2630914D01*
G01X873393Y-2609906D01*
G01X865672Y-2589977D01*
G01X854421Y-2571807D01*
G01X840023Y-2556013D01*
G01X822968Y-2543133D01*
G01X803837Y-2533607D01*
G01X783281Y-2527758D01*
G01X762000Y-2525786D01*
G01X762000Y-2525786D01*
G01X740719Y-2527758D01*
G01X720163Y-2533607D01*
G01X701032Y-2543133D01*
G01X683977Y-2556013D01*
G01X669579Y-2571807D01*
G01X658328Y-2589977D01*
G01X650607Y-2609906D01*
G01X646680Y-2630914D01*
G01X48260Y-2630914D01*
G01X48260Y-2307600D01*
G01X646186Y-2307600D01*
G01X646186Y-2467600D01*
G01X646186Y-2467600D01*
G01X647939Y-2478667D01*
G01X653026Y-2488651D01*
G01X660949Y-2496574D01*
G01X670933Y-2501661D01*
G01X682000Y-2503414D01*
G01X842000Y-2503414D01*
G01X853067Y-2501661D01*
G01X863051Y-2496574D01*
G01X870974Y-2488651D01*
G01X876061Y-2478667D01*
G01X877814Y-2467600D01*
G01X877814Y-2393290D01*
G01X2274086Y-2393290D01*
G01X2276023Y-2412957D01*
G01X2281760Y-2431869D01*
G01X2291076Y-2449299D01*
G01X2303614Y-2464576D01*
G01X2318891Y-2477113D01*
G01X2336320Y-2486429D01*
G01X2355232Y-2492166D01*
G01X2374900Y-2494103D01*
G01X2374900Y-2494103D01*
G01X2394568Y-2492166D01*
G01X2413480Y-2486429D01*
G01X2430909Y-2477113D01*
G01X2446186Y-2464576D01*
G01X2458724Y-2449299D01*
G01X2468040Y-2431869D01*
G01X2473777Y-2412957D01*
G01X2475404Y-2396431D01*
G01X2794835Y-2396431D01*
G01X2797209Y-2415261D01*
G01X2803071Y-2433312D01*
G01X2812212Y-2449945D01*
G01X2824308Y-2464570D01*
G01X2838931Y-2476669D01*
G01X2855563Y-2485812D01*
G01X2873613Y-2491677D01*
G01X2892443Y-2494054D01*
G01X2911384Y-2492860D01*
G01X2929767Y-2488137D01*
G01X2946938Y-2480053D01*
G01X2962290Y-2468893D01*
G01X2975278Y-2455054D01*
G01X2985442Y-2439026D01*
G01X2992422Y-2421377D01*
G01X2995971Y-2402733D01*
G01X2995962Y-2383754D01*
G01X2992396Y-2365112D01*
G01X3017299Y-2340209D01*
G01X3173486Y-2340209D01*
G01X3173486Y-2480300D01*
G01X3175239Y-2491367D01*
G01X3180326Y-2501351D01*
G01X3188249Y-2509274D01*
G01X3198233Y-2514361D01*
G01X3209300Y-2516114D01*
G01X3369300Y-2516114D01*
G01X3380367Y-2514361D01*
G01X3390351Y-2509274D01*
G01X3398274Y-2501351D01*
G01X3403361Y-2491367D01*
G01X3405114Y-2480300D01*
G01X3405114Y-2340209D01*
G01X3643198Y-2340209D01*
G01X3787686Y-2484698D01*
G01X3787686Y-2591900D01*
G01X3789439Y-2602967D01*
G01X3794526Y-2612951D01*
G01X3802449Y-2620874D01*
G01X3812433Y-2625961D01*
G01X3823500Y-2627714D01*
G01X3923500Y-2627714D01*
G01X3934567Y-2625961D01*
G01X3944551Y-2620874D01*
G01X3952474Y-2612951D01*
G01X3957561Y-2602967D01*
G01X3959314Y-2591900D01*
G01X3959314Y-2411900D01*
G01X3957561Y-2400833D01*
G01X3952474Y-2390849D01*
G01X3944551Y-2382926D01*
G01X3934567Y-2377839D01*
G01X3923500Y-2376086D01*
G01X3823500Y-2376086D01*
G01X3816905Y-2376699D01*
G01X3697597Y-2257391D01*
G01X3687550Y-2249681D01*
G01X3675849Y-2244835D01*
G01X3663293Y-2243181D01*
G01X2997204Y-2243181D01*
G01X2997204Y-2243181D01*
G01X2984648Y-2244835D01*
G01X2972947Y-2249681D01*
G01X2962899Y-2257391D01*
G01X2923792Y-2296498D01*
G01X2905152Y-2292929D01*
G01X2886173Y-2292917D01*
G01X2867527Y-2296463D01*
G01X2849877Y-2303440D01*
G01X2833848Y-2313602D01*
G01X2820007Y-2326588D01*
G01X2808845Y-2341938D01*
G01X2800758Y-2359108D01*
G01X2796032Y-2377489D01*
G01X2794835Y-2396431D01*
G01X2475404Y-2396431D01*
G01X2475714Y-2393290D01*
G01X2473777Y-2373622D01*
G01X2468040Y-2354710D01*
G01X2458724Y-2337280D01*
G01X2446186Y-2322003D01*
G01X2430909Y-2309466D01*
G01X2413480Y-2300150D01*
G01X2394568Y-2294413D01*
G01X2374900Y-2292476D01*
G01X2355232Y-2294413D01*
G01X2336320Y-2300150D01*
G01X2318891Y-2309466D01*
G01X2303614Y-2322003D01*
G01X2291076Y-2337280D01*
G01X2281760Y-2354710D01*
G01X2276023Y-2373622D01*
G01X2274086Y-2393290D01*
G01X877814Y-2393290D01*
G01X877814Y-2307600D01*
G01X876061Y-2296533D01*
G01X870974Y-2286549D01*
G01X863051Y-2278626D01*
G01X853067Y-2273539D01*
G01X842000Y-2271786D01*
G01X682000Y-2271786D01*
G01X670933Y-2273539D01*
G01X660949Y-2278626D01*
G01X653026Y-2286549D01*
G01X647939Y-2296533D01*
G01X646186Y-2307600D01*
G01X48260Y-2307600D01*
G01X48260Y-1158899D01*
G01X1252874Y-1158899D01*
G01X1252874Y-1388899D01*
G01X1254761Y-1409261D01*
G01X1260357Y-1428929D01*
G01X1269472Y-1447235D01*
G01X1281795Y-1463553D01*
G01X1296908Y-1477330D01*
G01X1314294Y-1488095D01*
G01X1333362Y-1495482D01*
G01X1353463Y-1499240D01*
G01X1373913Y-1499240D01*
G01X1394014Y-1495482D01*
G01X1413082Y-1488095D01*
G01X1430468Y-1477330D01*
G01X1445580Y-1463553D01*
G01X1457904Y-1447235D01*
G01X1467019Y-1428929D01*
G01X1472615Y-1409261D01*
G01X1474502Y-1388899D01*
G01X1474502Y-1388899D01*
G01X1474502Y-1158899D01*
G01X1852898Y-1158899D01*
G01X1852898Y-1388899D01*
G01X1854785Y-1409261D01*
G01X1860381Y-1428929D01*
G01X1869496Y-1447235D01*
G01X1881820Y-1463553D01*
G01X1896932Y-1477330D01*
G01X1914318Y-1488095D01*
G01X1933386Y-1495482D01*
G01X1953487Y-1499240D01*
G01X1973937Y-1499240D01*
G01X1994038Y-1495482D01*
G01X2013106Y-1488095D01*
G01X2030492Y-1477330D01*
G01X2045605Y-1463553D01*
G01X2057928Y-1447235D01*
G01X2067043Y-1428929D01*
G01X2072639Y-1409261D01*
G01X2074526Y-1388899D01*
G01X2074526Y-1158899D01*
G01X2072639Y-1138537D01*
G01X2067043Y-1118869D01*
G01X2057928Y-1100563D01*
G01X2045605Y-1084244D01*
G01X2030492Y-1070468D01*
G01X2013106Y-1059703D01*
G01X1994038Y-1052316D01*
G01X1973937Y-1048558D01*
G01X1953487Y-1048558D01*
G01X1933386Y-1052316D01*
G01X1914318Y-1059703D01*
G01X1896932Y-1070468D01*
G01X1881820Y-1084244D01*
G01X1869496Y-1100563D01*
G01X1860381Y-1118869D01*
G01X1854785Y-1138537D01*
G01X1852898Y-1158899D01*
G01X1852898Y-1158899D01*
G01X1474502Y-1158899D01*
G01X1472615Y-1138537D01*
G01X1467019Y-1118869D01*
G01X1457904Y-1100563D01*
G01X1445580Y-1084244D01*
G01X1430468Y-1070468D01*
G01X1413082Y-1059703D01*
G01X1394014Y-1052316D01*
G01X1373913Y-1048558D01*
G01X1353463Y-1048558D01*
G01X1333362Y-1052316D01*
G01X1314294Y-1059703D01*
G01X1296908Y-1070468D01*
G01X1281795Y-1084244D01*
G01X1269472Y-1100563D01*
G01X1260357Y-1118869D01*
G01X1254761Y-1138537D01*
G01X1252874Y-1158899D01*
G01X48260Y-1158899D01*
G01X48260Y-798676D01*
G01X1408359Y-798676D01*
G01X1408359Y-819126D01*
G01X1412117Y-839227D01*
G01X1419504Y-858295D01*
G01X1430269Y-875681D01*
G01X1444045Y-890794D01*
G01X1460364Y-903117D01*
G01X1478670Y-912232D01*
G01X1498338Y-917828D01*
G01X1518700Y-919715D01*
G01X1518700Y-919715D01*
G01X1708700Y-919715D01*
G01X1729062Y-917828D01*
G01X1748730Y-912232D01*
G01X1767036Y-903117D01*
G01X1783355Y-890794D01*
G01X1797131Y-875681D01*
G01X1807896Y-858295D01*
G01X1815284Y-839227D01*
G01X1819041Y-819126D01*
G01X1819041Y-798676D01*
G01X1815284Y-778575D01*
G01X1807896Y-759507D01*
G01X1797131Y-742121D01*
G01X1783355Y-727009D01*
G01X1767036Y-714685D01*
G01X1748730Y-705570D01*
G01X1729062Y-699974D01*
G01X1708700Y-698087D01*
G01X1518700Y-698087D01*
G01X1498338Y-699974D01*
G01X1478670Y-705570D01*
G01X1460364Y-714685D01*
G01X1444045Y-727009D01*
G01X1430269Y-742121D01*
G01X1419504Y-759507D01*
G01X1412117Y-778575D01*
G01X1408359Y-798676D01*
G01X48260Y-798676D01*
G01X48260Y-35814D01*
G01X4964186Y-35814D01*
G01X4964186Y-9964186D01*
G37*
G54D10*
G01X4964186Y-9964186D02*
G01X48260Y-9964186D01*
G01X48260Y-35814D01*
G01X4964186Y-35814D01*
G01X4964186Y-9964186D01*
G01X762000Y-7097786D02*
G03X762000Y-7329414I0J-115814D01*
G03X762000Y-7097786I0J115814D01*
G01X762000Y-7351786D02*
G03X762000Y-7583414I0J-115814D01*
G03X762000Y-7351786I0J115814D01*
G01X762000Y-7605786D02*
G03X762000Y-7837414I0J-115814D01*
G03X762000Y-7605786I0J115814D01*
G01X762000Y-6843786D02*
G03X762000Y-7075414I0J-115814D01*
G03X762000Y-6843786I0J115814D01*
G01X762000Y-6589786D02*
G03X762000Y-6821414I0J-115814D01*
G03X762000Y-6589786I0J115814D01*
G01X762000Y-4557786D02*
G03X762000Y-4789414I0J-115814D01*
G03X762000Y-4557786I0J115814D01*
G01X762000Y-5065786D02*
G03X762000Y-5297414I0J-115814D01*
G03X762000Y-5065786I0J115814D01*
G01X762000Y-4811786D02*
G03X762000Y-5043414I0J-115814D01*
G03X762000Y-4811786I0J115814D01*
G01X762000Y-5573786D02*
G03X762000Y-5805414I0J-115814D01*
G03X762000Y-5573786I0J115814D01*
G01X762000Y-5319786D02*
G03X762000Y-5551414I0J-115814D01*
G03X762000Y-5319786I0J115814D01*
G01X762000Y-5827786D02*
G03X762000Y-6059414I0J-115814D01*
G03X762000Y-5827786I0J115814D01*
G01X762000Y-6081786D02*
G03X762000Y-6313414I0J-115814D01*
G03X762000Y-6081786I0J115814D01*
G01X762000Y-6335786D02*
G03X762000Y-6567414I0J-115814D01*
G03X762000Y-6335786I0J115814D01*
G01X762000Y-4049786D02*
G03X762000Y-4281414I0J-115814D01*
G03X762000Y-4049786I0J115814D01*
G01X762000Y-3795786D02*
G03X762000Y-4027414I0J-115814D01*
G03X762000Y-3795786I0J115814D01*
G01X762000Y-4303786D02*
G03X762000Y-4535414I0J-115814D01*
G03X762000Y-4303786I0J115814D01*
G01X762000Y-3287786D02*
G03X762000Y-3519414I0J-115814D01*
G03X762000Y-3287786I0J115814D01*
G01X762000Y-3541786D02*
G03X762000Y-3773414I0J-115814D01*
G03X762000Y-3541786I0J115814D01*
G01X646186Y-2467600D02*
G03X682000Y-2503414I35814J0D01*
G01X842000Y-2503414D01*
G03X877814Y-2467600I0J35814D01*
G01X877814Y-2307600D01*
G03X842000Y-2271786I-35814J0D01*
G01X682000Y-2271786D01*
G03X646186Y-2307600I0J-35814D01*
G01X646186Y-2467600D01*
G01X762000Y-2525786D02*
G03X762000Y-2757414I0J-115814D01*
G03X762000Y-2525786I0J115814D01*
G01X762000Y-2779786D02*
G03X762000Y-3011414I0J-115814D01*
G03X762000Y-2779786I0J115814D01*
G01X762000Y-3033786D02*
G03X762000Y-3265414I0J-115814D01*
G03X762000Y-3033786I0J115814D01*
G01X1474502Y-1388899D02*
G01X1474502Y-1158899D01*
G03X1252874Y-1158899I-110814J0D01*
G01X1252874Y-1388899D01*
G03X1474502Y-1388899I110814J0D01*
G01X1367386Y-7944100D02*
G03X1415900Y-7992614I48514J0D01*
G01X2755900Y-7992614D01*
G03X2804414Y-7944100I0J48514D01*
G01X2804414Y-7402306D01*
G03X2882094Y-7392999I32470J57821D01*
G01X3213199Y-7392999D01*
G03X3289300Y-7596114I76101J-87301D01*
G03X3365401Y-7392999I0J115814D01*
G01X3553388Y-7392999D01*
G01X3691578Y-7531190D01*
G03X3724986Y-7545391I34305J34305D01*
G01X3724986Y-7716624D01*
G03X3760800Y-7752438I35814J0D01*
G01X3860800Y-7752438D01*
G03X3883474Y-7744346I0J35814D01*
G03X3973344Y-7781177I93033J98946D01*
G03X4079670Y-7781177I53163J135777D01*
G03X4079670Y-7509623I-3163J135777D01*
G03X3973344Y-7509623I-53163J-135777D01*
G03X3960276Y-7510559I3163J-135777D01*
G01X3912297Y-7462580D01*
G03X3877992Y-7448371I-34305J-34305D01*
G01X3745978Y-7448371D01*
G01X3607787Y-7310181D01*
G03X3573483Y-7295971I-34305J-34305D01*
G01X3381814Y-7295971D01*
G03X3289300Y-7110486I-92514J69671D01*
G03X3196786Y-7295971I0J-115814D01*
G01X2882094Y-7295971D01*
G03X2804414Y-7286665I-45210J-48514D01*
G01X2804414Y-6134100D01*
G03X2755900Y-6085586I-48514J0D01*
G01X1415900Y-6085586D01*
G03X1367386Y-6134100I0J-48514D01*
G01X1367386Y-7944100D01*
G01X1518700Y-919715D02*
G01X1708700Y-919715D01*
G03X1708700Y-698087I0J110814D01*
G01X1518700Y-698087D01*
G03X1518700Y-919715I0J-110814D01*
G01X1852898Y-1158899D02*
G01X1852898Y-1388899D01*
G03X2074526Y-1388899I110814J0D01*
G01X2074526Y-1158899D01*
G03X1852898Y-1158899I-110814J0D01*
G01X2374900Y-2494103D02*
G03X2374900Y-2292476I0J100814D01*
G03X2374900Y-2494103I0J-100814D01*
G01X2303618Y-6009201D02*
G03X2471692Y-5909720I71282J71290D01*
G01X2756500Y-5624913D01*
G01X3203137Y-5624913D01*
G03X3295463Y-5817950I86163J-77387D01*
G03X3366751Y-5616194I-6163J115650D01*
G03X3373308Y-5610703I-27748J39795D01*
G01X3816909Y-5167102D01*
G03X3823500Y-5167714I6591J35202D01*
G01X3923500Y-5167714D01*
G03X3959314Y-5131900I0J35814D01*
G01X3959314Y-4951900D01*
G03X3923500Y-4916086I-35814J0D01*
G01X3823500Y-4916086D01*
G03X3787686Y-4951900I0J-35814D01*
G01X3787686Y-5059107D01*
G01X3404935Y-5441858D01*
G03X3243494Y-5341929I-115635J-6442D01*
G03X3205163Y-5527885I45806J-106371D01*
G01X2736405Y-5527885D01*
G03X2702100Y-5542094I0J-48514D01*
G01X2403079Y-5841115D01*
G03X2303618Y-6009201I-28179J-96795D01*
G01X2466866Y-4747310D02*
G03X2303614Y-4634724I-91966J41300D01*
G03X2416200Y-4797976I71286J-71286D01*
G01X2403082Y-4811095D01*
G03X2303616Y-4979178I-28182J-96795D01*
G03X2471693Y-4879702I71284J71289D01*
G01X3173487Y-4177908D01*
G03X3222877Y-4273173I115813J-392D01*
G03X3204199Y-4284797I15626J-45928D01*
G01X2883010Y-4605986D01*
G03X2854786Y-4798193I12590J-100025D01*
G03X2978118Y-4648096I40814J92183D01*
G01X3175035Y-4451179D01*
G03X3340607Y-4536129I114265J18879D01*
G03X3373710Y-4353004I-51307J103829D01*
G01X3816911Y-3909803D01*
G03X3823500Y-3910414I6589J35203D01*
G01X3923500Y-3910414D01*
G03X3959314Y-3874600I0J35814D01*
G01X3959314Y-3694600D01*
G03X3923500Y-3658786I-35814J0D01*
G01X3823500Y-3658786D01*
G03X3787686Y-3694600I0J-35814D01*
G01X3787686Y-3801809D01*
G01X3404945Y-4184551D01*
G03X3338635Y-4073520I-115645J6251D01*
G03X3210808Y-4093143I-49335J-104780D01*
G01X3210808Y-4009457D01*
G03X3405114Y-3924300I78492J85157D01*
G03X3210808Y-3839143I-115814J0D01*
G01X3210808Y-3817408D01*
G01X3249248Y-3778968D01*
G03X3371189Y-3588404I40052J108668D01*
G03X3180636Y-3710361I-81889J-81896D01*
G01X3127989Y-3763008D01*
G03X3113780Y-3797312I34305J-34305D01*
G01X3113780Y-4100397D01*
G01X2466866Y-4747310D01*
G01X2374900Y-3524124D02*
G03X2374900Y-3322497I0J100814D01*
G03X2374900Y-3524124I0J-100814D01*
G01X2374900Y-3575176D02*
G03X2374900Y-3776803I0J-100814D01*
G03X2374900Y-3575176I0J100814D01*
G01X2895600Y-3575176D02*
G03X2895600Y-3776803I0J-100814D01*
G03X2895600Y-3575176I0J100814D01*
G01X2895600Y-3524124D02*
G03X2895600Y-3322497I0J100814D01*
G03X2895600Y-3524124I0J-100814D01*
G01X2895600Y-5008703D02*
G03X2895600Y-4807076I0J100814D01*
G03X2895600Y-5008703I0J-100814D01*
G01X2895600Y-6038724D02*
G03X2895600Y-5837097I0J100814D01*
G03X2895600Y-6038724I0J-100814D01*
G01X2997204Y-2243181D02*
G03X2962899Y-2257391I0J-48514D01*
G01X2923792Y-2296498D01*
G03X2824308Y-2464570I-28192J-96792D01*
G03X2992396Y-2365112I71292J71281D01*
G01X3017299Y-2340209D01*
G01X3173486Y-2340209D01*
G01X3173486Y-2480300D01*
G03X3209300Y-2516114I35814J0D01*
G01X3369300Y-2516114D01*
G03X3405114Y-2480300I0J35814D01*
G01X3405114Y-2340209D01*
G01X3643198Y-2340209D01*
G01X3787686Y-2484698D01*
G01X3787686Y-2591900D01*
G03X3823500Y-2627714I35814J0D01*
G01X3923500Y-2627714D01*
G03X3959314Y-2591900I0J35814D01*
G01X3959314Y-2411900D01*
G03X3923500Y-2376086I-35814J0D01*
G01X3823500Y-2376086D01*
G03X3816905Y-2376699I0J-35814D01*
G01X3697597Y-2257391D01*
G03X3663293Y-2243181I-34305J-34305D01*
G01X2997204Y-2243181D01*
G01X3289300Y-6856486D02*
G03X3289300Y-7088114I0J-115814D01*
G03X3289300Y-6856486I0J115814D01*
G01X3289300Y-7618486D02*
G03X3289300Y-7850114I0J-115814D01*
G03X3289300Y-7618486I0J115814D01*
G01X3289300Y-5840486D02*
G03X3289300Y-6072114I0J-115814D01*
G03X3289300Y-5840486I0J115814D01*
G01X3289300Y-6602486D02*
G03X3289300Y-6834114I0J-115814D01*
G03X3289300Y-6602486I0J115814D01*
G01X3289300Y-6348486D02*
G03X3289300Y-6580114I0J-115814D01*
G03X3289300Y-6348486I0J115814D01*
G01X3289300Y-6094486D02*
G03X3289300Y-6326114I0J-115814D01*
G03X3289300Y-6094486I0J115814D01*
G01X3289300Y-5078486D02*
G03X3289300Y-5310114I0J-115814D01*
G03X3289300Y-5078486I0J115814D01*
G01X3289300Y-4570486D02*
G03X3289300Y-4802114I0J-115814D01*
G03X3289300Y-4570486I0J115814D01*
G01X3289300Y-4824486D02*
G03X3289300Y-5056114I0J-115814D01*
G03X3289300Y-4824486I0J115814D01*
G01X3289300Y-2538486D02*
G03X3289300Y-2770114I0J-115814D01*
G03X3289300Y-2538486I0J115814D01*
G01X3289300Y-2792486D02*
G03X3289300Y-3024114I0J-115814D01*
G03X3289300Y-2792486I0J115814D01*
G01X3289300Y-3046486D02*
G03X3289300Y-3278114I0J-115814D01*
G03X3289300Y-3046486I0J115814D01*
G01X3289300Y-3300486D02*
G03X3289300Y-3532114I0J-115814D01*
G03X3289300Y-3300486I0J115814D01*
G01X3977993Y-6443138D02*
G03X3973344Y-6444868I48514J-137507D01*
G03X3857917Y-6514450I3163J-135777D01*
G03X3848100Y-6513078I-9817J-34442D01*
G01X3748100Y-6513078D01*
G03X3744217Y-6513289I0J-35814D01*
G01X3744217Y-5493794D01*
G01X3828836Y-5409175D01*
G03X3959314Y-5335900I44664J73275D01*
G01X3959314Y-5255900D01*
G03X3787686Y-5255900I-85814J0D01*
G01X3787686Y-5313106D01*
G01X3661398Y-5439394D01*
G03X3647189Y-5473699I34305J-34305D01*
G01X3647189Y-6998796D01*
G03X3661398Y-7033101I48514J0D01*
G01X3856048Y-7227751D01*
G03X3851676Y-7236978I120459J-62731D01*
G01X3760800Y-7236978D01*
G03X3724986Y-7272792I0J-35814D01*
G01X3724986Y-7327900D01*
G03X3760800Y-7363714I35814J0D01*
G01X3860800Y-7363714D01*
G01X3862113Y-7363690D01*
G03X3973344Y-7426259I114394J73208D01*
G03X4079670Y-7426259I53163J135777D01*
G03X4079670Y-7154704I-3163J135777D01*
G03X3973344Y-7154704I-53163J-135777D01*
G03X3928828Y-7163312I3163J-135777D01*
G01X3786330Y-7020814D01*
G01X3848100Y-7020814D01*
G03X3866760Y-7015569I0J35814D01*
G03X3973344Y-7071341I109748J80006D01*
G03X4079670Y-7071341I53163J135777D01*
G03X4181395Y-6849285I-3163J135777D01*
G01X4263406Y-6767273D01*
G03X4277616Y-6732969I-34305J34305D01*
G01X4277616Y-6527797D01*
G03X4263406Y-6493492I-48514J0D01*
G01X4161806Y-6391893D01*
G03X4155037Y-6386254I-34305J-34305D01*
G03X4118627Y-6361975I-52935J-39943D01*
G03X4075021Y-6365665I-16526J-64222D01*
G01X4075021Y-2908909D01*
G03X4060812Y-2874605I-48514J0D01*
G01X3959314Y-2773107D01*
G01X3959314Y-2715900D01*
G03X3787686Y-2715900I-85814J0D01*
G01X3787686Y-2795900D01*
G03X3918163Y-2869175I85814J0D01*
G01X3977993Y-2929004D01*
G01X3977993Y-6443138D01*
G01X3959314Y-5589900D02*
G01X3959314Y-5509900D01*
G03X3787686Y-5509900I-85814J0D01*
G01X3787686Y-5589900D01*
G03X3959314Y-5589900I85814J0D01*
G01X3959314Y-4078600D02*
G01X3959314Y-3998600D01*
G03X3787686Y-3998600I-85814J0D01*
G01X3787686Y-4078600D01*
G03X3959314Y-4078600I85814J0D01*
G01X3959314Y-4332600D02*
G01X3959314Y-4252600D01*
G03X3787686Y-4252600I-85814J0D01*
G01X3787686Y-4332600D01*
G03X3959314Y-4332600I85814J0D01*
G01X3959314Y-3049900D02*
G01X3959314Y-2969900D01*
G03X3787686Y-2969900I-85814J0D01*
G01X3787686Y-3049900D01*
G03X3959314Y-3049900I85814J0D01*
G54D11*
G01X2374900Y-2393290D02*
G01X2374900Y-2483943D01*
G01X2374900Y-2393290D02*
G01X2374900Y-2302636D01*
G01X2374900Y-2393290D02*
G01X2284246Y-2393290D01*
G01X2374900Y-2393290D02*
G01X2465554Y-2393290D01*
G01X2374900Y-4706010D02*
G01X2374900Y-4615357D01*
G01X2374900Y-4706010D02*
G01X2374900Y-4796664D01*
G01X2374900Y-4706010D02*
G01X2465554Y-4706010D01*
G01X2374900Y-4706010D02*
G01X2284246Y-4706010D01*
G01X2895600Y-4907890D02*
G01X2895600Y-4998543D01*
G01X2895600Y-4907890D02*
G01X2895600Y-4817236D01*
G01X2895600Y-4907890D02*
G01X2804946Y-4907890D01*
G01X2895600Y-4907890D02*
G01X2986254Y-4907890D01*
G01X3289300Y-2400300D02*
G01X3289300Y-2505954D01*
G01X3289300Y-2400300D02*
G01X3394954Y-2400300D01*
G01X3289300Y-2400300D02*
G01X3183646Y-2400300D01*
G01X3873500Y-5549900D02*
G01X3873500Y-5434246D01*
G01X3873500Y-5549900D02*
G01X3873500Y-5665554D01*
G01X3873500Y-5549900D02*
G01X3949154Y-5549900D01*
G01X3873500Y-5549900D02*
G01X3797846Y-5549900D01*
G01X3873500Y-3009900D02*
G01X3873500Y-2894246D01*
G01X3873500Y-3009900D02*
G01X3873500Y-3125554D01*
G01X3873500Y-3009900D02*
G01X3949154Y-3009900D01*
G01X3873500Y-3009900D02*
G01X3797846Y-3009900D01*
G01X3873500Y-4292600D02*
G01X3873500Y-4176946D01*
G01X3873500Y-4292600D02*
G01X3873500Y-4408254D01*
G01X3873500Y-4292600D02*
G01X3949154Y-4292600D01*
G01X3873500Y-4292600D02*
G01X3797846Y-4292600D01*
G04 Copper End*

G04 Text Start*
G54D12*
G01X1851660Y-6395466D02*
G01X1862836Y-6389878D01*
G01X1879854Y-6373114D01*
G01X1879854Y-6490970D01*
G01X1932686Y-6401308D02*
G01X1932686Y-6395466D01*
G01X1938274Y-6384290D01*
G01X1943862Y-6378702D01*
G01X1955292Y-6373114D01*
G01X1977644Y-6373114D01*
G01X1988820Y-6378702D01*
G01X1994408Y-6384290D01*
G01X1999996Y-6395466D01*
G01X1999996Y-6406896D01*
G01X1994408Y-6418072D01*
G01X1983232Y-6434836D01*
G01X1927098Y-6490970D01*
G01X2005838Y-6490970D01*
G01X2053082Y-6373114D02*
G01X2098040Y-6490970D01*
G01X2142998Y-6373114D02*
G01X2098040Y-6490970D01*
G01X2190242Y-6373114D02*
G01X2195830Y-6378702D01*
G01X2201418Y-6373114D01*
G01X2195830Y-6367526D01*
G01X2190242Y-6373114D01*
G01X2195830Y-6412484D02*
G01X2195830Y-6490970D01*
G01X2248662Y-6412484D02*
G01X2248662Y-6490970D01*
G01X2248662Y-6434836D02*
G01X2265426Y-6418072D01*
G01X2276856Y-6412484D01*
G01X2293620Y-6412484D01*
G01X2304796Y-6418072D01*
G01X2310384Y-6434836D01*
G01X2310384Y-6490970D01*
G01X1893570Y-7630414D02*
G01X1837436Y-7630414D01*
G01X1831848Y-7680960D01*
G01X1837436Y-7675372D01*
G01X1854454Y-7669784D01*
G01X1871218Y-7669784D01*
G01X1887982Y-7675372D01*
G01X1899158Y-7686548D01*
G01X1904746Y-7703312D01*
G01X1904746Y-7714742D01*
G01X1899158Y-7731506D01*
G01X1887982Y-7742682D01*
G01X1871218Y-7748270D01*
G01X1854454Y-7748270D01*
G01X1837436Y-7742682D01*
G01X1831848Y-7737094D01*
G01X1826260Y-7725918D01*
G01X1951990Y-7630414D02*
G01X1996948Y-7748270D01*
G01X2041906Y-7630414D02*
G01X1996948Y-7748270D01*
G01X2117344Y-7669784D02*
G01X2105914Y-7675372D01*
G01X2094738Y-7686548D01*
G01X2089150Y-7703312D01*
G01X2089150Y-7714742D01*
G01X2094738Y-7731506D01*
G01X2105914Y-7742682D01*
G01X2117344Y-7748270D01*
G01X2134108Y-7748270D01*
G01X2145284Y-7742682D01*
G01X2156460Y-7731506D01*
G01X2162048Y-7714742D01*
G01X2162048Y-7703312D01*
G01X2156460Y-7686548D01*
G01X2145284Y-7675372D01*
G01X2134108Y-7669784D01*
G01X2117344Y-7669784D01*
G01X2209292Y-7669784D02*
G01X2209292Y-7725918D01*
G01X2214880Y-7742682D01*
G01X2226056Y-7748270D01*
G01X2243074Y-7748270D01*
G01X2254250Y-7742682D01*
G01X2271014Y-7725918D01*
G01X2271014Y-7669784D02*
G01X2271014Y-7748270D01*
G01X2335022Y-7630414D02*
G01X2335022Y-7725918D01*
G01X2340610Y-7742682D01*
G01X2352040Y-7748270D01*
G01X2363216Y-7748270D01*
G01X2318258Y-7669784D02*
G01X2357628Y-7669784D01*
G01X3790950Y-7706464D02*
G01X3788410Y-7701384D01*
G01X3780790Y-7694018D01*
G01X3833114Y-7694018D01*
G01X3793490Y-7659220D02*
G01X3790950Y-7659220D01*
G01X3785870Y-7656680D01*
G01X3783330Y-7654394D01*
G01X3780790Y-7649314D01*
G01X3780790Y-7639408D01*
G01X3783330Y-7634328D01*
G01X3785870Y-7631788D01*
G01X3790950Y-7629502D01*
G01X3795776Y-7629502D01*
G01X3800856Y-7631788D01*
G01X3808222Y-7636868D01*
G01X3833114Y-7661760D01*
G01X3833114Y-7626962D01*
G01X3780790Y-7594704D02*
G01X3833114Y-7574892D01*
G01X3780790Y-7554826D02*
G01X3833114Y-7574892D01*
G01X3780790Y-7317740D02*
G01X3833114Y-7317740D01*
G01X3780790Y-7317740D02*
G01X3780790Y-7295388D01*
G01X3783330Y-7287768D01*
G01X3785870Y-7285482D01*
G01X3790950Y-7282942D01*
G01X3795776Y-7282942D01*
G01X3800856Y-7285482D01*
G01X3803396Y-7287768D01*
G01X3805936Y-7295388D01*
G01X3805936Y-7317740D02*
G01X3805936Y-7295388D01*
G01X3808222Y-7287768D01*
G01X3810762Y-7285482D01*
G01X3815842Y-7282942D01*
G01X3823208Y-7282942D01*
G01X3828288Y-7285482D01*
G01X3830828Y-7287768D01*
G01X3833114Y-7295388D01*
G01X3833114Y-7317740D01*
G01X3780790Y-6937502D02*
G01X3775710Y-6940042D01*
G01X3770630Y-6944868D01*
G01X3768090Y-6949948D01*
G01X3768090Y-6959854D01*
G01X3770630Y-6964934D01*
G01X3775710Y-6969760D01*
G01X3780790Y-6972300D01*
G01X3788156Y-6974840D01*
G01X3800602Y-6974840D01*
G01X3807968Y-6972300D01*
G01X3813048Y-6969760D01*
G01X3818128Y-6964934D01*
G01X3820414Y-6959854D01*
G01X3820414Y-6949948D01*
G01X3818128Y-6944868D01*
G01X3813048Y-6940042D01*
G01X3807968Y-6937502D01*
G01X3800602Y-6937502D01*
G01X3800602Y-6949948D02*
G01X3800602Y-6937502D01*
G01X3768090Y-6593840D02*
G01X3820414Y-6593840D01*
G01X3768090Y-6593840D02*
G01X3768090Y-6571488D01*
G01X3770630Y-6563868D01*
G01X3773170Y-6561582D01*
G01X3778250Y-6559042D01*
G01X3783076Y-6559042D01*
G01X3788156Y-6561582D01*
G01X3790696Y-6563868D01*
G01X3793236Y-6571488D01*
G01X3793236Y-6593840D01*
G01X3793236Y-6576314D02*
G01X3820414Y-6559042D01*
G04 Text End*

G04 Rect Start*
G54D11*
G01X1415900Y-6134100D02*
G01X2755900Y-6134100D01*
G01X2755900Y-7944100D01*
G01X1415900Y-7944100D01*
G01X1415900Y-6134100D01*
G04 Rect End*

G04 Pad Start*
G54D13*
G01X1363688Y-1273899D03*
G01X1963712Y-1273899D03*
G54D14*
G01X1613700Y-808901D03*
G54D15*
G01X3873500Y-2755900D03*
G01X3873500Y-3009900D03*
G54D16*
G01X3873500Y-2501900D03*
G54D15*
G01X3873500Y-4038600D03*
G01X3873500Y-4292600D03*
G54D16*
G01X3873500Y-3784600D03*
G54D15*
G01X3873500Y-5295900D03*
G01X3873500Y-5549900D03*
G54D16*
G01X3873500Y-5041900D03*
G54D17*
G01X2895600Y-3423310D03*
G01X2895600Y-2393290D03*
G01X2374900Y-3423310D03*
G01X2374900Y-2393290D03*
G01X2895600Y-3675990D03*
G01X2895600Y-4706010D03*
G01X2374900Y-3675990D03*
G01X2374900Y-4706010D03*
G01X2895600Y-5937910D03*
G01X2895600Y-4907890D03*
G01X2374900Y-4907890D03*
G01X2374900Y-5937910D03*
G54D18*
G01X762000Y-7721600D03*
G01X762000Y-7467600D03*
G01X762000Y-7213600D03*
G01X762000Y-6959600D03*
G01X762000Y-6705600D03*
G01X762000Y-6451600D03*
G01X762000Y-6197600D03*
G01X762000Y-5943600D03*
G01X762000Y-5689600D03*
G01X762000Y-5435600D03*
G01X762000Y-5181600D03*
G01X762000Y-4927600D03*
G01X762000Y-4673600D03*
G01X762000Y-4419600D03*
G01X762000Y-4165600D03*
G01X762000Y-3911600D03*
G01X762000Y-3657600D03*
G01X762000Y-3403600D03*
G01X762000Y-3149600D03*
G01X762000Y-2895600D03*
G01X762000Y-2641600D03*
G54D20*
G01X762000Y-2387600D03*
G54D18*
G01X3289300Y-7734300D03*
G01X3289300Y-7480300D03*
G01X3289300Y-7226300D03*
G01X3289300Y-6972300D03*
G01X3289300Y-6718300D03*
G01X3289300Y-6464300D03*
G01X3289300Y-6210300D03*
G01X3289300Y-5956300D03*
G01X3289300Y-5702300D03*
G01X3289300Y-5448300D03*
G01X3289300Y-5194300D03*
G01X3289300Y-4940300D03*
G01X3289300Y-4686300D03*
G01X3289300Y-4432300D03*
G01X3289300Y-4178300D03*
G01X3289300Y-3924300D03*
G01X3289300Y-3670300D03*
G01X3289300Y-3416300D03*
G01X3289300Y-3162300D03*
G01X3289300Y-2908300D03*
G01X3289300Y-2654300D03*
G54D20*
G01X3289300Y-2400300D03*
G54D21*
G01X2590800Y-6235700D03*
G01X1587500Y-6235700D03*
G01X2578100Y-7856800D03*
G01X1574800Y-7856800D03*
G54D22*
G01X4026507Y-6580645D03*
G01X4026507Y-6935563D03*
G01X4026507Y-7290482D03*
G01X4026507Y-7645400D03*
G04 Pad End*

G04 Via Start*
G54D23*
G01X4026507Y-6580645D03*
G01X4026507Y-6935563D03*
G01X4026507Y-7290482D03*
G01X4026507Y-7645400D03*
G54D24*
G01X4102102Y-6426197D03*
G01X1693887Y-6201488D03*
G01X2836884Y-7344485D03*
G01X1490407Y-7721595D03*
G01X1701797Y-7848604D03*
G01X2471705Y-6192798D03*
G04 Via End*

G04 Track Start*
G54D11*
G01X3873502Y-3784602D02*
G01X3339003Y-4319101D01*
G01X3238504Y-4319101D01*
G01X2895604Y-4662001D01*
G01X2895604Y-4706011D01*
G01X3873502Y-5295899D02*
G01X3695703Y-5473699D01*
G01X3695703Y-6998796D01*
G01X3987388Y-7290482D01*
G01X4026507Y-7290482D01*
G01X4102102Y-6426197D02*
G01X4127502Y-6426197D01*
G01X4229102Y-6527797D01*
G01X4229102Y-6732969D01*
G01X4026507Y-6935563D01*
G01X1693887Y-6201488D02*
G01X1621717Y-6201488D01*
G01X1587507Y-6235698D01*
G01X2836884Y-7344485D02*
G01X3573483Y-7344485D01*
G01X3725883Y-7496885D01*
G01X3877992Y-7496885D01*
G01X4026507Y-7645400D01*
G01X3873502Y-2755904D02*
G01X4026507Y-2908909D01*
G01X4026507Y-6580645D01*
G01X1490407Y-7721595D02*
G01X1490407Y-7772394D01*
G01X1574807Y-7856794D01*
G01X1701797Y-7848604D02*
G01X2569915Y-7848604D01*
G01X2578105Y-7856794D01*
G01X3873502Y-2501905D02*
G01X3663293Y-2291695D01*
G01X2997204Y-2291695D01*
G01X2895604Y-2393295D01*
G01X3873502Y-3009904D02*
G01X3873502Y-2984494D01*
G01X3289303Y-2400295D01*
G01X3873502Y-3009904D02*
G01X3975102Y-3111504D01*
G01X3975102Y-4191002D01*
G01X3873502Y-4292601D01*
G01X3339003Y-4827100D01*
G01X2976394Y-4827100D01*
G01X2895604Y-4907890D01*
G01X3873502Y-5041900D02*
G01X3339003Y-5576399D01*
G01X2736405Y-5576399D01*
G01X2374895Y-5937908D01*
G01X2374895Y-4907890D02*
G01X3162294Y-4120492D01*
G01X3162294Y-3797312D01*
G01X3289303Y-3670303D01*
G01X2471705Y-6192798D02*
G01X2547905Y-6192798D01*
G01X2590805Y-6235698D01*
G04 Track End*

M02*

