G04 Layer: DrillDrawingLayer*
G04 EasyEDA Pro v3.2.175, 2026-09-02 15:24:44*
G04 Gerber Generator version 0.3*
G04 Scale: 100 percent, Rotated: No, Reflected: No*
G04 Dimensions in millimeters*
G04 Leading zeros omitted, absolute positions, 4 integers and 5 decimals*
G04 Generated by one-click*
G04 Object Configs: Pad,Via,Track,Text,Image,Dimension,BoardOutline,BoardCutout,CopperFilled,SolidRegion,FPCStiffener,Line,PlaneZone,ComponentProperty,ComponentSilkscreen,TearDrop*
G04 Layer Configs: 1,2,3,4,5,6,7,8,9,10,11,13,14,56*
G04 Copper Areas: 0*
%FSLAX45Y45*%
%MOMM*%
%AMIconRect*4,1,4,0.28,-0.28,-0.28,-0.28,-0.28,0.28,0.28,0.28,0.28,-0.28,0*4,0,4,0.233333,-0.233333,0.233333,0.233333,-0.233333,0.233333,-0.233333,-0.233333,0.233333,-0.233333,0*%
%AMIconTriangle*4,1,3,-0.339593,0.240473,0.339593,0.240473,0,-0.37884,-0.339593,0.240473,0*4,0,3,-0.265673,0.19404,0,-0.27342,0.266233,0.19404,-0.265673,0.19404,0*%
%AMIconStar6*4,1,12,0.12068,0.20888,0.298527,0.172713,0.241313,0,0.298527,-0.17206,0.12068,-0.208227,0,-0.344073,-0.120073,-0.208227,-0.298573,-0.17206,-0.240707,0,-0.298573,0.17206,-0.120073,0.20888,0,0.344073,0.12068,0.20888,0*4,0,12,-0.000467,0.273467,-0.090067,0.171733,-0.237533,0.136733,-0.193667,-0.007467,-0.237533,-0.1372,-0.090067,-0.171733,-0.000467,-0.273933,0.090067,-0.171733,0.237533,-0.1372,0.194133,0.007,0.237533,0.1372,0.090067,0.171267,-0.000467,0.273467,0*%
%AMIconStar4*4,1,8,-0.311733,0.311733,0,0.202533,0.311733,0.311733,0.202533,0,0.311733,-0.311733,0,-0.202533,-0.304407,-0.311733,-0.202533,0,-0.311733,0.311733,0*4,0,8,0.233333,-0.233333,0.1512,0,0.233333,0.233333,0,0.1512,-0.233333,0.233333,-0.1512,0,-0.233333,-0.233333,0,-0.1512,0.233333,-0.233333,0*%
%AMIconPlus*4,1,12,0.1736,-0.28,-0.1736,-0.28,-0.1736,-0.1736,-0.28,-0.1736,-0.28,0.1736,-0.1736,0.1736,-0.1736,0.28,0.1736,0.28,0.1736,0.1736,0.28,0.1736,0.28,-0.1736,0.1736,-0.1736,0.1736,-0.28,0*4,0,12,0.126933,-0.233333,0.126933,-0.126933,0.233333,-0.126933,0.233333,0.126933,0.126933,0.126933,0.126933,0.233333,-0.126933,0.233333,-0.126933,0.126933,-0.233333,0.126933,-0.233333,-0.126933,-0.126933,-0.126933,-0.126933,-0.233333,0.126933,-0.233333,0*%
%AMIconX*4,1,16,0.28,-0.28,0.076347,-0.28,0,-0.203653,-0.076347,-0.28,-0.28,-0.28,-0.28,-0.076347,-0.203653,0,-0.28,0.076347,-0.28,0.28,-0.076347,0.28,0,0.203653,0.076347,0.28,0.28,0.28,0.28,0.076347,0.203653,0,0.28,-0.076347,0.28,-0.28,0*4,0,16,0.23352,-0.23296,0.23352,-0.095853,0.137107,0.000093,0.23352,0.095853,0.23352,0.2331,0.095853,0.2331,0,0.137107,-0.095853,0.2331,-0.23352,0.2331,-0.23352,0.095853,-0.137107,0.000093,-0.23352,-0.095853,-0.23352,-0.23296,-0.095853,-0.23296,0,-0.137107,0.095853,-0.23296,0.23352,-0.23296,0*%
%ADD10IconRect*%
%ADD11C,0.616X0.522667*%
%ADD12IconTriangle*%
%ADD13IconStar6*%
%ADD14IconStar4*%
%ADD15IconPlus*%
%ADD16IconX*%
%ADD17C,0.2032*%
%ADD18C,0.254*%
G75*


G04 Drill Drawing Start*
G54D10*
G01X1613692Y-808985D03*
G54D11*
G01X1363604Y-1273907D03*
G01X1963666Y-1273907D03*
G54D12*
G01X4026507Y-7645400D03*
G01X4026507Y-7290482D03*
G01X4026507Y-6935563D03*
G01X4026507Y-6580645D03*
G54D13*
G01X1490407Y-7721595D03*
G01X1693887Y-6201488D03*
G01X1701797Y-7848604D03*
G01X2471705Y-6192798D03*
G01X2836884Y-7344485D03*
G01X4102102Y-6426197D03*
G54D14*
G01X3873505Y-5549903D03*
G01X3873505Y-5295903D03*
G01X3873505Y-5041903D03*
G01X3873505Y-4292603D03*
G01X3873505Y-4038603D03*
G01X3873505Y-3784603D03*
G01X3873505Y-3009903D03*
G01X3873505Y-2755903D03*
G01X3873505Y-2501903D03*
G54D15*
G01X2374900Y-5937900D03*
G01X2374900Y-4907900D03*
G01X2374900Y-4706000D03*
G01X2374900Y-3676000D03*
G01X2374900Y-3423300D03*
G01X2374900Y-2393300D03*
G01X2895600Y-4706000D03*
G01X2895600Y-3676000D03*
G01X2895600Y-3423300D03*
G01X2895600Y-5937900D03*
G01X2895600Y-4907900D03*
G01X2895600Y-2393300D03*
G54D16*
G01X762010Y-7721610D03*
G01X762010Y-7467610D03*
G01X762010Y-7213610D03*
G01X762010Y-6959610D03*
G01X762010Y-6705610D03*
G01X762010Y-6451610D03*
G01X762010Y-6197610D03*
G01X762010Y-5943610D03*
G01X762010Y-5689610D03*
G01X762010Y-5435610D03*
G01X762010Y-5181610D03*
G01X762010Y-4927610D03*
G01X762010Y-4673610D03*
G01X762010Y-4419610D03*
G01X762010Y-4165610D03*
G01X762010Y-3911610D03*
G01X762010Y-3657610D03*
G01X762010Y-3403610D03*
G01X762010Y-3149610D03*
G01X762010Y-2895610D03*
G01X762010Y-2641610D03*
G01X762010Y-2387610D03*
G01X3289310Y-7734310D03*
G01X3289310Y-7480310D03*
G01X3289310Y-7226310D03*
G01X3289310Y-6972310D03*
G01X3289310Y-6718310D03*
G01X3289310Y-6464310D03*
G01X3289310Y-6210310D03*
G01X3289310Y-5956310D03*
G01X3289310Y-5702310D03*
G01X3289310Y-5448310D03*
G01X3289310Y-5194310D03*
G01X3289310Y-4940310D03*
G01X3289310Y-4686310D03*
G01X3289310Y-4432310D03*
G01X3289310Y-4178310D03*
G01X3289310Y-3924310D03*
G01X3289310Y-3670310D03*
G01X3289310Y-3416310D03*
G01X3289310Y-3162310D03*
G01X3289310Y-2908310D03*
G01X3289310Y-2654310D03*
G01X3289310Y-2400310D03*
G04 Drill Drawing End*

G04 Text Start*
G54D17*
G01X7300446Y-221706D02*
G01X7300446Y-341848D01*
G01X7300446Y-221706D02*
G01X7346166Y-341848D01*
G01X7391886Y-221706D02*
G01X7346166Y-341848D01*
G01X7391886Y-221706D02*
G01X7391886Y-341848D01*
G01X7508218Y-261838D02*
G01X7508218Y-341848D01*
G01X7508218Y-278856D02*
G01X7496788Y-267426D01*
G01X7485358Y-261838D01*
G01X7468340Y-261838D01*
G01X7456910Y-267426D01*
G01X7445480Y-278856D01*
G01X7439638Y-296128D01*
G01X7439638Y-307558D01*
G01X7445480Y-324576D01*
G01X7456910Y-336006D01*
G01X7468340Y-341848D01*
G01X7485358Y-341848D01*
G01X7496788Y-336006D01*
G01X7508218Y-324576D01*
G01X7555970Y-261838D02*
G01X7555970Y-341848D01*
G01X7555970Y-296128D02*
G01X7561812Y-278856D01*
G01X7573242Y-267426D01*
G01X7584672Y-261838D01*
G01X7601690Y-261838D01*
G01X7649442Y-221706D02*
G01X7649442Y-341848D01*
G01X7706592Y-261838D02*
G01X7649442Y-318988D01*
G01X7672302Y-296128D02*
G01X7712434Y-341848D01*
G01X8837726Y-250408D02*
G01X8831884Y-238978D01*
G01X8820454Y-227548D01*
G01X8809024Y-221706D01*
G01X8786164Y-221706D01*
G01X8774734Y-227548D01*
G01X8763304Y-238978D01*
G01X8757716Y-250408D01*
G01X8751874Y-267426D01*
G01X8751874Y-296128D01*
G01X8757716Y-313146D01*
G01X8763304Y-324576D01*
G01X8774734Y-336006D01*
G01X8786164Y-341848D01*
G01X8809024Y-341848D01*
G01X8820454Y-336006D01*
G01X8831884Y-324576D01*
G01X8837726Y-313146D01*
G01X8914180Y-261838D02*
G01X8902750Y-267426D01*
G01X8891320Y-278856D01*
G01X8885478Y-296128D01*
G01X8885478Y-307558D01*
G01X8891320Y-324576D01*
G01X8902750Y-336006D01*
G01X8914180Y-341848D01*
G01X8931198Y-341848D01*
G01X8942628Y-336006D01*
G01X8954058Y-324576D01*
G01X8959900Y-307558D01*
G01X8959900Y-296128D01*
G01X8954058Y-278856D01*
G01X8942628Y-267426D01*
G01X8931198Y-261838D01*
G01X8914180Y-261838D01*
G01X9007652Y-261838D02*
G01X9007652Y-318988D01*
G01X9013494Y-336006D01*
G01X9024924Y-341848D01*
G01X9041942Y-341848D01*
G01X9053372Y-336006D01*
G01X9070644Y-318988D01*
G01X9070644Y-261838D02*
G01X9070644Y-341848D01*
G01X9118396Y-261838D02*
G01X9118396Y-341848D01*
G01X9118396Y-284698D02*
G01X9135668Y-267426D01*
G01X9147098Y-261838D01*
G01X9164116Y-261838D01*
G01X9175546Y-267426D01*
G01X9181388Y-284698D01*
G01X9181388Y-341848D01*
G01X9246412Y-221706D02*
G01X9246412Y-318988D01*
G01X9252000Y-336006D01*
G01X9263430Y-341848D01*
G01X9274860Y-341848D01*
G01X9229140Y-261838D02*
G01X9269272Y-261838D01*
G01X10246047Y-238978D02*
G01X10234617Y-227548D01*
G01X10217599Y-221706D01*
G01X10194739Y-221706D01*
G01X10177467Y-227548D01*
G01X10166037Y-238978D01*
G01X10166037Y-250408D01*
G01X10171879Y-261838D01*
G01X10177467Y-267426D01*
G01X10188897Y-273268D01*
G01X10223187Y-284698D01*
G01X10234617Y-290286D01*
G01X10240459Y-296128D01*
G01X10246047Y-307558D01*
G01X10246047Y-324576D01*
G01X10234617Y-336006D01*
G01X10217599Y-341848D01*
G01X10194739Y-341848D01*
G01X10177467Y-336006D01*
G01X10166037Y-324576D01*
G01X10293799Y-221706D02*
G01X10299641Y-227548D01*
G01X10305229Y-221706D01*
G01X10299641Y-216118D01*
G01X10293799Y-221706D01*
G01X10299641Y-261838D02*
G01X10299641Y-341848D01*
G01X10415973Y-261838D02*
G01X10352981Y-341848D01*
G01X10352981Y-261838D02*
G01X10415973Y-261838D01*
G01X10352981Y-341848D02*
G01X10415973Y-341848D01*
G01X10463725Y-296128D02*
G01X10532305Y-296128D01*
G01X10532305Y-284698D01*
G01X10526717Y-273268D01*
G01X10520875Y-267426D01*
G01X10509445Y-261838D01*
G01X10492427Y-261838D01*
G01X10480997Y-267426D01*
G01X10469567Y-278856D01*
G01X10463725Y-296128D01*
G01X10463725Y-307558D01*
G01X10469567Y-324576D01*
G01X10480997Y-336006D01*
G01X10492427Y-341848D01*
G01X10509445Y-341848D01*
G01X10520875Y-336006D01*
G01X10532305Y-324576D01*
G01X14136456Y-221706D02*
G01X14136456Y-341848D01*
G01X14136456Y-221706D02*
G01X14188018Y-221706D01*
G01X14205036Y-227548D01*
G01X14210878Y-233136D01*
G01X14216466Y-244566D01*
G01X14216466Y-261838D01*
G01X14210878Y-273268D01*
G01X14205036Y-278856D01*
G01X14188018Y-284698D01*
G01X14136456Y-284698D01*
G01X14264218Y-221706D02*
G01X14264218Y-341848D01*
G01X14380550Y-261838D02*
G01X14380550Y-341848D01*
G01X14380550Y-278856D02*
G01X14369120Y-267426D01*
G01X14357690Y-261838D01*
G01X14340672Y-261838D01*
G01X14329242Y-267426D01*
G01X14317812Y-278856D01*
G01X14311970Y-296128D01*
G01X14311970Y-307558D01*
G01X14317812Y-324576D01*
G01X14329242Y-336006D01*
G01X14340672Y-341848D01*
G01X14357690Y-341848D01*
G01X14369120Y-336006D01*
G01X14380550Y-324576D01*
G01X14445574Y-221706D02*
G01X14445574Y-318988D01*
G01X14451162Y-336006D01*
G01X14462592Y-341848D01*
G01X14474022Y-341848D01*
G01X14428302Y-261838D02*
G01X14468434Y-261838D01*
G01X14521774Y-296128D02*
G01X14590354Y-296128D01*
G01X14590354Y-284698D01*
G01X14584766Y-273268D01*
G01X14578924Y-267426D01*
G01X14567494Y-261838D01*
G01X14550476Y-261838D01*
G01X14539046Y-267426D01*
G01X14527616Y-278856D01*
G01X14521774Y-296128D01*
G01X14521774Y-307558D01*
G01X14527616Y-324576D01*
G01X14539046Y-336006D01*
G01X14550476Y-341848D01*
G01X14567494Y-341848D01*
G01X14578924Y-336006D01*
G01X14590354Y-324576D01*
G01X14706686Y-221706D02*
G01X14706686Y-341848D01*
G01X14706686Y-278856D02*
G01X14695256Y-267426D01*
G01X14683826Y-261838D01*
G01X14666808Y-261838D01*
G01X14655378Y-267426D01*
G01X14643948Y-278856D01*
G01X14638106Y-296128D01*
G01X14638106Y-307558D01*
G01X14643948Y-324576D01*
G01X14655378Y-336006D01*
G01X14666808Y-341848D01*
G01X14683826Y-341848D01*
G01X14695256Y-336006D01*
G01X14706686Y-324576D01*
G01X15677874Y-238978D02*
G01X15666444Y-227548D01*
G01X15649426Y-221706D01*
G01X15626566Y-221706D01*
G01X15609294Y-227548D01*
G01X15597864Y-238978D01*
G01X15597864Y-250408D01*
G01X15603706Y-261838D01*
G01X15609294Y-267426D01*
G01X15620724Y-273268D01*
G01X15655014Y-284698D01*
G01X15666444Y-290286D01*
G01X15672286Y-296128D01*
G01X15677874Y-307558D01*
G01X15677874Y-324576D01*
G01X15666444Y-336006D01*
G01X15649426Y-341848D01*
G01X15626566Y-341848D01*
G01X15609294Y-336006D01*
G01X15597864Y-324576D01*
G01X15725626Y-221706D02*
G01X15725626Y-341848D01*
G01X15725626Y-284698D02*
G01X15742898Y-267426D01*
G01X15754328Y-261838D01*
G01X15771346Y-261838D01*
G01X15782776Y-267426D01*
G01X15788618Y-284698D01*
G01X15788618Y-341848D01*
G01X15904950Y-261838D02*
G01X15904950Y-341848D01*
G01X15904950Y-278856D02*
G01X15893520Y-267426D01*
G01X15882090Y-261838D01*
G01X15865072Y-261838D01*
G01X15853642Y-267426D01*
G01X15842212Y-278856D01*
G01X15836370Y-296128D01*
G01X15836370Y-307558D01*
G01X15842212Y-324576D01*
G01X15853642Y-336006D01*
G01X15865072Y-341848D01*
G01X15882090Y-341848D01*
G01X15893520Y-336006D01*
G01X15904950Y-324576D01*
G01X15952702Y-261838D02*
G01X15952702Y-381726D01*
G01X15952702Y-278856D02*
G01X15964132Y-267426D01*
G01X15975562Y-261838D01*
G01X15992834Y-261838D01*
G01X16004264Y-267426D01*
G01X16015694Y-278856D01*
G01X16021282Y-296128D01*
G01X16021282Y-307558D01*
G01X16015694Y-324576D01*
G01X16004264Y-336006D01*
G01X15992834Y-341848D01*
G01X15975562Y-341848D01*
G01X15964132Y-336006D01*
G01X15952702Y-324576D01*
G01X16069034Y-296128D02*
G01X16137614Y-296128D01*
G01X16137614Y-284698D01*
G01X16132026Y-273268D01*
G01X16126184Y-267426D01*
G01X16114754Y-261838D01*
G01X16097736Y-261838D01*
G01X16086306Y-267426D01*
G01X16074876Y-278856D01*
G01X16069034Y-296128D01*
G01X16069034Y-307558D01*
G01X16074876Y-324576D01*
G01X16086306Y-336006D01*
G01X16097736Y-341848D01*
G01X16114754Y-341848D01*
G01X16126184Y-336006D01*
G01X16137614Y-324576D01*
G01X17029045Y-221706D02*
G01X17074765Y-341848D01*
G01X17120485Y-221706D02*
G01X17074765Y-341848D01*
G01X17168237Y-221706D02*
G01X17174079Y-227548D01*
G01X17179667Y-221706D01*
G01X17174079Y-216118D01*
G01X17168237Y-221706D01*
G01X17174079Y-261838D02*
G01X17174079Y-341848D01*
G01X17295999Y-261838D02*
G01X17295999Y-341848D01*
G01X17295999Y-278856D02*
G01X17284569Y-267426D01*
G01X17273139Y-261838D01*
G01X17256121Y-261838D01*
G01X17244691Y-267426D01*
G01X17233261Y-278856D01*
G01X17227419Y-296128D01*
G01X17227419Y-307558D01*
G01X17233261Y-324576D01*
G01X17244691Y-336006D01*
G01X17256121Y-341848D01*
G01X17273139Y-341848D01*
G01X17284569Y-336006D01*
G01X17295999Y-324576D01*
G01X17446621Y-198846D02*
G01X17343751Y-381726D01*
G01X17494373Y-221706D02*
G01X17494373Y-341848D01*
G01X17494373Y-221706D02*
G01X17545935Y-221706D01*
G01X17562953Y-227548D01*
G01X17568795Y-233136D01*
G01X17574383Y-244566D01*
G01X17574383Y-261838D01*
G01X17568795Y-273268D01*
G01X17562953Y-278856D01*
G01X17545935Y-284698D01*
G01X17494373Y-284698D01*
G01X17690715Y-261838D02*
G01X17690715Y-341848D01*
G01X17690715Y-278856D02*
G01X17679285Y-267426D01*
G01X17667855Y-261838D01*
G01X17650837Y-261838D01*
G01X17639407Y-267426D01*
G01X17627977Y-278856D01*
G01X17622135Y-296128D01*
G01X17622135Y-307558D01*
G01X17627977Y-324576D01*
G01X17639407Y-336006D01*
G01X17650837Y-341848D01*
G01X17667855Y-341848D01*
G01X17679285Y-336006D01*
G01X17690715Y-324576D01*
G01X17807047Y-221706D02*
G01X17807047Y-341848D01*
G01X17807047Y-278856D02*
G01X17795617Y-267426D01*
G01X17784187Y-261838D01*
G01X17767169Y-261838D01*
G01X17755739Y-267426D01*
G01X17744309Y-278856D01*
G01X17738467Y-296128D01*
G01X17738467Y-307558D01*
G01X17744309Y-324576D01*
G01X17755739Y-336006D01*
G01X17767169Y-341848D01*
G01X17784187Y-341848D01*
G01X17795617Y-336006D01*
G01X17807047Y-324576D01*
G01X18698224Y-221706D02*
G01X18698224Y-341848D01*
G01X18698224Y-221706D02*
G01X18749786Y-221706D01*
G01X18766804Y-227548D01*
G01X18772646Y-233136D01*
G01X18778234Y-244566D01*
G01X18778234Y-261838D01*
G01X18772646Y-273268D01*
G01X18766804Y-278856D01*
G01X18749786Y-284698D01*
G01X18698224Y-284698D01*
G01X18894566Y-261838D02*
G01X18894566Y-341848D01*
G01X18894566Y-278856D02*
G01X18883136Y-267426D01*
G01X18871706Y-261838D01*
G01X18854688Y-261838D01*
G01X18843258Y-267426D01*
G01X18831828Y-278856D01*
G01X18825986Y-296128D01*
G01X18825986Y-307558D01*
G01X18831828Y-324576D01*
G01X18843258Y-336006D01*
G01X18854688Y-341848D01*
G01X18871706Y-341848D01*
G01X18883136Y-336006D01*
G01X18894566Y-324576D01*
G01X19010898Y-221706D02*
G01X19010898Y-341848D01*
G01X19010898Y-278856D02*
G01X18999468Y-267426D01*
G01X18988038Y-261838D01*
G01X18971020Y-261838D01*
G01X18959590Y-267426D01*
G01X18948160Y-278856D01*
G01X18942318Y-296128D01*
G01X18942318Y-307558D01*
G01X18948160Y-324576D01*
G01X18959590Y-336006D01*
G01X18971020Y-341848D01*
G01X18988038Y-341848D01*
G01X18999468Y-336006D01*
G01X19010898Y-324576D01*
G01X19266676Y-238978D02*
G01X19255246Y-227548D01*
G01X19238228Y-221706D01*
G01X19215368Y-221706D01*
G01X19198096Y-227548D01*
G01X19186666Y-238978D01*
G01X19186666Y-250408D01*
G01X19192508Y-261838D01*
G01X19198096Y-267426D01*
G01X19209526Y-273268D01*
G01X19243816Y-284698D01*
G01X19255246Y-290286D01*
G01X19261088Y-296128D01*
G01X19266676Y-307558D01*
G01X19266676Y-324576D01*
G01X19255246Y-336006D01*
G01X19238228Y-341848D01*
G01X19215368Y-341848D01*
G01X19198096Y-336006D01*
G01X19186666Y-324576D01*
G01X19314428Y-221706D02*
G01X19314428Y-341848D01*
G01X19314428Y-284698D02*
G01X19331700Y-267426D01*
G01X19343130Y-261838D01*
G01X19360148Y-261838D01*
G01X19371578Y-267426D01*
G01X19377420Y-284698D01*
G01X19377420Y-341848D01*
G01X19493752Y-261838D02*
G01X19493752Y-341848D01*
G01X19493752Y-278856D02*
G01X19482322Y-267426D01*
G01X19470892Y-261838D01*
G01X19453874Y-261838D01*
G01X19442444Y-267426D01*
G01X19431014Y-278856D01*
G01X19425172Y-296128D01*
G01X19425172Y-307558D01*
G01X19431014Y-324576D01*
G01X19442444Y-336006D01*
G01X19453874Y-341848D01*
G01X19470892Y-341848D01*
G01X19482322Y-336006D01*
G01X19493752Y-324576D01*
G01X19541504Y-261838D02*
G01X19541504Y-381726D01*
G01X19541504Y-278856D02*
G01X19552934Y-267426D01*
G01X19564364Y-261838D01*
G01X19581636Y-261838D01*
G01X19593066Y-267426D01*
G01X19604496Y-278856D01*
G01X19610084Y-296128D01*
G01X19610084Y-307558D01*
G01X19604496Y-324576D01*
G01X19593066Y-336006D01*
G01X19581636Y-341848D01*
G01X19564364Y-341848D01*
G01X19552934Y-336006D01*
G01X19541504Y-324576D01*
G01X19657836Y-296128D02*
G01X19726416Y-296128D01*
G01X19726416Y-284698D01*
G01X19720828Y-273268D01*
G01X19714986Y-267426D01*
G01X19703556Y-261838D01*
G01X19686538Y-261838D01*
G01X19675108Y-267426D01*
G01X19663678Y-278856D01*
G01X19657836Y-296128D01*
G01X19657836Y-307558D01*
G01X19663678Y-324576D01*
G01X19675108Y-336006D01*
G01X19686538Y-341848D01*
G01X19703556Y-341848D01*
G01X19714986Y-336006D01*
G01X19726416Y-324576D01*
G01X20617593Y-221706D02*
G01X20617593Y-341848D01*
G01X20617593Y-341848D02*
G01X20686173Y-341848D01*
G01X20802505Y-261838D02*
G01X20802505Y-341848D01*
G01X20802505Y-278856D02*
G01X20791075Y-267426D01*
G01X20779645Y-261838D01*
G01X20762627Y-261838D01*
G01X20751197Y-267426D01*
G01X20739767Y-278856D01*
G01X20733925Y-296128D01*
G01X20733925Y-307558D01*
G01X20739767Y-324576D01*
G01X20751197Y-336006D01*
G01X20762627Y-341848D01*
G01X20779645Y-341848D01*
G01X20791075Y-336006D01*
G01X20802505Y-324576D01*
G01X20856099Y-261838D02*
G01X20890389Y-341848D01*
G01X20924679Y-261838D02*
G01X20890389Y-341848D01*
G01X20878959Y-364708D01*
G01X20867529Y-376138D01*
G01X20856099Y-381726D01*
G01X20850257Y-381726D01*
G01X20972431Y-296128D02*
G01X21041011Y-296128D01*
G01X21041011Y-284698D01*
G01X21035423Y-273268D01*
G01X21029581Y-267426D01*
G01X21018151Y-261838D01*
G01X21001133Y-261838D01*
G01X20989703Y-267426D01*
G01X20978273Y-278856D01*
G01X20972431Y-296128D01*
G01X20972431Y-307558D01*
G01X20978273Y-324576D01*
G01X20989703Y-336006D01*
G01X21001133Y-341848D01*
G01X21018151Y-341848D01*
G01X21029581Y-336006D01*
G01X21041011Y-324576D01*
G01X21088763Y-261838D02*
G01X21088763Y-341848D01*
G01X21088763Y-296128D02*
G01X21094605Y-278856D01*
G01X21106035Y-267426D01*
G01X21117465Y-261838D01*
G01X21134483Y-261838D01*
G01X21310251Y-221706D02*
G01X21310251Y-341848D01*
G01X21310251Y-221706D02*
G01X21361813Y-221706D01*
G01X21378831Y-227548D01*
G01X21384673Y-233136D01*
G01X21390261Y-244566D01*
G01X21390261Y-261838D01*
G01X21384673Y-273268D01*
G01X21378831Y-278856D01*
G01X21361813Y-284698D01*
G01X21310251Y-284698D01*
G01X21506593Y-261838D02*
G01X21506593Y-341848D01*
G01X21506593Y-278856D02*
G01X21495163Y-267426D01*
G01X21483733Y-261838D01*
G01X21466715Y-261838D01*
G01X21455285Y-267426D01*
G01X21443855Y-278856D01*
G01X21438013Y-296128D01*
G01X21438013Y-307558D01*
G01X21443855Y-324576D01*
G01X21455285Y-336006D01*
G01X21466715Y-341848D01*
G01X21483733Y-341848D01*
G01X21495163Y-336006D01*
G01X21506593Y-324576D01*
G01X21554345Y-221706D02*
G01X21560187Y-227548D01*
G01X21565775Y-221706D01*
G01X21560187Y-216118D01*
G01X21554345Y-221706D01*
G01X21560187Y-261838D02*
G01X21560187Y-341848D01*
G01X21613527Y-261838D02*
G01X21613527Y-341848D01*
G01X21613527Y-296128D02*
G01X21619369Y-278856D01*
G01X21630799Y-267426D01*
G01X21642229Y-261838D01*
G01X21659247Y-261838D01*
G01X8751874Y-825137D02*
G01X8763304Y-819549D01*
G01X8780576Y-802277D01*
G01X8780576Y-922419D01*
G01X10177467Y-802277D02*
G01X10240459Y-802277D01*
G01X10206169Y-847997D01*
G01X10223187Y-847997D01*
G01X10234617Y-853839D01*
G01X10240459Y-859427D01*
G01X10246047Y-876699D01*
G01X10246047Y-888129D01*
G01X10240459Y-905147D01*
G01X10229029Y-916577D01*
G01X10211757Y-922419D01*
G01X10194739Y-922419D01*
G01X10177467Y-916577D01*
G01X10171879Y-910989D01*
G01X10166037Y-899559D01*
G01X10362379Y-802277D02*
G01X10305229Y-802277D01*
G01X10299641Y-853839D01*
G01X10305229Y-847997D01*
G01X10322501Y-842409D01*
G01X10339519Y-842409D01*
G01X10356791Y-847997D01*
G01X10368221Y-859427D01*
G01X10373809Y-876699D01*
G01X10373809Y-888129D01*
G01X10368221Y-905147D01*
G01X10356791Y-916577D01*
G01X10339519Y-922419D01*
G01X10322501Y-922419D01*
G01X10305229Y-916577D01*
G01X10299641Y-910989D01*
G01X10293799Y-899559D01*
G01X10427403Y-893717D02*
G01X10421561Y-899559D01*
G01X10427403Y-905147D01*
G01X10432991Y-899559D01*
G01X10427403Y-893717D01*
G01X10537893Y-802277D02*
G01X10480743Y-882287D01*
G01X10566595Y-882287D01*
G01X10537893Y-802277D02*
G01X10537893Y-922419D01*
G01X10614347Y-842409D02*
G01X10677339Y-922419D01*
G01X10677339Y-842409D02*
G01X10614347Y-922419D01*
G01X10725091Y-825137D02*
G01X10736521Y-819549D01*
G01X10753793Y-802277D01*
G01X10753793Y-922419D01*
G01X10835835Y-802277D02*
G01X10818817Y-808119D01*
G01X10807387Y-825137D01*
G01X10801545Y-853839D01*
G01X10801545Y-870857D01*
G01X10807387Y-899559D01*
G01X10818817Y-916577D01*
G01X10835835Y-922419D01*
G01X10847265Y-922419D01*
G01X10864537Y-916577D01*
G01X10875967Y-899559D01*
G01X10881555Y-870857D01*
G01X10881555Y-853839D01*
G01X10875967Y-825137D01*
G01X10864537Y-808119D01*
G01X10847265Y-802277D01*
G01X10835835Y-802277D01*
G01X10935149Y-830979D02*
G01X10935149Y-825137D01*
G01X10940737Y-813707D01*
G01X10946579Y-808119D01*
G01X10958009Y-802277D01*
G01X10980869Y-802277D01*
G01X10992299Y-808119D01*
G01X10997887Y-813707D01*
G01X11003729Y-825137D01*
G01X11003729Y-836567D01*
G01X10997887Y-847997D01*
G01X10986457Y-865269D01*
G01X10929307Y-922419D01*
G01X11009317Y-922419D01*
G01X11062911Y-893717D02*
G01X11057069Y-899559D01*
G01X11062911Y-905147D01*
G01X11068499Y-899559D01*
G01X11062911Y-893717D01*
G01X11173401Y-802277D02*
G01X11116251Y-882287D01*
G01X11202103Y-882287D01*
G01X11173401Y-802277D02*
G01X11173401Y-922419D01*
G01X11249855Y-842409D02*
G01X11249855Y-922419D01*
G01X11249855Y-865269D02*
G01X11267127Y-847997D01*
G01X11278557Y-842409D01*
G01X11295575Y-842409D01*
G01X11307005Y-847997D01*
G01X11312847Y-865269D01*
G01X11312847Y-922419D01*
G01X11312847Y-865269D02*
G01X11329865Y-847997D01*
G01X11341295Y-842409D01*
G01X11358567Y-842409D01*
G01X11369997Y-847997D01*
G01X11375585Y-865269D01*
G01X11375585Y-922419D01*
G01X11423337Y-802277D02*
G01X11429179Y-808119D01*
G01X11434767Y-802277D01*
G01X11429179Y-796689D01*
G01X11423337Y-802277D01*
G01X11429179Y-842409D02*
G01X11429179Y-922419D01*
G01X11482519Y-802277D02*
G01X11482519Y-922419D01*
G01X11570403Y-779417D02*
G01X11558973Y-790847D01*
G01X11547543Y-808119D01*
G01X11536113Y-830979D01*
G01X11530271Y-859427D01*
G01X11530271Y-882287D01*
G01X11536113Y-910989D01*
G01X11547543Y-933849D01*
G01X11558973Y-950867D01*
G01X11570403Y-962297D01*
G01X11652445Y-802277D02*
G01X11635427Y-808119D01*
G01X11623997Y-825137D01*
G01X11618155Y-853839D01*
G01X11618155Y-870857D01*
G01X11623997Y-899559D01*
G01X11635427Y-916577D01*
G01X11652445Y-922419D01*
G01X11663875Y-922419D01*
G01X11681147Y-916577D01*
G01X11692577Y-899559D01*
G01X11698165Y-870857D01*
G01X11698165Y-853839D01*
G01X11692577Y-825137D01*
G01X11681147Y-808119D01*
G01X11663875Y-802277D01*
G01X11652445Y-802277D01*
G01X11751759Y-893717D02*
G01X11745917Y-899559D01*
G01X11751759Y-905147D01*
G01X11757347Y-899559D01*
G01X11751759Y-893717D01*
G01X11879521Y-842409D02*
G01X11873679Y-859427D01*
G01X11862249Y-870857D01*
G01X11845231Y-876699D01*
G01X11839389Y-876699D01*
G01X11822371Y-870857D01*
G01X11810941Y-859427D01*
G01X11805099Y-842409D01*
G01X11805099Y-836567D01*
G01X11810941Y-819549D01*
G01X11822371Y-808119D01*
G01X11839389Y-802277D01*
G01X11845231Y-802277D01*
G01X11862249Y-808119D01*
G01X11873679Y-819549D01*
G01X11879521Y-842409D01*
G01X11879521Y-870857D01*
G01X11873679Y-899559D01*
G01X11862249Y-916577D01*
G01X11845231Y-922419D01*
G01X11833801Y-922419D01*
G01X11816529Y-916577D01*
G01X11810941Y-905147D01*
G01X11961563Y-802277D02*
G01X11944545Y-808119D01*
G01X11933115Y-825137D01*
G01X11927273Y-853839D01*
G01X11927273Y-870857D01*
G01X11933115Y-899559D01*
G01X11944545Y-916577D01*
G01X11961563Y-922419D01*
G01X11972993Y-922419D01*
G01X11990265Y-916577D01*
G01X12001695Y-899559D01*
G01X12007283Y-870857D01*
G01X12007283Y-853839D01*
G01X12001695Y-825137D01*
G01X11990265Y-808119D01*
G01X11972993Y-802277D01*
G01X11961563Y-802277D01*
G01X12089325Y-802277D02*
G01X12072307Y-808119D01*
G01X12060877Y-825137D01*
G01X12055035Y-853839D01*
G01X12055035Y-870857D01*
G01X12060877Y-899559D01*
G01X12072307Y-916577D01*
G01X12089325Y-922419D01*
G01X12100755Y-922419D01*
G01X12118027Y-916577D01*
G01X12129457Y-899559D01*
G01X12135045Y-870857D01*
G01X12135045Y-853839D01*
G01X12129457Y-825137D01*
G01X12118027Y-808119D01*
G01X12100755Y-802277D01*
G01X12089325Y-802277D01*
G01X12182797Y-842409D02*
G01X12245789Y-922419D01*
G01X12245789Y-842409D02*
G01X12182797Y-922419D01*
G01X12299383Y-830979D02*
G01X12299383Y-825137D01*
G01X12304971Y-813707D01*
G01X12310813Y-808119D01*
G01X12322243Y-802277D01*
G01X12345103Y-802277D01*
G01X12356533Y-808119D01*
G01X12362121Y-813707D01*
G01X12367963Y-825137D01*
G01X12367963Y-836567D01*
G01X12362121Y-847997D01*
G01X12350691Y-865269D01*
G01X12293541Y-922419D01*
G01X12373551Y-922419D01*
G01X12427145Y-893717D02*
G01X12421303Y-899559D01*
G01X12427145Y-905147D01*
G01X12432733Y-899559D01*
G01X12427145Y-893717D01*
G01X12549065Y-819549D02*
G01X12543477Y-808119D01*
G01X12526205Y-802277D01*
G01X12514775Y-802277D01*
G01X12497757Y-808119D01*
G01X12486327Y-825137D01*
G01X12480485Y-853839D01*
G01X12480485Y-882287D01*
G01X12486327Y-905147D01*
G01X12497757Y-916577D01*
G01X12514775Y-922419D01*
G01X12520617Y-922419D01*
G01X12537635Y-916577D01*
G01X12549065Y-905147D01*
G01X12554907Y-888129D01*
G01X12554907Y-882287D01*
G01X12549065Y-865269D01*
G01X12537635Y-853839D01*
G01X12520617Y-847997D01*
G01X12514775Y-847997D01*
G01X12497757Y-853839D01*
G01X12486327Y-865269D01*
G01X12480485Y-882287D01*
G01X12636949Y-802277D02*
G01X12619931Y-808119D01*
G01X12608501Y-825137D01*
G01X12602659Y-853839D01*
G01X12602659Y-870857D01*
G01X12608501Y-899559D01*
G01X12619931Y-916577D01*
G01X12636949Y-922419D01*
G01X12648379Y-922419D01*
G01X12665651Y-916577D01*
G01X12677081Y-899559D01*
G01X12682669Y-870857D01*
G01X12682669Y-853839D01*
G01X12677081Y-825137D01*
G01X12665651Y-808119D01*
G01X12648379Y-802277D01*
G01X12636949Y-802277D01*
G01X12764711Y-802277D02*
G01X12747693Y-808119D01*
G01X12736263Y-825137D01*
G01X12730421Y-853839D01*
G01X12730421Y-870857D01*
G01X12736263Y-899559D01*
G01X12747693Y-916577D01*
G01X12764711Y-922419D01*
G01X12776141Y-922419D01*
G01X12793413Y-916577D01*
G01X12804843Y-899559D01*
G01X12810431Y-870857D01*
G01X12810431Y-853839D01*
G01X12804843Y-825137D01*
G01X12793413Y-808119D01*
G01X12776141Y-802277D01*
G01X12764711Y-802277D01*
G01X12858183Y-842409D02*
G01X12858183Y-922419D01*
G01X12858183Y-865269D02*
G01X12875455Y-847997D01*
G01X12886885Y-842409D01*
G01X12903903Y-842409D01*
G01X12915333Y-847997D01*
G01X12921175Y-865269D01*
G01X12921175Y-922419D01*
G01X12921175Y-865269D02*
G01X12938193Y-847997D01*
G01X12949623Y-842409D01*
G01X12966895Y-842409D01*
G01X12978325Y-847997D01*
G01X12983913Y-865269D01*
G01X12983913Y-922419D01*
G01X13031665Y-842409D02*
G01X13031665Y-922419D01*
G01X13031665Y-865269D02*
G01X13048937Y-847997D01*
G01X13060367Y-842409D01*
G01X13077385Y-842409D01*
G01X13088815Y-847997D01*
G01X13094657Y-865269D01*
G01X13094657Y-922419D01*
G01X13094657Y-865269D02*
G01X13111675Y-847997D01*
G01X13123105Y-842409D01*
G01X13140377Y-842409D01*
G01X13151807Y-847997D01*
G01X13157395Y-865269D01*
G01X13157395Y-922419D01*
G01X13205147Y-779417D02*
G01X13216577Y-790847D01*
G01X13228007Y-808119D01*
G01X13239437Y-830979D01*
G01X13245279Y-859427D01*
G01X13245279Y-882287D01*
G01X13239437Y-910989D01*
G01X13228007Y-933849D01*
G01X13216577Y-950867D01*
G01X13205147Y-962297D01*
G01X14136456Y-802277D02*
G01X14136456Y-922419D01*
G01X14136456Y-802277D02*
G01X14188018Y-802277D01*
G01X14205036Y-808119D01*
G01X14210878Y-813707D01*
G01X14216466Y-825137D01*
G01X14216466Y-842409D01*
G01X14210878Y-853839D01*
G01X14205036Y-859427D01*
G01X14188018Y-865269D01*
G01X14136456Y-865269D01*
G01X14304350Y-802277D02*
G01X14304350Y-922419D01*
G01X14264218Y-802277D02*
G01X14344228Y-802277D01*
G01X14391980Y-802277D02*
G01X14391980Y-922419D01*
G01X14471990Y-802277D02*
G01X14471990Y-922419D01*
G01X14391980Y-859427D02*
G01X14471990Y-859427D01*
G01X15677874Y-819549D02*
G01X15666444Y-808119D01*
G01X15649426Y-802277D01*
G01X15626566Y-802277D01*
G01X15609294Y-808119D01*
G01X15597864Y-819549D01*
G01X15597864Y-830979D01*
G01X15603706Y-842409D01*
G01X15609294Y-847997D01*
G01X15620724Y-853839D01*
G01X15655014Y-865269D01*
G01X15666444Y-870857D01*
G01X15672286Y-876699D01*
G01X15677874Y-888129D01*
G01X15677874Y-905147D01*
G01X15666444Y-916577D01*
G01X15649426Y-922419D01*
G01X15626566Y-922419D01*
G01X15609294Y-916577D01*
G01X15597864Y-905147D01*
G01X15725626Y-802277D02*
G01X15725626Y-922419D01*
G01X15802080Y-842409D02*
G01X15790650Y-847997D01*
G01X15779220Y-859427D01*
G01X15773378Y-876699D01*
G01X15773378Y-888129D01*
G01X15779220Y-905147D01*
G01X15790650Y-916577D01*
G01X15802080Y-922419D01*
G01X15819098Y-922419D01*
G01X15830528Y-916577D01*
G01X15841958Y-905147D01*
G01X15847800Y-888129D01*
G01X15847800Y-876699D01*
G01X15841958Y-859427D01*
G01X15830528Y-847997D01*
G01X15819098Y-842409D01*
G01X15802080Y-842409D01*
G01X15912824Y-802277D02*
G01X15912824Y-899559D01*
G01X15918412Y-916577D01*
G01X15929842Y-922419D01*
G01X15941272Y-922419D01*
G01X15895552Y-842409D02*
G01X15935684Y-842409D01*
G01X17029045Y-802277D02*
G01X17029045Y-922419D01*
G01X17029045Y-802277D02*
G01X17080607Y-802277D01*
G01X17097625Y-808119D01*
G01X17103467Y-813707D01*
G01X17109055Y-825137D01*
G01X17109055Y-842409D01*
G01X17103467Y-853839D01*
G01X17097625Y-859427D01*
G01X17080607Y-865269D01*
G01X17029045Y-865269D01*
G01X17225387Y-842409D02*
G01X17225387Y-922419D01*
G01X17225387Y-859427D02*
G01X17213957Y-847997D01*
G01X17202527Y-842409D01*
G01X17185509Y-842409D01*
G01X17174079Y-847997D01*
G01X17162649Y-859427D01*
G01X17156807Y-876699D01*
G01X17156807Y-888129D01*
G01X17162649Y-905147D01*
G01X17174079Y-916577D01*
G01X17185509Y-922419D01*
G01X17202527Y-922419D01*
G01X17213957Y-916577D01*
G01X17225387Y-905147D01*
G01X17341719Y-802277D02*
G01X17341719Y-922419D01*
G01X17341719Y-859427D02*
G01X17330289Y-847997D01*
G01X17318859Y-842409D01*
G01X17301841Y-842409D01*
G01X17290411Y-847997D01*
G01X17278981Y-859427D01*
G01X17273139Y-876699D01*
G01X17273139Y-888129D01*
G01X17278981Y-905147D01*
G01X17290411Y-916577D01*
G01X17301841Y-922419D01*
G01X17318859Y-922419D01*
G01X17330289Y-916577D01*
G01X17341719Y-905147D01*
G01X18732514Y-802277D02*
G01X18721084Y-808119D01*
G01X18709654Y-819549D01*
G01X18704066Y-830979D01*
G01X18698224Y-847997D01*
G01X18698224Y-876699D01*
G01X18704066Y-893717D01*
G01X18709654Y-905147D01*
G01X18721084Y-916577D01*
G01X18732514Y-922419D01*
G01X18755374Y-922419D01*
G01X18766804Y-916577D01*
G01X18778234Y-905147D01*
G01X18784076Y-893717D01*
G01X18789664Y-876699D01*
G01X18789664Y-847997D01*
G01X18784076Y-830979D01*
G01X18778234Y-819549D01*
G01X18766804Y-808119D01*
G01X18755374Y-802277D01*
G01X18732514Y-802277D01*
G01X18837416Y-842409D02*
G01X18871706Y-922419D01*
G01X18905996Y-842409D02*
G01X18871706Y-922419D01*
G01X19022328Y-842409D02*
G01X19022328Y-922419D01*
G01X19022328Y-859427D02*
G01X19010898Y-847997D01*
G01X18999468Y-842409D01*
G01X18982450Y-842409D01*
G01X18971020Y-847997D01*
G01X18959590Y-859427D01*
G01X18953748Y-876699D01*
G01X18953748Y-888129D01*
G01X18959590Y-905147D01*
G01X18971020Y-916577D01*
G01X18982450Y-922419D01*
G01X18999468Y-922419D01*
G01X19010898Y-916577D01*
G01X19022328Y-905147D01*
G01X19070080Y-802277D02*
G01X19070080Y-922419D01*
G01X20657725Y-802277D02*
G01X20657725Y-922419D01*
G01X20617593Y-802277D02*
G01X20697603Y-802277D01*
G01X20774057Y-842409D02*
G01X20762627Y-847997D01*
G01X20751197Y-859427D01*
G01X20745355Y-876699D01*
G01X20745355Y-888129D01*
G01X20751197Y-905147D01*
G01X20762627Y-916577D01*
G01X20774057Y-922419D01*
G01X20791075Y-922419D01*
G01X20802505Y-916577D01*
G01X20813935Y-905147D01*
G01X20819777Y-888129D01*
G01X20819777Y-876699D01*
G01X20813935Y-859427D01*
G01X20802505Y-847997D01*
G01X20791075Y-842409D01*
G01X20774057Y-842409D01*
G01X20867529Y-842409D02*
G01X20867529Y-962297D01*
G01X20867529Y-859427D02*
G01X20878959Y-847997D01*
G01X20890389Y-842409D01*
G01X20907661Y-842409D01*
G01X20919091Y-847997D01*
G01X20930521Y-859427D01*
G01X20936109Y-876699D01*
G01X20936109Y-888129D01*
G01X20930521Y-905147D01*
G01X20919091Y-916577D01*
G01X20907661Y-922419D01*
G01X20890389Y-922419D01*
G01X20878959Y-916577D01*
G01X20867529Y-905147D01*
G01X21111877Y-802277D02*
G01X21111877Y-922419D01*
G01X21111877Y-922419D02*
G01X21180457Y-922419D01*
G01X21296789Y-842409D02*
G01X21296789Y-922419D01*
G01X21296789Y-859427D02*
G01X21285359Y-847997D01*
G01X21273929Y-842409D01*
G01X21256911Y-842409D01*
G01X21245481Y-847997D01*
G01X21234051Y-859427D01*
G01X21228209Y-876699D01*
G01X21228209Y-888129D01*
G01X21234051Y-905147D01*
G01X21245481Y-916577D01*
G01X21256911Y-922419D01*
G01X21273929Y-922419D01*
G01X21285359Y-916577D01*
G01X21296789Y-905147D01*
G01X21350383Y-842409D02*
G01X21384673Y-922419D01*
G01X21418963Y-842409D02*
G01X21384673Y-922419D01*
G01X21373243Y-945279D01*
G01X21361813Y-956709D01*
G01X21350383Y-962297D01*
G01X21344541Y-962297D01*
G01X21466715Y-876699D02*
G01X21535295Y-876699D01*
G01X21535295Y-865269D01*
G01X21529707Y-853839D01*
G01X21523865Y-847997D01*
G01X21512435Y-842409D01*
G01X21495417Y-842409D01*
G01X21483987Y-847997D01*
G01X21472557Y-859427D01*
G01X21466715Y-876699D01*
G01X21466715Y-888129D01*
G01X21472557Y-905147D01*
G01X21483987Y-916577D01*
G01X21495417Y-922419D01*
G01X21512435Y-922419D01*
G01X21523865Y-916577D01*
G01X21535295Y-905147D01*
G01X21583047Y-842409D02*
G01X21583047Y-922419D01*
G01X21583047Y-876699D02*
G01X21588889Y-859427D01*
G01X21600319Y-847997D01*
G01X21611749Y-842409D01*
G01X21628767Y-842409D01*
G01X21676519Y-870857D02*
G01X21779389Y-870857D01*
G01X21827141Y-802277D02*
G01X21827141Y-922419D01*
G01X21827141Y-802277D02*
G01X21878703Y-802277D01*
G01X21895721Y-808119D01*
G01X21901563Y-813707D01*
G01X21907151Y-825137D01*
G01X21907151Y-836567D01*
G01X21901563Y-847997D01*
G01X21895721Y-853839D01*
G01X21878703Y-859427D01*
G01X21827141Y-859427D02*
G01X21878703Y-859427D01*
G01X21895721Y-865269D01*
G01X21901563Y-870857D01*
G01X21907151Y-882287D01*
G01X21907151Y-899559D01*
G01X21901563Y-910989D01*
G01X21895721Y-916577D01*
G01X21878703Y-922419D01*
G01X21827141Y-922419D01*
G01X21983605Y-842409D02*
G01X21972175Y-847997D01*
G01X21960745Y-859427D01*
G01X21954903Y-876699D01*
G01X21954903Y-888129D01*
G01X21960745Y-905147D01*
G01X21972175Y-916577D01*
G01X21983605Y-922419D01*
G01X22000623Y-922419D01*
G01X22012053Y-916577D01*
G01X22023483Y-905147D01*
G01X22029325Y-888129D01*
G01X22029325Y-876699D01*
G01X22023483Y-859427D01*
G01X22012053Y-847997D01*
G01X22000623Y-842409D01*
G01X21983605Y-842409D01*
G01X22094349Y-802277D02*
G01X22094349Y-899559D01*
G01X22099937Y-916577D01*
G01X22111367Y-922419D01*
G01X22122797Y-922419D01*
G01X22077077Y-842409D02*
G01X22117209Y-842409D01*
G01X22187821Y-802277D02*
G01X22187821Y-899559D01*
G01X22193409Y-916577D01*
G01X22204839Y-922419D01*
G01X22216269Y-922419D01*
G01X22170549Y-842409D02*
G01X22210681Y-842409D01*
G01X22292723Y-842409D02*
G01X22281293Y-847997D01*
G01X22269863Y-859427D01*
G01X22264021Y-876699D01*
G01X22264021Y-888129D01*
G01X22269863Y-905147D01*
G01X22281293Y-916577D01*
G01X22292723Y-922419D01*
G01X22309741Y-922419D01*
G01X22321171Y-916577D01*
G01X22332601Y-905147D01*
G01X22338443Y-888129D01*
G01X22338443Y-876699D01*
G01X22332601Y-859427D01*
G01X22321171Y-847997D01*
G01X22309741Y-842409D01*
G01X22292723Y-842409D01*
G01X22386195Y-842409D02*
G01X22386195Y-922419D01*
G01X22386195Y-865269D02*
G01X22403467Y-847997D01*
G01X22414897Y-842409D01*
G01X22431915Y-842409D01*
G01X22443345Y-847997D01*
G01X22449187Y-865269D01*
G01X22449187Y-922419D01*
G01X22449187Y-865269D02*
G01X22466205Y-847997D01*
G01X22477635Y-842409D01*
G01X22494907Y-842409D01*
G01X22506337Y-847997D01*
G01X22511925Y-865269D01*
G01X22511925Y-922419D01*
G01X22687693Y-802277D02*
G01X22687693Y-922419D01*
G01X22687693Y-922419D02*
G01X22756273Y-922419D01*
G01X22872605Y-842409D02*
G01X22872605Y-922419D01*
G01X22872605Y-859427D02*
G01X22861175Y-847997D01*
G01X22849745Y-842409D01*
G01X22832727Y-842409D01*
G01X22821297Y-847997D01*
G01X22809867Y-859427D01*
G01X22804025Y-876699D01*
G01X22804025Y-888129D01*
G01X22809867Y-905147D01*
G01X22821297Y-916577D01*
G01X22832727Y-922419D01*
G01X22849745Y-922419D01*
G01X22861175Y-916577D01*
G01X22872605Y-905147D01*
G01X22926199Y-842409D02*
G01X22960489Y-922419D01*
G01X22994779Y-842409D02*
G01X22960489Y-922419D01*
G01X22949059Y-945279D01*
G01X22937629Y-956709D01*
G01X22926199Y-962297D01*
G01X22920357Y-962297D01*
G01X23042531Y-876699D02*
G01X23111111Y-876699D01*
G01X23111111Y-865269D01*
G01X23105523Y-853839D01*
G01X23099681Y-847997D01*
G01X23088251Y-842409D01*
G01X23071233Y-842409D01*
G01X23059803Y-847997D01*
G01X23048373Y-859427D01*
G01X23042531Y-876699D01*
G01X23042531Y-888129D01*
G01X23048373Y-905147D01*
G01X23059803Y-916577D01*
G01X23071233Y-922419D01*
G01X23088251Y-922419D01*
G01X23099681Y-916577D01*
G01X23111111Y-905147D01*
G01X23158863Y-842409D02*
G01X23158863Y-922419D01*
G01X23158863Y-876699D02*
G01X23164705Y-859427D01*
G01X23176135Y-847997D01*
G01X23187565Y-842409D01*
G01X23204583Y-842409D01*
G01X8757716Y-1411551D02*
G01X8757716Y-1405709D01*
G01X8763304Y-1394279D01*
G01X8769146Y-1388691D01*
G01X8780576Y-1382849D01*
G01X8803436Y-1382849D01*
G01X8814866Y-1388691D01*
G01X8820454Y-1394279D01*
G01X8826296Y-1405709D01*
G01X8826296Y-1417139D01*
G01X8820454Y-1428569D01*
G01X8809024Y-1445841D01*
G01X8751874Y-1502991D01*
G01X8831884Y-1502991D01*
G01X10177467Y-1382849D02*
G01X10240459Y-1382849D01*
G01X10206169Y-1428569D01*
G01X10223187Y-1428569D01*
G01X10234617Y-1434411D01*
G01X10240459Y-1439999D01*
G01X10246047Y-1457271D01*
G01X10246047Y-1468701D01*
G01X10240459Y-1485719D01*
G01X10229029Y-1497149D01*
G01X10211757Y-1502991D01*
G01X10194739Y-1502991D01*
G01X10177467Y-1497149D01*
G01X10171879Y-1491561D01*
G01X10166037Y-1480131D01*
G01X10362379Y-1382849D02*
G01X10305229Y-1382849D01*
G01X10299641Y-1434411D01*
G01X10305229Y-1428569D01*
G01X10322501Y-1422981D01*
G01X10339519Y-1422981D01*
G01X10356791Y-1428569D01*
G01X10368221Y-1439999D01*
G01X10373809Y-1457271D01*
G01X10373809Y-1468701D01*
G01X10368221Y-1485719D01*
G01X10356791Y-1497149D01*
G01X10339519Y-1502991D01*
G01X10322501Y-1502991D01*
G01X10305229Y-1497149D01*
G01X10299641Y-1491561D01*
G01X10293799Y-1480131D01*
G01X10427403Y-1474289D02*
G01X10421561Y-1480131D01*
G01X10427403Y-1485719D01*
G01X10432991Y-1480131D01*
G01X10427403Y-1474289D01*
G01X10537893Y-1382849D02*
G01X10480743Y-1462859D01*
G01X10566595Y-1462859D01*
G01X10537893Y-1382849D02*
G01X10537893Y-1502991D01*
G01X10614347Y-1422981D02*
G01X10677339Y-1502991D01*
G01X10677339Y-1422981D02*
G01X10614347Y-1502991D01*
G01X10725091Y-1405709D02*
G01X10736521Y-1400121D01*
G01X10753793Y-1382849D01*
G01X10753793Y-1502991D01*
G01X10807387Y-1411551D02*
G01X10807387Y-1405709D01*
G01X10812975Y-1394279D01*
G01X10818817Y-1388691D01*
G01X10830247Y-1382849D01*
G01X10853107Y-1382849D01*
G01X10864537Y-1388691D01*
G01X10870125Y-1394279D01*
G01X10875967Y-1405709D01*
G01X10875967Y-1417139D01*
G01X10870125Y-1428569D01*
G01X10858695Y-1445841D01*
G01X10801545Y-1502991D01*
G01X10881555Y-1502991D01*
G01X10935149Y-1411551D02*
G01X10935149Y-1405709D01*
G01X10940737Y-1394279D01*
G01X10946579Y-1388691D01*
G01X10958009Y-1382849D01*
G01X10980869Y-1382849D01*
G01X10992299Y-1388691D01*
G01X10997887Y-1394279D01*
G01X11003729Y-1405709D01*
G01X11003729Y-1417139D01*
G01X10997887Y-1428569D01*
G01X10986457Y-1445841D01*
G01X10929307Y-1502991D01*
G01X11009317Y-1502991D01*
G01X11062911Y-1474289D02*
G01X11057069Y-1480131D01*
G01X11062911Y-1485719D01*
G01X11068499Y-1480131D01*
G01X11062911Y-1474289D01*
G01X11116251Y-1405709D02*
G01X11127681Y-1400121D01*
G01X11144953Y-1382849D01*
G01X11144953Y-1502991D01*
G01X11192705Y-1422981D02*
G01X11192705Y-1502991D01*
G01X11192705Y-1445841D02*
G01X11209977Y-1428569D01*
G01X11221407Y-1422981D01*
G01X11238425Y-1422981D01*
G01X11249855Y-1428569D01*
G01X11255697Y-1445841D01*
G01X11255697Y-1502991D01*
G01X11255697Y-1445841D02*
G01X11272715Y-1428569D01*
G01X11284145Y-1422981D01*
G01X11301417Y-1422981D01*
G01X11312847Y-1428569D01*
G01X11318435Y-1445841D01*
G01X11318435Y-1502991D01*
G01X11366187Y-1382849D02*
G01X11372029Y-1388691D01*
G01X11377617Y-1382849D01*
G01X11372029Y-1377261D01*
G01X11366187Y-1382849D01*
G01X11372029Y-1422981D02*
G01X11372029Y-1502991D01*
G01X11425369Y-1382849D02*
G01X11425369Y-1502991D01*
G01X11513253Y-1359989D02*
G01X11501823Y-1371419D01*
G01X11490393Y-1388691D01*
G01X11478963Y-1411551D01*
G01X11473121Y-1439999D01*
G01X11473121Y-1462859D01*
G01X11478963Y-1491561D01*
G01X11490393Y-1514421D01*
G01X11501823Y-1531439D01*
G01X11513253Y-1542869D01*
G01X11595295Y-1382849D02*
G01X11578277Y-1388691D01*
G01X11566847Y-1405709D01*
G01X11561005Y-1434411D01*
G01X11561005Y-1451429D01*
G01X11566847Y-1480131D01*
G01X11578277Y-1497149D01*
G01X11595295Y-1502991D01*
G01X11606725Y-1502991D01*
G01X11623997Y-1497149D01*
G01X11635427Y-1480131D01*
G01X11641015Y-1451429D01*
G01X11641015Y-1434411D01*
G01X11635427Y-1405709D01*
G01X11623997Y-1388691D01*
G01X11606725Y-1382849D01*
G01X11595295Y-1382849D01*
G01X11694609Y-1474289D02*
G01X11688767Y-1480131D01*
G01X11694609Y-1485719D01*
G01X11700197Y-1480131D01*
G01X11694609Y-1474289D01*
G01X11822371Y-1422981D02*
G01X11816529Y-1439999D01*
G01X11805099Y-1451429D01*
G01X11788081Y-1457271D01*
G01X11782239Y-1457271D01*
G01X11765221Y-1451429D01*
G01X11753791Y-1439999D01*
G01X11747949Y-1422981D01*
G01X11747949Y-1417139D01*
G01X11753791Y-1400121D01*
G01X11765221Y-1388691D01*
G01X11782239Y-1382849D01*
G01X11788081Y-1382849D01*
G01X11805099Y-1388691D01*
G01X11816529Y-1400121D01*
G01X11822371Y-1422981D01*
G01X11822371Y-1451429D01*
G01X11816529Y-1480131D01*
G01X11805099Y-1497149D01*
G01X11788081Y-1502991D01*
G01X11776651Y-1502991D01*
G01X11759379Y-1497149D01*
G01X11753791Y-1485719D01*
G01X11904413Y-1382849D02*
G01X11887395Y-1388691D01*
G01X11875965Y-1405709D01*
G01X11870123Y-1434411D01*
G01X11870123Y-1451429D01*
G01X11875965Y-1480131D01*
G01X11887395Y-1497149D01*
G01X11904413Y-1502991D01*
G01X11915843Y-1502991D01*
G01X11933115Y-1497149D01*
G01X11944545Y-1480131D01*
G01X11950133Y-1451429D01*
G01X11950133Y-1434411D01*
G01X11944545Y-1405709D01*
G01X11933115Y-1388691D01*
G01X11915843Y-1382849D01*
G01X11904413Y-1382849D01*
G01X12032175Y-1382849D02*
G01X12015157Y-1388691D01*
G01X12003727Y-1405709D01*
G01X11997885Y-1434411D01*
G01X11997885Y-1451429D01*
G01X12003727Y-1480131D01*
G01X12015157Y-1497149D01*
G01X12032175Y-1502991D01*
G01X12043605Y-1502991D01*
G01X12060877Y-1497149D01*
G01X12072307Y-1480131D01*
G01X12077895Y-1451429D01*
G01X12077895Y-1434411D01*
G01X12072307Y-1405709D01*
G01X12060877Y-1388691D01*
G01X12043605Y-1382849D01*
G01X12032175Y-1382849D01*
G01X12125647Y-1422981D02*
G01X12188639Y-1502991D01*
G01X12188639Y-1422981D02*
G01X12125647Y-1502991D01*
G01X12247821Y-1382849D02*
G01X12310813Y-1382849D01*
G01X12276523Y-1428569D01*
G01X12293541Y-1428569D01*
G01X12304971Y-1434411D01*
G01X12310813Y-1439999D01*
G01X12316401Y-1457271D01*
G01X12316401Y-1468701D01*
G01X12310813Y-1485719D01*
G01X12299383Y-1497149D01*
G01X12282111Y-1502991D01*
G01X12265093Y-1502991D01*
G01X12247821Y-1497149D01*
G01X12242233Y-1491561D01*
G01X12236391Y-1480131D01*
G01X12369995Y-1474289D02*
G01X12364153Y-1480131D01*
G01X12369995Y-1485719D01*
G01X12375583Y-1480131D01*
G01X12369995Y-1474289D01*
G01X12423335Y-1405709D02*
G01X12434765Y-1400121D01*
G01X12452037Y-1382849D01*
G01X12452037Y-1502991D01*
G01X12534079Y-1382849D02*
G01X12517061Y-1388691D01*
G01X12505631Y-1405709D01*
G01X12499789Y-1434411D01*
G01X12499789Y-1451429D01*
G01X12505631Y-1480131D01*
G01X12517061Y-1497149D01*
G01X12534079Y-1502991D01*
G01X12545509Y-1502991D01*
G01X12562781Y-1497149D01*
G01X12574211Y-1480131D01*
G01X12579799Y-1451429D01*
G01X12579799Y-1434411D01*
G01X12574211Y-1405709D01*
G01X12562781Y-1388691D01*
G01X12545509Y-1382849D01*
G01X12534079Y-1382849D01*
G01X12661841Y-1382849D02*
G01X12644823Y-1388691D01*
G01X12633393Y-1405709D01*
G01X12627551Y-1434411D01*
G01X12627551Y-1451429D01*
G01X12633393Y-1480131D01*
G01X12644823Y-1497149D01*
G01X12661841Y-1502991D01*
G01X12673271Y-1502991D01*
G01X12690543Y-1497149D01*
G01X12701973Y-1480131D01*
G01X12707561Y-1451429D01*
G01X12707561Y-1434411D01*
G01X12701973Y-1405709D01*
G01X12690543Y-1388691D01*
G01X12673271Y-1382849D01*
G01X12661841Y-1382849D01*
G01X12755313Y-1422981D02*
G01X12755313Y-1502991D01*
G01X12755313Y-1445841D02*
G01X12772585Y-1428569D01*
G01X12784015Y-1422981D01*
G01X12801033Y-1422981D01*
G01X12812463Y-1428569D01*
G01X12818305Y-1445841D01*
G01X12818305Y-1502991D01*
G01X12818305Y-1445841D02*
G01X12835323Y-1428569D01*
G01X12846753Y-1422981D01*
G01X12864025Y-1422981D01*
G01X12875455Y-1428569D01*
G01X12881043Y-1445841D01*
G01X12881043Y-1502991D01*
G01X12928795Y-1422981D02*
G01X12928795Y-1502991D01*
G01X12928795Y-1445841D02*
G01X12946067Y-1428569D01*
G01X12957497Y-1422981D01*
G01X12974515Y-1422981D01*
G01X12985945Y-1428569D01*
G01X12991787Y-1445841D01*
G01X12991787Y-1502991D01*
G01X12991787Y-1445841D02*
G01X13008805Y-1428569D01*
G01X13020235Y-1422981D01*
G01X13037507Y-1422981D01*
G01X13048937Y-1428569D01*
G01X13054525Y-1445841D01*
G01X13054525Y-1502991D01*
G01X13102277Y-1359989D02*
G01X13113707Y-1371419D01*
G01X13125137Y-1388691D01*
G01X13136567Y-1411551D01*
G01X13142409Y-1439999D01*
G01X13142409Y-1462859D01*
G01X13136567Y-1491561D01*
G01X13125137Y-1514421D01*
G01X13113707Y-1531439D01*
G01X13102277Y-1542869D01*
G01X14136456Y-1382849D02*
G01X14136456Y-1502991D01*
G01X14136456Y-1382849D02*
G01X14188018Y-1382849D01*
G01X14205036Y-1388691D01*
G01X14210878Y-1394279D01*
G01X14216466Y-1405709D01*
G01X14216466Y-1422981D01*
G01X14210878Y-1434411D01*
G01X14205036Y-1439999D01*
G01X14188018Y-1445841D01*
G01X14136456Y-1445841D01*
G01X14304350Y-1382849D02*
G01X14304350Y-1502991D01*
G01X14264218Y-1382849D02*
G01X14344228Y-1382849D01*
G01X14391980Y-1382849D02*
G01X14391980Y-1502991D01*
G01X14471990Y-1382849D02*
G01X14471990Y-1502991D01*
G01X14391980Y-1439999D02*
G01X14471990Y-1439999D01*
G01X15677874Y-1400121D02*
G01X15666444Y-1388691D01*
G01X15649426Y-1382849D01*
G01X15626566Y-1382849D01*
G01X15609294Y-1388691D01*
G01X15597864Y-1400121D01*
G01X15597864Y-1411551D01*
G01X15603706Y-1422981D01*
G01X15609294Y-1428569D01*
G01X15620724Y-1434411D01*
G01X15655014Y-1445841D01*
G01X15666444Y-1451429D01*
G01X15672286Y-1457271D01*
G01X15677874Y-1468701D01*
G01X15677874Y-1485719D01*
G01X15666444Y-1497149D01*
G01X15649426Y-1502991D01*
G01X15626566Y-1502991D01*
G01X15609294Y-1497149D01*
G01X15597864Y-1485719D01*
G01X15725626Y-1382849D02*
G01X15725626Y-1502991D01*
G01X15802080Y-1422981D02*
G01X15790650Y-1428569D01*
G01X15779220Y-1439999D01*
G01X15773378Y-1457271D01*
G01X15773378Y-1468701D01*
G01X15779220Y-1485719D01*
G01X15790650Y-1497149D01*
G01X15802080Y-1502991D01*
G01X15819098Y-1502991D01*
G01X15830528Y-1497149D01*
G01X15841958Y-1485719D01*
G01X15847800Y-1468701D01*
G01X15847800Y-1457271D01*
G01X15841958Y-1439999D01*
G01X15830528Y-1428569D01*
G01X15819098Y-1422981D01*
G01X15802080Y-1422981D01*
G01X15912824Y-1382849D02*
G01X15912824Y-1480131D01*
G01X15918412Y-1497149D01*
G01X15929842Y-1502991D01*
G01X15941272Y-1502991D01*
G01X15895552Y-1422981D02*
G01X15935684Y-1422981D01*
G01X17029045Y-1382849D02*
G01X17029045Y-1502991D01*
G01X17029045Y-1382849D02*
G01X17080607Y-1382849D01*
G01X17097625Y-1388691D01*
G01X17103467Y-1394279D01*
G01X17109055Y-1405709D01*
G01X17109055Y-1422981D01*
G01X17103467Y-1434411D01*
G01X17097625Y-1439999D01*
G01X17080607Y-1445841D01*
G01X17029045Y-1445841D01*
G01X17225387Y-1422981D02*
G01X17225387Y-1502991D01*
G01X17225387Y-1439999D02*
G01X17213957Y-1428569D01*
G01X17202527Y-1422981D01*
G01X17185509Y-1422981D01*
G01X17174079Y-1428569D01*
G01X17162649Y-1439999D01*
G01X17156807Y-1457271D01*
G01X17156807Y-1468701D01*
G01X17162649Y-1485719D01*
G01X17174079Y-1497149D01*
G01X17185509Y-1502991D01*
G01X17202527Y-1502991D01*
G01X17213957Y-1497149D01*
G01X17225387Y-1485719D01*
G01X17341719Y-1382849D02*
G01X17341719Y-1502991D01*
G01X17341719Y-1439999D02*
G01X17330289Y-1428569D01*
G01X17318859Y-1422981D01*
G01X17301841Y-1422981D01*
G01X17290411Y-1428569D01*
G01X17278981Y-1439999D01*
G01X17273139Y-1457271D01*
G01X17273139Y-1468701D01*
G01X17278981Y-1485719D01*
G01X17290411Y-1497149D01*
G01X17301841Y-1502991D01*
G01X17318859Y-1502991D01*
G01X17330289Y-1497149D01*
G01X17341719Y-1485719D01*
G01X18732514Y-1382849D02*
G01X18721084Y-1388691D01*
G01X18709654Y-1400121D01*
G01X18704066Y-1411551D01*
G01X18698224Y-1428569D01*
G01X18698224Y-1457271D01*
G01X18704066Y-1474289D01*
G01X18709654Y-1485719D01*
G01X18721084Y-1497149D01*
G01X18732514Y-1502991D01*
G01X18755374Y-1502991D01*
G01X18766804Y-1497149D01*
G01X18778234Y-1485719D01*
G01X18784076Y-1474289D01*
G01X18789664Y-1457271D01*
G01X18789664Y-1428569D01*
G01X18784076Y-1411551D01*
G01X18778234Y-1400121D01*
G01X18766804Y-1388691D01*
G01X18755374Y-1382849D01*
G01X18732514Y-1382849D01*
G01X18837416Y-1422981D02*
G01X18871706Y-1502991D01*
G01X18905996Y-1422981D02*
G01X18871706Y-1502991D01*
G01X19022328Y-1422981D02*
G01X19022328Y-1502991D01*
G01X19022328Y-1439999D02*
G01X19010898Y-1428569D01*
G01X18999468Y-1422981D01*
G01X18982450Y-1422981D01*
G01X18971020Y-1428569D01*
G01X18959590Y-1439999D01*
G01X18953748Y-1457271D01*
G01X18953748Y-1468701D01*
G01X18959590Y-1485719D01*
G01X18971020Y-1497149D01*
G01X18982450Y-1502991D01*
G01X18999468Y-1502991D01*
G01X19010898Y-1497149D01*
G01X19022328Y-1485719D01*
G01X19070080Y-1382849D02*
G01X19070080Y-1502991D01*
G01X20657725Y-1382849D02*
G01X20657725Y-1502991D01*
G01X20617593Y-1382849D02*
G01X20697603Y-1382849D01*
G01X20774057Y-1422981D02*
G01X20762627Y-1428569D01*
G01X20751197Y-1439999D01*
G01X20745355Y-1457271D01*
G01X20745355Y-1468701D01*
G01X20751197Y-1485719D01*
G01X20762627Y-1497149D01*
G01X20774057Y-1502991D01*
G01X20791075Y-1502991D01*
G01X20802505Y-1497149D01*
G01X20813935Y-1485719D01*
G01X20819777Y-1468701D01*
G01X20819777Y-1457271D01*
G01X20813935Y-1439999D01*
G01X20802505Y-1428569D01*
G01X20791075Y-1422981D01*
G01X20774057Y-1422981D01*
G01X20867529Y-1422981D02*
G01X20867529Y-1542869D01*
G01X20867529Y-1439999D02*
G01X20878959Y-1428569D01*
G01X20890389Y-1422981D01*
G01X20907661Y-1422981D01*
G01X20919091Y-1428569D01*
G01X20930521Y-1439999D01*
G01X20936109Y-1457271D01*
G01X20936109Y-1468701D01*
G01X20930521Y-1485719D01*
G01X20919091Y-1497149D01*
G01X20907661Y-1502991D01*
G01X20890389Y-1502991D01*
G01X20878959Y-1497149D01*
G01X20867529Y-1485719D01*
G01X21111877Y-1382849D02*
G01X21111877Y-1502991D01*
G01X21111877Y-1502991D02*
G01X21180457Y-1502991D01*
G01X21296789Y-1422981D02*
G01X21296789Y-1502991D01*
G01X21296789Y-1439999D02*
G01X21285359Y-1428569D01*
G01X21273929Y-1422981D01*
G01X21256911Y-1422981D01*
G01X21245481Y-1428569D01*
G01X21234051Y-1439999D01*
G01X21228209Y-1457271D01*
G01X21228209Y-1468701D01*
G01X21234051Y-1485719D01*
G01X21245481Y-1497149D01*
G01X21256911Y-1502991D01*
G01X21273929Y-1502991D01*
G01X21285359Y-1497149D01*
G01X21296789Y-1485719D01*
G01X21350383Y-1422981D02*
G01X21384673Y-1502991D01*
G01X21418963Y-1422981D02*
G01X21384673Y-1502991D01*
G01X21373243Y-1525851D01*
G01X21361813Y-1537281D01*
G01X21350383Y-1542869D01*
G01X21344541Y-1542869D01*
G01X21466715Y-1457271D02*
G01X21535295Y-1457271D01*
G01X21535295Y-1445841D01*
G01X21529707Y-1434411D01*
G01X21523865Y-1428569D01*
G01X21512435Y-1422981D01*
G01X21495417Y-1422981D01*
G01X21483987Y-1428569D01*
G01X21472557Y-1439999D01*
G01X21466715Y-1457271D01*
G01X21466715Y-1468701D01*
G01X21472557Y-1485719D01*
G01X21483987Y-1497149D01*
G01X21495417Y-1502991D01*
G01X21512435Y-1502991D01*
G01X21523865Y-1497149D01*
G01X21535295Y-1485719D01*
G01X21583047Y-1422981D02*
G01X21583047Y-1502991D01*
G01X21583047Y-1457271D02*
G01X21588889Y-1439999D01*
G01X21600319Y-1428569D01*
G01X21611749Y-1422981D01*
G01X21628767Y-1422981D01*
G01X21676519Y-1451429D02*
G01X21779389Y-1451429D01*
G01X21827141Y-1382849D02*
G01X21827141Y-1502991D01*
G01X21827141Y-1382849D02*
G01X21878703Y-1382849D01*
G01X21895721Y-1388691D01*
G01X21901563Y-1394279D01*
G01X21907151Y-1405709D01*
G01X21907151Y-1417139D01*
G01X21901563Y-1428569D01*
G01X21895721Y-1434411D01*
G01X21878703Y-1439999D01*
G01X21827141Y-1439999D02*
G01X21878703Y-1439999D01*
G01X21895721Y-1445841D01*
G01X21901563Y-1451429D01*
G01X21907151Y-1462859D01*
G01X21907151Y-1480131D01*
G01X21901563Y-1491561D01*
G01X21895721Y-1497149D01*
G01X21878703Y-1502991D01*
G01X21827141Y-1502991D01*
G01X21983605Y-1422981D02*
G01X21972175Y-1428569D01*
G01X21960745Y-1439999D01*
G01X21954903Y-1457271D01*
G01X21954903Y-1468701D01*
G01X21960745Y-1485719D01*
G01X21972175Y-1497149D01*
G01X21983605Y-1502991D01*
G01X22000623Y-1502991D01*
G01X22012053Y-1497149D01*
G01X22023483Y-1485719D01*
G01X22029325Y-1468701D01*
G01X22029325Y-1457271D01*
G01X22023483Y-1439999D01*
G01X22012053Y-1428569D01*
G01X22000623Y-1422981D01*
G01X21983605Y-1422981D01*
G01X22094349Y-1382849D02*
G01X22094349Y-1480131D01*
G01X22099937Y-1497149D01*
G01X22111367Y-1502991D01*
G01X22122797Y-1502991D01*
G01X22077077Y-1422981D02*
G01X22117209Y-1422981D01*
G01X22187821Y-1382849D02*
G01X22187821Y-1480131D01*
G01X22193409Y-1497149D01*
G01X22204839Y-1502991D01*
G01X22216269Y-1502991D01*
G01X22170549Y-1422981D02*
G01X22210681Y-1422981D01*
G01X22292723Y-1422981D02*
G01X22281293Y-1428569D01*
G01X22269863Y-1439999D01*
G01X22264021Y-1457271D01*
G01X22264021Y-1468701D01*
G01X22269863Y-1485719D01*
G01X22281293Y-1497149D01*
G01X22292723Y-1502991D01*
G01X22309741Y-1502991D01*
G01X22321171Y-1497149D01*
G01X22332601Y-1485719D01*
G01X22338443Y-1468701D01*
G01X22338443Y-1457271D01*
G01X22332601Y-1439999D01*
G01X22321171Y-1428569D01*
G01X22309741Y-1422981D01*
G01X22292723Y-1422981D01*
G01X22386195Y-1422981D02*
G01X22386195Y-1502991D01*
G01X22386195Y-1445841D02*
G01X22403467Y-1428569D01*
G01X22414897Y-1422981D01*
G01X22431915Y-1422981D01*
G01X22443345Y-1428569D01*
G01X22449187Y-1445841D01*
G01X22449187Y-1502991D01*
G01X22449187Y-1445841D02*
G01X22466205Y-1428569D01*
G01X22477635Y-1422981D01*
G01X22494907Y-1422981D01*
G01X22506337Y-1428569D01*
G01X22511925Y-1445841D01*
G01X22511925Y-1502991D01*
G01X22687693Y-1382849D02*
G01X22687693Y-1502991D01*
G01X22687693Y-1502991D02*
G01X22756273Y-1502991D01*
G01X22872605Y-1422981D02*
G01X22872605Y-1502991D01*
G01X22872605Y-1439999D02*
G01X22861175Y-1428569D01*
G01X22849745Y-1422981D01*
G01X22832727Y-1422981D01*
G01X22821297Y-1428569D01*
G01X22809867Y-1439999D01*
G01X22804025Y-1457271D01*
G01X22804025Y-1468701D01*
G01X22809867Y-1485719D01*
G01X22821297Y-1497149D01*
G01X22832727Y-1502991D01*
G01X22849745Y-1502991D01*
G01X22861175Y-1497149D01*
G01X22872605Y-1485719D01*
G01X22926199Y-1422981D02*
G01X22960489Y-1502991D01*
G01X22994779Y-1422981D02*
G01X22960489Y-1502991D01*
G01X22949059Y-1525851D01*
G01X22937629Y-1537281D01*
G01X22926199Y-1542869D01*
G01X22920357Y-1542869D01*
G01X23042531Y-1457271D02*
G01X23111111Y-1457271D01*
G01X23111111Y-1445841D01*
G01X23105523Y-1434411D01*
G01X23099681Y-1428569D01*
G01X23088251Y-1422981D01*
G01X23071233Y-1422981D01*
G01X23059803Y-1428569D01*
G01X23048373Y-1439999D01*
G01X23042531Y-1457271D01*
G01X23042531Y-1468701D01*
G01X23048373Y-1485719D01*
G01X23059803Y-1497149D01*
G01X23071233Y-1502991D01*
G01X23088251Y-1502991D01*
G01X23099681Y-1497149D01*
G01X23111111Y-1485719D01*
G01X23158863Y-1422981D02*
G01X23158863Y-1502991D01*
G01X23158863Y-1457271D02*
G01X23164705Y-1439999D01*
G01X23176135Y-1428569D01*
G01X23187565Y-1422981D01*
G01X23204583Y-1422981D01*
G01X8809024Y-1963420D02*
G01X8751874Y-2043430D01*
G01X8837726Y-2043430D01*
G01X8809024Y-1963420D02*
G01X8809024Y-2083562D01*
G01X10246047Y-1963420D02*
G01X10188897Y-2083562D01*
G01X10166037Y-1963420D02*
G01X10246047Y-1963420D01*
G01X10322501Y-1963420D02*
G01X10305229Y-1969262D01*
G01X10299641Y-1980692D01*
G01X10299641Y-1992122D01*
G01X10305229Y-2003552D01*
G01X10316659Y-2009140D01*
G01X10339519Y-2014982D01*
G01X10356791Y-2020570D01*
G01X10368221Y-2032000D01*
G01X10373809Y-2043430D01*
G01X10373809Y-2060702D01*
G01X10368221Y-2072132D01*
G01X10362379Y-2077720D01*
G01X10345361Y-2083562D01*
G01X10322501Y-2083562D01*
G01X10305229Y-2077720D01*
G01X10299641Y-2072132D01*
G01X10293799Y-2060702D01*
G01X10293799Y-2043430D01*
G01X10299641Y-2032000D01*
G01X10311071Y-2020570D01*
G01X10328089Y-2014982D01*
G01X10350949Y-2009140D01*
G01X10362379Y-2003552D01*
G01X10368221Y-1992122D01*
G01X10368221Y-1980692D01*
G01X10362379Y-1969262D01*
G01X10345361Y-1963420D01*
G01X10322501Y-1963420D01*
G01X10427403Y-2054860D02*
G01X10421561Y-2060702D01*
G01X10427403Y-2066290D01*
G01X10432991Y-2060702D01*
G01X10427403Y-2054860D01*
G01X10560753Y-1963420D02*
G01X10503603Y-2083562D01*
G01X10480743Y-1963420D02*
G01X10560753Y-1963420D01*
G01X10608505Y-2003552D02*
G01X10608505Y-2083562D01*
G01X10608505Y-2026412D02*
G01X10625777Y-2009140D01*
G01X10637207Y-2003552D01*
G01X10654225Y-2003552D01*
G01X10665655Y-2009140D01*
G01X10671497Y-2026412D01*
G01X10671497Y-2083562D01*
G01X10671497Y-2026412D02*
G01X10688515Y-2009140D01*
G01X10699945Y-2003552D01*
G01X10717217Y-2003552D01*
G01X10728647Y-2009140D01*
G01X10734235Y-2026412D01*
G01X10734235Y-2083562D01*
G01X10781987Y-1963420D02*
G01X10787829Y-1969262D01*
G01X10793417Y-1963420D01*
G01X10787829Y-1957832D01*
G01X10781987Y-1963420D01*
G01X10787829Y-2003552D02*
G01X10787829Y-2083562D01*
G01X10841169Y-1963420D02*
G01X10841169Y-2083562D01*
G01X10929053Y-1940560D02*
G01X10917623Y-1951990D01*
G01X10906193Y-1969262D01*
G01X10894763Y-1992122D01*
G01X10888921Y-2020570D01*
G01X10888921Y-2043430D01*
G01X10894763Y-2072132D01*
G01X10906193Y-2094992D01*
G01X10917623Y-2112010D01*
G01X10929053Y-2123440D01*
G01X10982647Y-1992122D02*
G01X10982647Y-1986280D01*
G01X10988235Y-1974850D01*
G01X10994077Y-1969262D01*
G01X11005507Y-1963420D01*
G01X11028367Y-1963420D01*
G01X11039797Y-1969262D01*
G01X11045385Y-1974850D01*
G01X11051227Y-1986280D01*
G01X11051227Y-1997710D01*
G01X11045385Y-2009140D01*
G01X11033955Y-2026412D01*
G01X10976805Y-2083562D01*
G01X11056815Y-2083562D01*
G01X11110409Y-2054860D02*
G01X11104567Y-2060702D01*
G01X11110409Y-2066290D01*
G01X11115997Y-2060702D01*
G01X11110409Y-2054860D01*
G01X11198039Y-1963420D02*
G01X11181021Y-1969262D01*
G01X11169591Y-1986280D01*
G01X11163749Y-2014982D01*
G01X11163749Y-2032000D01*
G01X11169591Y-2060702D01*
G01X11181021Y-2077720D01*
G01X11198039Y-2083562D01*
G01X11209469Y-2083562D01*
G01X11226741Y-2077720D01*
G01X11238171Y-2060702D01*
G01X11243759Y-2032000D01*
G01X11243759Y-2014982D01*
G01X11238171Y-1986280D01*
G01X11226741Y-1969262D01*
G01X11209469Y-1963420D01*
G01X11198039Y-1963420D01*
G01X11325801Y-1963420D02*
G01X11308783Y-1969262D01*
G01X11297353Y-1986280D01*
G01X11291511Y-2014982D01*
G01X11291511Y-2032000D01*
G01X11297353Y-2060702D01*
G01X11308783Y-2077720D01*
G01X11325801Y-2083562D01*
G01X11337231Y-2083562D01*
G01X11354503Y-2077720D01*
G01X11365933Y-2060702D01*
G01X11371521Y-2032000D01*
G01X11371521Y-2014982D01*
G01X11365933Y-1986280D01*
G01X11354503Y-1969262D01*
G01X11337231Y-1963420D01*
G01X11325801Y-1963420D01*
G01X11453563Y-1963420D02*
G01X11436545Y-1969262D01*
G01X11425115Y-1986280D01*
G01X11419273Y-2014982D01*
G01X11419273Y-2032000D01*
G01X11425115Y-2060702D01*
G01X11436545Y-2077720D01*
G01X11453563Y-2083562D01*
G01X11464993Y-2083562D01*
G01X11482265Y-2077720D01*
G01X11493695Y-2060702D01*
G01X11499283Y-2032000D01*
G01X11499283Y-2014982D01*
G01X11493695Y-1986280D01*
G01X11482265Y-1969262D01*
G01X11464993Y-1963420D01*
G01X11453563Y-1963420D01*
G01X11547035Y-2003552D02*
G01X11547035Y-2083562D01*
G01X11547035Y-2026412D02*
G01X11564307Y-2009140D01*
G01X11575737Y-2003552D01*
G01X11592755Y-2003552D01*
G01X11604185Y-2009140D01*
G01X11610027Y-2026412D01*
G01X11610027Y-2083562D01*
G01X11610027Y-2026412D02*
G01X11627045Y-2009140D01*
G01X11638475Y-2003552D01*
G01X11655747Y-2003552D01*
G01X11667177Y-2009140D01*
G01X11672765Y-2026412D01*
G01X11672765Y-2083562D01*
G01X11720517Y-2003552D02*
G01X11720517Y-2083562D01*
G01X11720517Y-2026412D02*
G01X11737789Y-2009140D01*
G01X11749219Y-2003552D01*
G01X11766237Y-2003552D01*
G01X11777667Y-2009140D01*
G01X11783509Y-2026412D01*
G01X11783509Y-2083562D01*
G01X11783509Y-2026412D02*
G01X11800527Y-2009140D01*
G01X11811957Y-2003552D01*
G01X11829229Y-2003552D01*
G01X11840659Y-2009140D01*
G01X11846247Y-2026412D01*
G01X11846247Y-2083562D01*
G01X11893999Y-1940560D02*
G01X11905429Y-1951990D01*
G01X11916859Y-1969262D01*
G01X11928289Y-1992122D01*
G01X11934131Y-2020570D01*
G01X11934131Y-2043430D01*
G01X11928289Y-2072132D01*
G01X11916859Y-2094992D01*
G01X11905429Y-2112010D01*
G01X11893999Y-2123440D01*
G01X14136456Y-1963420D02*
G01X14136456Y-2083562D01*
G01X14136456Y-1963420D02*
G01X14188018Y-1963420D01*
G01X14205036Y-1969262D01*
G01X14210878Y-1974850D01*
G01X14216466Y-1986280D01*
G01X14216466Y-2003552D01*
G01X14210878Y-2014982D01*
G01X14205036Y-2020570D01*
G01X14188018Y-2026412D01*
G01X14136456Y-2026412D01*
G01X14304350Y-1963420D02*
G01X14304350Y-2083562D01*
G01X14264218Y-1963420D02*
G01X14344228Y-1963420D01*
G01X14391980Y-1963420D02*
G01X14391980Y-2083562D01*
G01X14471990Y-1963420D02*
G01X14471990Y-2083562D01*
G01X14391980Y-2020570D02*
G01X14471990Y-2020570D01*
G01X15597864Y-1963420D02*
G01X15597864Y-2083562D01*
G01X15597864Y-1963420D02*
G01X15649426Y-1963420D01*
G01X15666444Y-1969262D01*
G01X15672286Y-1974850D01*
G01X15677874Y-1986280D01*
G01X15677874Y-1997710D01*
G01X15672286Y-2009140D01*
G01X15666444Y-2014982D01*
G01X15649426Y-2020570D01*
G01X15597864Y-2020570D01*
G01X15637996Y-2020570D02*
G01X15677874Y-2083562D01*
G01X15754328Y-2003552D02*
G01X15742898Y-2009140D01*
G01X15731468Y-2020570D01*
G01X15725626Y-2037842D01*
G01X15725626Y-2049272D01*
G01X15731468Y-2066290D01*
G01X15742898Y-2077720D01*
G01X15754328Y-2083562D01*
G01X15771346Y-2083562D01*
G01X15782776Y-2077720D01*
G01X15794206Y-2066290D01*
G01X15800048Y-2049272D01*
G01X15800048Y-2037842D01*
G01X15794206Y-2020570D01*
G01X15782776Y-2009140D01*
G01X15771346Y-2003552D01*
G01X15754328Y-2003552D01*
G01X15847800Y-2003552D02*
G01X15847800Y-2060702D01*
G01X15853642Y-2077720D01*
G01X15865072Y-2083562D01*
G01X15882090Y-2083562D01*
G01X15893520Y-2077720D01*
G01X15910792Y-2060702D01*
G01X15910792Y-2003552D02*
G01X15910792Y-2083562D01*
G01X15958544Y-2003552D02*
G01X15958544Y-2083562D01*
G01X15958544Y-2026412D02*
G01X15975816Y-2009140D01*
G01X15987246Y-2003552D01*
G01X16004264Y-2003552D01*
G01X16015694Y-2009140D01*
G01X16021536Y-2026412D01*
G01X16021536Y-2083562D01*
G01X16137868Y-1963420D02*
G01X16137868Y-2083562D01*
G01X16137868Y-2020570D02*
G01X16126438Y-2009140D01*
G01X16115008Y-2003552D01*
G01X16097990Y-2003552D01*
G01X16086560Y-2009140D01*
G01X16075130Y-2020570D01*
G01X16069288Y-2037842D01*
G01X16069288Y-2049272D01*
G01X16075130Y-2066290D01*
G01X16086560Y-2077720D01*
G01X16097990Y-2083562D01*
G01X16115008Y-2083562D01*
G01X16126438Y-2077720D01*
G01X16137868Y-2066290D01*
G01X17029045Y-1963420D02*
G01X17074765Y-2083562D01*
G01X17120485Y-1963420D02*
G01X17074765Y-2083562D01*
G01X17168237Y-1963420D02*
G01X17174079Y-1969262D01*
G01X17179667Y-1963420D01*
G01X17174079Y-1957832D01*
G01X17168237Y-1963420D01*
G01X17174079Y-2003552D02*
G01X17174079Y-2083562D01*
G01X17295999Y-2003552D02*
G01X17295999Y-2083562D01*
G01X17295999Y-2020570D02*
G01X17284569Y-2009140D01*
G01X17273139Y-2003552D01*
G01X17256121Y-2003552D01*
G01X17244691Y-2009140D01*
G01X17233261Y-2020570D01*
G01X17227419Y-2037842D01*
G01X17227419Y-2049272D01*
G01X17233261Y-2066290D01*
G01X17244691Y-2077720D01*
G01X17256121Y-2083562D01*
G01X17273139Y-2083562D01*
G01X17284569Y-2077720D01*
G01X17295999Y-2066290D01*
G01X20657725Y-1963420D02*
G01X20657725Y-2083562D01*
G01X20617593Y-1963420D02*
G01X20697603Y-1963420D01*
G01X20774057Y-2003552D02*
G01X20762627Y-2009140D01*
G01X20751197Y-2020570D01*
G01X20745355Y-2037842D01*
G01X20745355Y-2049272D01*
G01X20751197Y-2066290D01*
G01X20762627Y-2077720D01*
G01X20774057Y-2083562D01*
G01X20791075Y-2083562D01*
G01X20802505Y-2077720D01*
G01X20813935Y-2066290D01*
G01X20819777Y-2049272D01*
G01X20819777Y-2037842D01*
G01X20813935Y-2020570D01*
G01X20802505Y-2009140D01*
G01X20791075Y-2003552D01*
G01X20774057Y-2003552D01*
G01X20867529Y-2003552D02*
G01X20867529Y-2123440D01*
G01X20867529Y-2020570D02*
G01X20878959Y-2009140D01*
G01X20890389Y-2003552D01*
G01X20907661Y-2003552D01*
G01X20919091Y-2009140D01*
G01X20930521Y-2020570D01*
G01X20936109Y-2037842D01*
G01X20936109Y-2049272D01*
G01X20930521Y-2066290D01*
G01X20919091Y-2077720D01*
G01X20907661Y-2083562D01*
G01X20890389Y-2083562D01*
G01X20878959Y-2077720D01*
G01X20867529Y-2066290D01*
G01X21111877Y-1963420D02*
G01X21111877Y-2083562D01*
G01X21111877Y-2083562D02*
G01X21180457Y-2083562D01*
G01X21296789Y-2003552D02*
G01X21296789Y-2083562D01*
G01X21296789Y-2020570D02*
G01X21285359Y-2009140D01*
G01X21273929Y-2003552D01*
G01X21256911Y-2003552D01*
G01X21245481Y-2009140D01*
G01X21234051Y-2020570D01*
G01X21228209Y-2037842D01*
G01X21228209Y-2049272D01*
G01X21234051Y-2066290D01*
G01X21245481Y-2077720D01*
G01X21256911Y-2083562D01*
G01X21273929Y-2083562D01*
G01X21285359Y-2077720D01*
G01X21296789Y-2066290D01*
G01X21350383Y-2003552D02*
G01X21384673Y-2083562D01*
G01X21418963Y-2003552D02*
G01X21384673Y-2083562D01*
G01X21373243Y-2106422D01*
G01X21361813Y-2117852D01*
G01X21350383Y-2123440D01*
G01X21344541Y-2123440D01*
G01X21466715Y-2037842D02*
G01X21535295Y-2037842D01*
G01X21535295Y-2026412D01*
G01X21529707Y-2014982D01*
G01X21523865Y-2009140D01*
G01X21512435Y-2003552D01*
G01X21495417Y-2003552D01*
G01X21483987Y-2009140D01*
G01X21472557Y-2020570D01*
G01X21466715Y-2037842D01*
G01X21466715Y-2049272D01*
G01X21472557Y-2066290D01*
G01X21483987Y-2077720D01*
G01X21495417Y-2083562D01*
G01X21512435Y-2083562D01*
G01X21523865Y-2077720D01*
G01X21535295Y-2066290D01*
G01X21583047Y-2003552D02*
G01X21583047Y-2083562D01*
G01X21583047Y-2037842D02*
G01X21588889Y-2020570D01*
G01X21600319Y-2009140D01*
G01X21611749Y-2003552D01*
G01X21628767Y-2003552D01*
G01X21676519Y-2032000D02*
G01X21779389Y-2032000D01*
G01X21827141Y-1963420D02*
G01X21827141Y-2083562D01*
G01X21827141Y-1963420D02*
G01X21878703Y-1963420D01*
G01X21895721Y-1969262D01*
G01X21901563Y-1974850D01*
G01X21907151Y-1986280D01*
G01X21907151Y-1997710D01*
G01X21901563Y-2009140D01*
G01X21895721Y-2014982D01*
G01X21878703Y-2020570D01*
G01X21827141Y-2020570D02*
G01X21878703Y-2020570D01*
G01X21895721Y-2026412D01*
G01X21901563Y-2032000D01*
G01X21907151Y-2043430D01*
G01X21907151Y-2060702D01*
G01X21901563Y-2072132D01*
G01X21895721Y-2077720D01*
G01X21878703Y-2083562D01*
G01X21827141Y-2083562D01*
G01X21983605Y-2003552D02*
G01X21972175Y-2009140D01*
G01X21960745Y-2020570D01*
G01X21954903Y-2037842D01*
G01X21954903Y-2049272D01*
G01X21960745Y-2066290D01*
G01X21972175Y-2077720D01*
G01X21983605Y-2083562D01*
G01X22000623Y-2083562D01*
G01X22012053Y-2077720D01*
G01X22023483Y-2066290D01*
G01X22029325Y-2049272D01*
G01X22029325Y-2037842D01*
G01X22023483Y-2020570D01*
G01X22012053Y-2009140D01*
G01X22000623Y-2003552D01*
G01X21983605Y-2003552D01*
G01X22094349Y-1963420D02*
G01X22094349Y-2060702D01*
G01X22099937Y-2077720D01*
G01X22111367Y-2083562D01*
G01X22122797Y-2083562D01*
G01X22077077Y-2003552D02*
G01X22117209Y-2003552D01*
G01X22187821Y-1963420D02*
G01X22187821Y-2060702D01*
G01X22193409Y-2077720D01*
G01X22204839Y-2083562D01*
G01X22216269Y-2083562D01*
G01X22170549Y-2003552D02*
G01X22210681Y-2003552D01*
G01X22292723Y-2003552D02*
G01X22281293Y-2009140D01*
G01X22269863Y-2020570D01*
G01X22264021Y-2037842D01*
G01X22264021Y-2049272D01*
G01X22269863Y-2066290D01*
G01X22281293Y-2077720D01*
G01X22292723Y-2083562D01*
G01X22309741Y-2083562D01*
G01X22321171Y-2077720D01*
G01X22332601Y-2066290D01*
G01X22338443Y-2049272D01*
G01X22338443Y-2037842D01*
G01X22332601Y-2020570D01*
G01X22321171Y-2009140D01*
G01X22309741Y-2003552D01*
G01X22292723Y-2003552D01*
G01X22386195Y-2003552D02*
G01X22386195Y-2083562D01*
G01X22386195Y-2026412D02*
G01X22403467Y-2009140D01*
G01X22414897Y-2003552D01*
G01X22431915Y-2003552D01*
G01X22443345Y-2009140D01*
G01X22449187Y-2026412D01*
G01X22449187Y-2083562D01*
G01X22449187Y-2026412D02*
G01X22466205Y-2009140D01*
G01X22477635Y-2003552D01*
G01X22494907Y-2003552D01*
G01X22506337Y-2009140D01*
G01X22511925Y-2026412D01*
G01X22511925Y-2083562D01*
G01X22687693Y-1963420D02*
G01X22687693Y-2083562D01*
G01X22687693Y-2083562D02*
G01X22756273Y-2083562D01*
G01X22872605Y-2003552D02*
G01X22872605Y-2083562D01*
G01X22872605Y-2020570D02*
G01X22861175Y-2009140D01*
G01X22849745Y-2003552D01*
G01X22832727Y-2003552D01*
G01X22821297Y-2009140D01*
G01X22809867Y-2020570D01*
G01X22804025Y-2037842D01*
G01X22804025Y-2049272D01*
G01X22809867Y-2066290D01*
G01X22821297Y-2077720D01*
G01X22832727Y-2083562D01*
G01X22849745Y-2083562D01*
G01X22861175Y-2077720D01*
G01X22872605Y-2066290D01*
G01X22926199Y-2003552D02*
G01X22960489Y-2083562D01*
G01X22994779Y-2003552D02*
G01X22960489Y-2083562D01*
G01X22949059Y-2106422D01*
G01X22937629Y-2117852D01*
G01X22926199Y-2123440D01*
G01X22920357Y-2123440D01*
G01X23042531Y-2037842D02*
G01X23111111Y-2037842D01*
G01X23111111Y-2026412D01*
G01X23105523Y-2014982D01*
G01X23099681Y-2009140D01*
G01X23088251Y-2003552D01*
G01X23071233Y-2003552D01*
G01X23059803Y-2009140D01*
G01X23048373Y-2020570D01*
G01X23042531Y-2037842D01*
G01X23042531Y-2049272D01*
G01X23048373Y-2066290D01*
G01X23059803Y-2077720D01*
G01X23071233Y-2083562D01*
G01X23088251Y-2083562D01*
G01X23099681Y-2077720D01*
G01X23111111Y-2066290D01*
G01X23158863Y-2003552D02*
G01X23158863Y-2083562D01*
G01X23158863Y-2037842D02*
G01X23164705Y-2020570D01*
G01X23176135Y-2009140D01*
G01X23187565Y-2003552D01*
G01X23204583Y-2003552D01*
G01X8820454Y-2561263D02*
G01X8814866Y-2549833D01*
G01X8797594Y-2543991D01*
G01X8786164Y-2543991D01*
G01X8769146Y-2549833D01*
G01X8757716Y-2566851D01*
G01X8751874Y-2595553D01*
G01X8751874Y-2624001D01*
G01X8757716Y-2646861D01*
G01X8769146Y-2658291D01*
G01X8786164Y-2664133D01*
G01X8792006Y-2664133D01*
G01X8809024Y-2658291D01*
G01X8820454Y-2646861D01*
G01X8826296Y-2629843D01*
G01X8826296Y-2624001D01*
G01X8820454Y-2606983D01*
G01X8809024Y-2595553D01*
G01X8792006Y-2589711D01*
G01X8786164Y-2589711D01*
G01X8769146Y-2595553D01*
G01X8757716Y-2606983D01*
G01X8751874Y-2624001D01*
G01X10166037Y-2566851D02*
G01X10177467Y-2561263D01*
G01X10194739Y-2543991D01*
G01X10194739Y-2664133D01*
G01X10248333Y-2572693D02*
G01X10248333Y-2566851D01*
G01X10253921Y-2555421D01*
G01X10259763Y-2549833D01*
G01X10271193Y-2543991D01*
G01X10294053Y-2543991D01*
G01X10305483Y-2549833D01*
G01X10311071Y-2555421D01*
G01X10316913Y-2566851D01*
G01X10316913Y-2578281D01*
G01X10311071Y-2589711D01*
G01X10299641Y-2606983D01*
G01X10242491Y-2664133D01*
G01X10322501Y-2664133D01*
G01X10376095Y-2635431D02*
G01X10370253Y-2641273D01*
G01X10376095Y-2646861D01*
G01X10381683Y-2641273D01*
G01X10376095Y-2635431D01*
G01X10463725Y-2543991D02*
G01X10446707Y-2549833D01*
G01X10435277Y-2566851D01*
G01X10429435Y-2595553D01*
G01X10429435Y-2612571D01*
G01X10435277Y-2641273D01*
G01X10446707Y-2658291D01*
G01X10463725Y-2664133D01*
G01X10475155Y-2664133D01*
G01X10492427Y-2658291D01*
G01X10503857Y-2641273D01*
G01X10509445Y-2612571D01*
G01X10509445Y-2595553D01*
G01X10503857Y-2566851D01*
G01X10492427Y-2549833D01*
G01X10475155Y-2543991D01*
G01X10463725Y-2543991D01*
G01X10557197Y-2584123D02*
G01X10557197Y-2664133D01*
G01X10557197Y-2606983D02*
G01X10574469Y-2589711D01*
G01X10585899Y-2584123D01*
G01X10602917Y-2584123D01*
G01X10614347Y-2589711D01*
G01X10620189Y-2606983D01*
G01X10620189Y-2664133D01*
G01X10620189Y-2606983D02*
G01X10637207Y-2589711D01*
G01X10648637Y-2584123D01*
G01X10665909Y-2584123D01*
G01X10677339Y-2589711D01*
G01X10682927Y-2606983D01*
G01X10682927Y-2664133D01*
G01X10730679Y-2543991D02*
G01X10736521Y-2549833D01*
G01X10742109Y-2543991D01*
G01X10736521Y-2538403D01*
G01X10730679Y-2543991D01*
G01X10736521Y-2584123D02*
G01X10736521Y-2664133D01*
G01X10789861Y-2543991D02*
G01X10789861Y-2664133D01*
G01X10877745Y-2521131D02*
G01X10866315Y-2532561D01*
G01X10854885Y-2549833D01*
G01X10843455Y-2572693D01*
G01X10837613Y-2601141D01*
G01X10837613Y-2624001D01*
G01X10843455Y-2652703D01*
G01X10854885Y-2675563D01*
G01X10866315Y-2692581D01*
G01X10877745Y-2704011D01*
G01X10959787Y-2543991D02*
G01X10942769Y-2549833D01*
G01X10931339Y-2566851D01*
G01X10925497Y-2595553D01*
G01X10925497Y-2612571D01*
G01X10931339Y-2641273D01*
G01X10942769Y-2658291D01*
G01X10959787Y-2664133D01*
G01X10971217Y-2664133D01*
G01X10988489Y-2658291D01*
G01X10999919Y-2641273D01*
G01X11005507Y-2612571D01*
G01X11005507Y-2595553D01*
G01X10999919Y-2566851D01*
G01X10988489Y-2549833D01*
G01X10971217Y-2543991D01*
G01X10959787Y-2543991D01*
G01X11059101Y-2635431D02*
G01X11053259Y-2641273D01*
G01X11059101Y-2646861D01*
G01X11064689Y-2641273D01*
G01X11059101Y-2635431D01*
G01X11123871Y-2543991D02*
G01X11186863Y-2543991D01*
G01X11152573Y-2589711D01*
G01X11169591Y-2589711D01*
G01X11181021Y-2595553D01*
G01X11186863Y-2601141D01*
G01X11192451Y-2618413D01*
G01X11192451Y-2629843D01*
G01X11186863Y-2646861D01*
G01X11175433Y-2658291D01*
G01X11158161Y-2664133D01*
G01X11141143Y-2664133D01*
G01X11123871Y-2658291D01*
G01X11118283Y-2652703D01*
G01X11112441Y-2641273D01*
G01X11274493Y-2543991D02*
G01X11257475Y-2549833D01*
G01X11246045Y-2566851D01*
G01X11240203Y-2595553D01*
G01X11240203Y-2612571D01*
G01X11246045Y-2641273D01*
G01X11257475Y-2658291D01*
G01X11274493Y-2664133D01*
G01X11285923Y-2664133D01*
G01X11303195Y-2658291D01*
G01X11314625Y-2641273D01*
G01X11320213Y-2612571D01*
G01X11320213Y-2595553D01*
G01X11314625Y-2566851D01*
G01X11303195Y-2549833D01*
G01X11285923Y-2543991D01*
G01X11274493Y-2543991D01*
G01X11436545Y-2543991D02*
G01X11379395Y-2543991D01*
G01X11373807Y-2595553D01*
G01X11379395Y-2589711D01*
G01X11396667Y-2584123D01*
G01X11413685Y-2584123D01*
G01X11430957Y-2589711D01*
G01X11442387Y-2601141D01*
G01X11447975Y-2618413D01*
G01X11447975Y-2629843D01*
G01X11442387Y-2646861D01*
G01X11430957Y-2658291D01*
G01X11413685Y-2664133D01*
G01X11396667Y-2664133D01*
G01X11379395Y-2658291D01*
G01X11373807Y-2652703D01*
G01X11367965Y-2641273D01*
G01X11495727Y-2584123D02*
G01X11495727Y-2664133D01*
G01X11495727Y-2606983D02*
G01X11512999Y-2589711D01*
G01X11524429Y-2584123D01*
G01X11541447Y-2584123D01*
G01X11552877Y-2589711D01*
G01X11558719Y-2606983D01*
G01X11558719Y-2664133D01*
G01X11558719Y-2606983D02*
G01X11575737Y-2589711D01*
G01X11587167Y-2584123D01*
G01X11604439Y-2584123D01*
G01X11615869Y-2589711D01*
G01X11621457Y-2606983D01*
G01X11621457Y-2664133D01*
G01X11669209Y-2584123D02*
G01X11669209Y-2664133D01*
G01X11669209Y-2606983D02*
G01X11686481Y-2589711D01*
G01X11697911Y-2584123D01*
G01X11714929Y-2584123D01*
G01X11726359Y-2589711D01*
G01X11732201Y-2606983D01*
G01X11732201Y-2664133D01*
G01X11732201Y-2606983D02*
G01X11749219Y-2589711D01*
G01X11760649Y-2584123D01*
G01X11777921Y-2584123D01*
G01X11789351Y-2589711D01*
G01X11794939Y-2606983D01*
G01X11794939Y-2664133D01*
G01X11842691Y-2521131D02*
G01X11854121Y-2532561D01*
G01X11865551Y-2549833D01*
G01X11876981Y-2572693D01*
G01X11882823Y-2601141D01*
G01X11882823Y-2624001D01*
G01X11876981Y-2652703D01*
G01X11865551Y-2675563D01*
G01X11854121Y-2692581D01*
G01X11842691Y-2704011D01*
G01X14136456Y-2543991D02*
G01X14136456Y-2664133D01*
G01X14136456Y-2543991D02*
G01X14188018Y-2543991D01*
G01X14205036Y-2549833D01*
G01X14210878Y-2555421D01*
G01X14216466Y-2566851D01*
G01X14216466Y-2584123D01*
G01X14210878Y-2595553D01*
G01X14205036Y-2601141D01*
G01X14188018Y-2606983D01*
G01X14136456Y-2606983D01*
G01X14304350Y-2543991D02*
G01X14304350Y-2664133D01*
G01X14264218Y-2543991D02*
G01X14344228Y-2543991D01*
G01X14391980Y-2543991D02*
G01X14391980Y-2664133D01*
G01X14471990Y-2543991D02*
G01X14471990Y-2664133D01*
G01X14391980Y-2601141D02*
G01X14471990Y-2601141D01*
G01X15597864Y-2543991D02*
G01X15597864Y-2664133D01*
G01X15597864Y-2543991D02*
G01X15649426Y-2543991D01*
G01X15666444Y-2549833D01*
G01X15672286Y-2555421D01*
G01X15677874Y-2566851D01*
G01X15677874Y-2578281D01*
G01X15672286Y-2589711D01*
G01X15666444Y-2595553D01*
G01X15649426Y-2601141D01*
G01X15597864Y-2601141D01*
G01X15637996Y-2601141D02*
G01X15677874Y-2664133D01*
G01X15754328Y-2584123D02*
G01X15742898Y-2589711D01*
G01X15731468Y-2601141D01*
G01X15725626Y-2618413D01*
G01X15725626Y-2629843D01*
G01X15731468Y-2646861D01*
G01X15742898Y-2658291D01*
G01X15754328Y-2664133D01*
G01X15771346Y-2664133D01*
G01X15782776Y-2658291D01*
G01X15794206Y-2646861D01*
G01X15800048Y-2629843D01*
G01X15800048Y-2618413D01*
G01X15794206Y-2601141D01*
G01X15782776Y-2589711D01*
G01X15771346Y-2584123D01*
G01X15754328Y-2584123D01*
G01X15847800Y-2584123D02*
G01X15847800Y-2641273D01*
G01X15853642Y-2658291D01*
G01X15865072Y-2664133D01*
G01X15882090Y-2664133D01*
G01X15893520Y-2658291D01*
G01X15910792Y-2641273D01*
G01X15910792Y-2584123D02*
G01X15910792Y-2664133D01*
G01X15958544Y-2584123D02*
G01X15958544Y-2664133D01*
G01X15958544Y-2606983D02*
G01X15975816Y-2589711D01*
G01X15987246Y-2584123D01*
G01X16004264Y-2584123D01*
G01X16015694Y-2589711D01*
G01X16021536Y-2606983D01*
G01X16021536Y-2664133D01*
G01X16137868Y-2543991D02*
G01X16137868Y-2664133D01*
G01X16137868Y-2601141D02*
G01X16126438Y-2589711D01*
G01X16115008Y-2584123D01*
G01X16097990Y-2584123D01*
G01X16086560Y-2589711D01*
G01X16075130Y-2601141D01*
G01X16069288Y-2618413D01*
G01X16069288Y-2629843D01*
G01X16075130Y-2646861D01*
G01X16086560Y-2658291D01*
G01X16097990Y-2664133D01*
G01X16115008Y-2664133D01*
G01X16126438Y-2658291D01*
G01X16137868Y-2646861D01*
G01X17029045Y-2543991D02*
G01X17074765Y-2664133D01*
G01X17120485Y-2543991D02*
G01X17074765Y-2664133D01*
G01X17168237Y-2543991D02*
G01X17174079Y-2549833D01*
G01X17179667Y-2543991D01*
G01X17174079Y-2538403D01*
G01X17168237Y-2543991D01*
G01X17174079Y-2584123D02*
G01X17174079Y-2664133D01*
G01X17295999Y-2584123D02*
G01X17295999Y-2664133D01*
G01X17295999Y-2601141D02*
G01X17284569Y-2589711D01*
G01X17273139Y-2584123D01*
G01X17256121Y-2584123D01*
G01X17244691Y-2589711D01*
G01X17233261Y-2601141D01*
G01X17227419Y-2618413D01*
G01X17227419Y-2629843D01*
G01X17233261Y-2646861D01*
G01X17244691Y-2658291D01*
G01X17256121Y-2664133D01*
G01X17273139Y-2664133D01*
G01X17284569Y-2658291D01*
G01X17295999Y-2646861D01*
G01X20657725Y-2543991D02*
G01X20657725Y-2664133D01*
G01X20617593Y-2543991D02*
G01X20697603Y-2543991D01*
G01X20774057Y-2584123D02*
G01X20762627Y-2589711D01*
G01X20751197Y-2601141D01*
G01X20745355Y-2618413D01*
G01X20745355Y-2629843D01*
G01X20751197Y-2646861D01*
G01X20762627Y-2658291D01*
G01X20774057Y-2664133D01*
G01X20791075Y-2664133D01*
G01X20802505Y-2658291D01*
G01X20813935Y-2646861D01*
G01X20819777Y-2629843D01*
G01X20819777Y-2618413D01*
G01X20813935Y-2601141D01*
G01X20802505Y-2589711D01*
G01X20791075Y-2584123D01*
G01X20774057Y-2584123D01*
G01X20867529Y-2584123D02*
G01X20867529Y-2704011D01*
G01X20867529Y-2601141D02*
G01X20878959Y-2589711D01*
G01X20890389Y-2584123D01*
G01X20907661Y-2584123D01*
G01X20919091Y-2589711D01*
G01X20930521Y-2601141D01*
G01X20936109Y-2618413D01*
G01X20936109Y-2629843D01*
G01X20930521Y-2646861D01*
G01X20919091Y-2658291D01*
G01X20907661Y-2664133D01*
G01X20890389Y-2664133D01*
G01X20878959Y-2658291D01*
G01X20867529Y-2646861D01*
G01X21111877Y-2543991D02*
G01X21111877Y-2664133D01*
G01X21111877Y-2664133D02*
G01X21180457Y-2664133D01*
G01X21296789Y-2584123D02*
G01X21296789Y-2664133D01*
G01X21296789Y-2601141D02*
G01X21285359Y-2589711D01*
G01X21273929Y-2584123D01*
G01X21256911Y-2584123D01*
G01X21245481Y-2589711D01*
G01X21234051Y-2601141D01*
G01X21228209Y-2618413D01*
G01X21228209Y-2629843D01*
G01X21234051Y-2646861D01*
G01X21245481Y-2658291D01*
G01X21256911Y-2664133D01*
G01X21273929Y-2664133D01*
G01X21285359Y-2658291D01*
G01X21296789Y-2646861D01*
G01X21350383Y-2584123D02*
G01X21384673Y-2664133D01*
G01X21418963Y-2584123D02*
G01X21384673Y-2664133D01*
G01X21373243Y-2686993D01*
G01X21361813Y-2698423D01*
G01X21350383Y-2704011D01*
G01X21344541Y-2704011D01*
G01X21466715Y-2618413D02*
G01X21535295Y-2618413D01*
G01X21535295Y-2606983D01*
G01X21529707Y-2595553D01*
G01X21523865Y-2589711D01*
G01X21512435Y-2584123D01*
G01X21495417Y-2584123D01*
G01X21483987Y-2589711D01*
G01X21472557Y-2601141D01*
G01X21466715Y-2618413D01*
G01X21466715Y-2629843D01*
G01X21472557Y-2646861D01*
G01X21483987Y-2658291D01*
G01X21495417Y-2664133D01*
G01X21512435Y-2664133D01*
G01X21523865Y-2658291D01*
G01X21535295Y-2646861D01*
G01X21583047Y-2584123D02*
G01X21583047Y-2664133D01*
G01X21583047Y-2618413D02*
G01X21588889Y-2601141D01*
G01X21600319Y-2589711D01*
G01X21611749Y-2584123D01*
G01X21628767Y-2584123D01*
G01X21676519Y-2612571D02*
G01X21779389Y-2612571D01*
G01X21827141Y-2543991D02*
G01X21827141Y-2664133D01*
G01X21827141Y-2543991D02*
G01X21878703Y-2543991D01*
G01X21895721Y-2549833D01*
G01X21901563Y-2555421D01*
G01X21907151Y-2566851D01*
G01X21907151Y-2578281D01*
G01X21901563Y-2589711D01*
G01X21895721Y-2595553D01*
G01X21878703Y-2601141D01*
G01X21827141Y-2601141D02*
G01X21878703Y-2601141D01*
G01X21895721Y-2606983D01*
G01X21901563Y-2612571D01*
G01X21907151Y-2624001D01*
G01X21907151Y-2641273D01*
G01X21901563Y-2652703D01*
G01X21895721Y-2658291D01*
G01X21878703Y-2664133D01*
G01X21827141Y-2664133D01*
G01X21983605Y-2584123D02*
G01X21972175Y-2589711D01*
G01X21960745Y-2601141D01*
G01X21954903Y-2618413D01*
G01X21954903Y-2629843D01*
G01X21960745Y-2646861D01*
G01X21972175Y-2658291D01*
G01X21983605Y-2664133D01*
G01X22000623Y-2664133D01*
G01X22012053Y-2658291D01*
G01X22023483Y-2646861D01*
G01X22029325Y-2629843D01*
G01X22029325Y-2618413D01*
G01X22023483Y-2601141D01*
G01X22012053Y-2589711D01*
G01X22000623Y-2584123D01*
G01X21983605Y-2584123D01*
G01X22094349Y-2543991D02*
G01X22094349Y-2641273D01*
G01X22099937Y-2658291D01*
G01X22111367Y-2664133D01*
G01X22122797Y-2664133D01*
G01X22077077Y-2584123D02*
G01X22117209Y-2584123D01*
G01X22187821Y-2543991D02*
G01X22187821Y-2641273D01*
G01X22193409Y-2658291D01*
G01X22204839Y-2664133D01*
G01X22216269Y-2664133D01*
G01X22170549Y-2584123D02*
G01X22210681Y-2584123D01*
G01X22292723Y-2584123D02*
G01X22281293Y-2589711D01*
G01X22269863Y-2601141D01*
G01X22264021Y-2618413D01*
G01X22264021Y-2629843D01*
G01X22269863Y-2646861D01*
G01X22281293Y-2658291D01*
G01X22292723Y-2664133D01*
G01X22309741Y-2664133D01*
G01X22321171Y-2658291D01*
G01X22332601Y-2646861D01*
G01X22338443Y-2629843D01*
G01X22338443Y-2618413D01*
G01X22332601Y-2601141D01*
G01X22321171Y-2589711D01*
G01X22309741Y-2584123D01*
G01X22292723Y-2584123D01*
G01X22386195Y-2584123D02*
G01X22386195Y-2664133D01*
G01X22386195Y-2606983D02*
G01X22403467Y-2589711D01*
G01X22414897Y-2584123D01*
G01X22431915Y-2584123D01*
G01X22443345Y-2589711D01*
G01X22449187Y-2606983D01*
G01X22449187Y-2664133D01*
G01X22449187Y-2606983D02*
G01X22466205Y-2589711D01*
G01X22477635Y-2584123D01*
G01X22494907Y-2584123D01*
G01X22506337Y-2589711D01*
G01X22511925Y-2606983D01*
G01X22511925Y-2664133D01*
G01X22687693Y-2543991D02*
G01X22687693Y-2664133D01*
G01X22687693Y-2664133D02*
G01X22756273Y-2664133D01*
G01X22872605Y-2584123D02*
G01X22872605Y-2664133D01*
G01X22872605Y-2601141D02*
G01X22861175Y-2589711D01*
G01X22849745Y-2584123D01*
G01X22832727Y-2584123D01*
G01X22821297Y-2589711D01*
G01X22809867Y-2601141D01*
G01X22804025Y-2618413D01*
G01X22804025Y-2629843D01*
G01X22809867Y-2646861D01*
G01X22821297Y-2658291D01*
G01X22832727Y-2664133D01*
G01X22849745Y-2664133D01*
G01X22861175Y-2658291D01*
G01X22872605Y-2646861D01*
G01X22926199Y-2584123D02*
G01X22960489Y-2664133D01*
G01X22994779Y-2584123D02*
G01X22960489Y-2664133D01*
G01X22949059Y-2686993D01*
G01X22937629Y-2698423D01*
G01X22926199Y-2704011D01*
G01X22920357Y-2704011D01*
G01X23042531Y-2618413D02*
G01X23111111Y-2618413D01*
G01X23111111Y-2606983D01*
G01X23105523Y-2595553D01*
G01X23099681Y-2589711D01*
G01X23088251Y-2584123D01*
G01X23071233Y-2584123D01*
G01X23059803Y-2589711D01*
G01X23048373Y-2601141D01*
G01X23042531Y-2618413D01*
G01X23042531Y-2629843D01*
G01X23048373Y-2646861D01*
G01X23059803Y-2658291D01*
G01X23071233Y-2664133D01*
G01X23088251Y-2664133D01*
G01X23099681Y-2658291D01*
G01X23111111Y-2646861D01*
G01X23158863Y-2584123D02*
G01X23158863Y-2664133D01*
G01X23158863Y-2618413D02*
G01X23164705Y-2601141D01*
G01X23176135Y-2589711D01*
G01X23187565Y-2584123D01*
G01X23204583Y-2584123D01*
G01X8826296Y-3164695D02*
G01X8820454Y-3181713D01*
G01X8809024Y-3193143D01*
G01X8792006Y-3198985D01*
G01X8786164Y-3198985D01*
G01X8769146Y-3193143D01*
G01X8757716Y-3181713D01*
G01X8751874Y-3164695D01*
G01X8751874Y-3158853D01*
G01X8757716Y-3141835D01*
G01X8769146Y-3130405D01*
G01X8786164Y-3124563D01*
G01X8792006Y-3124563D01*
G01X8809024Y-3130405D01*
G01X8820454Y-3141835D01*
G01X8826296Y-3164695D01*
G01X8826296Y-3193143D01*
G01X8820454Y-3221845D01*
G01X8809024Y-3238863D01*
G01X8792006Y-3244705D01*
G01X8780576Y-3244705D01*
G01X8763304Y-3238863D01*
G01X8757716Y-3227433D01*
G01X10171879Y-3153265D02*
G01X10171879Y-3147423D01*
G01X10177467Y-3135993D01*
G01X10183309Y-3130405D01*
G01X10194739Y-3124563D01*
G01X10217599Y-3124563D01*
G01X10229029Y-3130405D01*
G01X10234617Y-3135993D01*
G01X10240459Y-3147423D01*
G01X10240459Y-3158853D01*
G01X10234617Y-3170283D01*
G01X10223187Y-3187555D01*
G01X10166037Y-3244705D01*
G01X10246047Y-3244705D01*
G01X10305229Y-3124563D02*
G01X10368221Y-3124563D01*
G01X10333931Y-3170283D01*
G01X10350949Y-3170283D01*
G01X10362379Y-3176125D01*
G01X10368221Y-3181713D01*
G01X10373809Y-3198985D01*
G01X10373809Y-3210415D01*
G01X10368221Y-3227433D01*
G01X10356791Y-3238863D01*
G01X10339519Y-3244705D01*
G01X10322501Y-3244705D01*
G01X10305229Y-3238863D01*
G01X10299641Y-3233275D01*
G01X10293799Y-3221845D01*
G01X10427403Y-3216003D02*
G01X10421561Y-3221845D01*
G01X10427403Y-3227433D01*
G01X10432991Y-3221845D01*
G01X10427403Y-3216003D01*
G01X10549323Y-3141835D02*
G01X10543735Y-3130405D01*
G01X10526463Y-3124563D01*
G01X10515033Y-3124563D01*
G01X10498015Y-3130405D01*
G01X10486585Y-3147423D01*
G01X10480743Y-3176125D01*
G01X10480743Y-3204573D01*
G01X10486585Y-3227433D01*
G01X10498015Y-3238863D01*
G01X10515033Y-3244705D01*
G01X10520875Y-3244705D01*
G01X10537893Y-3238863D01*
G01X10549323Y-3227433D01*
G01X10555165Y-3210415D01*
G01X10555165Y-3204573D01*
G01X10549323Y-3187555D01*
G01X10537893Y-3176125D01*
G01X10520875Y-3170283D01*
G01X10515033Y-3170283D01*
G01X10498015Y-3176125D01*
G01X10486585Y-3187555D01*
G01X10480743Y-3204573D01*
G01X10602917Y-3164695D02*
G01X10665909Y-3244705D01*
G01X10665909Y-3164695D02*
G01X10602917Y-3244705D01*
G01X10770811Y-3124563D02*
G01X10713661Y-3204573D01*
G01X10799513Y-3204573D01*
G01X10770811Y-3124563D02*
G01X10770811Y-3244705D01*
G01X10927275Y-3124563D02*
G01X10870125Y-3244705D01*
G01X10847265Y-3124563D02*
G01X10927275Y-3124563D01*
G01X10980869Y-3216003D02*
G01X10975027Y-3221845D01*
G01X10980869Y-3227433D01*
G01X10986457Y-3221845D01*
G01X10980869Y-3216003D01*
G01X11040051Y-3153265D02*
G01X11040051Y-3147423D01*
G01X11045639Y-3135993D01*
G01X11051481Y-3130405D01*
G01X11062911Y-3124563D01*
G01X11085771Y-3124563D01*
G01X11097201Y-3130405D01*
G01X11102789Y-3135993D01*
G01X11108631Y-3147423D01*
G01X11108631Y-3158853D01*
G01X11102789Y-3170283D01*
G01X11091359Y-3187555D01*
G01X11034209Y-3244705D01*
G01X11114219Y-3244705D01*
G01X11161971Y-3164695D02*
G01X11161971Y-3244705D01*
G01X11161971Y-3187555D02*
G01X11179243Y-3170283D01*
G01X11190673Y-3164695D01*
G01X11207691Y-3164695D01*
G01X11219121Y-3170283D01*
G01X11224963Y-3187555D01*
G01X11224963Y-3244705D01*
G01X11224963Y-3187555D02*
G01X11241981Y-3170283D01*
G01X11253411Y-3164695D01*
G01X11270683Y-3164695D01*
G01X11282113Y-3170283D01*
G01X11287701Y-3187555D01*
G01X11287701Y-3244705D01*
G01X11335453Y-3124563D02*
G01X11341295Y-3130405D01*
G01X11346883Y-3124563D01*
G01X11341295Y-3118975D01*
G01X11335453Y-3124563D01*
G01X11341295Y-3164695D02*
G01X11341295Y-3244705D01*
G01X11394635Y-3124563D02*
G01X11394635Y-3244705D01*
G01X11482519Y-3101703D02*
G01X11471089Y-3113133D01*
G01X11459659Y-3130405D01*
G01X11448229Y-3153265D01*
G01X11442387Y-3181713D01*
G01X11442387Y-3204573D01*
G01X11448229Y-3233275D01*
G01X11459659Y-3256135D01*
G01X11471089Y-3273153D01*
G01X11482519Y-3284583D01*
G01X11564561Y-3124563D02*
G01X11547543Y-3130405D01*
G01X11536113Y-3147423D01*
G01X11530271Y-3176125D01*
G01X11530271Y-3193143D01*
G01X11536113Y-3221845D01*
G01X11547543Y-3238863D01*
G01X11564561Y-3244705D01*
G01X11575991Y-3244705D01*
G01X11593263Y-3238863D01*
G01X11604693Y-3221845D01*
G01X11610281Y-3193143D01*
G01X11610281Y-3176125D01*
G01X11604693Y-3147423D01*
G01X11593263Y-3130405D01*
G01X11575991Y-3124563D01*
G01X11564561Y-3124563D01*
G01X11663875Y-3216003D02*
G01X11658033Y-3221845D01*
G01X11663875Y-3227433D01*
G01X11669463Y-3221845D01*
G01X11663875Y-3216003D01*
G01X11785795Y-3141835D02*
G01X11780207Y-3130405D01*
G01X11762935Y-3124563D01*
G01X11751505Y-3124563D01*
G01X11734487Y-3130405D01*
G01X11723057Y-3147423D01*
G01X11717215Y-3176125D01*
G01X11717215Y-3204573D01*
G01X11723057Y-3227433D01*
G01X11734487Y-3238863D01*
G01X11751505Y-3244705D01*
G01X11757347Y-3244705D01*
G01X11774365Y-3238863D01*
G01X11785795Y-3227433D01*
G01X11791637Y-3210415D01*
G01X11791637Y-3204573D01*
G01X11785795Y-3187555D01*
G01X11774365Y-3176125D01*
G01X11757347Y-3170283D01*
G01X11751505Y-3170283D01*
G01X11734487Y-3176125D01*
G01X11723057Y-3187555D01*
G01X11717215Y-3204573D01*
G01X11873679Y-3124563D02*
G01X11856661Y-3130405D01*
G01X11845231Y-3147423D01*
G01X11839389Y-3176125D01*
G01X11839389Y-3193143D01*
G01X11845231Y-3221845D01*
G01X11856661Y-3238863D01*
G01X11873679Y-3244705D01*
G01X11885109Y-3244705D01*
G01X11902381Y-3238863D01*
G01X11913811Y-3221845D01*
G01X11919399Y-3193143D01*
G01X11919399Y-3176125D01*
G01X11913811Y-3147423D01*
G01X11902381Y-3130405D01*
G01X11885109Y-3124563D01*
G01X11873679Y-3124563D01*
G01X12001441Y-3124563D02*
G01X11984423Y-3130405D01*
G01X11972993Y-3147423D01*
G01X11967151Y-3176125D01*
G01X11967151Y-3193143D01*
G01X11972993Y-3221845D01*
G01X11984423Y-3238863D01*
G01X12001441Y-3244705D01*
G01X12012871Y-3244705D01*
G01X12030143Y-3238863D01*
G01X12041573Y-3221845D01*
G01X12047161Y-3193143D01*
G01X12047161Y-3176125D01*
G01X12041573Y-3147423D01*
G01X12030143Y-3130405D01*
G01X12012871Y-3124563D01*
G01X12001441Y-3124563D01*
G01X12094913Y-3164695D02*
G01X12157905Y-3244705D01*
G01X12157905Y-3164695D02*
G01X12094913Y-3244705D01*
G01X12205657Y-3147423D02*
G01X12217087Y-3141835D01*
G01X12234359Y-3124563D01*
G01X12234359Y-3244705D01*
G01X12287953Y-3216003D02*
G01X12282111Y-3221845D01*
G01X12287953Y-3227433D01*
G01X12293541Y-3221845D01*
G01X12287953Y-3216003D01*
G01X12347135Y-3153265D02*
G01X12347135Y-3147423D01*
G01X12352723Y-3135993D01*
G01X12358565Y-3130405D01*
G01X12369995Y-3124563D01*
G01X12392855Y-3124563D01*
G01X12404285Y-3130405D01*
G01X12409873Y-3135993D01*
G01X12415715Y-3147423D01*
G01X12415715Y-3158853D01*
G01X12409873Y-3170283D01*
G01X12398443Y-3187555D01*
G01X12341293Y-3244705D01*
G01X12421303Y-3244705D01*
G01X12503345Y-3124563D02*
G01X12486327Y-3130405D01*
G01X12474897Y-3147423D01*
G01X12469055Y-3176125D01*
G01X12469055Y-3193143D01*
G01X12474897Y-3221845D01*
G01X12486327Y-3238863D01*
G01X12503345Y-3244705D01*
G01X12514775Y-3244705D01*
G01X12532047Y-3238863D01*
G01X12543477Y-3221845D01*
G01X12549065Y-3193143D01*
G01X12549065Y-3176125D01*
G01X12543477Y-3147423D01*
G01X12532047Y-3130405D01*
G01X12514775Y-3124563D01*
G01X12503345Y-3124563D01*
G01X12631107Y-3124563D02*
G01X12614089Y-3130405D01*
G01X12602659Y-3147423D01*
G01X12596817Y-3176125D01*
G01X12596817Y-3193143D01*
G01X12602659Y-3221845D01*
G01X12614089Y-3238863D01*
G01X12631107Y-3244705D01*
G01X12642537Y-3244705D01*
G01X12659809Y-3238863D01*
G01X12671239Y-3221845D01*
G01X12676827Y-3193143D01*
G01X12676827Y-3176125D01*
G01X12671239Y-3147423D01*
G01X12659809Y-3130405D01*
G01X12642537Y-3124563D01*
G01X12631107Y-3124563D01*
G01X12724579Y-3164695D02*
G01X12724579Y-3244705D01*
G01X12724579Y-3187555D02*
G01X12741851Y-3170283D01*
G01X12753281Y-3164695D01*
G01X12770299Y-3164695D01*
G01X12781729Y-3170283D01*
G01X12787571Y-3187555D01*
G01X12787571Y-3244705D01*
G01X12787571Y-3187555D02*
G01X12804589Y-3170283D01*
G01X12816019Y-3164695D01*
G01X12833291Y-3164695D01*
G01X12844721Y-3170283D01*
G01X12850309Y-3187555D01*
G01X12850309Y-3244705D01*
G01X12898061Y-3164695D02*
G01X12898061Y-3244705D01*
G01X12898061Y-3187555D02*
G01X12915333Y-3170283D01*
G01X12926763Y-3164695D01*
G01X12943781Y-3164695D01*
G01X12955211Y-3170283D01*
G01X12961053Y-3187555D01*
G01X12961053Y-3244705D01*
G01X12961053Y-3187555D02*
G01X12978071Y-3170283D01*
G01X12989501Y-3164695D01*
G01X13006773Y-3164695D01*
G01X13018203Y-3170283D01*
G01X13023791Y-3187555D01*
G01X13023791Y-3244705D01*
G01X13071543Y-3101703D02*
G01X13082973Y-3113133D01*
G01X13094403Y-3130405D01*
G01X13105833Y-3153265D01*
G01X13111675Y-3181713D01*
G01X13111675Y-3204573D01*
G01X13105833Y-3233275D01*
G01X13094403Y-3256135D01*
G01X13082973Y-3273153D01*
G01X13071543Y-3284583D01*
G01X14136456Y-3124563D02*
G01X14136456Y-3244705D01*
G01X14136456Y-3124563D02*
G01X14188018Y-3124563D01*
G01X14205036Y-3130405D01*
G01X14210878Y-3135993D01*
G01X14216466Y-3147423D01*
G01X14216466Y-3164695D01*
G01X14210878Y-3176125D01*
G01X14205036Y-3181713D01*
G01X14188018Y-3187555D01*
G01X14136456Y-3187555D01*
G01X14304350Y-3124563D02*
G01X14304350Y-3244705D01*
G01X14264218Y-3124563D02*
G01X14344228Y-3124563D01*
G01X14391980Y-3124563D02*
G01X14391980Y-3244705D01*
G01X14471990Y-3124563D02*
G01X14471990Y-3244705D01*
G01X14391980Y-3181713D02*
G01X14471990Y-3181713D01*
G01X15677874Y-3141835D02*
G01X15666444Y-3130405D01*
G01X15649426Y-3124563D01*
G01X15626566Y-3124563D01*
G01X15609294Y-3130405D01*
G01X15597864Y-3141835D01*
G01X15597864Y-3153265D01*
G01X15603706Y-3164695D01*
G01X15609294Y-3170283D01*
G01X15620724Y-3176125D01*
G01X15655014Y-3187555D01*
G01X15666444Y-3193143D01*
G01X15672286Y-3198985D01*
G01X15677874Y-3210415D01*
G01X15677874Y-3227433D01*
G01X15666444Y-3238863D01*
G01X15649426Y-3244705D01*
G01X15626566Y-3244705D01*
G01X15609294Y-3238863D01*
G01X15597864Y-3227433D01*
G01X15725626Y-3124563D02*
G01X15725626Y-3244705D01*
G01X15802080Y-3164695D02*
G01X15790650Y-3170283D01*
G01X15779220Y-3181713D01*
G01X15773378Y-3198985D01*
G01X15773378Y-3210415D01*
G01X15779220Y-3227433D01*
G01X15790650Y-3238863D01*
G01X15802080Y-3244705D01*
G01X15819098Y-3244705D01*
G01X15830528Y-3238863D01*
G01X15841958Y-3227433D01*
G01X15847800Y-3210415D01*
G01X15847800Y-3198985D01*
G01X15841958Y-3181713D01*
G01X15830528Y-3170283D01*
G01X15819098Y-3164695D01*
G01X15802080Y-3164695D01*
G01X15912824Y-3124563D02*
G01X15912824Y-3221845D01*
G01X15918412Y-3238863D01*
G01X15929842Y-3244705D01*
G01X15941272Y-3244705D01*
G01X15895552Y-3164695D02*
G01X15935684Y-3164695D01*
G01X17029045Y-3124563D02*
G01X17029045Y-3244705D01*
G01X17029045Y-3124563D02*
G01X17080607Y-3124563D01*
G01X17097625Y-3130405D01*
G01X17103467Y-3135993D01*
G01X17109055Y-3147423D01*
G01X17109055Y-3164695D01*
G01X17103467Y-3176125D01*
G01X17097625Y-3181713D01*
G01X17080607Y-3187555D01*
G01X17029045Y-3187555D01*
G01X17225387Y-3164695D02*
G01X17225387Y-3244705D01*
G01X17225387Y-3181713D02*
G01X17213957Y-3170283D01*
G01X17202527Y-3164695D01*
G01X17185509Y-3164695D01*
G01X17174079Y-3170283D01*
G01X17162649Y-3181713D01*
G01X17156807Y-3198985D01*
G01X17156807Y-3210415D01*
G01X17162649Y-3227433D01*
G01X17174079Y-3238863D01*
G01X17185509Y-3244705D01*
G01X17202527Y-3244705D01*
G01X17213957Y-3238863D01*
G01X17225387Y-3227433D01*
G01X17341719Y-3124563D02*
G01X17341719Y-3244705D01*
G01X17341719Y-3181713D02*
G01X17330289Y-3170283D01*
G01X17318859Y-3164695D01*
G01X17301841Y-3164695D01*
G01X17290411Y-3170283D01*
G01X17278981Y-3181713D01*
G01X17273139Y-3198985D01*
G01X17273139Y-3210415D01*
G01X17278981Y-3227433D01*
G01X17290411Y-3238863D01*
G01X17301841Y-3244705D01*
G01X17318859Y-3244705D01*
G01X17330289Y-3238863D01*
G01X17341719Y-3227433D01*
G01X18738356Y-3101703D02*
G01X18726926Y-3113133D01*
G01X18715496Y-3130405D01*
G01X18704066Y-3153265D01*
G01X18698224Y-3181713D01*
G01X18698224Y-3204573D01*
G01X18704066Y-3233275D01*
G01X18715496Y-3256135D01*
G01X18726926Y-3273153D01*
G01X18738356Y-3284583D01*
G01X18786108Y-3124563D02*
G01X18786108Y-3244705D01*
G01X18786108Y-3124563D02*
G01X18831828Y-3244705D01*
G01X18877548Y-3124563D02*
G01X18831828Y-3244705D01*
G01X18877548Y-3124563D02*
G01X18877548Y-3244705D01*
G01X18925300Y-3124563D02*
G01X18931142Y-3130405D01*
G01X18936730Y-3124563D01*
G01X18931142Y-3118975D01*
G01X18925300Y-3124563D01*
G01X18931142Y-3164695D02*
G01X18931142Y-3244705D01*
G01X18984482Y-3164695D02*
G01X19047474Y-3244705D01*
G01X19047474Y-3164695D02*
G01X18984482Y-3244705D01*
G01X19095226Y-3198985D02*
G01X19163806Y-3198985D01*
G01X19163806Y-3187555D01*
G01X19158218Y-3176125D01*
G01X19152376Y-3170283D01*
G01X19140946Y-3164695D01*
G01X19123928Y-3164695D01*
G01X19112498Y-3170283D01*
G01X19101068Y-3181713D01*
G01X19095226Y-3198985D01*
G01X19095226Y-3210415D01*
G01X19101068Y-3227433D01*
G01X19112498Y-3238863D01*
G01X19123928Y-3244705D01*
G01X19140946Y-3244705D01*
G01X19152376Y-3238863D01*
G01X19163806Y-3227433D01*
G01X19280138Y-3124563D02*
G01X19280138Y-3244705D01*
G01X19280138Y-3181713D02*
G01X19268708Y-3170283D01*
G01X19257278Y-3164695D01*
G01X19240260Y-3164695D01*
G01X19228830Y-3170283D01*
G01X19217400Y-3181713D01*
G01X19211558Y-3198985D01*
G01X19211558Y-3210415D01*
G01X19217400Y-3227433D01*
G01X19228830Y-3238863D01*
G01X19240260Y-3244705D01*
G01X19257278Y-3244705D01*
G01X19268708Y-3238863D01*
G01X19280138Y-3227433D01*
G01X19327890Y-3101703D02*
G01X19339320Y-3113133D01*
G01X19350750Y-3130405D01*
G01X19362180Y-3153265D01*
G01X19368022Y-3181713D01*
G01X19368022Y-3204573D01*
G01X19362180Y-3233275D01*
G01X19350750Y-3256135D01*
G01X19339320Y-3273153D01*
G01X19327890Y-3284583D01*
G01X20657725Y-3124563D02*
G01X20657725Y-3244705D01*
G01X20617593Y-3124563D02*
G01X20697603Y-3124563D01*
G01X20774057Y-3164695D02*
G01X20762627Y-3170283D01*
G01X20751197Y-3181713D01*
G01X20745355Y-3198985D01*
G01X20745355Y-3210415D01*
G01X20751197Y-3227433D01*
G01X20762627Y-3238863D01*
G01X20774057Y-3244705D01*
G01X20791075Y-3244705D01*
G01X20802505Y-3238863D01*
G01X20813935Y-3227433D01*
G01X20819777Y-3210415D01*
G01X20819777Y-3198985D01*
G01X20813935Y-3181713D01*
G01X20802505Y-3170283D01*
G01X20791075Y-3164695D01*
G01X20774057Y-3164695D01*
G01X20867529Y-3164695D02*
G01X20867529Y-3284583D01*
G01X20867529Y-3181713D02*
G01X20878959Y-3170283D01*
G01X20890389Y-3164695D01*
G01X20907661Y-3164695D01*
G01X20919091Y-3170283D01*
G01X20930521Y-3181713D01*
G01X20936109Y-3198985D01*
G01X20936109Y-3210415D01*
G01X20930521Y-3227433D01*
G01X20919091Y-3238863D01*
G01X20907661Y-3244705D01*
G01X20890389Y-3244705D01*
G01X20878959Y-3238863D01*
G01X20867529Y-3227433D01*
G01X21111877Y-3124563D02*
G01X21111877Y-3244705D01*
G01X21111877Y-3244705D02*
G01X21180457Y-3244705D01*
G01X21296789Y-3164695D02*
G01X21296789Y-3244705D01*
G01X21296789Y-3181713D02*
G01X21285359Y-3170283D01*
G01X21273929Y-3164695D01*
G01X21256911Y-3164695D01*
G01X21245481Y-3170283D01*
G01X21234051Y-3181713D01*
G01X21228209Y-3198985D01*
G01X21228209Y-3210415D01*
G01X21234051Y-3227433D01*
G01X21245481Y-3238863D01*
G01X21256911Y-3244705D01*
G01X21273929Y-3244705D01*
G01X21285359Y-3238863D01*
G01X21296789Y-3227433D01*
G01X21350383Y-3164695D02*
G01X21384673Y-3244705D01*
G01X21418963Y-3164695D02*
G01X21384673Y-3244705D01*
G01X21373243Y-3267565D01*
G01X21361813Y-3278995D01*
G01X21350383Y-3284583D01*
G01X21344541Y-3284583D01*
G01X21466715Y-3198985D02*
G01X21535295Y-3198985D01*
G01X21535295Y-3187555D01*
G01X21529707Y-3176125D01*
G01X21523865Y-3170283D01*
G01X21512435Y-3164695D01*
G01X21495417Y-3164695D01*
G01X21483987Y-3170283D01*
G01X21472557Y-3181713D01*
G01X21466715Y-3198985D01*
G01X21466715Y-3210415D01*
G01X21472557Y-3227433D01*
G01X21483987Y-3238863D01*
G01X21495417Y-3244705D01*
G01X21512435Y-3244705D01*
G01X21523865Y-3238863D01*
G01X21535295Y-3227433D01*
G01X21583047Y-3164695D02*
G01X21583047Y-3244705D01*
G01X21583047Y-3198985D02*
G01X21588889Y-3181713D01*
G01X21600319Y-3170283D01*
G01X21611749Y-3164695D01*
G01X21628767Y-3164695D01*
G01X21676519Y-3193143D02*
G01X21779389Y-3193143D01*
G01X21827141Y-3124563D02*
G01X21827141Y-3244705D01*
G01X21827141Y-3124563D02*
G01X21878703Y-3124563D01*
G01X21895721Y-3130405D01*
G01X21901563Y-3135993D01*
G01X21907151Y-3147423D01*
G01X21907151Y-3158853D01*
G01X21901563Y-3170283D01*
G01X21895721Y-3176125D01*
G01X21878703Y-3181713D01*
G01X21827141Y-3181713D02*
G01X21878703Y-3181713D01*
G01X21895721Y-3187555D01*
G01X21901563Y-3193143D01*
G01X21907151Y-3204573D01*
G01X21907151Y-3221845D01*
G01X21901563Y-3233275D01*
G01X21895721Y-3238863D01*
G01X21878703Y-3244705D01*
G01X21827141Y-3244705D01*
G01X21983605Y-3164695D02*
G01X21972175Y-3170283D01*
G01X21960745Y-3181713D01*
G01X21954903Y-3198985D01*
G01X21954903Y-3210415D01*
G01X21960745Y-3227433D01*
G01X21972175Y-3238863D01*
G01X21983605Y-3244705D01*
G01X22000623Y-3244705D01*
G01X22012053Y-3238863D01*
G01X22023483Y-3227433D01*
G01X22029325Y-3210415D01*
G01X22029325Y-3198985D01*
G01X22023483Y-3181713D01*
G01X22012053Y-3170283D01*
G01X22000623Y-3164695D01*
G01X21983605Y-3164695D01*
G01X22094349Y-3124563D02*
G01X22094349Y-3221845D01*
G01X22099937Y-3238863D01*
G01X22111367Y-3244705D01*
G01X22122797Y-3244705D01*
G01X22077077Y-3164695D02*
G01X22117209Y-3164695D01*
G01X22187821Y-3124563D02*
G01X22187821Y-3221845D01*
G01X22193409Y-3238863D01*
G01X22204839Y-3244705D01*
G01X22216269Y-3244705D01*
G01X22170549Y-3164695D02*
G01X22210681Y-3164695D01*
G01X22292723Y-3164695D02*
G01X22281293Y-3170283D01*
G01X22269863Y-3181713D01*
G01X22264021Y-3198985D01*
G01X22264021Y-3210415D01*
G01X22269863Y-3227433D01*
G01X22281293Y-3238863D01*
G01X22292723Y-3244705D01*
G01X22309741Y-3244705D01*
G01X22321171Y-3238863D01*
G01X22332601Y-3227433D01*
G01X22338443Y-3210415D01*
G01X22338443Y-3198985D01*
G01X22332601Y-3181713D01*
G01X22321171Y-3170283D01*
G01X22309741Y-3164695D01*
G01X22292723Y-3164695D01*
G01X22386195Y-3164695D02*
G01X22386195Y-3244705D01*
G01X22386195Y-3187555D02*
G01X22403467Y-3170283D01*
G01X22414897Y-3164695D01*
G01X22431915Y-3164695D01*
G01X22443345Y-3170283D01*
G01X22449187Y-3187555D01*
G01X22449187Y-3244705D01*
G01X22449187Y-3187555D02*
G01X22466205Y-3170283D01*
G01X22477635Y-3164695D01*
G01X22494907Y-3164695D01*
G01X22506337Y-3170283D01*
G01X22511925Y-3187555D01*
G01X22511925Y-3244705D01*
G01X22687693Y-3124563D02*
G01X22687693Y-3244705D01*
G01X22687693Y-3244705D02*
G01X22756273Y-3244705D01*
G01X22872605Y-3164695D02*
G01X22872605Y-3244705D01*
G01X22872605Y-3181713D02*
G01X22861175Y-3170283D01*
G01X22849745Y-3164695D01*
G01X22832727Y-3164695D01*
G01X22821297Y-3170283D01*
G01X22809867Y-3181713D01*
G01X22804025Y-3198985D01*
G01X22804025Y-3210415D01*
G01X22809867Y-3227433D01*
G01X22821297Y-3238863D01*
G01X22832727Y-3244705D01*
G01X22849745Y-3244705D01*
G01X22861175Y-3238863D01*
G01X22872605Y-3227433D01*
G01X22926199Y-3164695D02*
G01X22960489Y-3244705D01*
G01X22994779Y-3164695D02*
G01X22960489Y-3244705D01*
G01X22949059Y-3267565D01*
G01X22937629Y-3278995D01*
G01X22926199Y-3284583D01*
G01X22920357Y-3284583D01*
G01X23042531Y-3198985D02*
G01X23111111Y-3198985D01*
G01X23111111Y-3187555D01*
G01X23105523Y-3176125D01*
G01X23099681Y-3170283D01*
G01X23088251Y-3164695D01*
G01X23071233Y-3164695D01*
G01X23059803Y-3170283D01*
G01X23048373Y-3181713D01*
G01X23042531Y-3198985D01*
G01X23042531Y-3210415D01*
G01X23048373Y-3227433D01*
G01X23059803Y-3238863D01*
G01X23071233Y-3244705D01*
G01X23088251Y-3244705D01*
G01X23099681Y-3238863D01*
G01X23111111Y-3227433D01*
G01X23158863Y-3164695D02*
G01X23158863Y-3244705D01*
G01X23158863Y-3198985D02*
G01X23164705Y-3181713D01*
G01X23176135Y-3170283D01*
G01X23187565Y-3164695D01*
G01X23204583Y-3164695D01*
G01X8751874Y-3727994D02*
G01X8763304Y-3722406D01*
G01X8780576Y-3705134D01*
G01X8780576Y-3825276D01*
G01X8834170Y-3733836D02*
G01X8834170Y-3727994D01*
G01X8839758Y-3716564D01*
G01X8845600Y-3710976D01*
G01X8857030Y-3705134D01*
G01X8879890Y-3705134D01*
G01X8891320Y-3710976D01*
G01X8896908Y-3716564D01*
G01X8902750Y-3727994D01*
G01X8902750Y-3739424D01*
G01X8896908Y-3750854D01*
G01X8885478Y-3768126D01*
G01X8828328Y-3825276D01*
G01X8908338Y-3825276D01*
G01X10177467Y-3705134D02*
G01X10240459Y-3705134D01*
G01X10206169Y-3750854D01*
G01X10223187Y-3750854D01*
G01X10234617Y-3756696D01*
G01X10240459Y-3762284D01*
G01X10246047Y-3779556D01*
G01X10246047Y-3790986D01*
G01X10240459Y-3808004D01*
G01X10229029Y-3819434D01*
G01X10211757Y-3825276D01*
G01X10194739Y-3825276D01*
G01X10177467Y-3819434D01*
G01X10171879Y-3813846D01*
G01X10166037Y-3802416D01*
G01X10293799Y-3727994D02*
G01X10305229Y-3722406D01*
G01X10322501Y-3705134D01*
G01X10322501Y-3825276D01*
G01X10376095Y-3796574D02*
G01X10370253Y-3802416D01*
G01X10376095Y-3808004D01*
G01X10381683Y-3802416D01*
G01X10376095Y-3796574D01*
G01X10498015Y-3705134D02*
G01X10440865Y-3705134D01*
G01X10435277Y-3756696D01*
G01X10440865Y-3750854D01*
G01X10458137Y-3745266D01*
G01X10475155Y-3745266D01*
G01X10492427Y-3750854D01*
G01X10503857Y-3762284D01*
G01X10509445Y-3779556D01*
G01X10509445Y-3790986D01*
G01X10503857Y-3808004D01*
G01X10492427Y-3819434D01*
G01X10475155Y-3825276D01*
G01X10458137Y-3825276D01*
G01X10440865Y-3819434D01*
G01X10435277Y-3813846D01*
G01X10429435Y-3802416D01*
G01X10557197Y-3745266D02*
G01X10620189Y-3825276D01*
G01X10620189Y-3745266D02*
G01X10557197Y-3825276D01*
G01X10679371Y-3705134D02*
G01X10742363Y-3705134D01*
G01X10708073Y-3750854D01*
G01X10725091Y-3750854D01*
G01X10736521Y-3756696D01*
G01X10742363Y-3762284D01*
G01X10747951Y-3779556D01*
G01X10747951Y-3790986D01*
G01X10742363Y-3808004D01*
G01X10730933Y-3819434D01*
G01X10713661Y-3825276D01*
G01X10696643Y-3825276D01*
G01X10679371Y-3819434D01*
G01X10673783Y-3813846D01*
G01X10667941Y-3802416D01*
G01X10795703Y-3727994D02*
G01X10807133Y-3722406D01*
G01X10824405Y-3705134D01*
G01X10824405Y-3825276D01*
G01X10877999Y-3796574D02*
G01X10872157Y-3802416D01*
G01X10877999Y-3808004D01*
G01X10883587Y-3802416D01*
G01X10877999Y-3796574D01*
G01X10999919Y-3705134D02*
G01X10942769Y-3705134D01*
G01X10937181Y-3756696D01*
G01X10942769Y-3750854D01*
G01X10960041Y-3745266D01*
G01X10977059Y-3745266D01*
G01X10994331Y-3750854D01*
G01X11005761Y-3762284D01*
G01X11011349Y-3779556D01*
G01X11011349Y-3790986D01*
G01X11005761Y-3808004D01*
G01X10994331Y-3819434D01*
G01X10977059Y-3825276D01*
G01X10960041Y-3825276D01*
G01X10942769Y-3819434D01*
G01X10937181Y-3813846D01*
G01X10931339Y-3802416D01*
G01X11059101Y-3745266D02*
G01X11059101Y-3825276D01*
G01X11059101Y-3768126D02*
G01X11076373Y-3750854D01*
G01X11087803Y-3745266D01*
G01X11104821Y-3745266D01*
G01X11116251Y-3750854D01*
G01X11122093Y-3768126D01*
G01X11122093Y-3825276D01*
G01X11122093Y-3768126D02*
G01X11139111Y-3750854D01*
G01X11150541Y-3745266D01*
G01X11167813Y-3745266D01*
G01X11179243Y-3750854D01*
G01X11184831Y-3768126D01*
G01X11184831Y-3825276D01*
G01X11232583Y-3705134D02*
G01X11238425Y-3710976D01*
G01X11244013Y-3705134D01*
G01X11238425Y-3699546D01*
G01X11232583Y-3705134D01*
G01X11238425Y-3745266D02*
G01X11238425Y-3825276D01*
G01X11291765Y-3705134D02*
G01X11291765Y-3825276D01*
G01X11379649Y-3682274D02*
G01X11368219Y-3693704D01*
G01X11356789Y-3710976D01*
G01X11345359Y-3733836D01*
G01X11339517Y-3762284D01*
G01X11339517Y-3785144D01*
G01X11345359Y-3813846D01*
G01X11356789Y-3836706D01*
G01X11368219Y-3853724D01*
G01X11379649Y-3865154D01*
G01X11461691Y-3705134D02*
G01X11444673Y-3710976D01*
G01X11433243Y-3727994D01*
G01X11427401Y-3756696D01*
G01X11427401Y-3773714D01*
G01X11433243Y-3802416D01*
G01X11444673Y-3819434D01*
G01X11461691Y-3825276D01*
G01X11473121Y-3825276D01*
G01X11490393Y-3819434D01*
G01X11501823Y-3802416D01*
G01X11507411Y-3773714D01*
G01X11507411Y-3756696D01*
G01X11501823Y-3727994D01*
G01X11490393Y-3710976D01*
G01X11473121Y-3705134D01*
G01X11461691Y-3705134D01*
G01X11561005Y-3796574D02*
G01X11555163Y-3802416D01*
G01X11561005Y-3808004D01*
G01X11566593Y-3802416D01*
G01X11561005Y-3796574D01*
G01X11643047Y-3705134D02*
G01X11625775Y-3710976D01*
G01X11620187Y-3722406D01*
G01X11620187Y-3733836D01*
G01X11625775Y-3745266D01*
G01X11637205Y-3750854D01*
G01X11660065Y-3756696D01*
G01X11677337Y-3762284D01*
G01X11688767Y-3773714D01*
G01X11694355Y-3785144D01*
G01X11694355Y-3802416D01*
G01X11688767Y-3813846D01*
G01X11682925Y-3819434D01*
G01X11665907Y-3825276D01*
G01X11643047Y-3825276D01*
G01X11625775Y-3819434D01*
G01X11620187Y-3813846D01*
G01X11614345Y-3802416D01*
G01X11614345Y-3785144D01*
G01X11620187Y-3773714D01*
G01X11631617Y-3762284D01*
G01X11648635Y-3756696D01*
G01X11671495Y-3750854D01*
G01X11682925Y-3745266D01*
G01X11688767Y-3733836D01*
G01X11688767Y-3722406D01*
G01X11682925Y-3710976D01*
G01X11665907Y-3705134D01*
G01X11643047Y-3705134D01*
G01X11776397Y-3705134D02*
G01X11759379Y-3710976D01*
G01X11747949Y-3727994D01*
G01X11742107Y-3756696D01*
G01X11742107Y-3773714D01*
G01X11747949Y-3802416D01*
G01X11759379Y-3819434D01*
G01X11776397Y-3825276D01*
G01X11787827Y-3825276D01*
G01X11805099Y-3819434D01*
G01X11816529Y-3802416D01*
G01X11822117Y-3773714D01*
G01X11822117Y-3756696D01*
G01X11816529Y-3727994D01*
G01X11805099Y-3710976D01*
G01X11787827Y-3705134D01*
G01X11776397Y-3705134D01*
G01X11904159Y-3705134D02*
G01X11887141Y-3710976D01*
G01X11875711Y-3727994D01*
G01X11869869Y-3756696D01*
G01X11869869Y-3773714D01*
G01X11875711Y-3802416D01*
G01X11887141Y-3819434D01*
G01X11904159Y-3825276D01*
G01X11915589Y-3825276D01*
G01X11932861Y-3819434D01*
G01X11944291Y-3802416D01*
G01X11949879Y-3773714D01*
G01X11949879Y-3756696D01*
G01X11944291Y-3727994D01*
G01X11932861Y-3710976D01*
G01X11915589Y-3705134D01*
G01X11904159Y-3705134D01*
G01X11997631Y-3745266D02*
G01X12060623Y-3825276D01*
G01X12060623Y-3745266D02*
G01X11997631Y-3825276D01*
G01X12142665Y-3705134D02*
G01X12125647Y-3710976D01*
G01X12114217Y-3727994D01*
G01X12108375Y-3756696D01*
G01X12108375Y-3773714D01*
G01X12114217Y-3802416D01*
G01X12125647Y-3819434D01*
G01X12142665Y-3825276D01*
G01X12154095Y-3825276D01*
G01X12171367Y-3819434D01*
G01X12182797Y-3802416D01*
G01X12188385Y-3773714D01*
G01X12188385Y-3756696D01*
G01X12182797Y-3727994D01*
G01X12171367Y-3710976D01*
G01X12154095Y-3705134D01*
G01X12142665Y-3705134D01*
G01X12241979Y-3796574D02*
G01X12236137Y-3802416D01*
G01X12241979Y-3808004D01*
G01X12247567Y-3802416D01*
G01X12241979Y-3796574D01*
G01X12324021Y-3705134D02*
G01X12306749Y-3710976D01*
G01X12301161Y-3722406D01*
G01X12301161Y-3733836D01*
G01X12306749Y-3745266D01*
G01X12318179Y-3750854D01*
G01X12341039Y-3756696D01*
G01X12358311Y-3762284D01*
G01X12369741Y-3773714D01*
G01X12375329Y-3785144D01*
G01X12375329Y-3802416D01*
G01X12369741Y-3813846D01*
G01X12363899Y-3819434D01*
G01X12346881Y-3825276D01*
G01X12324021Y-3825276D01*
G01X12306749Y-3819434D01*
G01X12301161Y-3813846D01*
G01X12295319Y-3802416D01*
G01X12295319Y-3785144D01*
G01X12301161Y-3773714D01*
G01X12312591Y-3762284D01*
G01X12329609Y-3756696D01*
G01X12352469Y-3750854D01*
G01X12363899Y-3745266D01*
G01X12369741Y-3733836D01*
G01X12369741Y-3722406D01*
G01X12363899Y-3710976D01*
G01X12346881Y-3705134D01*
G01X12324021Y-3705134D01*
G01X12457371Y-3705134D02*
G01X12440353Y-3710976D01*
G01X12428923Y-3727994D01*
G01X12423081Y-3756696D01*
G01X12423081Y-3773714D01*
G01X12428923Y-3802416D01*
G01X12440353Y-3819434D01*
G01X12457371Y-3825276D01*
G01X12468801Y-3825276D01*
G01X12486073Y-3819434D01*
G01X12497503Y-3802416D01*
G01X12503091Y-3773714D01*
G01X12503091Y-3756696D01*
G01X12497503Y-3727994D01*
G01X12486073Y-3710976D01*
G01X12468801Y-3705134D01*
G01X12457371Y-3705134D01*
G01X12585133Y-3705134D02*
G01X12568115Y-3710976D01*
G01X12556685Y-3727994D01*
G01X12550843Y-3756696D01*
G01X12550843Y-3773714D01*
G01X12556685Y-3802416D01*
G01X12568115Y-3819434D01*
G01X12585133Y-3825276D01*
G01X12596563Y-3825276D01*
G01X12613835Y-3819434D01*
G01X12625265Y-3802416D01*
G01X12630853Y-3773714D01*
G01X12630853Y-3756696D01*
G01X12625265Y-3727994D01*
G01X12613835Y-3710976D01*
G01X12596563Y-3705134D01*
G01X12585133Y-3705134D01*
G01X12678605Y-3745266D02*
G01X12678605Y-3825276D01*
G01X12678605Y-3768126D02*
G01X12695877Y-3750854D01*
G01X12707307Y-3745266D01*
G01X12724325Y-3745266D01*
G01X12735755Y-3750854D01*
G01X12741597Y-3768126D01*
G01X12741597Y-3825276D01*
G01X12741597Y-3768126D02*
G01X12758615Y-3750854D01*
G01X12770045Y-3745266D01*
G01X12787317Y-3745266D01*
G01X12798747Y-3750854D01*
G01X12804335Y-3768126D01*
G01X12804335Y-3825276D01*
G01X12852087Y-3745266D02*
G01X12852087Y-3825276D01*
G01X12852087Y-3768126D02*
G01X12869359Y-3750854D01*
G01X12880789Y-3745266D01*
G01X12897807Y-3745266D01*
G01X12909237Y-3750854D01*
G01X12915079Y-3768126D01*
G01X12915079Y-3825276D01*
G01X12915079Y-3768126D02*
G01X12932097Y-3750854D01*
G01X12943527Y-3745266D01*
G01X12960799Y-3745266D01*
G01X12972229Y-3750854D01*
G01X12977817Y-3768126D01*
G01X12977817Y-3825276D01*
G01X13025569Y-3682274D02*
G01X13036999Y-3693704D01*
G01X13048429Y-3710976D01*
G01X13059859Y-3733836D01*
G01X13065701Y-3762284D01*
G01X13065701Y-3785144D01*
G01X13059859Y-3813846D01*
G01X13048429Y-3836706D01*
G01X13036999Y-3853724D01*
G01X13025569Y-3865154D01*
G01X14136456Y-3705134D02*
G01X14136456Y-3825276D01*
G01X14136456Y-3705134D02*
G01X14188018Y-3705134D01*
G01X14205036Y-3710976D01*
G01X14210878Y-3716564D01*
G01X14216466Y-3727994D01*
G01X14216466Y-3745266D01*
G01X14210878Y-3756696D01*
G01X14205036Y-3762284D01*
G01X14188018Y-3768126D01*
G01X14136456Y-3768126D01*
G01X14304350Y-3705134D02*
G01X14304350Y-3825276D01*
G01X14264218Y-3705134D02*
G01X14344228Y-3705134D01*
G01X14391980Y-3705134D02*
G01X14391980Y-3825276D01*
G01X14471990Y-3705134D02*
G01X14471990Y-3825276D01*
G01X14391980Y-3762284D02*
G01X14471990Y-3762284D01*
G01X15597864Y-3705134D02*
G01X15597864Y-3825276D01*
G01X15597864Y-3705134D02*
G01X15649426Y-3705134D01*
G01X15666444Y-3710976D01*
G01X15672286Y-3716564D01*
G01X15677874Y-3727994D01*
G01X15677874Y-3739424D01*
G01X15672286Y-3750854D01*
G01X15666444Y-3756696D01*
G01X15649426Y-3762284D01*
G01X15597864Y-3762284D01*
G01X15637996Y-3762284D02*
G01X15677874Y-3825276D01*
G01X15754328Y-3745266D02*
G01X15742898Y-3750854D01*
G01X15731468Y-3762284D01*
G01X15725626Y-3779556D01*
G01X15725626Y-3790986D01*
G01X15731468Y-3808004D01*
G01X15742898Y-3819434D01*
G01X15754328Y-3825276D01*
G01X15771346Y-3825276D01*
G01X15782776Y-3819434D01*
G01X15794206Y-3808004D01*
G01X15800048Y-3790986D01*
G01X15800048Y-3779556D01*
G01X15794206Y-3762284D01*
G01X15782776Y-3750854D01*
G01X15771346Y-3745266D01*
G01X15754328Y-3745266D01*
G01X15847800Y-3745266D02*
G01X15847800Y-3802416D01*
G01X15853642Y-3819434D01*
G01X15865072Y-3825276D01*
G01X15882090Y-3825276D01*
G01X15893520Y-3819434D01*
G01X15910792Y-3802416D01*
G01X15910792Y-3745266D02*
G01X15910792Y-3825276D01*
G01X15958544Y-3745266D02*
G01X15958544Y-3825276D01*
G01X15958544Y-3768126D02*
G01X15975816Y-3750854D01*
G01X15987246Y-3745266D01*
G01X16004264Y-3745266D01*
G01X16015694Y-3750854D01*
G01X16021536Y-3768126D01*
G01X16021536Y-3825276D01*
G01X16137868Y-3705134D02*
G01X16137868Y-3825276D01*
G01X16137868Y-3762284D02*
G01X16126438Y-3750854D01*
G01X16115008Y-3745266D01*
G01X16097990Y-3745266D01*
G01X16086560Y-3750854D01*
G01X16075130Y-3762284D01*
G01X16069288Y-3779556D01*
G01X16069288Y-3790986D01*
G01X16075130Y-3808004D01*
G01X16086560Y-3819434D01*
G01X16097990Y-3825276D01*
G01X16115008Y-3825276D01*
G01X16126438Y-3819434D01*
G01X16137868Y-3808004D01*
G01X17029045Y-3705134D02*
G01X17029045Y-3825276D01*
G01X17029045Y-3705134D02*
G01X17080607Y-3705134D01*
G01X17097625Y-3710976D01*
G01X17103467Y-3716564D01*
G01X17109055Y-3727994D01*
G01X17109055Y-3745266D01*
G01X17103467Y-3756696D01*
G01X17097625Y-3762284D01*
G01X17080607Y-3768126D01*
G01X17029045Y-3768126D01*
G01X17225387Y-3745266D02*
G01X17225387Y-3825276D01*
G01X17225387Y-3762284D02*
G01X17213957Y-3750854D01*
G01X17202527Y-3745266D01*
G01X17185509Y-3745266D01*
G01X17174079Y-3750854D01*
G01X17162649Y-3762284D01*
G01X17156807Y-3779556D01*
G01X17156807Y-3790986D01*
G01X17162649Y-3808004D01*
G01X17174079Y-3819434D01*
G01X17185509Y-3825276D01*
G01X17202527Y-3825276D01*
G01X17213957Y-3819434D01*
G01X17225387Y-3808004D01*
G01X17341719Y-3705134D02*
G01X17341719Y-3825276D01*
G01X17341719Y-3762284D02*
G01X17330289Y-3750854D01*
G01X17318859Y-3745266D01*
G01X17301841Y-3745266D01*
G01X17290411Y-3750854D01*
G01X17278981Y-3762284D01*
G01X17273139Y-3779556D01*
G01X17273139Y-3790986D01*
G01X17278981Y-3808004D01*
G01X17290411Y-3819434D01*
G01X17301841Y-3825276D01*
G01X17318859Y-3825276D01*
G01X17330289Y-3819434D01*
G01X17341719Y-3808004D01*
G01X18698224Y-3705134D02*
G01X18698224Y-3825276D01*
G01X18698224Y-3705134D02*
G01X18749786Y-3705134D01*
G01X18766804Y-3710976D01*
G01X18772646Y-3716564D01*
G01X18778234Y-3727994D01*
G01X18778234Y-3739424D01*
G01X18772646Y-3750854D01*
G01X18766804Y-3756696D01*
G01X18749786Y-3762284D01*
G01X18698224Y-3762284D01*
G01X18738356Y-3762284D02*
G01X18778234Y-3825276D01*
G01X18854688Y-3745266D02*
G01X18843258Y-3750854D01*
G01X18831828Y-3762284D01*
G01X18825986Y-3779556D01*
G01X18825986Y-3790986D01*
G01X18831828Y-3808004D01*
G01X18843258Y-3819434D01*
G01X18854688Y-3825276D01*
G01X18871706Y-3825276D01*
G01X18883136Y-3819434D01*
G01X18894566Y-3808004D01*
G01X18900408Y-3790986D01*
G01X18900408Y-3779556D01*
G01X18894566Y-3762284D01*
G01X18883136Y-3750854D01*
G01X18871706Y-3745266D01*
G01X18854688Y-3745266D01*
G01X18948160Y-3745266D02*
G01X18948160Y-3802416D01*
G01X18954002Y-3819434D01*
G01X18965432Y-3825276D01*
G01X18982450Y-3825276D01*
G01X18993880Y-3819434D01*
G01X19011152Y-3802416D01*
G01X19011152Y-3745266D02*
G01X19011152Y-3825276D01*
G01X19058904Y-3745266D02*
G01X19058904Y-3825276D01*
G01X19058904Y-3768126D02*
G01X19076176Y-3750854D01*
G01X19087606Y-3745266D01*
G01X19104624Y-3745266D01*
G01X19116054Y-3750854D01*
G01X19121896Y-3768126D01*
G01X19121896Y-3825276D01*
G01X19238228Y-3705134D02*
G01X19238228Y-3825276D01*
G01X19238228Y-3762284D02*
G01X19226798Y-3750854D01*
G01X19215368Y-3745266D01*
G01X19198350Y-3745266D01*
G01X19186920Y-3750854D01*
G01X19175490Y-3762284D01*
G01X19169648Y-3779556D01*
G01X19169648Y-3790986D01*
G01X19175490Y-3808004D01*
G01X19186920Y-3819434D01*
G01X19198350Y-3825276D01*
G01X19215368Y-3825276D01*
G01X19226798Y-3819434D01*
G01X19238228Y-3808004D01*
G01X20657725Y-3705134D02*
G01X20657725Y-3825276D01*
G01X20617593Y-3705134D02*
G01X20697603Y-3705134D01*
G01X20774057Y-3745266D02*
G01X20762627Y-3750854D01*
G01X20751197Y-3762284D01*
G01X20745355Y-3779556D01*
G01X20745355Y-3790986D01*
G01X20751197Y-3808004D01*
G01X20762627Y-3819434D01*
G01X20774057Y-3825276D01*
G01X20791075Y-3825276D01*
G01X20802505Y-3819434D01*
G01X20813935Y-3808004D01*
G01X20819777Y-3790986D01*
G01X20819777Y-3779556D01*
G01X20813935Y-3762284D01*
G01X20802505Y-3750854D01*
G01X20791075Y-3745266D01*
G01X20774057Y-3745266D01*
G01X20867529Y-3745266D02*
G01X20867529Y-3865154D01*
G01X20867529Y-3762284D02*
G01X20878959Y-3750854D01*
G01X20890389Y-3745266D01*
G01X20907661Y-3745266D01*
G01X20919091Y-3750854D01*
G01X20930521Y-3762284D01*
G01X20936109Y-3779556D01*
G01X20936109Y-3790986D01*
G01X20930521Y-3808004D01*
G01X20919091Y-3819434D01*
G01X20907661Y-3825276D01*
G01X20890389Y-3825276D01*
G01X20878959Y-3819434D01*
G01X20867529Y-3808004D01*
G01X21111877Y-3705134D02*
G01X21111877Y-3825276D01*
G01X21111877Y-3825276D02*
G01X21180457Y-3825276D01*
G01X21296789Y-3745266D02*
G01X21296789Y-3825276D01*
G01X21296789Y-3762284D02*
G01X21285359Y-3750854D01*
G01X21273929Y-3745266D01*
G01X21256911Y-3745266D01*
G01X21245481Y-3750854D01*
G01X21234051Y-3762284D01*
G01X21228209Y-3779556D01*
G01X21228209Y-3790986D01*
G01X21234051Y-3808004D01*
G01X21245481Y-3819434D01*
G01X21256911Y-3825276D01*
G01X21273929Y-3825276D01*
G01X21285359Y-3819434D01*
G01X21296789Y-3808004D01*
G01X21350383Y-3745266D02*
G01X21384673Y-3825276D01*
G01X21418963Y-3745266D02*
G01X21384673Y-3825276D01*
G01X21373243Y-3848136D01*
G01X21361813Y-3859566D01*
G01X21350383Y-3865154D01*
G01X21344541Y-3865154D01*
G01X21466715Y-3779556D02*
G01X21535295Y-3779556D01*
G01X21535295Y-3768126D01*
G01X21529707Y-3756696D01*
G01X21523865Y-3750854D01*
G01X21512435Y-3745266D01*
G01X21495417Y-3745266D01*
G01X21483987Y-3750854D01*
G01X21472557Y-3762284D01*
G01X21466715Y-3779556D01*
G01X21466715Y-3790986D01*
G01X21472557Y-3808004D01*
G01X21483987Y-3819434D01*
G01X21495417Y-3825276D01*
G01X21512435Y-3825276D01*
G01X21523865Y-3819434D01*
G01X21535295Y-3808004D01*
G01X21583047Y-3745266D02*
G01X21583047Y-3825276D01*
G01X21583047Y-3779556D02*
G01X21588889Y-3762284D01*
G01X21600319Y-3750854D01*
G01X21611749Y-3745266D01*
G01X21628767Y-3745266D01*
G01X21676519Y-3773714D02*
G01X21779389Y-3773714D01*
G01X21827141Y-3705134D02*
G01X21827141Y-3825276D01*
G01X21827141Y-3705134D02*
G01X21878703Y-3705134D01*
G01X21895721Y-3710976D01*
G01X21901563Y-3716564D01*
G01X21907151Y-3727994D01*
G01X21907151Y-3739424D01*
G01X21901563Y-3750854D01*
G01X21895721Y-3756696D01*
G01X21878703Y-3762284D01*
G01X21827141Y-3762284D02*
G01X21878703Y-3762284D01*
G01X21895721Y-3768126D01*
G01X21901563Y-3773714D01*
G01X21907151Y-3785144D01*
G01X21907151Y-3802416D01*
G01X21901563Y-3813846D01*
G01X21895721Y-3819434D01*
G01X21878703Y-3825276D01*
G01X21827141Y-3825276D01*
G01X21983605Y-3745266D02*
G01X21972175Y-3750854D01*
G01X21960745Y-3762284D01*
G01X21954903Y-3779556D01*
G01X21954903Y-3790986D01*
G01X21960745Y-3808004D01*
G01X21972175Y-3819434D01*
G01X21983605Y-3825276D01*
G01X22000623Y-3825276D01*
G01X22012053Y-3819434D01*
G01X22023483Y-3808004D01*
G01X22029325Y-3790986D01*
G01X22029325Y-3779556D01*
G01X22023483Y-3762284D01*
G01X22012053Y-3750854D01*
G01X22000623Y-3745266D01*
G01X21983605Y-3745266D01*
G01X22094349Y-3705134D02*
G01X22094349Y-3802416D01*
G01X22099937Y-3819434D01*
G01X22111367Y-3825276D01*
G01X22122797Y-3825276D01*
G01X22077077Y-3745266D02*
G01X22117209Y-3745266D01*
G01X22187821Y-3705134D02*
G01X22187821Y-3802416D01*
G01X22193409Y-3819434D01*
G01X22204839Y-3825276D01*
G01X22216269Y-3825276D01*
G01X22170549Y-3745266D02*
G01X22210681Y-3745266D01*
G01X22292723Y-3745266D02*
G01X22281293Y-3750854D01*
G01X22269863Y-3762284D01*
G01X22264021Y-3779556D01*
G01X22264021Y-3790986D01*
G01X22269863Y-3808004D01*
G01X22281293Y-3819434D01*
G01X22292723Y-3825276D01*
G01X22309741Y-3825276D01*
G01X22321171Y-3819434D01*
G01X22332601Y-3808004D01*
G01X22338443Y-3790986D01*
G01X22338443Y-3779556D01*
G01X22332601Y-3762284D01*
G01X22321171Y-3750854D01*
G01X22309741Y-3745266D01*
G01X22292723Y-3745266D01*
G01X22386195Y-3745266D02*
G01X22386195Y-3825276D01*
G01X22386195Y-3768126D02*
G01X22403467Y-3750854D01*
G01X22414897Y-3745266D01*
G01X22431915Y-3745266D01*
G01X22443345Y-3750854D01*
G01X22449187Y-3768126D01*
G01X22449187Y-3825276D01*
G01X22449187Y-3768126D02*
G01X22466205Y-3750854D01*
G01X22477635Y-3745266D01*
G01X22494907Y-3745266D01*
G01X22506337Y-3750854D01*
G01X22511925Y-3768126D01*
G01X22511925Y-3825276D01*
G01X22687693Y-3705134D02*
G01X22687693Y-3825276D01*
G01X22687693Y-3825276D02*
G01X22756273Y-3825276D01*
G01X22872605Y-3745266D02*
G01X22872605Y-3825276D01*
G01X22872605Y-3762284D02*
G01X22861175Y-3750854D01*
G01X22849745Y-3745266D01*
G01X22832727Y-3745266D01*
G01X22821297Y-3750854D01*
G01X22809867Y-3762284D01*
G01X22804025Y-3779556D01*
G01X22804025Y-3790986D01*
G01X22809867Y-3808004D01*
G01X22821297Y-3819434D01*
G01X22832727Y-3825276D01*
G01X22849745Y-3825276D01*
G01X22861175Y-3819434D01*
G01X22872605Y-3808004D01*
G01X22926199Y-3745266D02*
G01X22960489Y-3825276D01*
G01X22994779Y-3745266D02*
G01X22960489Y-3825276D01*
G01X22949059Y-3848136D01*
G01X22937629Y-3859566D01*
G01X22926199Y-3865154D01*
G01X22920357Y-3865154D01*
G01X23042531Y-3779556D02*
G01X23111111Y-3779556D01*
G01X23111111Y-3768126D01*
G01X23105523Y-3756696D01*
G01X23099681Y-3750854D01*
G01X23088251Y-3745266D01*
G01X23071233Y-3745266D01*
G01X23059803Y-3750854D01*
G01X23048373Y-3762284D01*
G01X23042531Y-3779556D01*
G01X23042531Y-3790986D01*
G01X23048373Y-3808004D01*
G01X23059803Y-3819434D01*
G01X23071233Y-3825276D01*
G01X23088251Y-3825276D01*
G01X23099681Y-3819434D01*
G01X23111111Y-3808004D01*
G01X23158863Y-3745266D02*
G01X23158863Y-3825276D01*
G01X23158863Y-3779556D02*
G01X23164705Y-3762284D01*
G01X23176135Y-3750854D01*
G01X23187565Y-3745266D01*
G01X23204583Y-3745266D01*
G01X8809024Y-4285706D02*
G01X8751874Y-4365716D01*
G01X8837726Y-4365716D01*
G01X8809024Y-4285706D02*
G01X8809024Y-4405848D01*
G01X8942628Y-4285706D02*
G01X8885478Y-4365716D01*
G01X8971330Y-4365716D01*
G01X8942628Y-4285706D02*
G01X8942628Y-4405848D01*
G01X10223187Y-4285706D02*
G01X10166037Y-4365716D01*
G01X10251889Y-4365716D01*
G01X10223187Y-4285706D02*
G01X10223187Y-4405848D01*
G01X10299641Y-4308566D02*
G01X10311071Y-4302978D01*
G01X10328343Y-4285706D01*
G01X10328343Y-4405848D01*
G01X10381937Y-4377146D02*
G01X10376095Y-4382988D01*
G01X10381937Y-4388576D01*
G01X10387525Y-4382988D01*
G01X10381937Y-4377146D01*
G01X10446707Y-4285706D02*
G01X10509699Y-4285706D01*
G01X10475409Y-4331426D01*
G01X10492427Y-4331426D01*
G01X10503857Y-4337268D01*
G01X10509699Y-4342856D01*
G01X10515287Y-4360128D01*
G01X10515287Y-4371558D01*
G01X10509699Y-4388576D01*
G01X10498269Y-4400006D01*
G01X10480997Y-4405848D01*
G01X10463979Y-4405848D01*
G01X10446707Y-4400006D01*
G01X10441119Y-4394418D01*
G01X10435277Y-4382988D01*
G01X10563039Y-4325838D02*
G01X10626031Y-4405848D01*
G01X10626031Y-4325838D02*
G01X10563039Y-4405848D01*
G01X10730933Y-4285706D02*
G01X10673783Y-4365716D01*
G01X10759635Y-4365716D01*
G01X10730933Y-4285706D02*
G01X10730933Y-4405848D01*
G01X10807387Y-4308566D02*
G01X10818817Y-4302978D01*
G01X10836089Y-4285706D01*
G01X10836089Y-4405848D01*
G01X10889683Y-4377146D02*
G01X10883841Y-4382988D01*
G01X10889683Y-4388576D01*
G01X10895271Y-4382988D01*
G01X10889683Y-4377146D01*
G01X10954453Y-4285706D02*
G01X11017445Y-4285706D01*
G01X10983155Y-4331426D01*
G01X11000173Y-4331426D01*
G01X11011603Y-4337268D01*
G01X11017445Y-4342856D01*
G01X11023033Y-4360128D01*
G01X11023033Y-4371558D01*
G01X11017445Y-4388576D01*
G01X11006015Y-4400006D01*
G01X10988743Y-4405848D01*
G01X10971725Y-4405848D01*
G01X10954453Y-4400006D01*
G01X10948865Y-4394418D01*
G01X10943023Y-4382988D01*
G01X11070785Y-4325838D02*
G01X11070785Y-4405848D01*
G01X11070785Y-4348698D02*
G01X11088057Y-4331426D01*
G01X11099487Y-4325838D01*
G01X11116505Y-4325838D01*
G01X11127935Y-4331426D01*
G01X11133777Y-4348698D01*
G01X11133777Y-4405848D01*
G01X11133777Y-4348698D02*
G01X11150795Y-4331426D01*
G01X11162225Y-4325838D01*
G01X11179497Y-4325838D01*
G01X11190927Y-4331426D01*
G01X11196515Y-4348698D01*
G01X11196515Y-4405848D01*
G01X11244267Y-4285706D02*
G01X11250109Y-4291548D01*
G01X11255697Y-4285706D01*
G01X11250109Y-4280118D01*
G01X11244267Y-4285706D01*
G01X11250109Y-4325838D02*
G01X11250109Y-4405848D01*
G01X11303449Y-4285706D02*
G01X11303449Y-4405848D01*
G01X11391333Y-4262846D02*
G01X11379903Y-4274276D01*
G01X11368473Y-4291548D01*
G01X11357043Y-4314408D01*
G01X11351201Y-4342856D01*
G01X11351201Y-4365716D01*
G01X11357043Y-4394418D01*
G01X11368473Y-4417278D01*
G01X11379903Y-4434296D01*
G01X11391333Y-4445726D01*
G01X11439085Y-4308566D02*
G01X11450515Y-4302978D01*
G01X11467787Y-4285706D01*
G01X11467787Y-4405848D01*
G01X11521381Y-4377146D02*
G01X11515539Y-4382988D01*
G01X11521381Y-4388576D01*
G01X11526969Y-4382988D01*
G01X11521381Y-4377146D01*
G01X11609011Y-4285706D02*
G01X11591993Y-4291548D01*
G01X11580563Y-4308566D01*
G01X11574721Y-4337268D01*
G01X11574721Y-4354286D01*
G01X11580563Y-4382988D01*
G01X11591993Y-4400006D01*
G01X11609011Y-4405848D01*
G01X11620441Y-4405848D01*
G01X11637713Y-4400006D01*
G01X11649143Y-4382988D01*
G01X11654731Y-4354286D01*
G01X11654731Y-4337268D01*
G01X11649143Y-4308566D01*
G01X11637713Y-4291548D01*
G01X11620441Y-4285706D01*
G01X11609011Y-4285706D01*
G01X11771063Y-4285706D02*
G01X11713913Y-4285706D01*
G01X11708325Y-4337268D01*
G01X11713913Y-4331426D01*
G01X11731185Y-4325838D01*
G01X11748203Y-4325838D01*
G01X11765475Y-4331426D01*
G01X11776905Y-4342856D01*
G01X11782493Y-4360128D01*
G01X11782493Y-4371558D01*
G01X11776905Y-4388576D01*
G01X11765475Y-4400006D01*
G01X11748203Y-4405848D01*
G01X11731185Y-4405848D01*
G01X11713913Y-4400006D01*
G01X11708325Y-4394418D01*
G01X11702483Y-4382988D01*
G01X11864535Y-4285706D02*
G01X11847517Y-4291548D01*
G01X11836087Y-4308566D01*
G01X11830245Y-4337268D01*
G01X11830245Y-4354286D01*
G01X11836087Y-4382988D01*
G01X11847517Y-4400006D01*
G01X11864535Y-4405848D01*
G01X11875965Y-4405848D01*
G01X11893237Y-4400006D01*
G01X11904667Y-4382988D01*
G01X11910255Y-4354286D01*
G01X11910255Y-4337268D01*
G01X11904667Y-4308566D01*
G01X11893237Y-4291548D01*
G01X11875965Y-4285706D01*
G01X11864535Y-4285706D01*
G01X11958007Y-4325838D02*
G01X12020999Y-4405848D01*
G01X12020999Y-4325838D02*
G01X11958007Y-4405848D01*
G01X12068751Y-4308566D02*
G01X12080181Y-4302978D01*
G01X12097453Y-4285706D01*
G01X12097453Y-4405848D01*
G01X12151047Y-4377146D02*
G01X12145205Y-4382988D01*
G01X12151047Y-4388576D01*
G01X12156635Y-4382988D01*
G01X12151047Y-4377146D01*
G01X12238677Y-4285706D02*
G01X12221659Y-4291548D01*
G01X12210229Y-4308566D01*
G01X12204387Y-4337268D01*
G01X12204387Y-4354286D01*
G01X12210229Y-4382988D01*
G01X12221659Y-4400006D01*
G01X12238677Y-4405848D01*
G01X12250107Y-4405848D01*
G01X12267379Y-4400006D01*
G01X12278809Y-4382988D01*
G01X12284397Y-4354286D01*
G01X12284397Y-4337268D01*
G01X12278809Y-4308566D01*
G01X12267379Y-4291548D01*
G01X12250107Y-4285706D01*
G01X12238677Y-4285706D01*
G01X12400729Y-4285706D02*
G01X12343579Y-4285706D01*
G01X12337991Y-4337268D01*
G01X12343579Y-4331426D01*
G01X12360851Y-4325838D01*
G01X12377869Y-4325838D01*
G01X12395141Y-4331426D01*
G01X12406571Y-4342856D01*
G01X12412159Y-4360128D01*
G01X12412159Y-4371558D01*
G01X12406571Y-4388576D01*
G01X12395141Y-4400006D01*
G01X12377869Y-4405848D01*
G01X12360851Y-4405848D01*
G01X12343579Y-4400006D01*
G01X12337991Y-4394418D01*
G01X12332149Y-4382988D01*
G01X12494201Y-4285706D02*
G01X12477183Y-4291548D01*
G01X12465753Y-4308566D01*
G01X12459911Y-4337268D01*
G01X12459911Y-4354286D01*
G01X12465753Y-4382988D01*
G01X12477183Y-4400006D01*
G01X12494201Y-4405848D01*
G01X12505631Y-4405848D01*
G01X12522903Y-4400006D01*
G01X12534333Y-4382988D01*
G01X12539921Y-4354286D01*
G01X12539921Y-4337268D01*
G01X12534333Y-4308566D01*
G01X12522903Y-4291548D01*
G01X12505631Y-4285706D01*
G01X12494201Y-4285706D01*
G01X12587673Y-4325838D02*
G01X12587673Y-4405848D01*
G01X12587673Y-4348698D02*
G01X12604945Y-4331426D01*
G01X12616375Y-4325838D01*
G01X12633393Y-4325838D01*
G01X12644823Y-4331426D01*
G01X12650665Y-4348698D01*
G01X12650665Y-4405848D01*
G01X12650665Y-4348698D02*
G01X12667683Y-4331426D01*
G01X12679113Y-4325838D01*
G01X12696385Y-4325838D01*
G01X12707815Y-4331426D01*
G01X12713403Y-4348698D01*
G01X12713403Y-4405848D01*
G01X12761155Y-4325838D02*
G01X12761155Y-4405848D01*
G01X12761155Y-4348698D02*
G01X12778427Y-4331426D01*
G01X12789857Y-4325838D01*
G01X12806875Y-4325838D01*
G01X12818305Y-4331426D01*
G01X12824147Y-4348698D01*
G01X12824147Y-4405848D01*
G01X12824147Y-4348698D02*
G01X12841165Y-4331426D01*
G01X12852595Y-4325838D01*
G01X12869867Y-4325838D01*
G01X12881297Y-4331426D01*
G01X12886885Y-4348698D01*
G01X12886885Y-4405848D01*
G01X12934637Y-4262846D02*
G01X12946067Y-4274276D01*
G01X12957497Y-4291548D01*
G01X12968927Y-4314408D01*
G01X12974769Y-4342856D01*
G01X12974769Y-4365716D01*
G01X12968927Y-4394418D01*
G01X12957497Y-4417278D01*
G01X12946067Y-4434296D01*
G01X12934637Y-4445726D01*
G01X14136456Y-4285706D02*
G01X14136456Y-4405848D01*
G01X14136456Y-4285706D02*
G01X14188018Y-4285706D01*
G01X14205036Y-4291548D01*
G01X14210878Y-4297136D01*
G01X14216466Y-4308566D01*
G01X14216466Y-4325838D01*
G01X14210878Y-4337268D01*
G01X14205036Y-4342856D01*
G01X14188018Y-4348698D01*
G01X14136456Y-4348698D01*
G01X14304350Y-4285706D02*
G01X14304350Y-4405848D01*
G01X14264218Y-4285706D02*
G01X14344228Y-4285706D01*
G01X14391980Y-4285706D02*
G01X14391980Y-4405848D01*
G01X14471990Y-4285706D02*
G01X14471990Y-4405848D01*
G01X14391980Y-4342856D02*
G01X14471990Y-4342856D01*
G01X15597864Y-4285706D02*
G01X15597864Y-4405848D01*
G01X15597864Y-4285706D02*
G01X15649426Y-4285706D01*
G01X15666444Y-4291548D01*
G01X15672286Y-4297136D01*
G01X15677874Y-4308566D01*
G01X15677874Y-4319996D01*
G01X15672286Y-4331426D01*
G01X15666444Y-4337268D01*
G01X15649426Y-4342856D01*
G01X15597864Y-4342856D01*
G01X15637996Y-4342856D02*
G01X15677874Y-4405848D01*
G01X15754328Y-4325838D02*
G01X15742898Y-4331426D01*
G01X15731468Y-4342856D01*
G01X15725626Y-4360128D01*
G01X15725626Y-4371558D01*
G01X15731468Y-4388576D01*
G01X15742898Y-4400006D01*
G01X15754328Y-4405848D01*
G01X15771346Y-4405848D01*
G01X15782776Y-4400006D01*
G01X15794206Y-4388576D01*
G01X15800048Y-4371558D01*
G01X15800048Y-4360128D01*
G01X15794206Y-4342856D01*
G01X15782776Y-4331426D01*
G01X15771346Y-4325838D01*
G01X15754328Y-4325838D01*
G01X15847800Y-4325838D02*
G01X15847800Y-4382988D01*
G01X15853642Y-4400006D01*
G01X15865072Y-4405848D01*
G01X15882090Y-4405848D01*
G01X15893520Y-4400006D01*
G01X15910792Y-4382988D01*
G01X15910792Y-4325838D02*
G01X15910792Y-4405848D01*
G01X15958544Y-4325838D02*
G01X15958544Y-4405848D01*
G01X15958544Y-4348698D02*
G01X15975816Y-4331426D01*
G01X15987246Y-4325838D01*
G01X16004264Y-4325838D01*
G01X16015694Y-4331426D01*
G01X16021536Y-4348698D01*
G01X16021536Y-4405848D01*
G01X16137868Y-4285706D02*
G01X16137868Y-4405848D01*
G01X16137868Y-4342856D02*
G01X16126438Y-4331426D01*
G01X16115008Y-4325838D01*
G01X16097990Y-4325838D01*
G01X16086560Y-4331426D01*
G01X16075130Y-4342856D01*
G01X16069288Y-4360128D01*
G01X16069288Y-4371558D01*
G01X16075130Y-4388576D01*
G01X16086560Y-4400006D01*
G01X16097990Y-4405848D01*
G01X16115008Y-4405848D01*
G01X16126438Y-4400006D01*
G01X16137868Y-4388576D01*
G01X17029045Y-4285706D02*
G01X17029045Y-4405848D01*
G01X17029045Y-4285706D02*
G01X17080607Y-4285706D01*
G01X17097625Y-4291548D01*
G01X17103467Y-4297136D01*
G01X17109055Y-4308566D01*
G01X17109055Y-4325838D01*
G01X17103467Y-4337268D01*
G01X17097625Y-4342856D01*
G01X17080607Y-4348698D01*
G01X17029045Y-4348698D01*
G01X17225387Y-4325838D02*
G01X17225387Y-4405848D01*
G01X17225387Y-4342856D02*
G01X17213957Y-4331426D01*
G01X17202527Y-4325838D01*
G01X17185509Y-4325838D01*
G01X17174079Y-4331426D01*
G01X17162649Y-4342856D01*
G01X17156807Y-4360128D01*
G01X17156807Y-4371558D01*
G01X17162649Y-4388576D01*
G01X17174079Y-4400006D01*
G01X17185509Y-4405848D01*
G01X17202527Y-4405848D01*
G01X17213957Y-4400006D01*
G01X17225387Y-4388576D01*
G01X17341719Y-4285706D02*
G01X17341719Y-4405848D01*
G01X17341719Y-4342856D02*
G01X17330289Y-4331426D01*
G01X17318859Y-4325838D01*
G01X17301841Y-4325838D01*
G01X17290411Y-4331426D01*
G01X17278981Y-4342856D01*
G01X17273139Y-4360128D01*
G01X17273139Y-4371558D01*
G01X17278981Y-4388576D01*
G01X17290411Y-4400006D01*
G01X17301841Y-4405848D01*
G01X17318859Y-4405848D01*
G01X17330289Y-4400006D01*
G01X17341719Y-4388576D01*
G01X18738356Y-4262846D02*
G01X18726926Y-4274276D01*
G01X18715496Y-4291548D01*
G01X18704066Y-4314408D01*
G01X18698224Y-4342856D01*
G01X18698224Y-4365716D01*
G01X18704066Y-4394418D01*
G01X18715496Y-4417278D01*
G01X18726926Y-4434296D01*
G01X18738356Y-4445726D01*
G01X18786108Y-4285706D02*
G01X18786108Y-4405848D01*
G01X18786108Y-4285706D02*
G01X18831828Y-4405848D01*
G01X18877548Y-4285706D02*
G01X18831828Y-4405848D01*
G01X18877548Y-4285706D02*
G01X18877548Y-4405848D01*
G01X18925300Y-4285706D02*
G01X18931142Y-4291548D01*
G01X18936730Y-4285706D01*
G01X18931142Y-4280118D01*
G01X18925300Y-4285706D01*
G01X18931142Y-4325838D02*
G01X18931142Y-4405848D01*
G01X18984482Y-4325838D02*
G01X19047474Y-4405848D01*
G01X19047474Y-4325838D02*
G01X18984482Y-4405848D01*
G01X19095226Y-4360128D02*
G01X19163806Y-4360128D01*
G01X19163806Y-4348698D01*
G01X19158218Y-4337268D01*
G01X19152376Y-4331426D01*
G01X19140946Y-4325838D01*
G01X19123928Y-4325838D01*
G01X19112498Y-4331426D01*
G01X19101068Y-4342856D01*
G01X19095226Y-4360128D01*
G01X19095226Y-4371558D01*
G01X19101068Y-4388576D01*
G01X19112498Y-4400006D01*
G01X19123928Y-4405848D01*
G01X19140946Y-4405848D01*
G01X19152376Y-4400006D01*
G01X19163806Y-4388576D01*
G01X19280138Y-4285706D02*
G01X19280138Y-4405848D01*
G01X19280138Y-4342856D02*
G01X19268708Y-4331426D01*
G01X19257278Y-4325838D01*
G01X19240260Y-4325838D01*
G01X19228830Y-4331426D01*
G01X19217400Y-4342856D01*
G01X19211558Y-4360128D01*
G01X19211558Y-4371558D01*
G01X19217400Y-4388576D01*
G01X19228830Y-4400006D01*
G01X19240260Y-4405848D01*
G01X19257278Y-4405848D01*
G01X19268708Y-4400006D01*
G01X19280138Y-4388576D01*
G01X19327890Y-4262846D02*
G01X19339320Y-4274276D01*
G01X19350750Y-4291548D01*
G01X19362180Y-4314408D01*
G01X19368022Y-4342856D01*
G01X19368022Y-4365716D01*
G01X19362180Y-4394418D01*
G01X19350750Y-4417278D01*
G01X19339320Y-4434296D01*
G01X19327890Y-4445726D01*
G01X20657725Y-4285706D02*
G01X20657725Y-4405848D01*
G01X20617593Y-4285706D02*
G01X20697603Y-4285706D01*
G01X20774057Y-4325838D02*
G01X20762627Y-4331426D01*
G01X20751197Y-4342856D01*
G01X20745355Y-4360128D01*
G01X20745355Y-4371558D01*
G01X20751197Y-4388576D01*
G01X20762627Y-4400006D01*
G01X20774057Y-4405848D01*
G01X20791075Y-4405848D01*
G01X20802505Y-4400006D01*
G01X20813935Y-4388576D01*
G01X20819777Y-4371558D01*
G01X20819777Y-4360128D01*
G01X20813935Y-4342856D01*
G01X20802505Y-4331426D01*
G01X20791075Y-4325838D01*
G01X20774057Y-4325838D01*
G01X20867529Y-4325838D02*
G01X20867529Y-4445726D01*
G01X20867529Y-4342856D02*
G01X20878959Y-4331426D01*
G01X20890389Y-4325838D01*
G01X20907661Y-4325838D01*
G01X20919091Y-4331426D01*
G01X20930521Y-4342856D01*
G01X20936109Y-4360128D01*
G01X20936109Y-4371558D01*
G01X20930521Y-4388576D01*
G01X20919091Y-4400006D01*
G01X20907661Y-4405848D01*
G01X20890389Y-4405848D01*
G01X20878959Y-4400006D01*
G01X20867529Y-4388576D01*
G01X21111877Y-4285706D02*
G01X21111877Y-4405848D01*
G01X21111877Y-4405848D02*
G01X21180457Y-4405848D01*
G01X21296789Y-4325838D02*
G01X21296789Y-4405848D01*
G01X21296789Y-4342856D02*
G01X21285359Y-4331426D01*
G01X21273929Y-4325838D01*
G01X21256911Y-4325838D01*
G01X21245481Y-4331426D01*
G01X21234051Y-4342856D01*
G01X21228209Y-4360128D01*
G01X21228209Y-4371558D01*
G01X21234051Y-4388576D01*
G01X21245481Y-4400006D01*
G01X21256911Y-4405848D01*
G01X21273929Y-4405848D01*
G01X21285359Y-4400006D01*
G01X21296789Y-4388576D01*
G01X21350383Y-4325838D02*
G01X21384673Y-4405848D01*
G01X21418963Y-4325838D02*
G01X21384673Y-4405848D01*
G01X21373243Y-4428708D01*
G01X21361813Y-4440138D01*
G01X21350383Y-4445726D01*
G01X21344541Y-4445726D01*
G01X21466715Y-4360128D02*
G01X21535295Y-4360128D01*
G01X21535295Y-4348698D01*
G01X21529707Y-4337268D01*
G01X21523865Y-4331426D01*
G01X21512435Y-4325838D01*
G01X21495417Y-4325838D01*
G01X21483987Y-4331426D01*
G01X21472557Y-4342856D01*
G01X21466715Y-4360128D01*
G01X21466715Y-4371558D01*
G01X21472557Y-4388576D01*
G01X21483987Y-4400006D01*
G01X21495417Y-4405848D01*
G01X21512435Y-4405848D01*
G01X21523865Y-4400006D01*
G01X21535295Y-4388576D01*
G01X21583047Y-4325838D02*
G01X21583047Y-4405848D01*
G01X21583047Y-4360128D02*
G01X21588889Y-4342856D01*
G01X21600319Y-4331426D01*
G01X21611749Y-4325838D01*
G01X21628767Y-4325838D01*
G01X21676519Y-4354286D02*
G01X21779389Y-4354286D01*
G01X21827141Y-4285706D02*
G01X21827141Y-4405848D01*
G01X21827141Y-4285706D02*
G01X21878703Y-4285706D01*
G01X21895721Y-4291548D01*
G01X21901563Y-4297136D01*
G01X21907151Y-4308566D01*
G01X21907151Y-4319996D01*
G01X21901563Y-4331426D01*
G01X21895721Y-4337268D01*
G01X21878703Y-4342856D01*
G01X21827141Y-4342856D02*
G01X21878703Y-4342856D01*
G01X21895721Y-4348698D01*
G01X21901563Y-4354286D01*
G01X21907151Y-4365716D01*
G01X21907151Y-4382988D01*
G01X21901563Y-4394418D01*
G01X21895721Y-4400006D01*
G01X21878703Y-4405848D01*
G01X21827141Y-4405848D01*
G01X21983605Y-4325838D02*
G01X21972175Y-4331426D01*
G01X21960745Y-4342856D01*
G01X21954903Y-4360128D01*
G01X21954903Y-4371558D01*
G01X21960745Y-4388576D01*
G01X21972175Y-4400006D01*
G01X21983605Y-4405848D01*
G01X22000623Y-4405848D01*
G01X22012053Y-4400006D01*
G01X22023483Y-4388576D01*
G01X22029325Y-4371558D01*
G01X22029325Y-4360128D01*
G01X22023483Y-4342856D01*
G01X22012053Y-4331426D01*
G01X22000623Y-4325838D01*
G01X21983605Y-4325838D01*
G01X22094349Y-4285706D02*
G01X22094349Y-4382988D01*
G01X22099937Y-4400006D01*
G01X22111367Y-4405848D01*
G01X22122797Y-4405848D01*
G01X22077077Y-4325838D02*
G01X22117209Y-4325838D01*
G01X22187821Y-4285706D02*
G01X22187821Y-4382988D01*
G01X22193409Y-4400006D01*
G01X22204839Y-4405848D01*
G01X22216269Y-4405848D01*
G01X22170549Y-4325838D02*
G01X22210681Y-4325838D01*
G01X22292723Y-4325838D02*
G01X22281293Y-4331426D01*
G01X22269863Y-4342856D01*
G01X22264021Y-4360128D01*
G01X22264021Y-4371558D01*
G01X22269863Y-4388576D01*
G01X22281293Y-4400006D01*
G01X22292723Y-4405848D01*
G01X22309741Y-4405848D01*
G01X22321171Y-4400006D01*
G01X22332601Y-4388576D01*
G01X22338443Y-4371558D01*
G01X22338443Y-4360128D01*
G01X22332601Y-4342856D01*
G01X22321171Y-4331426D01*
G01X22309741Y-4325838D01*
G01X22292723Y-4325838D01*
G01X22386195Y-4325838D02*
G01X22386195Y-4405848D01*
G01X22386195Y-4348698D02*
G01X22403467Y-4331426D01*
G01X22414897Y-4325838D01*
G01X22431915Y-4325838D01*
G01X22443345Y-4331426D01*
G01X22449187Y-4348698D01*
G01X22449187Y-4405848D01*
G01X22449187Y-4348698D02*
G01X22466205Y-4331426D01*
G01X22477635Y-4325838D01*
G01X22494907Y-4325838D01*
G01X22506337Y-4331426D01*
G01X22511925Y-4348698D01*
G01X22511925Y-4405848D01*
G01X22687693Y-4285706D02*
G01X22687693Y-4405848D01*
G01X22687693Y-4405848D02*
G01X22756273Y-4405848D01*
G01X22872605Y-4325838D02*
G01X22872605Y-4405848D01*
G01X22872605Y-4342856D02*
G01X22861175Y-4331426D01*
G01X22849745Y-4325838D01*
G01X22832727Y-4325838D01*
G01X22821297Y-4331426D01*
G01X22809867Y-4342856D01*
G01X22804025Y-4360128D01*
G01X22804025Y-4371558D01*
G01X22809867Y-4388576D01*
G01X22821297Y-4400006D01*
G01X22832727Y-4405848D01*
G01X22849745Y-4405848D01*
G01X22861175Y-4400006D01*
G01X22872605Y-4388576D01*
G01X22926199Y-4325838D02*
G01X22960489Y-4405848D01*
G01X22994779Y-4325838D02*
G01X22960489Y-4405848D01*
G01X22949059Y-4428708D01*
G01X22937629Y-4440138D01*
G01X22926199Y-4445726D01*
G01X22920357Y-4445726D01*
G01X23042531Y-4360128D02*
G01X23111111Y-4360128D01*
G01X23111111Y-4348698D01*
G01X23105523Y-4337268D01*
G01X23099681Y-4331426D01*
G01X23088251Y-4325838D01*
G01X23071233Y-4325838D01*
G01X23059803Y-4331426D01*
G01X23048373Y-4342856D01*
G01X23042531Y-4360128D01*
G01X23042531Y-4371558D01*
G01X23048373Y-4388576D01*
G01X23059803Y-4400006D01*
G01X23071233Y-4405848D01*
G01X23088251Y-4405848D01*
G01X23099681Y-4400006D01*
G01X23111111Y-4388576D01*
G01X23158863Y-4325838D02*
G01X23158863Y-4405848D01*
G01X23158863Y-4360128D02*
G01X23164705Y-4342856D01*
G01X23176135Y-4331426D01*
G01X23187565Y-4325838D01*
G01X23204583Y-4325838D01*

G04 Image Start*
G36*
G01X7587262Y-2724604D02*
G01X7481649Y-2713123D01*
G01X7438774Y-2810329D01*
G01X7395899Y-2713123D01*
G01X7290286Y-2724604D01*
G01X7353049Y-2638879D01*
G01X7313327Y-2584624D01*
G01X7344819Y-2584624D01*
G01X7384520Y-2638879D01*
G01X7344819Y-2693133D01*
G01X7411647Y-2685869D01*
G01X7411647Y-2685869D01*
G01X7438774Y-2747362D01*
G01X7465901Y-2685869D01*
G01X7532729Y-2693133D01*
G01X7493028Y-2638879D01*
G01X7532703Y-2584650D01*
G01X7465876Y-2591914D01*
G01X7438774Y-2530395D01*
G01X7411647Y-2591889D01*
G01X7344819Y-2584624D01*
G01X7313327Y-2584624D01*
G01X7290286Y-2553154D01*
G01X7395924Y-2564634D01*
G01X7438774Y-2467429D01*
G01X7481649Y-2564634D01*
G01X7587262Y-2553154D01*
G01X7524499Y-2638879D01*
G01X7587262Y-2724604D01*
G37*
G36*
G01X7458269Y-1610299D02*
G01X7450529Y-1610887D01*
G01X7442686Y-1611086D01*
G01X7434842Y-1610887D01*
G01X7427102Y-1610299D01*
G01X7419475Y-1609330D01*
G01X7411970Y-1607990D01*
G01X7397364Y-1604235D01*
G01X7383362Y-1599110D01*
G01X7370039Y-1592693D01*
G01X7357474Y-1585060D01*
G01X7345742Y-1576287D01*
G01X7334920Y-1566452D01*
G01X7325084Y-1555629D01*
G01X7316311Y-1543897D01*
G01X7308678Y-1531332D01*
G01X7302261Y-1518010D01*
G01X7297137Y-1504008D01*
G01X7293382Y-1489402D01*
G01X7292041Y-1481896D01*
G01X7291072Y-1474269D01*
G01X7290484Y-1466529D01*
G01X7290286Y-1458686D01*
G01X7315686Y-1458686D01*
G01X7316343Y-1471652D01*
G01X7318270Y-1484248D01*
G01X7321405Y-1496410D01*
G01X7325682Y-1508072D01*
G01X7331036Y-1519172D01*
G01X7337405Y-1529643D01*
G01X7344723Y-1539423D01*
G01X7352925Y-1548446D01*
G01X7361948Y-1556649D01*
G01X7371728Y-1563966D01*
G01X7382200Y-1570335D01*
G01X7393299Y-1575690D01*
G01X7404961Y-1579966D01*
G01X7417123Y-1583101D01*
G01X7417123Y-1583101D01*
G01X7429719Y-1585029D01*
G01X7442686Y-1585686D01*
G01X7455652Y-1585029D01*
G01X7468248Y-1583101D01*
G01X7480410Y-1579966D01*
G01X7492072Y-1575690D01*
G01X7503172Y-1570335D01*
G01X7513643Y-1563966D01*
G01X7523423Y-1556649D01*
G01X7532446Y-1548446D01*
G01X7540649Y-1539423D01*
G01X7547966Y-1529643D01*
G01X7554335Y-1519172D01*
G01X7559690Y-1508072D01*
G01X7563966Y-1496410D01*
G01X7567101Y-1484248D01*
G01X7569029Y-1471652D01*
G01X7569686Y-1458686D01*
G01X7569029Y-1445719D01*
G01X7567101Y-1433123D01*
G01X7563966Y-1420962D01*
G01X7559690Y-1409299D01*
G01X7554335Y-1398200D01*
G01X7547966Y-1387728D01*
G01X7540649Y-1377949D01*
G01X7532446Y-1368925D01*
G01X7523423Y-1360723D01*
G01X7513643Y-1353405D01*
G01X7503172Y-1347037D01*
G01X7492072Y-1341682D01*
G01X7480410Y-1337405D01*
G01X7468248Y-1334271D01*
G01X7455652Y-1332343D01*
G01X7442686Y-1331686D01*
G01X7429719Y-1332343D01*
G01X7417123Y-1334271D01*
G01X7404961Y-1337405D01*
G01X7393299Y-1341682D01*
G01X7382200Y-1347037D01*
G01X7371728Y-1353405D01*
G01X7361948Y-1360723D01*
G01X7352925Y-1368925D01*
G01X7344723Y-1377949D01*
G01X7337405Y-1387728D01*
G01X7331036Y-1398200D01*
G01X7325682Y-1409299D01*
G01X7321405Y-1420962D01*
G01X7318270Y-1433123D01*
G01X7316343Y-1445719D01*
G01X7315686Y-1458686D01*
G01X7290286Y-1458686D01*
G01X7290484Y-1450843D01*
G01X7291072Y-1443102D01*
G01X7292041Y-1435475D01*
G01X7293382Y-1427970D01*
G01X7297137Y-1413364D01*
G01X7302261Y-1399362D01*
G01X7308678Y-1386040D01*
G01X7316311Y-1373474D01*
G01X7325084Y-1361742D01*
G01X7334920Y-1350920D01*
G01X7345742Y-1341084D01*
G01X7357474Y-1332311D01*
G01X7370039Y-1324678D01*
G01X7383362Y-1318261D01*
G01X7397364Y-1313137D01*
G01X7411970Y-1309382D01*
G01X7419475Y-1308042D01*
G01X7427102Y-1307072D01*
G01X7434842Y-1306484D01*
G01X7442686Y-1306286D01*
G01X7450529Y-1306484D01*
G01X7458269Y-1307072D01*
G01X7465896Y-1308042D01*
G01X7473402Y-1309382D01*
G01X7488007Y-1313137D01*
G01X7502010Y-1318261D01*
G01X7515332Y-1324678D01*
G01X7527897Y-1332311D01*
G01X7539629Y-1341084D01*
G01X7550451Y-1350920D01*
G01X7560287Y-1361742D01*
G01X7569060Y-1373474D01*
G01X7576693Y-1386040D01*
G01X7583110Y-1399362D01*
G01X7588235Y-1413364D01*
G01X7591990Y-1427970D01*
G01X7593330Y-1435475D01*
G01X7594299Y-1443102D01*
G01X7594887Y-1450843D01*
G01X7595086Y-1458686D01*
G01X7594887Y-1466529D01*
G01X7594299Y-1474269D01*
G01X7593330Y-1481896D01*
G01X7591990Y-1489402D01*
G01X7588235Y-1504008D01*
G01X7583110Y-1518010D01*
G01X7576693Y-1531332D01*
G01X7569060Y-1543897D01*
G01X7560287Y-1555629D01*
G01X7550451Y-1566452D01*
G01X7539629Y-1576287D01*
G01X7527897Y-1585060D01*
G01X7515332Y-1592693D01*
G01X7502010Y-1599110D01*
G01X7488007Y-1604235D01*
G01X7473402Y-1607990D01*
G01X7465896Y-1609330D01*
G01X7458269Y-1610299D01*
G37*
G36*
G01X7595086Y-3850237D02*
G01X7511977Y-3850237D01*
G01X7511977Y-3933371D01*
G01X7373420Y-3933371D01*
G01X7373420Y-3850263D01*
G01X7290286Y-3850263D01*
G01X7290286Y-3737106D01*
G01X7315686Y-3737106D01*
G01X7315686Y-3824837D01*
G01X7398820Y-3824837D01*
G01X7398820Y-3907971D01*
G01X7398820Y-3907971D01*
G01X7486551Y-3907971D01*
G01X7486551Y-3824863D01*
G01X7569686Y-3824863D01*
G01X7569686Y-3737106D01*
G01X7486551Y-3737106D01*
G01X7486551Y-3653971D01*
G01X7398820Y-3653971D01*
G01X7398820Y-3737106D01*
G01X7315686Y-3737106D01*
G01X7290286Y-3737106D01*
G01X7290286Y-3711706D01*
G01X7373420Y-3711706D01*
G01X7373420Y-3628571D01*
G01X7511951Y-3628571D01*
G01X7511951Y-3711706D01*
G01X7595086Y-3711706D01*
G01X7595086Y-3850237D01*
G37*
G36*
G01X7595086Y-3048000D02*
G01X7525058Y-3200400D01*
G01X7595086Y-3352800D01*
G01X7442686Y-3282772D01*
G01X7290286Y-3352800D01*
G01X7314048Y-3301086D01*
G01X7342000Y-3301086D01*
G01X7432068Y-3259684D01*
G01X7442686Y-3254807D01*
G01X7453303Y-3259684D01*
G01X7543371Y-3301086D01*
G01X7501969Y-3211017D01*
G01X7497092Y-3200400D01*
G01X7501969Y-3189783D01*
G01X7543371Y-3099714D01*
G01X7453303Y-3141116D01*
G01X7442686Y-3145993D01*
G01X7432068Y-3141116D01*
G01X7342000Y-3099714D01*
G01X7383402Y-3189783D01*
G01X7388279Y-3200400D01*
G01X7388279Y-3200400D01*
G01X7383402Y-3211017D01*
G01X7342000Y-3301086D01*
G01X7314048Y-3301086D01*
G01X7360313Y-3200400D01*
G01X7290286Y-3048000D01*
G01X7442686Y-3118028D01*
G01X7595086Y-3048000D01*
G37*
G36*
G01X7290286Y-1886857D02*
G01X7595086Y-1886857D01*
G01X7442686Y-2150814D01*
G01X7304951Y-1912257D01*
G01X7334278Y-1912257D01*
G01X7442686Y-2100014D01*
G01X7551093Y-1912257D01*
G01X7551093Y-1912257D01*
G01X7334278Y-1912257D01*
G01X7304951Y-1912257D01*
G01X7290286Y-1886857D01*
G37*
G36*
G01X7569686Y-4488543D02*
G01X7468086Y-4488543D01*
G01X7429986Y-4412343D01*
G01X7391886Y-4488543D01*
G01X7290286Y-4488543D01*
G01X7290286Y-4463143D01*
G01X7315686Y-4463143D01*
G01X7376188Y-4463143D01*
G01X7407253Y-4400989D01*
G01X7429986Y-4355548D01*
G01X7452719Y-4400989D01*
G01X7483783Y-4463143D01*
G01X7544286Y-4463143D01*
G01X7544286Y-4402640D01*
G01X7482132Y-4371550D01*
G01X7436691Y-4348843D01*
G01X7482132Y-4326135D01*
G01X7544286Y-4295046D01*
G01X7544286Y-4234543D01*
G01X7483783Y-4234543D01*
G01X7452719Y-4296697D01*
G01X7429986Y-4342137D01*
G01X7407253Y-4296697D01*
G01X7376188Y-4234543D01*
G01X7315686Y-4234543D01*
G01X7315686Y-4295046D01*
G01X7377839Y-4326135D01*
G01X7423280Y-4348843D01*
G01X7377839Y-4371550D01*
G01X7315686Y-4402640D01*
G01X7315686Y-4463143D01*
G01X7315686Y-4463143D01*
G01X7290286Y-4463143D01*
G01X7290286Y-4386943D01*
G01X7366486Y-4348843D01*
G01X7290286Y-4310743D01*
G01X7290286Y-4209143D01*
G01X7391886Y-4209143D01*
G01X7429986Y-4285343D01*
G01X7468086Y-4209143D01*
G01X7569686Y-4209143D01*
G01X7569686Y-4310743D01*
G01X7493486Y-4348843D01*
G01X7569686Y-4386943D01*
G01X7569686Y-4488543D01*
G37*
G36*
G01X7290286Y-725714D02*
G01X7569686Y-725714D01*
G01X7569686Y-1005114D01*
G01X7290286Y-1005114D01*
G01X7290286Y-751114D01*
G01X7315686Y-751114D01*
G01X7315686Y-979714D01*
G01X7544286Y-979714D01*
G01X7544286Y-751114D01*
G01X7544286Y-751114D01*
G01X7315686Y-751114D01*
G01X7290286Y-751114D01*
G01X7290286Y-725714D01*
G37*

G04 PolygonModel Start*
G54D18*
G01X7000000Y-4644571D02*
G01X23795314Y-4644571D01*
G01X7000000Y-4064000D02*
G01X23795314Y-4064000D01*
G01X7000000Y-3483429D02*
G01X23795314Y-3483429D01*
G01X7000000Y-2902857D02*
G01X23795314Y-2902857D01*
G01X7000000Y-2322286D02*
G01X23795314Y-2322286D01*
G01X7000000Y-1741714D02*
G01X23795314Y-1741714D01*
G01X7000000Y-1161143D02*
G01X23795314Y-1161143D01*
G01X7000000Y-580571D02*
G01X23795314Y-580571D01*
G01X7000000Y0D02*
G01X23795314Y0D01*
G01X7000000Y0D02*
G01X7000000Y-4619171D01*
G01X8451428Y0D02*
G01X8451428Y-4619171D01*
G01X9865592Y0D02*
G01X9865592Y-4619171D01*
G01X13836011Y0D02*
G01X13836011Y-4619171D01*
G01X15297418Y0D02*
G01X15297418Y-4619171D01*
G01X16728599Y0D02*
G01X16728599Y-4619171D01*
G01X18397778Y0D02*
G01X18397778Y-4619171D01*
G01X20317147Y0D02*
G01X20317147Y-4619171D01*
G01X23795314Y0D02*
G01X23795314Y-4619171D01*

M02*

